<svg id="chart-11-1" width="766" height="312" xmlns="http://www.w3.org/2000/svg" xmlns:xlink="http://www.w3.org/1999/xlink"><g id="main-chart-11-1" transform="translate(0, 5)"><g name="chart" transform="translate(39, 0)"><g name="grid-bottom"><path d="M 9.730758713531477, 0 V 277" style="stroke: rgb(245, 245, 245); shape-rendering: crispedges;"/><path d="M 34.85099469827923, 0 V 277" style="stroke: rgb(245, 245, 245); shape-rendering: crispedges;"/><path d="M 59.97123068302699, 0 V 277" style="stroke: rgb(245, 245, 245); shape-rendering: crispedges;"/><path d="M 85.09146666777474, 0 V 277" style="stroke: rgb(245, 245, 245); shape-rendering: crispedges;"/><path d="M 110.21170265252249, 0 V 277" style="stroke: rgb(245, 245, 245); shape-rendering: crispedges;"/><path d="M 135.33193863727024, 0 V 277" style="stroke: rgb(245, 245, 245); shape-rendering: crispedges;"/><path d="M 160.45217462201796, 0 V 277" style="stroke: rgb(245, 245, 245); shape-rendering: crispedges;"/><path d="M 185.57241060676574, 0 V 277" style="stroke: rgb(245, 245, 245); shape-rendering: crispedges;"/><path d="M 210.69264659151347, 0 V 277" style="stroke: rgb(245, 245, 245); shape-rendering: crispedges;"/><path d="M 235.81288257626125, 0 V 277" style="stroke: rgb(245, 245, 245); shape-rendering: crispedges;"/><path d="M 260.933118561009, 0 V 277" style="stroke: rgb(245, 245, 245); shape-rendering: crispedges;"/><path d="M 286.05335454575675, 0 V 277" style="stroke: rgb(245, 245, 245); shape-rendering: crispedges;"/><path d="M 311.1735905305045, 0 V 277" style="stroke: rgb(245, 245, 245); shape-rendering: crispedges;"/><path d="M 336.29382651525225, 0 V 277" style="stroke: rgb(245, 245, 245); shape-rendering: crispedges;"/><path d="M 361.4140625, 0 V 277" style="stroke: rgb(245, 245, 245); shape-rendering: crispedges;"/><path d="M 386.53429848474775, 0 V 277" style="stroke: rgb(245, 245, 245); shape-rendering: crispedges;"/><path d="M 411.65453446949556, 0 V 277" style="stroke: rgb(245, 245, 245); shape-rendering: crispedges;"/><path d="M 436.77477045424325, 0 V 277" style="stroke: rgb(245, 245, 245); shape-rendering: crispedges;"/><path d="M 461.895006438991, 0 V 277" style="stroke: rgb(245, 245, 245); shape-rendering: crispedges;"/><path d="M 487.0152424237388, 0 V 277" style="stroke: rgb(245, 245, 245); shape-rendering: crispedges;"/><path d="M 512.1354784084865, 0 V 277" style="stroke: rgb(245, 245, 245); shape-rendering: crispedges;"/><path d="M 537.2557143932343, 0 V 277" style="stroke: rgb(245, 245, 245); shape-rendering: crispedges;"/><path d="M 562.375950377982, 0 V 277" style="stroke: rgb(245, 245, 245); shape-rendering: crispedges;"/><path d="M 587.4961863627299, 0 V 277" style="stroke: rgb(245, 245, 245); shape-rendering: crispedges;"/><path d="M 612.6164223474776, 0 V 277" style="stroke: rgb(245, 245, 245); shape-rendering: crispedges;"/><path d="M 637.7366583322253, 0 V 277" style="stroke: rgb(245, 245, 245); shape-rendering: crispedges;"/><path d="M 662.856894316973, 0 V 277" style="stroke: rgb(245, 245, 245); shape-rendering: crispedges;"/><path d="M 687.9771303017209, 0 V 277" style="stroke: rgb(245, 245, 245); shape-rendering: crispedges;"/><path d="M 713.0973662864686, 0 V 277" style="stroke: rgb(245, 245, 245); shape-rendering: crispedges;"/></g><g name="grid-left"><path d="M 0, 260.0236593059937 H 723" style="stroke: rgb(245, 245, 245); shape-rendering: crispedges;"/><path d="M 0, 199.51182965299685 H 723" style="stroke: rgb(245, 245, 245); shape-rendering: crispedges;"/><path d="M 0, 139 H 723" style="stroke: rgb(245, 245, 245); shape-rendering: crispedges;"/><path d="M 0, 78.48817034700313 H 723" style="stroke: rgb(245, 245, 245); shape-rendering: crispedges;"/><path d="M 0, 17.976340694006293 H 723" style="stroke: rgb(245, 245, 245); shape-rendering: crispedges;"/></g><g name="fill-area" id="chart-11-1-fill-area-1"><path d="M22.291,126.64C22.291,126.64,30.83,128.426,34.851,127.366C39.234,126.21,43.476,118.649,47.411,119.257C51.929,119.955,59.971,134.446,59.971,134.446L59.971,138.5C59.971,138.5,51.598,138.5,47.411,138.5C43.224,138.5,39.038,138.5,34.851,138.5C30.664,138.5,22.291,138.5,22.291,138.5Z" id="chart-11-1-fill-area-1" fill-color="#7ac1a9" style="fill: rgb(122, 193, 169); stroke: rgb(77, 163, 134); stroke-width: 0; shape-rendering: geometricprecision; cursor: pointer;" class=""/><path d="M97.652,215.774C97.652,215.774,106.026,215.431,110.212,215.471C114.399,215.511,119.184,213.543,122.772,216.016C128.469,219.941,129.686,242.218,135.332,245.122C138.927,246.97,144.109,244.845,147.892,242.399C152.743,239.262,155.563,227.759,160.452,225.395C164.222,223.572,169.215,227.572,173.012,225.819C177.824,223.596,181.861,209.402,185.572,210.025C190.648,210.877,192.079,240.096,198.133,245.606C201.679,248.834,206.496,247.793,210.693,248.753C214.87,249.708,219.702,253.335,223.253,251.355C229.263,248.001,230.01,219.165,235.813,216.802C239.387,215.348,244.926,224.693,248.373,222.853C256.895,218.306,260.382,138.5,260.382,138.5L260.382,138.5C260.382,138.5,252.421,138.5,248.373,138.5C244.233,138.5,240,138.5,235.813,138.5C231.626,138.5,227.439,138.5,223.253,138.5C219.066,138.5,214.879,138.5,210.693,138.5C206.506,138.5,202.319,138.5,198.133,138.5C193.946,138.5,189.759,138.5,185.572,138.5C181.386,138.5,177.199,138.5,173.012,138.5C168.826,138.5,164.639,138.5,160.452,138.5C156.265,138.5,152.079,138.5,147.892,138.5C143.705,138.5,139.519,138.5,135.332,138.5C131.145,138.5,126.959,138.5,122.772,138.5C118.585,138.5,114.398,138.5,110.212,138.5C106.025,138.5,97.652,138.5,97.652,138.5Z" id="chart-11-1-fill-area-3" fill-color="#97ed97" style="fill: rgb(151, 237, 151); stroke: rgb(118, 223, 118); stroke-width: 0; shape-rendering: geometricprecision; cursor: pointer;" class=""/><path d="M260.382,138.5C260.382,138.5,260.55,136.645,260.933,134.627C262.359,127.12,268.167,95.456,273.493,81.921C277.144,72.643,282.466,59.197,286.053,59.774C291.754,60.692,290.954,114.189,298.613,122.827C302.086,126.744,307.191,127.716,311.174,126.942C315.614,126.079,319.89,120.884,323.734,116.353C328.434,110.811,331.229,97.134,336.294,95.234C340.008,93.841,345.084,96.522,348.854,99.349C353.742,103.014,356.46,115.553,361.414,117.684C365.162,119.296,370.051,114.509,373.974,115.687C378.514,117.051,382.018,124.769,386.534,127.184C390.471,129.289,394.985,130.707,399.094,130.27C403.365,129.816,408.778,122.943,411.655,124.159C414.646,125.423,416.38,138.5,416.38,138.5L416.38,138.5C416.38,138.5,413.607,138.5,411.655,138.5C408.471,138.5,403.281,138.5,399.094,138.5C394.908,138.5,390.721,138.5,386.534,138.5C382.348,138.5,378.161,138.5,373.974,138.5C369.787,138.5,365.601,138.5,361.414,138.5C357.227,138.5,353.041,138.5,348.854,138.5C344.667,138.5,340.481,138.5,336.294,138.5C332.107,138.5,327.92,138.5,323.734,138.5C319.547,138.5,315.36,138.5,311.174,138.5C306.987,138.5,302.8,138.5,298.613,138.5C294.427,138.5,290.24,138.5,286.053,138.5C281.867,138.5,277.68,138.5,273.493,138.5C269.307,138.5,262.384,138.5,260.933,138.5C260.629,138.5,260.382,138.5,260.382,138.5Z" id="chart-11-1-fill-area-4" fill-color="#7ac1a9" style="fill: rgb(122, 193, 169); stroke: rgb(77, 163, 134); stroke-width: 0; shape-rendering: geometricprecision; cursor: pointer;"/><path d="M416.38,138.5C416.38,138.5,420.398,155.759,424.215,162.281C427.505,167.904,432.526,175.899,436.775,176.017C440.903,176.133,444.941,167.131,449.335,163.733C453.349,160.63,457.663,156.334,461.895,156.169C466.038,156.009,470.219,162.24,474.455,162.463C478.595,162.68,483.763,160.913,487.015,157.743C491.061,153.799,494.816,138.5,494.816,138.5L494.816,138.5C494.816,138.5,489.924,138.5,487.015,138.5C483.325,138.5,478.642,138.5,474.455,138.5C470.268,138.5,466.082,138.5,461.895,138.5C457.708,138.5,453.522,138.5,449.335,138.5C445.148,138.5,440.961,138.5,436.775,138.5C432.588,138.5,427.91,138.5,424.215,138.5C421.296,138.5,416.38,138.5,416.38,138.5Z" id="chart-11-1-fill-area-5" fill-color="#97ed97" style="fill: rgb(151, 237, 151); stroke: rgb(118, 223, 118); stroke-width: 0; shape-rendering: geometricprecision; cursor: pointer;"/><path d="M494.816,138.5L499.575,126.761L499.575,138.5L494.816,138.5Z" id="chart-11-1-fill-area-6" fill-color="#7ac1a9" style="fill: rgb(122, 193, 169); stroke: rgb(77, 163, 134); stroke-width: 0; shape-rendering: geometricprecision; cursor: pointer;"/><path d="M537.256,183.642C537.256,183.642,546.224,170.202,549.816,171.116C555.481,172.557,558.511,213.589,562.376,213.414C567.029,213.202,568.137,162.664,574.936,150.723C578.432,144.583,582.964,140.784,587.496,139.408C591.423,138.215,595.881,140.489,600.056,141.223C604.254,141.961,610.269,145.059,612.616,143.825C614.192,142.997,614.858,138.5,614.858,138.5L614.858,138.5C614.858,138.5,613.667,138.5,612.616,138.5C610.129,138.5,604.243,138.5,600.056,138.5C595.87,138.5,591.683,138.5,587.496,138.5C583.309,138.5,579.123,138.5,574.936,138.5C570.749,138.5,566.563,138.5,562.376,138.5C558.189,138.5,554.003,138.5,549.816,138.5C545.629,138.5,537.256,138.5,537.256,138.5Z" id="chart-11-1-fill-area-8" fill-color="#97ed97" style="fill: rgb(151, 237, 151); stroke: rgb(118, 223, 118); stroke-width: 0; shape-rendering: geometricprecision; cursor: pointer;"/><path d="M614.858,138.5C614.858,138.5,621.099,114.452,625.177,113.993C628.846,113.579,635.457,126.797,637.737,131.481C639.065,134.21,639.78,138.5,639.78,138.5L639.78,138.5C639.78,138.5,638.707,138.5,637.737,138.5C635.33,138.5,629.158,138.5,625.177,138.5C621.568,138.5,614.858,138.5,614.858,138.5Z" id="chart-11-1-fill-area-9" fill-color="#7ac1a9" style="fill: rgb(122, 193, 169); stroke: rgb(77, 163, 134); stroke-width: 0; shape-rendering: geometricprecision; cursor: pointer;"/><path d="M639.78,138.5C639.78,138.5,644.44,170.756,650.297,174.626C653.693,176.869,659.321,175.933,662.857,173.113C668.885,168.305,675.265,138.5,675.265,138.5L675.265,138.5C675.265,138.5,667.006,138.5,662.857,138.5C658.683,138.5,654.298,138.5,650.297,138.5C646.636,138.5,639.78,138.5,639.78,138.5Z" id="chart-11-1-fill-area-10" fill-color="#97ed97" style="fill: rgb(151, 237, 151); stroke: rgb(118, 223, 118); stroke-width: 0; shape-rendering: geometricprecision; cursor: pointer;"/><path d="M675.265,138.5C675.265,138.5,675.344,138.343,675.417,138.076C676.306,134.811,680.01,77.226,687.977,71.816C691.447,69.46,697.333,70.743,700.537,74.236C707.74,82.088,707.26,138.5,707.26,138.5L707.26,138.5C707.26,138.5,703.126,138.5,700.537,138.5C696.999,138.5,692.164,138.5,687.977,138.5C683.79,138.5,676.246,138.5,675.417,138.5C675.326,138.5,675.265,138.5,675.265,138.5Z" id="chart-11-1-fill-area-11" fill-color="#7ac1a9" style="fill: rgb(122, 193, 169); stroke: rgb(77, 163, 134); stroke-width: 0; shape-rendering: geometricprecision; cursor: pointer;"/><path d="M707.26,138.5L713.097,194.292L713.097,138.5L707.26,138.5Z" id="chart-11-1-fill-area-12" fill-color="#97ed97" style="fill: rgb(151, 237, 151); stroke: rgb(118, 223, 118); stroke-width: 0; shape-rendering: geometricprecision; cursor: pointer;"/></g></g><g name="axis-bottom" transform="translate(39, 280)"><g name="ticks" id="bottom-axis-chart-11-1" fill="none" font-size="10" font-family="sans-serif" text-anchor="middle"><path class="domain" stroke="currentColor" d="M0.5,5V0.5H723.328125V5" style="stroke: rgb(214, 219, 224); stroke-width: 1; shape-rendering: crispedges;"/><g class="tick" opacity="1" transform="translate(10.230758713531477,0)"><line stroke="currentColor" y2="4" style="stroke: rgb(214, 219, 224); stroke-width: 1; shape-rendering: crispedges;"/><text fill="currentColor" y="7" dy="8" font-family="Nunito" dx="0" style="fill: rgb(90, 97, 106); font-size: 10px; font-variation-settings: &quot;wght&quot; 600; text-anchor: middle; dominant-baseline: hanging;">2</text></g><g class="tick" opacity="1" transform="translate(35.35099469827923,0)"><line stroke="currentColor" y2="4" style="stroke: rgb(214, 219, 224); stroke-width: 1; shape-rendering: crispedges;"/><text fill="currentColor" y="7" dy="8" font-family="Nunito" dx="0" style="fill: rgb(90, 97, 106); font-size: 10px; font-variation-settings: &quot;wght&quot; 600; text-anchor: middle; dominant-baseline: hanging;">4</text></g><g class="tick" opacity="1" transform="translate(60.47123068302699,0)"><line stroke="currentColor" y2="4" style="stroke: rgb(214, 219, 224); stroke-width: 1; shape-rendering: crispedges;"/><text fill="currentColor" y="7" dy="8" font-family="Nunito" dx="0" style="fill: rgb(90, 97, 106); font-size: 10px; font-variation-settings: &quot;wght&quot; 600; text-anchor: middle; dominant-baseline: hanging;">6</text></g><g class="tick" opacity="1" transform="translate(85.59146666777474,0)"><line stroke="currentColor" y2="4" style="stroke: rgb(214, 219, 224); stroke-width: 1; shape-rendering: crispedges;"/><text fill="currentColor" y="7" dy="8" font-family="Nunito" dx="0" style="fill: rgb(90, 97, 106); font-size: 10px; font-variation-settings: &quot;wght&quot; 600; text-anchor: middle; dominant-baseline: hanging;">8</text></g><g class="tick" opacity="1" transform="translate(110.71170265252249,0)"><line stroke="currentColor" y2="4" style="stroke: rgb(214, 219, 224); stroke-width: 1; shape-rendering: crispedges;"/><text fill="currentColor" y="7" dy="8" font-family="Nunito" dx="0" style="fill: rgb(90, 97, 106); font-size: 10px; font-variation-settings: &quot;wght&quot; 600; text-anchor: middle; dominant-baseline: hanging;">10</text></g><g class="tick" opacity="1" transform="translate(135.83193863727024,0)"><line stroke="currentColor" y2="4" style="stroke: rgb(214, 219, 224); stroke-width: 1; shape-rendering: crispedges;"/><text fill="currentColor" y="7" dy="8" font-family="Nunito" dx="0" style="fill: rgb(90, 97, 106); font-size: 10px; font-variation-settings: &quot;wght&quot; 600; text-anchor: middle; dominant-baseline: hanging;">12</text></g><g class="tick" opacity="1" transform="translate(160.95217462201796,0)"><line stroke="currentColor" y2="4" style="stroke: rgb(214, 219, 224); stroke-width: 1; shape-rendering: crispedges;"/><text fill="currentColor" y="7" dy="8" font-family="Nunito" dx="0" style="fill: rgb(90, 97, 106); font-size: 10px; font-variation-settings: &quot;wght&quot; 600; text-anchor: middle; dominant-baseline: hanging;">14</text></g><g class="tick" opacity="1" transform="translate(186.07241060676574,0)"><line stroke="currentColor" y2="4" style="stroke: rgb(214, 219, 224); stroke-width: 1; shape-rendering: crispedges;"/><text fill="currentColor" y="7" dy="8" font-family="Nunito" dx="0" style="fill: rgb(90, 97, 106); font-size: 10px; font-variation-settings: &quot;wght&quot; 600; text-anchor: middle; dominant-baseline: hanging;">16</text></g><g class="tick" opacity="1" transform="translate(211.19264659151347,0)"><line stroke="currentColor" y2="4" style="stroke: rgb(214, 219, 224); stroke-width: 1; shape-rendering: crispedges;"/><text fill="currentColor" y="7" dy="8" font-family="Nunito" dx="0" style="fill: rgb(90, 97, 106); font-size: 10px; font-variation-settings: &quot;wght&quot; 600; text-anchor: middle; dominant-baseline: hanging;">18</text></g><g class="tick" opacity="1" transform="translate(236.31288257626125,0)"><line stroke="currentColor" y2="4" style="stroke: rgb(214, 219, 224); stroke-width: 1; shape-rendering: crispedges;"/><text fill="currentColor" y="7" dy="8" font-family="Nunito" dx="0" style="fill: rgb(90, 97, 106); font-size: 10px; font-variation-settings: &quot;wght&quot; 600; text-anchor: middle; dominant-baseline: hanging;">20</text></g><g class="tick" opacity="1" transform="translate(261.433118561009,0)"><line stroke="currentColor" y2="4" style="stroke: rgb(214, 219, 224); stroke-width: 1; shape-rendering: crispedges;"/><text fill="currentColor" y="7" dy="8" font-family="Nunito" dx="0" style="fill: rgb(90, 97, 106); font-size: 10px; font-variation-settings: &quot;wght&quot; 600; text-anchor: middle; dominant-baseline: hanging;">22</text></g><g class="tick" opacity="1" transform="translate(286.55335454575675,0)"><line stroke="currentColor" y2="4" style="stroke: rgb(214, 219, 224); stroke-width: 1; shape-rendering: crispedges;"/><text fill="currentColor" y="7" dy="8" font-family="Nunito" dx="0" style="fill: rgb(90, 97, 106); font-size: 10px; font-variation-settings: &quot;wght&quot; 600; text-anchor: middle; dominant-baseline: hanging;">24</text></g><g class="tick" opacity="1" transform="translate(311.6735905305045,0)"><line stroke="currentColor" y2="4" style="stroke: rgb(214, 219, 224); stroke-width: 1; shape-rendering: crispedges;"/><text fill="currentColor" y="7" dy="8" font-family="Nunito" dx="0" style="fill: rgb(90, 97, 106); font-size: 10px; font-variation-settings: &quot;wght&quot; 600; text-anchor: middle; dominant-baseline: hanging;">26</text></g><g class="tick" opacity="1" transform="translate(336.79382651525225,0)"><line stroke="currentColor" y2="4" style="stroke: rgb(214, 219, 224); stroke-width: 1; shape-rendering: crispedges;"/><text fill="currentColor" y="7" dy="8" font-family="Nunito" dx="0" style="fill: rgb(90, 97, 106); font-size: 10px; font-variation-settings: &quot;wght&quot; 600; text-anchor: middle; dominant-baseline: hanging;">28</text></g><g class="tick" opacity="1" transform="translate(361.9140625,0)"><line stroke="currentColor" y2="4" style="stroke: rgb(214, 219, 224); stroke-width: 1; shape-rendering: crispedges;"/><text fill="currentColor" y="7" dy="8" font-family="Nunito" dx="0" style="fill: rgb(90, 97, 106); font-size: 10px; font-variation-settings: &quot;wght&quot; 600; text-anchor: middle; dominant-baseline: hanging;">30</text></g><g class="tick" opacity="1" transform="translate(387.03429848474775,0)"><line stroke="currentColor" y2="4" style="stroke: rgb(214, 219, 224); stroke-width: 1; shape-rendering: crispedges;"/><text fill="currentColor" y="7" dy="8" font-family="Nunito" dx="0" style="fill: rgb(90, 97, 106); font-size: 10px; font-variation-settings: &quot;wght&quot; 600; text-anchor: middle; dominant-baseline: hanging;">32</text></g><g class="tick" opacity="1" transform="translate(412.15453446949556,0)"><line stroke="currentColor" y2="4" style="stroke: rgb(214, 219, 224); stroke-width: 1; shape-rendering: crispedges;"/><text fill="currentColor" y="7" dy="8" font-family="Nunito" dx="0" style="fill: rgb(90, 97, 106); font-size: 10px; font-variation-settings: &quot;wght&quot; 600; text-anchor: middle; dominant-baseline: hanging;">34</text></g><g class="tick" opacity="1" transform="translate(437.27477045424325,0)"><line stroke="currentColor" y2="4" style="stroke: rgb(214, 219, 224); stroke-width: 1; shape-rendering: crispedges;"/><text fill="currentColor" y="7" dy="8" font-family="Nunito" dx="0" style="fill: rgb(90, 97, 106); font-size: 10px; font-variation-settings: &quot;wght&quot; 600; text-anchor: middle; dominant-baseline: hanging;">36</text></g><g class="tick" opacity="1" transform="translate(462.395006438991,0)"><line stroke="currentColor" y2="4" style="stroke: rgb(214, 219, 224); stroke-width: 1; shape-rendering: crispedges;"/><text fill="currentColor" y="7" dy="8" font-family="Nunito" dx="0" style="fill: rgb(90, 97, 106); font-size: 10px; font-variation-settings: &quot;wght&quot; 600; text-anchor: middle; dominant-baseline: hanging;">38</text></g><g class="tick" opacity="1" transform="translate(487.5152424237388,0)"><line stroke="currentColor" y2="4" style="stroke: rgb(214, 219, 224); stroke-width: 1; shape-rendering: crispedges;"/><text fill="currentColor" y="7" dy="8" font-family="Nunito" dx="0" style="fill: rgb(90, 97, 106); font-size: 10px; font-variation-settings: &quot;wght&quot; 600; text-anchor: middle; dominant-baseline: hanging;">40</text></g><g class="tick" opacity="1" transform="translate(512.6354784084865,0)"><line stroke="currentColor" y2="4" style="stroke: rgb(214, 219, 224); stroke-width: 1; shape-rendering: crispedges;"/><text fill="currentColor" y="7" dy="8" font-family="Nunito" dx="0" style="fill: rgb(90, 97, 106); font-size: 10px; font-variation-settings: &quot;wght&quot; 600; text-anchor: middle; dominant-baseline: hanging;">42</text></g><g class="tick" opacity="1" transform="translate(537.7557143932343,0)"><line stroke="currentColor" y2="4" style="stroke: rgb(214, 219, 224); stroke-width: 1; shape-rendering: crispedges;"/><text fill="currentColor" y="7" dy="8" font-family="Nunito" dx="0" style="fill: rgb(90, 97, 106); font-size: 10px; font-variation-settings: &quot;wght&quot; 600; text-anchor: middle; dominant-baseline: hanging;">44</text></g><g class="tick" opacity="1" transform="translate(562.875950377982,0)"><line stroke="currentColor" y2="4" style="stroke: rgb(214, 219, 224); stroke-width: 1; shape-rendering: crispedges;"/><text fill="currentColor" y="7" dy="8" font-family="Nunito" dx="0" style="fill: rgb(90, 97, 106); font-size: 10px; font-variation-settings: &quot;wght&quot; 600; text-anchor: middle; dominant-baseline: hanging;">46</text></g><g class="tick" opacity="1" transform="translate(587.9961863627299,0)"><line stroke="currentColor" y2="4" style="stroke: rgb(214, 219, 224); stroke-width: 1; shape-rendering: crispedges;"/><text fill="currentColor" y="7" dy="8" font-family="Nunito" dx="0" style="fill: rgb(90, 97, 106); font-size: 10px; font-variation-settings: &quot;wght&quot; 600; text-anchor: middle; dominant-baseline: hanging;">48</text></g><g class="tick" opacity="1" transform="translate(613.1164223474776,0)"><line stroke="currentColor" y2="4" style="stroke: rgb(214, 219, 224); stroke-width: 1; shape-rendering: crispedges;"/><text fill="currentColor" y="7" dy="8" font-family="Nunito" dx="0" style="fill: rgb(90, 97, 106); font-size: 10px; font-variation-settings: &quot;wght&quot; 600; text-anchor: middle; dominant-baseline: hanging;">50</text></g><g class="tick" opacity="1" transform="translate(638.2366583322253,0)"><line stroke="currentColor" y2="4" style="stroke: rgb(214, 219, 224); stroke-width: 1; shape-rendering: crispedges;"/><text fill="currentColor" y="7" dy="8" font-family="Nunito" dx="0" style="fill: rgb(90, 97, 106); font-size: 10px; font-variation-settings: &quot;wght&quot; 600; text-anchor: middle; dominant-baseline: hanging;">52</text></g><g class="tick" opacity="1" transform="translate(663.356894316973,0)"><line stroke="currentColor" y2="4" style="stroke: rgb(214, 219, 224); stroke-width: 1; shape-rendering: crispedges;"/><text fill="currentColor" y="7" dy="8" font-family="Nunito" dx="0" style="fill: rgb(90, 97, 106); font-size: 10px; font-variation-settings: &quot;wght&quot; 600; text-anchor: middle; dominant-baseline: hanging;">54</text></g><g class="tick" opacity="1" transform="translate(688.4771303017209,0)"><line stroke="currentColor" y2="4" style="stroke: rgb(214, 219, 224); stroke-width: 1; shape-rendering: crispedges;"/><text fill="currentColor" y="7" dy="8" font-family="Nunito" dx="0" style="fill: rgb(90, 97, 106); font-size: 10px; font-variation-settings: &quot;wght&quot; 600; text-anchor: middle; dominant-baseline: hanging;">56</text></g><g class="tick" opacity="1" transform="translate(713.5973662864686,0)"><line stroke="currentColor" y2="4" style="stroke: rgb(214, 219, 224); stroke-width: 1; shape-rendering: crispedges;"/><text fill="currentColor" y="7" dy="8" font-family="Nunito" dx="0" style="fill: rgb(90, 97, 106); font-size: 10px; font-variation-settings: &quot;wght&quot; 600; text-anchor: middle; dominant-baseline: hanging;">58</text></g></g></g><g name="axis-left" transform="translate(36, 0)"><g name="ticks" id="left-axis-chart-11-1" fill="none" font-size="10" font-family="sans-serif" text-anchor="end"><path class="domain" stroke="currentColor" d="M-5,277.5H0.5V0.5H-5" style="stroke: rgb(214, 219, 224); stroke-width: 1; shape-rendering: crispedges;"/><g class="tick" opacity="1" transform="translate(0,260.0236593059937)"><line stroke="currentColor" x2="-4" style="stroke: rgb(214, 219, 224); stroke-width: 1; shape-rendering: crispedges;"/><text fill="currentColor" x="-7" dy="4" font-family="Nunito" dx="-3" style="fill: rgb(90, 97, 106); font-size: 10px; font-variation-settings: &quot;wght&quot; 600; text-anchor: end; dominant-baseline: auto;">-2.00</text></g><g class="tick" opacity="1" transform="translate(0,199.51182965299685)"><line stroke="currentColor" x2="-4" style="stroke: rgb(214, 219, 224); stroke-width: 1; shape-rendering: crispedges;"/><text fill="currentColor" x="-7" dy="4" font-family="Nunito" dx="-3" style="fill: rgb(90, 97, 106); font-size: 10px; font-variation-settings: &quot;wght&quot; 600; text-anchor: end; dominant-baseline: auto;">-1.00</text></g><g class="tick" opacity="1" transform="translate(0,139)"><line stroke="currentColor" x2="-4" style="stroke: rgb(214, 219, 224); stroke-width: 1; shape-rendering: crispedges;"/><text fill="currentColor" x="-7" dy="4" font-family="Nunito" dx="-3" style="fill: rgb(90, 97, 106); font-size: 10px; font-variation-settings: &quot;wght&quot; 600; text-anchor: end; dominant-baseline: auto;">0.00</text></g><g class="tick" opacity="1" transform="translate(0,78.48817034700313)"><line stroke="currentColor" x2="-4" style="stroke: rgb(214, 219, 224); stroke-width: 1; shape-rendering: crispedges;"/><text fill="currentColor" x="-7" dy="4" font-family="Nunito" dx="-3" style="fill: rgb(90, 97, 106); font-size: 10px; font-variation-settings: &quot;wght&quot; 600; text-anchor: end; dominant-baseline: auto;">1.00</text></g><g class="tick" opacity="1" transform="translate(0,17.976340694006293)"><line stroke="currentColor" x2="-4" style="stroke: rgb(214, 219, 224); stroke-width: 1; shape-rendering: crispedges;"/><text fill="currentColor" x="-7" dy="4" font-family="Nunito" dx="-3" style="fill: rgb(90, 97, 106); font-size: 10px; font-variation-settings: &quot;wght&quot; 600; text-anchor: end; dominant-baseline: auto;">2.00</text></g></g></g></g></svg>