<?xml version="1.0" encoding="UTF-8" standalone="no"?>
<svg
   height="15"
   viewBox="0 -960 600 600"
   width="15"
   fill="#5f6368"
   version="1.1"
   id="svg1"
   sodipodi:docname="clear-colored.svg"
   inkscape:version="1.4 (e7c3feb1, 2024-10-09)"
   xmlns:inkscape="http://www.inkscape.org/namespaces/inkscape"
   xmlns:sodipodi="http://sodipodi.sourceforge.net/DTD/sodipodi-0.dtd"
   xmlns="http://www.w3.org/2000/svg"
   xmlns:svg="http://www.w3.org/2000/svg">
  <defs
     id="defs1" />
  <sodipodi:namedview
     id="namedview1"
     pagecolor="#ffffff"
     bordercolor="#000000"
     borderopacity="0.25"
     inkscape:showpageshadow="2"
     inkscape:pageopacity="0.0"
     inkscape:pagecheckerboard="0"
     inkscape:deskcolor="#d1d1d1"
     inkscape:zoom="9.8333333"
     inkscape:cx="11.033898"
     inkscape:cy="10.983051"
     inkscape:window-width="1312"
     inkscape:window-height="449"
     inkscape:window-x="0"
     inkscape:window-y="0"
     inkscape:window-maximized="0"
     inkscape:current-layer="svg1" />
  <path
     d="m 300,-578.18183 q 34.09091,0 57.95454,-23.86363 23.86364,-23.86363 23.86364,-57.95454 0,-34.09091 -23.86364,-57.95455 -23.86363,-23.86363 -57.95454,-23.86363 -34.09091,0 -57.95455,23.86363 -23.86362,23.86364 -23.86362,57.95455 0,34.09091 23.86362,57.95454 23.86364,23.86363 57.95455,23.86363 z m 0,54.54546 q -56.59091,0 -96.47727,-39.88636 -39.88637,-39.88636 -39.88637,-96.47727 0,-56.59091 39.88637,-96.47727 39.88636,-39.88637 96.47727,-39.88637 56.59091,0 96.47727,39.88637 39.88636,39.88636 39.88636,96.47727 0,56.59091 -39.88636,96.47727 Q 356.59091,-523.63637 300,-523.63637 Z M 27.272727,-632.72728 q -11.590909,0 -19.431818,-7.8409 Q 0,-648.40909 0,-660 q 0,-11.59091 7.840909,-19.43182 7.840909,-7.84091 19.431818,-7.84091 h 54.545454 q 11.590909,0 19.431819,7.84091 7.84091,7.84091 7.84091,19.43182 0,11.59091 -7.84091,19.43182 -7.84091,7.8409 -19.431819,7.8409 z m 490.909083,0 q -11.5909,0 -19.43181,-7.8409 -7.84091,-7.84091 -7.84091,-19.43182 0,-11.59091 7.84091,-19.43182 7.84091,-7.84091 19.43181,-7.84091 h 54.54546 q 11.5909,0 19.43182,7.84091 Q 600,-671.59091 600,-660 q 0,11.59091 -7.84091,19.43182 -7.84091,7.8409 -19.43182,7.8409 z M 300,-850.90909 q -11.59091,0 -19.43182,-7.84091 -7.84091,-7.84091 -7.84091,-19.43182 v -54.54545 q 0,-11.5909 7.84091,-19.43182 Q 288.40909,-960 300,-960 q 11.59091,0 19.43183,7.84091 7.84089,7.84091 7.84089,19.43182 v 54.54544 q 0,11.59092 -7.84089,19.43183 -7.84092,7.84091 -19.43183,7.84091 z M 300,-360 q -11.59091,0 -19.43182,-7.84091 -7.84091,-7.84091 -7.84091,-19.43182 v -54.54546 q 0,-11.5909 7.84091,-19.43181 7.84091,-7.84091 19.43182,-7.84091 11.59091,0 19.43183,7.84091 7.84089,7.84091 7.84089,19.43181 v 54.54546 q 0,11.59091 -7.84089,19.43182 Q 311.59091,-360 300,-360 Z M 126.81818,-795 97.499999,-823.63636 q -8.181818,-7.5 -7.840909,-19.09091 0.340909,-11.5909 7.840909,-19.77273 8.181821,-8.18183 19.772731,-8.18183 11.59091,0 19.09091,8.18183 L 165,-833.18183 q 7.5,8.18183 7.5,19.09092 0,10.90908 -7.5,19.09091 -7.5,8.18182 -18.75,7.84091 Q 135,-787.5 126.81818,-795 Z M 463.63636,-457.5 435,-486.81819 Q 427.5,-495 427.5,-506.25 q 0,-11.25 7.5,-18.75 7.5,-8.18183 18.75,-7.84091 Q 465,-532.5 473.18181,-525 L 502.5,-496.36364 q 8.18181,7.5 7.84091,19.09091 Q 510,-465.68182 502.5,-457.5 q -8.18182,8.18181 -19.77273,8.18181 -11.59091,0 -19.09091,-8.18181 z M 435,-795 q -8.18182,-7.5 -7.84091,-18.75 Q 427.5,-825 435,-833.18183 L 463.63636,-862.5 q 7.5,-8.18183 19.09091,-7.84091 Q 494.31818,-870 502.5,-862.5 q 8.18181,8.18183 8.18181,19.77273 0,11.59091 -8.18181,19.09091 L 473.18181,-795 q -8.18181,7.5 -19.0909,7.5 -10.9091,0 -19.09091,-7.5 z M 97.499999,-457.5 q -8.181818,-8.18182 -8.181818,-19.77273 0,-11.59091 8.181818,-19.09091 L 126.81818,-525 q 8.18182,-7.5 19.43182,-7.5 11.25,0 18.75,7.5 8.18183,7.5 7.84091,18.75 Q 172.5,-495 165,-486.81819 L 136.36364,-457.5 q -7.5,8.18181 -19.09091,7.84091 Q 105.68182,-450 97.499999,-457.5 Z M 300,-660 Z"
     id="path1"
     style="fill:#f0e628;fill-opacity:1;stroke:none;stroke-width:0.681818" />
</svg>
