<?xml version="1.0" encoding="UTF-8" standalone="no"?>
<svg
   height="11"
   viewBox="0 -960 599.99996 440.00001"
   width="14.999999"
   fill="#5f6368"
   version="1.1"
   id="svg1"
   sodipodi:docname="cloudy-colored.svg"
   inkscape:version="1.4 (e7c3feb1, 2024-10-09)"
   xmlns:inkscape="http://www.inkscape.org/namespaces/inkscape"
   xmlns:sodipodi="http://sodipodi.sourceforge.net/DTD/sodipodi-0.dtd"
   xmlns="http://www.w3.org/2000/svg"
   xmlns:svg="http://www.w3.org/2000/svg">
  <defs
     id="defs1" />
  <sodipodi:namedview
     id="namedview1"
     pagecolor="#ffffff"
     bordercolor="#000000"
     borderopacity="0.25"
     inkscape:showpageshadow="2"
     inkscape:pageopacity="0.0"
     inkscape:pagecheckerboard="0"
     inkscape:deskcolor="#d1d1d1"
     inkscape:zoom="9.8333333"
     inkscape:cx="10.169492"
     inkscape:cy="6.9661017"
     inkscape:window-width="1440"
     inkscape:window-height="900"
     inkscape:window-x="0"
     inkscape:window-y="0"
     inkscape:window-maximized="0"
     inkscape:current-layer="svg1" />
  <path
     d="m 152.4937,-524.98729 q -61.013973,0 -104.260148,-42.33063 -43.2461735,-42.33062 -43.2461735,-103.47484 0,-52.40935 31.5127155,-93.39615 31.512709,-40.98677 82.469446,-52.40932 16.76207,-61.81613 67.04832,-100.11526 50.28626,-38.29914 113.98217,-38.29914 78.44653,0 133.09093,54.76103 54.64439,54.76103 54.64439,133.37504 46.26333,5.37532 76.77034,39.97893 30.50699,34.60359 30.50699,80.96569 0,50.3936 -35.2004,85.66911 -35.20036,35.27554 -85.48659,35.27554 z m 0,-53.7532 h 321.83199 q 28.16027,0 47.60431,-19.48552 19.44401,-19.4855 19.44401,-47.70593 0,-28.22039 -19.44401,-47.70591 -19.44404,-19.48554 -47.60431,-19.48554 h -40.22901 v -53.75317 q 0,-55.7689 -39.22327,-95.07591 -39.22327,-39.30699 -94.87338,-39.30699 -55.65013,0 -94.87341,39.30699 -39.22326,39.30701 -39.22326,95.07591 H 152.4937 q -38.88804,0 -66.377843,27.5485 -27.489814,27.5485 -27.489814,66.51956 0,38.97104 27.489814,66.51953 27.489803,27.54848 66.377843,27.54848 z m 147.50633,-161.25947 z"
     id="path1"
     style="fill:#676b6f;fill-opacity:1;stroke:#676b6f;stroke-width:9.97467;stroke-dasharray:none;stroke-opacity:1" />
</svg>
