<?xml version="1.0" encoding="UTF-8" standalone="no"?>
<svg
   height="12"
   viewBox="0 -960 400 480"
   width="10"
   fill="#5f6368"
   version="1.1"
   id="svg1"
   sodipodi:docname="humidity.svg"
   inkscape:version="1.4 (e7c3feb1, 2024-10-09)"
   xmlns:inkscape="http://www.inkscape.org/namespaces/inkscape"
   xmlns:sodipodi="http://sodipodi.sourceforge.net/DTD/sodipodi-0.dtd"
   xmlns="http://www.w3.org/2000/svg"
   xmlns:svg="http://www.w3.org/2000/svg">
  <defs
     id="defs1" />
  <sodipodi:namedview
     id="namedview1"
     pagecolor="#ffffff"
     bordercolor="#000000"
     borderopacity="0.25"
     inkscape:showpageshadow="2"
     inkscape:pageopacity="0.0"
     inkscape:pagecheckerboard="0"
     inkscape:deskcolor="#d1d1d1"
     inkscape:zoom="11.379788"
     inkscape:cx="1.5378142"
     inkscape:cy="12.961577"
     inkscape:window-width="1440"
     inkscape:window-height="822"
     inkscape:window-x="0"
     inkscape:window-y="0"
     inkscape:window-maximized="0"
     inkscape:current-layer="svg1" />
  <path
     d="m 262.5,-578.46154 q 15.625,0 26.5625,-10.76923 Q 300,-600 300,-615.38462 q 0,-15.38462 -10.9375,-26.15385 -10.9375,-10.76924 -26.5625,-10.76924 -15.625,0 -26.5625,10.76924 Q 225,-630.76924 225,-615.38462 q 0,15.38462 10.9375,26.15385 10.9375,10.76923 26.5625,10.76923 z m -143.75,-18.46154 q 7.5,7.38462 17.5,7.38462 10,0 17.5,-7.38462 l 127.5,-125.53846 q 7.5,-7.38461 7.5,-17.23077 0,-9.84616 -7.5,-17.23077 -7.5,-7.38462 -17.8125,-7.38462 -10.3125,0 -17.8125,7.38462 L 118.75,-632.00001 q -7.5,7.38462 -7.5,17.53847 0,10.15384 7.5,17.53846 z m 18.75,-104.61539 q 15.625,0 26.5625,-10.76923 Q 175,-723.07693 175,-738.46153 q 0,-15.38464 -10.9375,-26.15386 -10.9375,-10.76922 -26.5625,-10.76922 -15.625,0 -26.5625,10.76922 Q 100,-753.84617 100,-738.46153 q 0,15.3846 10.9375,26.15383 10.9375,10.76923 26.5625,10.76923 z M 200,-480 Q 114.375,-480 57.1875,-537.84617 0,-595.69231 0,-681.84617 q 0,-38.15384 17.5,-76.30768 17.5,-38.15385 43.75,-73.23076 26.25,-35.07692 56.875,-65.84616 30.625,-30.76922 56.875,-53.53846 5,-4.92307 11.5625,-7.07693 Q 193.125,-960 200,-960 q 6.875,0 13.4375,2.15384 6.5625,2.15386 11.5625,7.07693 26.25,22.76924 56.875,53.53846 30.625,30.76924 56.875,65.84616 26.25,35.07691 43.75,73.23076 17.5,38.15384 17.5,76.30768 0,86.15386 -57.1875,144 Q 285.625,-480 200,-480 Z m 0,-49.23078 q 65,0 107.5,-43.38462 Q 350,-616 350,-681.84617 350,-726.76923 312.1875,-783.38462 274.375,-839.99999 200,-907.07692 125.625,-839.99999 87.8125,-783.38462 50,-726.76923 50,-681.84617 50,-616 92.5,-572.6154 135,-529.23078 200,-529.23078 Z m 0,-196.92307 z"
     id="path1"
     style="fill:#5f6469;fill-opacity:1;stroke-width:0.620174" />
</svg>
