<?xml version="1.0" encoding="UTF-8" standalone="no"?>
<svg
   height="13.59375"
   viewBox="0 -960 600 543.75"
   width="15"
   fill="#5f6368"
   version="1.1"
   id="svg1"
   sodipodi:docname="partly-cloudy-colored.svg"
   inkscape:version="1.4 (e7c3feb1, 2024-10-09)"
   xmlns:inkscape="http://www.inkscape.org/namespaces/inkscape"
   xmlns:sodipodi="http://sodipodi.sourceforge.net/DTD/sodipodi-0.dtd"
   xmlns="http://www.w3.org/2000/svg"
   xmlns:svg="http://www.w3.org/2000/svg">
  <defs
     id="defs1" />
  <sodipodi:namedview
     id="namedview1"
     pagecolor="#ffffff"
     bordercolor="#000000"
     borderopacity="0.25"
     inkscape:showpageshadow="2"
     inkscape:pageopacity="0.0"
     inkscape:pagecheckerboard="0"
     inkscape:deskcolor="#d1d1d1"
     inkscape:zoom="9.8333333"
     inkscape:cx="11.033898"
     inkscape:cy="11.033898"
     inkscape:window-width="1440"
     inkscape:window-height="822"
     inkscape:window-x="0"
     inkscape:window-y="0"
     inkscape:window-maximized="0"
     inkscape:current-layer="svg1" />
  <path
     d="M 300.68182,-660.9375 Z"
     id="path9"
     style="stroke-width:0.680753" />
  <path
     d="m 354.54546,-507.32812 q -3.4091,-13.59375 -6.81819,-26.50782 -3.40909,-12.91406 -6.81818,-26.50781 30.68182,-12.91406 49.43182,-40.10156 18.75,-27.1875 18.75,-60.49219 0,-44.85937 -32.04545,-76.80469 Q 345,-769.6875 300,-769.6875 q -40.90909,0 -71.59091,26.50781 -30.68182,26.50782 -36.13636,67.28907 -13.63637,-3.39844 -27.95455,-6.11719 -14.31818,-2.71875 -27.95454,-6.11719 9.54545,-59.8125 56.25,-97.875 46.70454,-38.0625 107.38636,-38.0625 68.18182,0 115.90909,47.57813 47.72727,47.57812 47.72727,115.54687 0,52.33594 -30,94.13672 -30,41.80079 -79.0909,59.47266 z"
     id="path8"
     style="fill:#f0e628;fill-opacity:1;stroke:none;stroke-width:0.680753" />
  <path
     d="m 136.36364,-416.25 q -56.590913,0 -96.477276,-39.76172 Q 0,-495.77344 0,-552.1875 q 0,-56.41406 39.886364,-96.17578 39.886363,-39.76172 96.477276,-39.76172 40.90909,0 74.65909,22.08984 33.75,22.08985 50.11363,59.47266 39.54546,0 66.47728,29.22657 26.93182,29.22656 26.93182,70.00781 -1.36364,38.74218 -28.97728,64.91015 -27.61364,26.16797 -66.47727,26.16797 z"
     id="path7"
     style="fill:#676b6f;fill-opacity:1;stroke:none;stroke-width:0.680753" />
  <path
     d="m 136.36364,-470.625 h 122.72727 q 17.04545,0 28.97727,-11.89453 Q 300,-494.41406 300,-511.40625 q 0,-16.99219 -11.59091,-28.88672 -11.59091,-11.89453 -28.63636,-11.89453 H 225 l -13.63635,-32.62499 q -9.54547,-22.42969 -30.00001,-35.6836 -20.45455,-13.25391 -45,-13.25391 -34.09091,0 -57.954549,23.78906 -23.863637,23.78907 -23.863637,57.77344 0,33.98438 23.863637,57.77344 23.863639,23.78906 57.954549,23.78906 z"
     id="path6"
     style="fill:#ffffff;fill-opacity:1;stroke:none;stroke-width:0.680753" />
  <path
     d="m 126.81818,-795.51562 -38.863634,-38.74219 q -7.5,-7.47656 -7.5,-19.03125 0,-11.55469 7.5,-19.03125 8.181813,-8.15625 19.431814,-8.15625 11.25,0 19.43182,8.15625 L 165,-833.57812 q 7.5,7.47656 7.5,19.03125 0,11.55468 -7.5,19.03124 -7.5,7.47657 -19.09091,7.47657 -11.59091,0 -19.09091,-7.47656 z"
     id="path5"
     style="fill:#f0e628;fill-opacity:1;stroke:none;stroke-width:0.680753" />
  <path
     d="M 473.18182,-449.55469 435,-488.29687 q -7.5,-7.47657 -7.5,-19.03126 0,-11.55468 7.5,-19.03124 7.5,-7.47657 19.09091,-7.47657 11.59091,0 19.09091,7.47657 l 38.86364,38.0625 q 8.18181,8.15625 8.18181,19.3711 0,11.21484 -8.18181,19.37108 -8.18182,8.15625 -19.43182,8.15625 -11.25,0 -19.43182,-8.15625 z"
     id="path4"
     style="fill:#f0e628;fill-opacity:1;stroke:none;stroke-width:0.680753" />
  <path
     d="m 518.18182,-633.75 q -11.59091,0 -19.43182,-7.81641 -7.84091,-7.8164 -7.84091,-19.37109 0,-11.55469 7.84091,-19.37109 7.84091,-7.81641 19.43182,-7.81641 h 54.54545 q 11.59091,0 19.43182,7.81641 7.84091,7.8164 7.84091,19.37109 0,11.55469 -7.84091,19.37109 -7.84091,7.81641 -19.43182,7.81641 z"
     id="path3"
     style="fill:#f0e628;fill-opacity:1;stroke:none;stroke-width:0.680753" />
  <path
     d="m 435,-795.51562 q -7.5,-7.47657 -7.5,-19.03125 0,-11.55469 7.5,-19.03125 l 38.18182,-38.74219 q 8.18182,-8.15625 19.43182,-8.15625 11.25,0 19.43182,8.15625 7.5,7.47656 7.5,19.03125 0,11.55469 -7.5,19.03125 l -38.86364,38.74219 q -7.5,7.47656 -19.09091,7.47656 -11.59091,0 -19.09091,-7.47656 z"
     id="path2"
     style="fill:#f0e628;fill-opacity:1;stroke:none;stroke-width:0.680753" />
  <path
     d="m 300,-851.25 q -11.59091,0 -19.43182,-7.81641 -7.84091,-7.8164 -7.84091,-19.37109 v -54.375 q 0,-11.55469 7.84091,-19.37109 Q 288.40909,-960 300,-960 q 11.59091,0 19.43182,7.81641 7.84091,7.8164 7.84091,19.37109 v 54.375 q 0,11.55469 -7.84091,19.37109 Q 311.59091,-851.25 300,-851.25 Z"
     id="path1"
     style="fill:#f0e628;fill-opacity:1;stroke:none;stroke-width:0.680753" />
</svg>
