<?xml version="1.0" encoding="UTF-8" standalone="no"?>
<svg
   height="13"
   viewBox="0 -960 520 519.99999"
   width="13"
   fill="#5f6368"
   version="1.1"
   id="svg1"
   sodipodi:docname="rain-light-colored.svg"
   inkscape:version="1.4 (e7c3feb1, 2024-10-09)"
   xmlns:inkscape="http://www.inkscape.org/namespaces/inkscape"
   xmlns:sodipodi="http://sodipodi.sourceforge.net/DTD/sodipodi-0.dtd"
   xmlns="http://www.w3.org/2000/svg"
   xmlns:svg="http://www.w3.org/2000/svg">
  <defs
     id="defs1" />
  <sodipodi:namedview
     id="namedview1"
     pagecolor="#ffffff"
     bordercolor="#000000"
     borderopacity="0.25"
     inkscape:showpageshadow="2"
     inkscape:pageopacity="0.0"
     inkscape:pagecheckerboard="0"
     inkscape:deskcolor="#d1d1d1"
     inkscape:zoom="9.8333333"
     inkscape:cx="10.372881"
     inkscape:cy="9.1525424"
     inkscape:window-width="1440"
     inkscape:window-height="823"
     inkscape:window-x="0"
     inkscape:window-y="0"
     inkscape:window-maximized="0"
     inkscape:current-layer="svg1" />
  <path
     d="m 309.83826,-447.40276 q -9.58427,5.10731 -19.48803,1.59604 -9.90377,-3.51128 -15.01538,-13.0875 L 236.99771,-535.504 q -5.1116,-9.5762 -1.59737,-19.47165 3.51423,-9.89541 13.09852,-15.00274 9.58429,-5.10731 19.48805,-1.59602 9.90375,3.51127 15.01536,13.0875 l 38.33713,76.60976 q 5.11162,9.57622 1.59739,19.47164 -3.51425,9.89543 -13.09853,15.00275 z m 153.34851,0 q -9.58429,5.10731 -19.48803,1.59604 -9.90376,-3.51128 -15.01538,-13.0875 L 390.34624,-535.504 q -5.11163,-9.5762 -1.59738,-19.47165 3.51424,-9.89541 13.0985,-15.00274 9.58429,-5.10731 19.48805,-1.59602 9.90375,3.51127 15.01538,13.0875 l 38.33712,76.60976 q 5.11162,9.57622 1.59739,19.47164 -3.51424,9.89543 -13.09853,15.00275 z m -306.69701,0 q -9.58428,5.10731 -19.48804,1.59604 -9.90378,-3.51128 -15.01538,-13.0875 L 83.64921,-535.504 q -5.111624,-9.5762 -1.59739,-19.47165 3.51425,-9.89541 13.09853,-15.00274 9.58428,-5.10731 19.48803,-1.59602 9.90376,3.51127 15.01538,13.0875 l 38.33713,76.60976 q 5.11161,9.57622 1.59738,19.47164 -3.51423,9.89543 -13.09851,15.00275 z M 144.9886,-598.06863 q -58.14463,0 -99.357049,-41.17776 -41.2124111,-41.17773 -41.2124111,-99.27348 0,-52.98842 35.1423671,-92.57012 35.142366,-39.58172 86.897503,-46.60428 20.44647,-36.38965 55.9083,-57.13812 35.46184,-20.74847 77.63269,-20.74847 57.50569,0 99.99602,36.70884 42.4903,36.70883 51.43563,91.6125 44.0877,3.8305 74.11844,36.38966 30.03076,32.55913 30.03076,77.88657 0,47.88112 -33.54498,81.39789 -33.54499,33.51677 -81.46641,33.51677 z m 0,-51.07318 h 255.58086 q 26.83599,0 45.36561,-18.51401 18.52962,-18.51405 18.52962,-45.32747 0,-26.81342 -18.52962,-45.32744 -18.52962,-18.51401 -45.36561,-18.51401 h -38.33713 v -25.5366 q 0,-42.13537 -30.03074,-72.14085 -30.03075,-30.0055 -72.20159,-30.0055 -30.66971,0 -55.90832,16.59877 -25.2386,16.59879 -38.01764,44.68904 l -6.38952,15.32196 h -15.9738 q -36.42029,1.27684 -62.29785,27.13263 -25.87756,25.8558 -25.87756,62.24542 0,37.02805 26.19704,63.20307 26.19704,26.17499 63.25625,26.17499 z M 260,-776.82474 Z"
     id="path1"
     style="fill:#4682c8;fill-opacity:1;stroke:#4682c8;stroke-width:8.83828;stroke-dasharray:none;stroke-opacity:1" />
</svg>
