<?xml version="1.0" encoding="UTF-8" standalone="no"?>
<svg
   height="13.000005"
   viewBox="0 -960 519.99996 520.00019"
   width="12.999999"
   fill="#5f6368"
   version="1.1"
   id="svg1"
   sodipodi:docname="rain-heavy-colored.svg"
   inkscape:version="1.4 (e7c3feb1, 2024-10-09)"
   xmlns:inkscape="http://www.inkscape.org/namespaces/inkscape"
   xmlns:sodipodi="http://sodipodi.sourceforge.net/DTD/sodipodi-0.dtd"
   xmlns="http://www.w3.org/2000/svg"
   xmlns:svg="http://www.w3.org/2000/svg">
  <defs
     id="defs1" />
  <sodipodi:namedview
     id="namedview1"
     pagecolor="#ffffff"
     bordercolor="#000000"
     borderopacity="0.25"
     inkscape:showpageshadow="2"
     inkscape:pageopacity="0.0"
     inkscape:pagecheckerboard="0"
     inkscape:deskcolor="#d1d1d1"
     inkscape:zoom="9.8333333"
     inkscape:cx="5.7966102"
     inkscape:cy="7.3220339"
     inkscape:window-width="1440"
     inkscape:window-height="823"
     inkscape:window-x="0"
     inkscape:window-y="0"
     inkscape:window-maximized="0"
     inkscape:current-layer="svg1" />
  <path
     d="m 285.55878,-482.7499 23.00291,-23.816 -21.72494,-9.875 q -10.86251,-5.228 -13.41839,-16.265 -2.55587,-11.037 5.75073,-19.75 l 44.72793,-46.471 q 3.1948,-4.066 8.62602,-6.099 5.43128,-2.033 10.54303,-2.033 16.6132,0 23.32241,13.36 6.70916,13.361 -4.15333,24.978 l -23.00292,23.816 21.72497,9.875 q 10.86249,5.228 13.41837,16.265 2.55588,11.037 -5.75071,19.75 l -44.72784,46.471 q -3.19488,4.066 -8.62612,6.099 -5.43129,2.033 -10.54304,2.033 -16.61322,0 -23.32237,-13.36 -6.70918,-13.361 4.15329,-24.978 z m -153.35273,0 23.00292,-23.816 -21.72497,-9.875 q -10.86247,-5.228 -13.41839,-16.265 -2.55584,-11.037 5.75074,-19.75 l 44.72787,-46.471 q 3.19487,-4.066 8.62609,-6.099 5.43126,-2.033 10.54299,-2.033 16.61325,0 23.32243,13.36 6.70916,13.361 -4.15329,24.978 l -23.00295,23.816 21.725,9.875 q 10.86248,5.228 13.41833,16.265 2.55589,11.037 -5.75069,19.75 l -44.72791,46.471 q -3.19484,4.066 -8.62608,6.099 -5.43126,2.033 -10.54301,2.033 -16.6132,0 -23.3224,-13.36 -6.70918,-13.361 4.15332,-24.978 z m 12.77939,-147.544 q -58.146233,0 -99.359783,-37.467 -41.2135572,-37.467 -41.2135572,-90.327 0,-48.213 35.1433402,-84.228 35.143322,-36.015 86.89988,-42.404 20.44702,-33.111 55.90986,-51.989 35.4628,-18.879 77.63481,-18.879 57.50726,0 99.99876,33.401 42.49152,33.4 51.43709,83.356 44.08893,3.486 74.12046,33.111 30.03158,29.624 30.03158,70.867 0,43.566 -33.54589,74.062 -33.54592,30.497 -81.46865,30.497 z m 0,-46.471 h 255.5879 q 26.83673,0 45.36684,-16.845 18.53015,-16.846 18.53015,-41.243 0,-24.397 -18.53015,-41.243 -18.53011,-16.845 -45.36684,-16.845 h -38.33819 v -23.235 q 0,-38.339 -30.03158,-65.64 -30.03156,-27.301 -72.20358,-27.301 -30.67053,0 -55.90984,15.103 -25.23929,15.102 -38.0187,40.661 l -6.38969,13.941 H 143.7075 q -36.42129,1.162 -62.299533,24.688 -25.87829,23.526 -25.87829,56.636 0,33.691 26.19775,57.507 26.197763,23.816 63.258013,23.816 z m 115.01455,-116.176 z"
     id="path1"
     style="fill:#0a508c;fill-opacity:1;stroke:#0a508c;stroke-width:8.8242;stroke-dasharray:none;stroke-opacity:1" />
</svg>
