<?xml version="1.0" encoding="UTF-8" standalone="no"?>
<svg
   height="15"
   viewBox="0 -960 600 600"
   width="15"
   fill="#5f6368"
   version="1.1"
   id="svg1"
   sodipodi:docname="sunny-colored.svg"
   inkscape:version="1.4 (e7c3feb1, 2024-10-09)"
   xmlns:inkscape="http://www.inkscape.org/namespaces/inkscape"
   xmlns:sodipodi="http://sodipodi.sourceforge.net/DTD/sodipodi-0.dtd"
   xmlns="http://www.w3.org/2000/svg"
   xmlns:svg="http://www.w3.org/2000/svg">
  <defs
     id="defs1" />
  <sodipodi:namedview
     id="namedview1"
     pagecolor="#ffffff"
     bordercolor="#000000"
     borderopacity="0.25"
     inkscape:showpageshadow="2"
     inkscape:pageopacity="0.0"
     inkscape:pagecheckerboard="0"
     inkscape:deskcolor="#d1d1d1"
     inkscape:zoom="9.8333333"
     inkscape:cx="11.033898"
     inkscape:cy="11.033898"
     inkscape:window-width="1440"
     inkscape:window-height="822"
     inkscape:window-x="0"
     inkscape:window-y="0"
     inkscape:window-maximized="0"
     inkscape:current-layer="svg1" />
  <path
     style="fill:#f0e628;fill-opacity:1;stroke:none;stroke-width:0.681818"
     d="M 300,-660 Z"
     id="path12" />
  <path
     style="fill:#f0e628;fill-opacity:1;stroke:none;stroke-width:0.681818"
     d="m 300,-496.36364 q -68.18182,0 -115.90909,-47.72727 Q 136.36364,-591.81817 136.36364,-660 q 0,-68.18182 47.72727,-115.90909 47.72727,-47.72727 115.90909,-47.72727 68.18183,0 115.90909,47.72727 47.72727,47.72726 47.72727,115.90909 0,68.18182 -47.72727,115.90909 Q 368.18183,-496.36364 300,-496.36364 Z"
     id="path10" />
  <path
     style="fill:#ffffff;fill-opacity:1;stroke:none;stroke-width:0.681818"
     d="m 300,-550.90909 q 45,0 77.04545,-32.04546 Q 409.09091,-615 409.09091,-660 q 0,-45 -32.04546,-77.04546 Q 345,-769.09091 300,-769.09091 q -45,0 -77.04546,32.04545 Q 190.90909,-705 190.90909,-660 q 0,45 32.04545,77.04545 Q 255,-550.90909 300,-550.90909 Z"
     id="path11" />
  <path
     style="fill:#eded4e;fill-opacity:1;stroke:none;stroke-width:0.340909"
     d="m 300,-605.45457 q 22.5,0 38.52272,-16.02272 16.02273,-16.02273 16.02273,-38.52273 0,-22.49998 -16.02273,-38.52271 Q 322.5,-714.54546 300,-714.54546 q -22.5,0 -38.52273,16.02273 -16.02273,16.02273 -16.02273,38.52271 0,22.5 16.02273,38.52273 Q 277.5,-605.45457 300,-605.45457 Z"
     id="path11-0" />
  <path
     style="fill:#f0e628;fill-opacity:1;stroke:none;stroke-width:0.681818"
     d="m 87.954545,-447.95455 q -7.5,-7.5 -7.5,-19.09091 0,-11.59091 7.5,-19.09091 L 126.81818,-525 q 7.5,-7.5 18.75,-7.5 11.25,0 19.43182,7.5 8.18183,8.18181 8.18183,19.43181 0,11.25 -8.18183,19.43182 l -38.18182,38.18182 q -8.18182,8.18182 -19.77272,8.18182 -11.590915,0 -19.090915,-8.18182 z"
     id="path9" />
  <path
     style="fill:#f0e628;fill-opacity:1;stroke:none;stroke-width:0.681818"
     d="m 27.272727,-632.72728 q -11.590909,0 -19.431818,-7.8409 Q 0,-648.40909 0,-660 q 0,-11.59091 7.840909,-19.43182 7.840909,-7.84091 19.431818,-7.84091 h 54.545454 q 11.590909,0 19.431819,7.84091 7.84091,7.84091 7.84091,19.43182 0,11.59091 -7.84091,19.43182 -7.84091,7.8409 -19.431819,7.8409 z"
     id="path8" />
  <path
     style="fill:#f0e628;fill-opacity:1;stroke:none;stroke-width:0.681818"
     d="M 473.18181,-447.95455 435,-486.81819 Q 427.5,-495 427.5,-506.25 q 0,-11.25 7.5,-18.75 7.5,-7.5 18.75,-7.5 11.25,0 19.43181,7.5 l 38.86364,38.18181 q 8.18182,7.5 7.84091,19.09091 -0.34091,11.59091 -7.84091,19.77273 -8.18182,8.18182 -19.77273,8.18182 -11.59091,0 -19.09091,-8.18182 z"
     id="path7" />
  <path
     style="fill:#f0e628;fill-opacity:1;stroke:none;stroke-width:0.681818"
     d="m 126.81818,-795 -38.863635,-38.18182 q -8.181818,-8.18182 -8.181818,-19.77273 0,-11.59091 8.181818,-19.09091 7.5,-7.5 19.090915,-7.5 11.5909,0 19.0909,7.5 L 165,-833.18183 q 7.5,7.5 7.5,19.09092 0,11.59091 -7.5,19.09091 -8.18182,7.5 -19.09091,7.5 -10.90909,0 -19.09091,-7.5 z"
     id="path6" />
  <path
     style="fill:#f0e628;fill-opacity:1;stroke:none;stroke-width:0.681818"
     d="m 300,-360 q -11.59091,0 -19.43182,-7.84091 -7.84091,-7.84091 -7.84091,-19.43182 v -54.54546 q 0,-11.5909 7.84091,-19.43181 7.84091,-7.84091 19.43182,-7.84091 11.59091,0 19.43183,7.84091 7.84089,7.84091 7.84089,19.43181 v 54.54546 q 0,11.59091 -7.84089,19.43182 Q 311.59091,-360 300,-360 Z"
     id="path5" />
  <path
     style="fill:#f0e628;fill-opacity:1;stroke:none;stroke-width:0.681818"
     d="m 518.18181,-632.72728 q -11.5909,0 -19.43181,-7.8409 -7.84091,-7.84091 -7.84091,-19.43182 0,-11.59091 7.84091,-19.43182 7.84091,-7.84091 19.43181,-7.84091 h 54.54546 q 11.59091,0 19.43182,7.84091 Q 600,-671.59091 600,-660 q 0,11.59091 -7.84091,19.43182 -7.84091,7.8409 -19.43182,7.8409 z"
     id="path4" />
  <path
     style="fill:#f0e628;fill-opacity:1;stroke:none;stroke-width:0.681818"
     d="m 435,-795 q -7.5,-7.5 -7.5,-18.75 0,-11.25 7.5,-19.43182 l 38.18181,-38.86364 q 8.18182,-8.18181 19.43182,-8.18181 11.25,0 19.43182,8.18181 7.5,7.5 7.5,19.09091 0,11.59091 -7.5,19.09091 L 473.18181,-795 q -7.5,7.5 -19.0909,7.5 Q 442.5,-787.5 435,-795 Z"
     id="path3" />
  <path
     style="fill:#f0e628;fill-opacity:1;stroke:none;stroke-width:0.681818"
     d="m 300,-850.90909 q -11.59091,0 -19.43182,-7.84091 -7.84091,-7.84091 -7.84091,-19.43182 v -54.54545 q 0,-11.5909 7.84091,-19.43182 Q 288.40909,-960 300,-960 q 11.59091,0 19.43183,7.84091 7.84089,7.84091 7.84089,19.43182 v 54.54544 q 0,11.59092 -7.84089,19.43183 -7.84092,7.84091 -19.43183,7.84091 z"
     id="path1" />
</svg>
