<?xml version="1.0" encoding="UTF-8" standalone="no"?>
<svg
   height="13"
   viewBox="0 -960 520 520"
   width="13"
   fill="#5f6368"
   version="1.1"
   id="svg1"
   sodipodi:docname="temperature-air.svg"
   inkscape:version="1.4 (e7c3feb1, 2024-10-09)"
   xmlns:inkscape="http://www.inkscape.org/namespaces/inkscape"
   xmlns:sodipodi="http://sodipodi.sourceforge.net/DTD/sodipodi-0.dtd"
   xmlns="http://www.w3.org/2000/svg"
   xmlns:svg="http://www.w3.org/2000/svg">
  <defs
     id="defs1" />
  <sodipodi:namedview
     id="namedview1"
     pagecolor="#ffffff"
     bordercolor="#000000"
     borderopacity="0.25"
     inkscape:showpageshadow="2"
     inkscape:pageopacity="0.0"
     inkscape:pagecheckerboard="0"
     inkscape:deskcolor="#d1d1d1"
     inkscape:zoom="8.08"
     inkscape:cx="8.8490099"
     inkscape:cy="8.8490099"
     inkscape:window-width="1440"
     inkscape:window-height="822"
     inkscape:window-x="0"
     inkscape:window-y="0"
     inkscape:window-maximized="0"
     inkscape:current-layer="svg1" />
  <path
     d="m 317.77778,-728.8889 q -12.27778,0 -20.58335,-8.30553 -8.30553,-8.30557 -8.30553,-20.58335 0,-12.27779 8.30553,-20.58332 8.30557,-8.30557 20.58335,-8.30557 h 86.66665 q 12.27779,0 20.58335,8.30556 8.30555,8.30554 8.30555,20.58333 0,12.27778 -8.30555,20.58335 -8.30556,8.30553 -20.58335,8.30553 z m 0,-115.55553 q -12.27778,0 -20.58335,-8.30557 -8.30553,-8.30557 -8.30553,-20.58333 0,-12.27778 8.30553,-20.58334 8.30557,-8.30555 20.58335,-8.30555 h 173.33333 q 12.27779,0 20.58332,8.30555 8.30557,8.30556 8.30557,20.58334 0,12.27776 -8.30557,20.58333 -8.30553,8.30557 -20.58332,8.30557 z M 144.44443,-440 Q 84.5,-440 42.25,-482.25 0,-524.5 0,-584.44443 0,-619.11111 15.166667,-649.08333 30.333333,-679.05557 57.777778,-700 v -173.33333 q 0,-36.1111 25.277779,-61.38889 Q 108.33333,-960 144.44443,-960 q 36.11114,0 61.3889,25.27778 25.27778,25.27779 25.27778,61.38889 V -700 q 27.44446,20.94443 42.61111,50.91667 15.16667,29.97222 15.16667,64.6389 0,59.94443 -42.25,102.19443 -42.25,42.25 -102.19446,42.25 z M 57.777778,-584.44443 H 231.11111 q 0,-20.94447 -9.02778,-39 -9.02776,-18.05557 -25.6389,-30.33335 l -23.1111,-17.33333 v -202.22222 q 0,-12.27778 -8.30555,-20.58334 -8.30556,-8.30555 -20.58335,-8.30555 -12.27776,0 -20.58333,8.30555 -8.30553,8.30556 -8.30553,20.58334 v 202.22223 l -23.111127,17.33332 q -16.61111,12.27778 -25.638886,30.33335 -9.027779,18.05553 -9.027779,39 z"
     id="path1"
     style="fill:#5f6469;fill-opacity:1;stroke-width:0.722222" />
</svg>
