<?xml version="1.0" encoding="UTF-8" standalone="no"?>
<svg
   height="13"
   viewBox="0 -960 560 520"
   width="14"
   fill="#5f6368"
   version="1.1"
   id="svg1"
   sodipodi:docname="temperature-asphalt.svg"
   inkscape:version="1.4 (e7c3feb1, 2024-10-09)"
   xmlns:inkscape="http://www.inkscape.org/namespaces/inkscape"
   xmlns:sodipodi="http://sodipodi.sourceforge.net/DTD/sodipodi-0.dtd"
   xmlns="http://www.w3.org/2000/svg"
   xmlns:svg="http://www.w3.org/2000/svg">
  <defs
     id="defs1" />
  <sodipodi:namedview
     id="namedview1"
     pagecolor="#ffffff"
     bordercolor="#000000"
     borderopacity="0.25"
     inkscape:showpageshadow="2"
     inkscape:pageopacity="0.0"
     inkscape:pagecheckerboard="0"
     inkscape:deskcolor="#d1d1d1"
     inkscape:zoom="12.969348"
     inkscape:cx="5.8214183"
     inkscape:cy="9.1369281"
     inkscape:window-width="1440"
     inkscape:window-height="822"
     inkscape:window-x="0"
     inkscape:window-y="0"
     inkscape:window-maximized="0"
     inkscape:current-layer="svg1" />
  <path
     d="m 388.59611,-737.55554 -18.7185,52.7222 q -2.24622,5.77778 -7.86176,9.75001 -5.61557,3.97222 -12.35422,3.97222 -11.2311,0 -17.59541,-9.02778 -6.36428,-9.02778 -2.62058,-19.13889 l 84.60765,-218.11111 q 2.2462,-6.50001 8.23612,-10.1111 5.98994,-3.61112 12.7286,-3.61112 h 16.47227 q 6.73865,0 12.72857,3.61112 5.98994,3.61109 8.23615,10.1111 l 86.10512,218.83333 q 3.74369,10.11112 -2.24623,18.77779 -5.98991,8.66666 -17.22101,8.66666 -6.73867,0 -12.72859,-3.97222 -5.98993,-3.97223 -8.23613,-10.47223 l -18.71852,-51.99998 z m 13.47731,-37.55557 h 82.36143 l -39.68324,-108.33334 h -1.49748 z M 149.74801,-440 Q 87.602592,-440 43.801296,-482.25 0,-524.5 0,-584.44445 0,-619.11112 15.723543,-649.08334 31.447084,-679.05556 59.899209,-700 v -173.33334 q 0,-36.11111 26.205903,-61.38888 Q 112.31102,-960 149.74801,-960 q 37.43702,0 63.64292,25.27778 26.2059,25.27777 26.2059,61.38888 V -700 q 28.45213,20.94444 44.17567,50.91666 15.72354,29.97222 15.72354,64.63889 0,59.94445 -43.8013,102.19445 Q 211.89344,-440 149.74801,-440 Z M 59.899209,-584.44445 H 239.59683 q 0,-20.94445 -9.35924,-38.99999 -9.35926,-18.05557 -26.58028,-30.33334 l -23.95969,-17.33333 v -202.22223 q 0,-12.27776 -8.61051,-20.58333 -8.6105,-8.30556 -21.3391,-8.30556 -12.72857,0 -21.33908,8.30556 -8.61051,8.30557 -8.61051,20.58333 v 202.22223 l -23.959687,17.33333 q -17.221021,12.27777 -26.580274,30.33334 -9.35925,18.05554 -9.35925,38.99999 z"
     id="path1"
     style="fill:#5f6469;fill-opacity:1;stroke-width:0.735362" />
</svg>
