<?xml version="1.0" encoding="UTF-8" standalone="no"?>
<svg
   height="12"
   viewBox="0 -960 560 480"
   width="14"
   fill="#5f6368"
   version="1.1"
   id="svg1"
   sodipodi:docname="wet-drying-colored.svg"
   inkscape:version="1.4 (e7c3feb1, 2024-10-09)"
   xmlns:inkscape="http://www.inkscape.org/namespaces/inkscape"
   xmlns:sodipodi="http://sodipodi.sourceforge.net/DTD/sodipodi-0.dtd"
   xmlns="http://www.w3.org/2000/svg"
   xmlns:svg="http://www.w3.org/2000/svg">
  <defs
     id="defs1" />
  <sodipodi:namedview
     id="namedview1"
     pagecolor="#ffffff"
     bordercolor="#000000"
     borderopacity="0.25"
     inkscape:showpageshadow="2"
     inkscape:pageopacity="0.0"
     inkscape:pagecheckerboard="0"
     inkscape:deskcolor="#d1d1d1"
     inkscape:zoom="9.8333333"
     inkscape:cx="10.677966"
     inkscape:cy="7.9830509"
     inkscape:window-width="1440"
     inkscape:window-height="900"
     inkscape:window-x="0"
     inkscape:window-y="0"
     inkscape:window-maximized="0"
     inkscape:current-layer="svg1" />
  <path
     d="M 278.00001,-669.0909 Z"
     id="path7"
     style="stroke-width:0.723627" />
  <path
     d="m 76.400001,-610.90909 q 0,-85.09091 58.679999,-144.36364 58.68,-59.27273 142.92001,-59.27273 84.24,0 142.92,59.27273 58.68,59.27273 58.68,144.36364 z"
     id="path6"
     style="fill:#f0e628;fill-opacity:1;stroke:none;stroke-width:0;stroke-dasharray:none" />
  <path
     d="m 146.24,-669.0909 h 263.52001 q -16.56,-39.27274 -51.84,-63.27275 -35.28,-23.99999 -79.92,-23.99999 -44.64001,0 -79.92001,23.99999 -35.28,24.00001 -51.84,63.27275 z"
     id="path5"
     style="fill:#ffffff;fill-opacity:1;stroke:none;stroke-width:0.723627;stroke-opacity:1" />
  <path
     d="m 54.8,-866.90909 q 7.92,-8 20.160001,-8 12.239999,0 20.159999,8 l 20.88,21.09091 q 8.64,8.72727 8.64,20.72727 0,12 -8.64,20.72727 -8.64,8 -20.88,8 -12.239999,0 -20.159999,-8.72727 L 54.08,-826.18182 q -7.919999,-8.72727 -7.559999,-20.72727 0.36,-11.99999 8.279999,-20 z"
     id="path4"
     style="fill:#f0e628;fill-opacity:1;stroke:none;stroke-width:0;stroke-dasharray:none" />
  <path
     d="m 278.00001,-960 q 12.24,0 20.52,8.36363 8.28,8.36364 8.28,20.72728 v 29.09092 q 0,12.36363 -8.28,20.72726 -8.28,8.36364 -20.52,8.36364 -12.24,0 -20.52001,-8.36364 -8.28,-8.36363 -8.28,-20.72726 v -29.09092 q 0,-12.36364 8.28,-20.72728 Q 265.76001,-960 278.00001,-960 Z"
     id="path3"
     style="fill:#f0e628;fill-opacity:1;stroke:none;stroke-width:0;stroke-dasharray:none" />
  <path
     d="M 28.000001,-480 Q 16.1,-480 8.05,-491.50001 0,-503.00001 0,-520 0,-537 8.05,-548.5 16.1,-560 28.000001,-560 H 532.00001 q 11.9,0 19.95,11.5 Q 560,-537 560,-520 q 0,16.99999 -8.04999,28.49999 -8.05,11.50001 -19.95,11.50001 z"
     id="path2"
     style="fill:#4682c8;fill-opacity:1;stroke:none;stroke-width:0.836656" />
  <path
     d="m 502.64001,-865.45455 q 7.92,8.00001 7.92,20.36364 0,12.36364 -7.92,20.36363 l -20.88,21.09092 q -8.64,8.72727 -20.52,8.72727 -11.88,0 -20.52,-8.72727 -8.64,-8.72728 -8.28,-20.72728 0.36,-11.99999 9,-20.72727 l 20.88,-21.09091 q 8.64,-8 20.52,-7.63636 11.88,0.36363 19.8,8.36363 z"
     id="path1"
     style="fill:#f0e628;fill-opacity:1;stroke:none;stroke-width:0;stroke-dasharray:none" />
</svg>
