<?xml version="1.0" encoding="UTF-8" standalone="no"?>
<svg
   height="16"
   viewBox="0 -960 640 640"
   width="16"
   fill="#1f1f1f"
   version="1.1"
   id="svg1"
   sodipodi:docname="identity_platform_24dp_1F1F1F_FILL0_wght400_GRAD0_opsz24.svg"
   inkscape:version="1.4 (e7c3feb1, 2024-10-09)"
   xmlns:inkscape="http://www.inkscape.org/namespaces/inkscape"
   xmlns:sodipodi="http://sodipodi.sourceforge.net/DTD/sodipodi-0.dtd"
   xmlns="http://www.w3.org/2000/svg"
   xmlns:svg="http://www.w3.org/2000/svg">
  <defs
     id="defs1" />
  <sodipodi:namedview
     id="namedview1"
     pagecolor="#ffffff"
     bordercolor="#000000"
     borderopacity="0.25"
     inkscape:showpageshadow="2"
     inkscape:pageopacity="0.0"
     inkscape:pagecheckerboard="0"
     inkscape:deskcolor="#d1d1d1"
     inkscape:zoom="4.7188051"
     inkscape:cx="1.6953444"
     inkscape:cy="30.198323"
     inkscape:window-width="1440"
     inkscape:window-height="900"
     inkscape:window-x="0"
     inkscape:window-y="0"
     inkscape:window-maximized="0"
     inkscape:current-layer="svg1" />
  <path
     d="m 320,-612.48157 q -41.88888,0 -71.5,-28.20639 -29.61112,-28.20639 -29.61112,-68.1081 0,-39.90172 29.61112,-68.10811 29.61112,-28.2064 71.5,-28.2064 41.88888,0 71.5,28.2064 29.61112,28.20639 29.61112,68.10809 0,39.90173 -29.61112,68.10812 -29.61112,28.20639 -71.5,28.20639 z m 0,-55.03687 q 18.05556,0 30.69445,-12.0393 12.63889,-12.03931 12.63889,-29.23832 0,-17.19903 -12.63889,-29.23834 -12.63889,-12.03931 -30.69445,-12.03931 -18.05555,0 -30.69444,12.03931 -12.6389,12.03931 -12.6389,29.23834 0,17.19901 12.6389,29.23832 12.63889,12.0393 30.69444,12.0393 z M 87.44445,-486.58476 Q 74.444448,-494.15234 67.222224,-506.53563 60,-518.91893 60,-533.3661 v -213.26781 q 0,-14.44716 7.222224,-26.83046 7.222224,-12.38329 20.222226,-19.95087 L 289.66666,-911.74447 Q 304.11112,-920 320,-920 q 15.88888,0 30.33334,8.25553 l 202.22222,118.32923 q 13,7.56758 20.22221,19.95087 Q 580,-761.08107 580,-746.63391 v 213.26781 q 0,14.44717 -7.22223,26.83047 -7.22221,12.38329 -20.22221,19.95087 L 350.33334,-368.25553 Q 335.88888,-360 320,-360 q -15.88888,0 -30.33334,-8.25553 z M 320,-502.40786 q -27.44444,0 -54.52777,6.19164 -27.08335,6.19165 -51.63889,18.57495 L 320,-415.03685 426.16666,-477.64127 q -24.55554,-12.3833 -51.63889,-18.57495 -27.08332,-6.19164 -54.52777,-6.19164 z m -161.77778,-7.56757 q 36.11112,-23.39067 77.27778,-35.42997 41.16666,-12.03931 84.5,-12.03931 43.33334,0 84.5,12.03931 41.16666,12.0393 77.27777,35.42997 l 40.44446,-22.70271 V -746.63391 L 320,-864.27519 117.77778,-746.63391 v 213.95578 z M 320,-639.99999 Z"
     id="path1"
     style="stroke-width:0;fill:#444749;fill-opacity:1;stroke:none;stroke-dasharray:none" />
</svg>
