<?xml version="1.0" encoding="UTF-8" standalone="no"?>
<svg
   height="16"
   viewBox="0 -960 640 640"
   width="16"
   fill="#1f1f1f"
   version="1.1"
   id="svg1"
   sodipodi:docname="drivers-tables.svg"
   inkscape:version="1.4 (e7c3feb1, 2024-10-09)"
   xmlns:inkscape="http://www.inkscape.org/namespaces/inkscape"
   xmlns:sodipodi="http://sodipodi.sourceforge.net/DTD/sodipodi-0.dtd"
   xmlns="http://www.w3.org/2000/svg"
   xmlns:svg="http://www.w3.org/2000/svg">
  <defs
     id="defs1" />
  <sodipodi:namedview
     id="namedview1"
     pagecolor="#ffffff"
     bordercolor="#000000"
     borderopacity="0.25"
     inkscape:showpageshadow="2"
     inkscape:pageopacity="0.0"
     inkscape:pagecheckerboard="0"
     inkscape:deskcolor="#d1d1d1"
     inkscape:zoom="13.103151"
     inkscape:cx="7.326482"
     inkscape:cy="9.0054675"
     inkscape:window-width="1440"
     inkscape:window-height="821"
     inkscape:window-x="0"
     inkscape:window-y="0"
     inkscape:window-maximized="0"
     inkscape:current-layer="svg1" />
  <path
     style="fill:#444749;fill-opacity:1;stroke:none;stroke-width:0;stroke-dasharray:none"
     d="M 104,-445.55556 V -834.44444 Z"
     id="path7" />
  <path
     id="path5"
     style="fill:#444749;fill-opacity:1;stroke:none;stroke-width:0;stroke-dasharray:none"
     d="M 103.98438 -890 C 89.134375 -890 76.434375 -884.5515 65.859375 -873.67188 C 55.284375 -862.79223 50 -849.7309 50 -834.45312 L 50 -445.54688 C 50 -430.2691 55.284375 -417.20776 65.859375 -406.32812 C 76.434375 -395.4485 89.134375 -390 103.98438 -390 L 536.01562 -390 C 550.86563 -390 563.56562 -395.4485 574.14062 -406.32812 C 584.71562 -417.20777 590 -430.2691 590 -445.54688 L 590 -834.45312 C 590 -849.7309 584.71562 -862.79223 574.14062 -873.67188 C 563.56562 -884.5515 550.86563 -890 536.01562 -890 L 103.98438 -890 z M 103.98438 -834.45312 L 536.01562 -834.45312 L 536.01562 -445.54688 L 103.98438 -445.54688 L 103.98438 -834.45312 z " />
  <path
     style="fill:#444749;fill-opacity:1;stroke:none;stroke-width:0;stroke-dasharray:none"
     d="m 185,-723.33333 h 135 q 11.475,0 19.2375,-7.98611 7.7625,-7.98612 7.7625,-19.79167 0,-11.80556 -7.7625,-19.79167 -7.7625,-7.98611 -19.2375,-7.98611 H 185 q -11.475,0 -19.2375,7.98611 -7.7625,7.98611 -7.7625,19.79167 0,11.80555 7.7625,19.79167 7.7625,7.98611 19.2375,7.98611 z"
     id="path4" />
  <path
     style="fill:#444749;fill-opacity:1;stroke:none;stroke-width:0;stroke-dasharray:none"
     d="m 185,-612.22222 h 135 q 11.475,0 19.2375,-7.9861 Q 347,-628.19445 347,-640 q 0,-11.80555 -7.7625,-19.79168 -7.7625,-7.9861 -19.2375,-7.9861 H 185 q -11.475,0 -19.2375,7.9861 Q 158,-651.80555 158,-640 q 0,11.80555 7.7625,19.79168 7.7625,7.9861 19.2375,7.9861 z"
     id="path3" />
  <path
     style="fill:#444749;fill-opacity:1;stroke:none;stroke-width:0;stroke-dasharray:none"
     d="m 455,-800 q -11.475,0 -19.2375,9.2 Q 428,-781.6 428,-768 v 255.99999 q 0,13.6 7.7625,22.8 Q 443.525,-480 455,-480 q 11.475,0 19.2375,-9.20001 7.7625,-9.2 7.7625,-22.8 V -768 q 0,-13.6 -7.7625,-22.8 Q 466.475,-800 455,-800 Z"
     id="path2" />
  <path
     style="fill:#444749;fill-opacity:1;stroke:none;stroke-width:0;stroke-dasharray:none"
     d="m 185,-501.1111 h 135 q 11.475,0 19.2375,-7.98612 7.7625,-7.98611 7.7625,-19.79167 0,-11.80555 -7.7625,-19.79167 -7.7625,-7.98611 -19.2375,-7.98611 H 185 q -11.475,0 -19.2375,7.98611 -7.7625,7.98612 -7.7625,19.79167 0,11.80556 7.7625,19.79167 7.7625,7.98612 19.2375,7.98612 z"
     id="path1" />
</svg>
