<?xml version="1.0" encoding="UTF-8" standalone="no"?>
<svg
   height="16"
   viewBox="0 -960 640 640"
   width="16"
   fill="#1f1f1f"
   version="1.1"
   id="svg1"
   sodipodi:docname="drivers-comparison.svg"
   inkscape:version="1.4 (e7c3feb1, 2024-10-09)"
   xmlns:inkscape="http://www.inkscape.org/namespaces/inkscape"
   xmlns:sodipodi="http://sodipodi.sourceforge.net/DTD/sodipodi-0.dtd"
   xmlns="http://www.w3.org/2000/svg"
   xmlns:svg="http://www.w3.org/2000/svg">
  <defs
     id="defs1" />
  <sodipodi:namedview
     id="namedview1"
     pagecolor="#ffffff"
     bordercolor="#000000"
     borderopacity="0.25"
     inkscape:showpageshadow="2"
     inkscape:pageopacity="0.0"
     inkscape:pagecheckerboard="0"
     inkscape:deskcolor="#d1d1d1"
     inkscape:zoom="8.2876973"
     inkscape:cx="5.6710565"
     inkscape:cy="9.5322014"
     inkscape:window-width="1440"
     inkscape:window-height="823"
     inkscape:window-x="0"
     inkscape:window-y="0"
     inkscape:window-maximized="0"
     inkscape:current-layer="svg1" />
  <path
     d="m 205.11006,-393.48438 q -15.60234,0 -28.36787,-7.19004 -12.76557,-7.19004 -20.56673,-20.20059 L 41.285542,-612.60938 Q 33.484375,-625.61991 33.484375,-640 q 0,-14.38009 7.801167,-27.39062 L 156.17546,-859.125 q 7.80116,-13.01056 20.56673,-20.2006 12.76553,-7.19002 28.36787,-7.19002 h 229.77985 q 15.60234,0 28.36789,7.19002 12.76555,7.19004 20.56673,20.2006 l 114.88992,191.73438 q 7.80117,13.01053 7.80117,27.39062 0,14.38009 -7.80117,27.39062 l -114.88992,191.73437 q -7.80118,13.01055 -20.56673,20.20059 -12.76555,7.19004 -28.36789,7.19004 z m 0,-54.78125 H 434.88991 L 549.07065,-640 434.88991,-831.73437 H 205.11006 L 90.22014,-640 Z M 319.99999,-640 Z"
     id="path1"
     style="fill:#444749;fill-opacity:1;stroke:#444749;stroke-width:6.96875;stroke-dasharray:none;stroke-opacity:1" />
  <path
     d="m 203.97211,-564.70237 q -10.6359,0 -18.20993,-7.37288 -7.57405,-7.3729 -7.57405,-17.72633 0,-10.35343 7.57405,-17.72631 7.57403,-7.37288 18.20993,-7.37288 h 3.38414 q 1.45037,0 3.06187,0.62748 l 58.65854,-57.10072 q -0.64461,-1.56869 -0.64461,-2.98054 v -3.29427 q 0,-10.35343 7.57404,-17.72631 7.57405,-7.37288 18.20994,-7.37288 10.63587,0 18.20993,7.37288 7.57404,7.37288 7.57404,17.72631 0,0.6275 -0.64462,6.27481 l 32.87461,32.00148 Q 353.84145,-640 355.29183,-640 h 6.76828 q 1.45034,0 3.06185,0.62747 l 45.76656,-44.55108 q -0.64459,-1.56869 -0.64459,-2.98054 v -3.29426 q 0,-10.35342 7.57402,-17.72632 7.57405,-7.37288 18.20994,-7.37288 10.63589,0 18.20994,7.37288 7.57404,7.3729 7.57404,17.72632 0,10.35343 -7.57404,17.72631 -7.57405,7.37289 -18.20994,7.37289 h -3.38414 q -1.45036,0 -3.06186,-0.62747 l -45.76656,44.55109 q 0.64463,1.56868 0.64463,2.98053 v 3.29429 q 0,10.35342 -7.57406,17.7263 -7.57403,7.37289 -18.20994,7.37289 -10.63588,0 -18.20992,-7.37289 -7.57405,-7.37288 -7.57405,-17.7263 v -3.29429 q 0,-1.41185 0.6446,-2.98053 l -32.87456,-32.00149 q -1.6115,0.62747 -3.06185,0.62747 h -3.38415 q -0.64459,0 -6.446,-0.62747 l -58.65854,57.10071 q 0.64459,1.56868 0.64459,2.98052 v 3.29427 q 0,10.35343 -7.57403,17.72633 -7.57405,7.37288 -18.20994,7.37288 z"
     id="path1-8"
     style="fill:#444749;fill-opacity:1;stroke:#444749;stroke-width:13.9917;stroke-dasharray:none;stroke-opacity:1" />
</svg>
