<?xml version="1.0" encoding="UTF-8" standalone="no"?>
<svg
   height="16"
   viewBox="0 -960 640 640"
   width="16"
   fill="#1f1f1f"
   version="1.1"
   id="svg1"
   sodipodi:docname="drivers-tables.svg"
   inkscape:version="1.4 (e7c3feb1, 2024-10-09)"
   xmlns:inkscape="http://www.inkscape.org/namespaces/inkscape"
   xmlns:sodipodi="http://sodipodi.sourceforge.net/DTD/sodipodi-0.dtd"
   xmlns="http://www.w3.org/2000/svg"
   xmlns:svg="http://www.w3.org/2000/svg">
  <defs
     id="defs1" />
  <sodipodi:namedview
     id="namedview1"
     pagecolor="#ffffff"
     bordercolor="#000000"
     borderopacity="0.25"
     inkscape:showpageshadow="2"
     inkscape:pageopacity="0.0"
     inkscape:pagecheckerboard="0"
     inkscape:deskcolor="#d1d1d1"
     inkscape:zoom="13.103151"
     inkscape:cx="7.2501645"
     inkscape:cy="9.0054674"
     inkscape:window-width="1440"
     inkscape:window-height="823"
     inkscape:window-x="0"
     inkscape:window-y="0"
     inkscape:window-maximized="0"
     inkscape:current-layer="svg1" />
  <path
     d="m 185,-501.1111 h 135 q 11.475,0 19.2375,-7.98612 7.7625,-7.98611 7.7625,-19.79167 0,-11.80555 -7.7625,-19.79167 -7.7625,-7.98611 -19.2375,-7.98611 H 185 q -11.475,0 -19.2375,7.98611 -7.7625,7.98612 -7.7625,19.79167 0,11.80556 7.7625,19.79167 7.7625,7.98612 19.2375,7.98612 z m 270,-277.77779 q -11.475,0 -19.2375,7.98611 Q 428,-762.91667 428,-751.11111 v 222.22222 q 0,11.80556 7.7625,19.79167 7.7625,7.98612 19.2375,7.98612 11.475,0 19.2375,-7.98612 Q 482,-517.08333 482,-528.88889 v -222.22222 q 0,-11.80556 -7.7625,-19.79167 -7.7625,-7.98611 -19.2375,-7.98611 z m -270,166.66667 h 135 q 11.475,0 19.2375,-7.9861 Q 347,-628.19445 347,-640 q 0,-11.80555 -7.7625,-19.79168 -7.7625,-7.9861 -19.2375,-7.9861 H 185 q -11.475,0 -19.2375,7.9861 Q 158,-651.80555 158,-640 q 0,11.80555 7.7625,19.79168 7.7625,7.9861 19.2375,7.9861 z m 0,-111.11111 h 135 q 11.475,0 19.2375,-7.98611 7.7625,-7.98612 7.7625,-19.79167 0,-11.80556 -7.7625,-19.79167 -7.7625,-7.98611 -19.2375,-7.98611 H 185 q -11.475,0 -19.2375,7.98611 -7.7625,7.98611 -7.7625,19.79167 0,11.80555 7.7625,19.79167 7.7625,7.98611 19.2375,7.98611 z M 104,-390 Q 81.725,-390 65.8625,-406.31944 50,-422.6389 50,-445.55556 V -834.44444 Q 50,-857.3611 65.8625,-873.68056 81.725,-890 104,-890 h 432 q 22.275,0 38.1375,16.31944 Q 590,-857.3611 590,-834.44444 v 388.88888 q 0,22.91666 -15.8625,39.23612 Q 558.275,-390 536,-390 Z m 0,-55.55556 H 536 V -834.44444 H 104 Z m 0,0 v -388.88888 z"
     id="path1"
     style="fill:#444749;fill-opacity:1;stroke:none;stroke-width:0;stroke-dasharray:none" />
</svg>
