<?xml version="1.0" encoding="UTF-8" standalone="no"?>
<svg
   height="16"
   viewBox="0 -960 640 640"
   width="16"
   fill="#1f1f1f"
   version="1.1"
   id="svg1"
   sodipodi:docname="drivers-tables.svg"
   inkscape:version="1.4 (e7c3feb1, 2024-10-09)"
   xmlns:inkscape="http://www.inkscape.org/namespaces/inkscape"
   xmlns:sodipodi="http://sodipodi.sourceforge.net/DTD/sodipodi-0.dtd"
   xmlns="http://www.w3.org/2000/svg"
   xmlns:svg="http://www.w3.org/2000/svg">
  <defs
     id="defs1" />
  <sodipodi:namedview
     id="namedview1"
     pagecolor="#ffffff"
     bordercolor="#000000"
     borderopacity="0.25"
     inkscape:showpageshadow="2"
     inkscape:pageopacity="0.0"
     inkscape:pagecheckerboard="0"
     inkscape:deskcolor="#d1d1d1"
     inkscape:zoom="4.6013916"
     inkscape:cx="14.560812"
     inkscape:cy="8.9103479"
     inkscape:window-width="1440"
     inkscape:window-height="823"
     inkscape:window-x="0"
     inkscape:window-y="0"
     inkscape:window-maximized="0"
     inkscape:current-layer="svg1" />
  <path
     d="M 133.33333,-453.33333 H 506.66667 V -698 L 378,-826.66667 H 133.33333 Z m 0,53.33333 q -21.99999,0 -37.666661,-15.66667 Q 80,-431.33334 80,-453.33333 v -373.33334 q 0,-21.99999 15.666669,-37.66666 Q 111.33334,-880 133.33333,-880 H 378 q 10.66667,0 20.33333,4 9.66667,4 17,11.33333 l 129.33334,129.33334 Q 552,-728 556,-718.33333 q 4,9.66666 4,20.33333 v 244.66667 q 0,21.99999 -15.66667,37.66666 Q 528.66666,-400 506.66667,-400 Z m 80.00001,-106.66666 h 213.33332 q 11.33334,0 19.00001,-7.66667 7.66667,-7.66667 7.66667,-19.00001 0,-11.33333 -7.66667,-18.99999 Q 438,-560 426.66666,-560 H 213.33334 q -11.33334,0 -19.00001,7.66667 -7.66667,7.66666 -7.66667,18.99999 0,11.33334 7.66667,19.00001 7.66667,7.66667 19.00001,7.66667 z m 0,-106.66667 h 213.33332 q 11.33334,0 19.00001,-7.66667 7.66667,-7.66667 7.66667,-19 0,-11.33333 -7.66667,-19 -7.66667,-7.66667 -19.00001,-7.66667 H 213.33334 q -11.33334,0 -19.00001,7.66667 -7.66667,7.66667 -7.66667,19 0,11.33333 7.66667,19 7.66667,7.66667 19.00001,7.66667 z m 0,-106.66667 h 133.33333 q 11.33333,0 19,-7.66667 7.66666,-7.66666 7.66666,-18.99999 0,-11.33334 -7.66666,-19.00001 -7.66667,-7.66667 -19,-7.66667 H 213.33334 q -11.33334,0 -19.00001,7.66667 -7.66667,7.66667 -7.66667,19.00001 0,11.33333 7.66667,18.99999 Q 202,-720 213.33334,-720 Z m -80.00001,266.66667 v -373.33334 z"
     id="path1"
     style="fill:#444749;fill-opacity:1;stroke:none;stroke-width:0;stroke-dasharray:none;stroke-opacity:1" />
</svg>
