<?xml version="1.0" encoding="UTF-8" standalone="no"?>
<svg
   viewBox="0 0 16 16"
   version="1.1"
   id="svg1"
   sodipodi:docname="drivers-comparison.svg"
   width="16"
   height="16"
   inkscape:version="1.4 (e7c3feb1, 2024-10-09)"
   xmlns:inkscape="http://www.inkscape.org/namespaces/inkscape"
   xmlns:sodipodi="http://sodipodi.sourceforge.net/DTD/sodipodi-0.dtd"
   xmlns="http://www.w3.org/2000/svg"
   xmlns:svg="http://www.w3.org/2000/svg">
  <defs
     id="defs1" />
  <sodipodi:namedview
     id="namedview1"
     pagecolor="#ffffff"
     bordercolor="#000000"
     borderopacity="0.25"
     inkscape:showpageshadow="2"
     inkscape:pageopacity="0.0"
     inkscape:pagecheckerboard="0"
     inkscape:deskcolor="#d1d1d1"
     inkscape:zoom="13.948779"
     inkscape:cx="-1.1470538"
     inkscape:cy="7.9576859"
     inkscape:window-width="1440"
     inkscape:window-height="821"
     inkscape:window-x="0"
     inkscape:window-y="0"
     inkscape:window-maximized="0"
     inkscape:current-layer="svg1" />
  <!--!Font Awesome Free 7.0.1 by @fontawesome - https://fontawesome.com License - https://fontawesome.com/license/free Copyright 2025 Fonticons, Inc.-->
  <path
     d="M 10.963274,1.3855467 C 10.717132,1.1394528 10.383473,1 10.03614,1 l -4.07228,0.0027 c -0.347333,0 -0.680992,0.1394527 -0.927134,0.3855466 L 1.385622,5.0359026 C 1.13948,5.2820315 1,5.6156253 1,5.9628905 v 4.0687505 c 0,0.347265 0.13948,0.680859 0.385622,0.926952 l 3.651104,3.65586 C 5.282868,14.860547 5.616527,15 5.96386,15 h 4.069545 c 0.347333,0 0.680992,-0.139453 0.927134,-0.385547 l 3.653839,-3.650391 C 14.86052,10.717969 15,10.384375 15,10.03711 V 5.9683594 C 15,5.6210932 14.86052,5.2875004 14.614378,5.0414065 Z M 5.96386,2.3152341 h 4.069545 l 3.651104,3.6503908 v 4.0687501 l -3.651104,3.650391 H 5.96386 L 2.312756,10.034375 V 5.9656249 Z"
     id="path1"
     style="fill:#444749;fill-opacity:1;stroke:#444749;stroke-width:0.25;stroke-dasharray:none;stroke-linejoin:miter;stroke-opacity:1;paint-order:normal" />
  <path
     d="m 5.0734166,9.8269359 q -0.2682703,0 -0.4593097,-0.1788871 -0.1910414,-0.1788875 -0.1910414,-0.4300912 0,-0.2512035 0.1910414,-0.4300906 Q 4.8051463,8.60898 5.0734166,8.60898 h 0.085355 q 0.036584,0 0.077233,0.015224 L 6.7155519,7.2387787 q -0.016263,-0.038061 -0.016263,-0.072317 v -0.079929 q 0,-0.2512036 0.1910404,-0.4300907 0.1910413,-0.1788871 0.4593106,-0.1788871 0.2682694,0 0.4593097,0.1788871 0.1910404,0.1788871 0.1910404,0.4300907 0,0.015224 -0.016253,0.1522447 l 0.8291975,0.7764469 q 0.04065,-0.015224 0.077233,-0.015224 h 0.1707166 q 0.036584,0 0.077233,0.015224 L 10.292487,6.9342885 q -0.01625,-0.038061 -0.01625,-0.072317 v -0.079928 q 0,-0.2512034 0.19104,-0.430091 0.191041,-0.178887 0.459309,-0.178887 0.268271,0 0.459311,0.178887 0.191041,0.1788876 0.191041,0.430091 0,0.2512035 -0.191041,0.4300906 -0.19104,0.1788872 -0.459311,0.1788872 h -0.08535 q -0.03658,0 -0.07723,-0.015224 L 9.609624,8.456734 Q 9.625887,8.494795 9.625887,8.52905 v 0.079929 q 0,0.2512033 -0.1910404,0.4300904 -0.1910403,0.1788872 -0.4593106,0.1788872 -0.2682693,0 -0.4593096,-0.1788872 Q 8.3251865,8.8601819 8.3251865,8.6089786 v -0.079929 q 0,-0.034255 0.016253,-0.072316 L 7.512231,7.6802879 q -0.04065,0.015224 -0.077233,0.015224 H 7.349643 q -0.016263,0 -0.1625877,-0.015224 l -1.479548,1.3854256 q 0.016263,0.038061 0.016263,0.072316 v 0.079929 q 0,0.2512037 -0.1910403,0.4300912 -0.19104,0.1788862 -0.4593093,0.1788862 z"
     id="path1-8"
     style="fill:#444749;fill-opacity:1;stroke:#444749;stroke-width:0.346131;stroke-dasharray:none;stroke-opacity:1;stroke-linejoin:miter" />
</svg>
