<?xml version="1.0" encoding="UTF-8" standalone="no"?>
<svg
   height="16"
   viewBox="0 -960 640 640"
   width="16"
   fill="#1f1f1f"
   version="1.1"
   id="svg1"
   sodipodi:docname="drivers-comparison.svg"
   inkscape:version="1.4 (e7c3feb1, 2024-10-09)"
   xmlns:inkscape="http://www.inkscape.org/namespaces/inkscape"
   xmlns:sodipodi="http://sodipodi.sourceforge.net/DTD/sodipodi-0.dtd"
   xmlns="http://www.w3.org/2000/svg"
   xmlns:svg="http://www.w3.org/2000/svg">
  <defs
     id="defs1" />
  <sodipodi:namedview
     id="namedview1"
     pagecolor="#ffffff"
     bordercolor="#000000"
     borderopacity="0.25"
     inkscape:showpageshadow="2"
     inkscape:pageopacity="0.0"
     inkscape:pagecheckerboard="0"
     inkscape:deskcolor="#d1d1d1"
     inkscape:zoom="4.3980466"
     inkscape:cx="-7.2759575"
     inkscape:cy="20.804691"
     inkscape:window-width="1440"
     inkscape:window-height="900"
     inkscape:window-x="0"
     inkscape:window-y="0"
     inkscape:window-maximized="0"
     inkscape:current-layer="svg1" />
  <path
     d="m 40,-510 q 0,-21.25 11.136364,-39.0625 11.136363,-17.8125 29.590909,-27.18751 Q 120.18182,-595.625 160.90909,-605.3125 201.63636,-615 243.63636,-615 q 42,0 82.72728,9.6875 40.72727,9.6875 80.18181,29.06249 Q 425,-566.875 436.13636,-549.0625 447.27273,-531.25 447.27273,-510 v 20 q 0,20.625 -14.95455,35.3125 Q 417.36364,-440 396.36364,-440 H 90.909091 q -21,0 -35.954546,-14.6875 Q 40,-469.375 40,-490 Z m 509.09091,70 h -64.90909 q 7,-11.25 10.5,-24.0625 3.5,-12.81251 3.5,-25.9375 v -25 q 0,-27.5 -15.59091,-52.81251 Q 467,-593.125 438.36364,-611.25 q 32.45454,3.75 61.09091,12.8125 28.63636,9.0625 53.45454,22.18749 22.90909,12.50001 35,27.81251 Q 600,-533.125 600,-515 v 25 q 0,20.625 -14.95455,35.3125 Q 570.09091,-440 549.09091,-440 Z M 243.63636,-640 q -42,0 -71.90909,-29.375 -29.90909,-29.375 -29.90909,-70.625 0,-41.25 29.90909,-70.625 29.90909,-29.375 71.90909,-29.375 42,0 71.90909,29.375 29.9091,29.375 29.9091,70.625 0,41.25 -29.9091,70.625 Q 285.63636,-640 243.63636,-640 Z m 254.54546,-100 q 0,41.25 -29.90909,70.625 -29.90909,29.375 -71.90909,29.375 -7,0 -17.81819,-1.56251 -10.81818,-1.56249 -17.81818,-3.4375 17.18182,-19.99999 26.40909,-44.37499 9.22728,-24.37501 9.22728,-50.625 0,-26.25 -9.22728,-50.625 Q 377.90909,-815 360.72727,-835 q 8.90909,-3.125 17.81818,-4.0625 8.9091,-0.9375 17.81819,-0.9375 42,0 71.90909,29.375 29.90909,29.375 29.90909,70.625 z M 90.909091,-490 H 396.36364 v -20 q 0,-6.875 -3.5,-12.5 -3.5,-5.62501 -9.22728,-8.75 -34.36363,-16.875 -69.36363,-25.3125 Q 279.27273,-565 243.63636,-565 208,-565 173,-556.5625 q -35,8.4375 -69.36364,25.3125 -5.727269,3.12499 -9.227269,8.75 -3.5,5.625 -3.5,12.5 z M 243.63636,-690 q 21,0 35.95455,-14.6875 14.95454,-14.6875 14.95454,-35.3125 0,-20.625 -14.95454,-35.3125 Q 264.63636,-790 243.63636,-790 q -21,0 -35.95454,14.6875 -14.95455,14.6875 -14.95455,35.3125 0,20.625 14.95455,35.3125 Q 222.63636,-690 243.63636,-690 Z m 0,200 z m 0,-250 z"
     id="path1"
     style="stroke-width:0;fill:#444749;fill-opacity:1;stroke:none;stroke-dasharray:none" />
</svg>
