<?xml version="1.0" encoding="UTF-8" standalone="no"?>
<svg
   height="16"
   viewBox="0 -960 640 640"
   width="16"
   fill="#1f1f1f"
   version="1.1"
   id="svg1"
   sodipodi:docname="event-results-2.svg"
   inkscape:version="1.4 (e7c3feb1, 2024-10-09)"
   xmlns:inkscape="http://www.inkscape.org/namespaces/inkscape"
   xmlns:sodipodi="http://sodipodi.sourceforge.net/DTD/sodipodi-0.dtd"
   xmlns="http://www.w3.org/2000/svg"
   xmlns:svg="http://www.w3.org/2000/svg">
  <defs
     id="defs1" />
  <sodipodi:namedview
     id="namedview1"
     pagecolor="#ffffff"
     bordercolor="#000000"
     borderopacity="0.25"
     inkscape:showpageshadow="2"
     inkscape:pageopacity="0.0"
     inkscape:pagecheckerboard="0"
     inkscape:deskcolor="#d1d1d1"
     inkscape:zoom="9.6291818"
     inkscape:cx="9.2427375"
     inkscape:cy="9.5542905"
     inkscape:window-width="1440"
     inkscape:window-height="823"
     inkscape:window-x="0"
     inkscape:window-y="0"
     inkscape:window-maximized="0"
     inkscape:current-layer="svg1" />
  <path
     d="m 65.225,-475.175 v -199.8 q 0,-20.60437 14.968032,-35.27719 Q 95.161063,-724.925 116.18,-724.925 h 101.91 v -99.9 q 0,-20.60437 14.96803,-35.27719 14.96803,-14.67281 35.98697,-14.67281 h 101.91 q 21.01894,0 35.98697,14.67281 14.96803,14.67282 14.96803,35.27719 v 149.85 h 101.91 q 21.01893,0 35.98697,14.67281 14.96803,14.67281 14.96803,35.27719 v 149.85 q 0,20.60437 -14.96803,35.27719 Q 544.83893,-425.225 523.82,-425.225 H 116.18 q -21.018937,0 -35.986968,-14.67281 Q 65.225,-454.57063 65.225,-475.175 Z"
     id="path4"
     style="fill:none;fill-opacity:1;stroke:#444749;stroke-width:60;stroke-dasharray:none;stroke-opacity:1" />
</svg>
