<?xml version="1.0" encoding="UTF-8" standalone="no"?>
<svg
   height="18"
   viewBox="0 -960 720 720"
   width="18"
   fill="#1f1f1f"
   version="1.1"
   id="svg1"
   sodipodi:docname="categories.svg"
   inkscape:version="1.4 (e7c3feb1, 2024-10-09)"
   xmlns:inkscape="http://www.inkscape.org/namespaces/inkscape"
   xmlns:sodipodi="http://sodipodi.sourceforge.net/DTD/sodipodi-0.dtd"
   xmlns="http://www.w3.org/2000/svg"
   xmlns:svg="http://www.w3.org/2000/svg">
  <defs
     id="defs1" />
  <sodipodi:namedview
     id="namedview1"
     pagecolor="#ffffff"
     bordercolor="#000000"
     borderopacity="0.25"
     inkscape:showpageshadow="2"
     inkscape:pageopacity="0.0"
     inkscape:pagecheckerboard="0"
     inkscape:deskcolor="#d1d1d1"
     inkscape:zoom="6.6385252"
     inkscape:cx="-9.4900597"
     inkscape:cy="5.1969375"
     inkscape:window-width="1440"
     inkscape:window-height="900"
     inkscape:window-x="0"
     inkscape:window-y="0"
     inkscape:window-maximized="0"
     inkscape:current-layer="svg1" />
  <path
     d="M 120,-280 Q 87,-280 63.5,-303.5 40,-327 40,-360 40,-393 63.5,-416.5 87,-440 120,-440 q 33,0 56.5,23.5 23.5,23.5 23.5,56.5 0,33 -23.5,56.5 Q 153,-280 120,-280 Z m 320,0 q -33,0 -56.5,-23.5 Q 360,-327 360,-360 q 0,-33 23.5,-56.5 23.5,-23.5 56.5,-23.5 33,0 56.5,23.5 23.5,23.5 23.5,56.5 0,33 -23.5,56.5 Q 473,-280 440,-280 Z M 280,-440 q -33,0 -56.5,-23.5 Q 200,-487 200,-520 q 0,-33 23.5,-56.5 23.5,-23.5 56.5,-23.5 33,0 56.5,23.5 23.5,23.5 23.5,56.5 0,33 -23.5,56.5 Q 313,-440 280,-440 Z m 320,0 q -33,0 -56.5,-23.5 Q 520,-487 520,-520 q 0,-33 23.5,-56.5 23.5,-23.5 56.5,-23.5 33,0 56.5,23.5 23.5,23.5 23.5,56.5 0,33 -23.5,56.5 Q 633,-440 600,-440 Z M 120,-600 Q 87,-600 63.5,-623.5 40,-647 40,-680 40,-713 63.5,-736.5 87,-760 120,-760 q 33,0 56.5,23.5 23.5,23.5 23.5,56.5 0,33 -23.5,56.5 Q 153,-600 120,-600 Z m 320,0 q -33,0 -56.5,-23.5 Q 360,-647 360,-680 q 0,-33 23.5,-56.5 23.5,-23.5 56.5,-23.5 33,0 56.5,23.5 23.5,23.5 23.5,56.5 0,33 -23.5,56.5 Q 473,-600 440,-600 Z M 280,-760 q -33,0 -56.5,-23.5 Q 200,-807 200,-840 q 0,-33 23.5,-56.5 23.5,-23.5 56.5,-23.5 33,0 56.5,23.5 23.5,23.5 23.5,56.5 0,33 -23.5,56.5 Q 313,-760 280,-760 Z m 320,0 q -33,0 -56.5,-23.5 Q 520,-807 520,-840 q 0,-33 23.5,-56.5 23.5,-23.5 56.5,-23.5 33,0 56.5,23.5 23.5,23.5 23.5,56.5 0,33 -23.5,56.5 Q 633,-760 600,-760 Z"
     id="path1" />
</svg>
