<?xml version="1.0" encoding="UTF-8" standalone="no"?>
<svg
   height="16"
   viewBox="0 -960 640 640"
   width="16"
   fill="#1f1f1f"
   version="1.1"
   id="svg1"
   sodipodi:docname="event-categories.svg"
   inkscape:version="1.4 (e7c3feb1, 2024-10-09)"
   xmlns:inkscape="http://www.inkscape.org/namespaces/inkscape"
   xmlns:sodipodi="http://sodipodi.sourceforge.net/DTD/sodipodi-0.dtd"
   xmlns="http://www.w3.org/2000/svg"
   xmlns:svg="http://www.w3.org/2000/svg">
  <defs
     id="defs1" />
  <sodipodi:namedview
     id="namedview1"
     pagecolor="#ffffff"
     bordercolor="#000000"
     borderopacity="0.25"
     inkscape:showpageshadow="2"
     inkscape:pageopacity="0.0"
     inkscape:pagecheckerboard="0"
     inkscape:deskcolor="#d1d1d1"
     inkscape:zoom="3.357592"
     inkscape:cx="-3.2761574"
     inkscape:cy="14.29596"
     inkscape:window-width="1440"
     inkscape:window-height="823"
     inkscape:window-x="0"
     inkscape:window-y="0"
     inkscape:window-maximized="0"
     inkscape:current-layer="svg1" />
  <path
     d="m 180,-453.33333 q 19.44444,0 33.05556,-13.61111 13.61111,-13.61112 13.61111,-33.05556 0,-19.44444 -13.61111,-33.05556 -13.61112,-13.61111 -33.05556,-13.61111 -19.44444,0 -33.05556,13.61111 -13.61111,13.61112 -13.61111,33.05556 0,19.44444 13.61111,33.05556 13.61112,13.61111 33.05556,13.61111 z m 0,-280 q 19.44444,0 33.05556,-13.61111 13.61111,-13.61112 13.61111,-33.05556 0,-19.44444 -13.61111,-33.05556 -13.61112,-13.61111 -33.05556,-13.61111 -19.44444,0 -33.05556,13.61111 -13.61111,13.61112 -13.61111,33.05556 0,19.44444 13.61111,33.05556 13.61112,13.61111 33.05556,13.61111 z m 0,140 q 19.44444,0 33.05556,-13.61111 13.61111,-13.61112 13.61111,-33.05556 0,-19.44444 -13.61111,-33.05556 -13.61112,-13.61111 -33.05556,-13.61111 -19.44444,0 -33.05556,13.61111 -13.61111,13.61112 -13.61111,33.05556 0,19.44444 13.61111,33.05556 13.61112,13.61111 33.05556,13.61111 z m 280,140 q 19.44444,0 33.05556,-13.61111 13.61111,-13.61112 13.61111,-33.05556 0,-19.44444 -13.61111,-33.05556 -13.61112,-13.61111 -33.05556,-13.61111 -19.44444,0 -33.05556,13.61111 -13.61111,13.61112 -13.61111,33.05556 0,19.44444 13.61111,33.05556 13.61112,13.61111 33.05556,13.61111 z m 0,-280 q 19.44444,0 33.05556,-13.61111 13.61111,-13.61112 13.61111,-33.05556 0,-19.44444 -13.61111,-33.05556 -13.61112,-13.61111 -33.05556,-13.61111 -19.44444,0 -33.05556,13.61111 -13.61111,13.61112 -13.61111,33.05556 0,19.44444 13.61111,33.05556 13.61112,13.61111 33.05556,13.61111 z M 102.22222,-360 Q 76.55556,-360 58.27778,-378.27778 40,-396.55556 40,-422.22222 v -435.55556 q 0,-25.66666 18.27778,-43.94444 Q 76.55556,-920 102.22222,-920 h 435.55556 q 25.66666,0 43.94444,18.27778 Q 600,-883.44444 600,-857.77778 v 435.55556 q 0,25.66666 -18.27778,43.94444 Q 563.44444,-360 537.77778,-360 Z m 0,-62.22222 H 537.77778 V -857.77778 H 102.22222 Z m 0,-435.55556 v 435.55556 z M 460,-593.33333 q 19.44444,0 33.05556,-13.61111 13.61111,-13.61112 13.61111,-33.05556 0,-19.44444 -13.61111,-33.05556 -13.61112,-13.61111 -33.05556,-13.61111 -19.44444,0 -33.05556,13.61111 -13.61111,13.61112 -13.61111,33.05556 0,19.44444 13.61111,33.05556 13.61112,13.61111 33.05556,13.61111 z m -140,-140 q 19.44444,0 33.05556,-13.61111 13.61111,-13.61112 13.61111,-33.05556 0,-19.44444 -13.61111,-33.05556 -13.61112,-13.61111 -33.05556,-13.61111 -19.44444,0 -33.05556,13.61111 -13.61111,13.61112 -13.61111,33.05556 0,19.44444 13.61111,33.05556 13.61112,13.61111 33.05556,13.61111 z m 0,280 q 19.44444,0 33.05556,-13.61111 13.61111,-13.61112 13.61111,-33.05556 0,-19.44444 -13.61111,-33.05556 -13.61112,-13.61111 -33.05556,-13.61111 -19.44444,0 -33.05556,13.61111 -13.61111,13.61112 -13.61111,33.05556 0,19.44444 13.61111,33.05556 13.61112,13.61111 33.05556,13.61111 z m 0,-140 q 19.44444,0 33.05556,-13.61111 13.61111,-13.61112 13.61111,-33.05556 0,-19.44444 -13.61111,-33.05556 -13.61112,-13.61111 -33.05556,-13.61111 -19.44444,0 -33.05556,13.61111 -13.61111,13.61112 -13.61111,33.05556 0,19.44444 13.61111,33.05556 13.61112,13.61111 33.05556,13.61111 z"
     id="path1"
     style="stroke-width:0;fill:#444749;fill-opacity:1;stroke:none;stroke-dasharray:none" />
</svg>
