<?xml version="1.0" encoding="UTF-8" standalone="no"?>
<svg
   height="16"
   viewBox="0 -960 640 640"
   width="16"
   fill="#1f1f1f"
   version="1.1"
   id="svg1"
   sodipodi:docname="event-comparison.svg"
   inkscape:version="1.4 (e7c3feb1, 2024-10-09)"
   xmlns:inkscape="http://www.inkscape.org/namespaces/inkscape"
   xmlns:sodipodi="http://sodipodi.sourceforge.net/DTD/sodipodi-0.dtd"
   xmlns="http://www.w3.org/2000/svg"
   xmlns:svg="http://www.w3.org/2000/svg">
  <defs
     id="defs1" />
  <sodipodi:namedview
     id="namedview1"
     pagecolor="#ffffff"
     bordercolor="#000000"
     borderopacity="0.25"
     inkscape:showpageshadow="2"
     inkscape:pageopacity="0.0"
     inkscape:pagecheckerboard="0"
     inkscape:deskcolor="#d1d1d1"
     inkscape:zoom="4.2651853"
     inkscape:cx="-13.364015"
     inkscape:cy="28.838137"
     inkscape:window-width="1440"
     inkscape:window-height="823"
     inkscape:window-x="0"
     inkscape:window-y="0"
     inkscape:window-maximized="0"
     inkscape:current-layer="svg1" />
  <path
     d="m 294.42922,-385.57078 v -25.57077 q -79.90868,-8.94978 -137.12328,-66.16439 -57.21462,-57.21461 -66.164385,-137.12328 H 65.570776 q -10.86758,0 -18.219178,-7.35161 Q 40,-629.13242 40,-640 q 0,-10.86758 7.351598,-18.21918 7.351598,-7.3516 18.219178,-7.3516 h 25.570779 q 8.949765,-79.90868 66.164385,-137.12328 57.2146,-57.21462 137.12328,-66.16439 v -25.57077 q 0,-10.86759 7.3516,-18.21918 Q 309.13242,-920 320,-920 q 10.86758,0 18.21917,7.3516 7.35161,7.35159 7.35161,18.21918 v 25.57077 q 79.90867,8.94977 137.12328,66.16439 57.21461,57.2146 66.16439,137.12328 h 25.57077 q 10.86758,0 18.21918,7.3516 Q 600,-650.86758 600,-640 q 0,10.86758 -7.3516,18.21917 -7.3516,7.35161 -18.21918,7.35161 h -25.57077 q -8.94978,79.90867 -66.16439,137.12328 -57.21461,57.21461 -137.12328,66.16439 v 25.57077 q 0,10.86758 -7.35161,18.21918 Q 330.86758,-360 320,-360 q -10.86758,0 -18.21918,-7.3516 -7.3516,-7.3516 -7.3516,-18.21918 z M 320,-461.00457 q 74.15525,0 126.57534,-52.42009 52.42009,-52.42009 52.42009,-126.57534 0,-74.15525 -52.42009,-126.57534 Q 394.15525,-818.99543 320,-818.99543 q -74.15525,0 -126.57534,52.42009 -52.42009,52.42009 -52.42009,126.57534 0,74.15525 52.42009,126.57534 52.42009,52.42009 126.57534,52.42009 z m 0,-76.71233 q -42.19178,0 -72.23744,-30.04566 -30.04567,-30.04566 -30.04567,-72.23744 0,-42.19178 30.04567,-72.23744 30.04566,-30.04567 72.23744,-30.04567 42.19178,0 72.23744,30.04567 30.04566,30.04566 30.04566,72.23744 0,42.19178 -30.04566,72.23744 Q 362.19178,-537.7169 320,-537.7169 Z m 0,-51.14155 q 21.09589,0 36.11872,-15.02283 15.02283,-15.02283 15.02283,-36.11872 0,-21.09589 -15.02283,-36.11872 -15.02283,-15.02283 -36.11872,-15.02283 -21.09589,0 -36.11872,15.02283 -15.02283,15.02283 -15.02283,36.11872 0,21.09589 15.02283,36.11872 15.02283,15.02283 36.11872,15.02283 z M 320,-640 Z"
     id="path1"
     style="stroke-width:0;fill:#444749;fill-opacity:1;stroke:none;stroke-dasharray:none" />
</svg>
