<?xml version="1.0" encoding="UTF-8" standalone="no"?>
<svg
   height="16"
   viewBox="0 -960 640 640"
   width="16"
   fill="#1f1f1f"
   version="1.1"
   id="svg1"
   sodipodi:docname="event-results.svg"
   inkscape:version="1.4 (e7c3feb1, 2024-10-09)"
   xmlns:inkscape="http://www.inkscape.org/namespaces/inkscape"
   xmlns:sodipodi="http://sodipodi.sourceforge.net/DTD/sodipodi-0.dtd"
   xmlns="http://www.w3.org/2000/svg"
   xmlns:svg="http://www.w3.org/2000/svg">
  <defs
     id="defs1" />
  <sodipodi:namedview
     id="namedview1"
     pagecolor="#ffffff"
     bordercolor="#000000"
     borderopacity="0.25"
     inkscape:showpageshadow="2"
     inkscape:pageopacity="0.0"
     inkscape:pagecheckerboard="0"
     inkscape:deskcolor="#d1d1d1"
     inkscape:zoom="2.3236305"
     inkscape:cx="-7.3161374"
     inkscape:cy="4.3036102"
     inkscape:window-width="1440"
     inkscape:window-height="823"
     inkscape:window-x="0"
     inkscape:window-y="0"
     inkscape:window-maximized="0"
     inkscape:current-layer="svg1" />
  <path
     d="m 338.87688,-632.84457 49.97235,-30.26393 49.97235,30.26393 q 4.22301,2.81524 8.09411,0 3.8711,-2.81525 2.46343,-7.74194 l -13.37289,-57.0088 43.63783,-38.00586 q 3.51918,-3.51906 2.46342,-7.39003 -1.05575,-3.87097 -5.98259,-4.57478 l -57.71455,-4.92669 -23.22659,-53.48973 q -1.40767,-4.22288 -6.33452,-4.22288 -4.92685,0 -6.33453,4.22288 l -23.22658,53.48973 -57.71454,4.92669 q -4.92685,0.70381 -5.98261,4.57478 -1.05575,3.87097 2.46343,7.39003 l 43.63782,38.00586 -13.37288,57.0088 q -1.40767,4.92669 2.46343,7.74194 3.87109,2.81524 8.09411,0 z m -104.87155,135.13196 q -23.22658,0 -39.76673,-16.53959 -16.54014,-16.53959 -16.54014,-39.76539 v -309.67743 q 0,-23.2258 16.54014,-39.76539 Q 210.77875,-920 234.00533,-920 h 309.6878 q 23.22659,0 39.76672,16.53959 Q 600,-886.92082 600,-863.69502 v 309.67743 q 0,23.2258 -16.54015,39.76539 -16.54013,16.53959 -39.76672,16.53959 z m 0,-56.30498 h 309.6878 v -309.67743 h -309.6878 z m 154.8439,-154.83871 z m -254.7886,292.78592 z m 7.03836,55.60117 q -23.22659,2.81525 -41.878234,-11.26099 -18.651654,-14.07625 -21.466998,-37.30206 L 40.450455,-716.59824 q -2.815343,-23.22581 11.965211,-41.52493 14.780553,-18.29912 38.00714,-21.81818 h 1.407672 q 11.965212,-2.11143 21.466992,6.33431 9.50179,8.44575 9.50179,21.11437 0,10.55719 -7.39028,18.29912 -7.39028,7.74194 -17.947814,9.85337 H 96.75733 l 38.00714,308.2698 333.61822,-40.82111 q 11.9652,-1.40763 21.11507,5.6305 9.14987,7.03812 10.55754,19.00293 1.40767,11.96481 -5.63069,20.76246 -7.03836,8.79765 -19.00356,10.20528 z"
     id="path1"
     style="stroke-width:0;fill:#444749;fill-opacity:1;stroke:none;stroke-dasharray:none" />
</svg>
