<?xml version="1.0" encoding="UTF-8" standalone="no"?>
<svg
   height="22"
   viewBox="0 -960 880 880"
   width="22"
   fill="#1f1f1f"
   version="1.1"
   id="svg1"
   sodipodi:docname="pace.svg"
   inkscape:version="1.4 (e7c3feb1, 2024-10-09)"
   xmlns:inkscape="http://www.inkscape.org/namespaces/inkscape"
   xmlns:sodipodi="http://sodipodi.sourceforge.net/DTD/sodipodi-0.dtd"
   xmlns="http://www.w3.org/2000/svg"
   xmlns:svg="http://www.w3.org/2000/svg">
  <defs
     id="defs1" />
  <sodipodi:namedview
     id="namedview1"
     pagecolor="#ffffff"
     bordercolor="#000000"
     borderopacity="0.25"
     inkscape:showpageshadow="2"
     inkscape:pageopacity="0.0"
     inkscape:pagecheckerboard="0"
     inkscape:deskcolor="#d1d1d1"
     inkscape:zoom="6.4264864"
     inkscape:cx="4.0457567"
     inkscape:cy="18.439314"
     inkscape:window-width="1440"
     inkscape:window-height="900"
     inkscape:window-x="0"
     inkscape:window-y="0"
     inkscape:window-maximized="0"
     inkscape:current-layer="svg1" />
  <path
     d="m 440,-120 q -82,0 -155,-31.5 -73,-31.5 -127.5,-86 Q 103,-292 71.5,-365 40,-438 40,-520 q 0,-83 31.5,-155.5 31.5,-72.5 86,-127 54.5,-54.5 127.5,-86 73,-31.5 155,-31.5 83,0 155.5,31.5 72.5,31.5 127,86 54.5,54.5 86,127 31.5,72.5 31.5,155.5 0,82 -31.5,155 -31.5,73 -86,127.5 -54.5,54.5 -127,86 Q 523,-120 440,-120 Z m 0,-240 q 60,0 117,17.5 57,17.5 107,50.5 46,-46 71,-104.5 25,-58.5 25,-123.5 0,-134 -93,-227 -93,-93 -227,-93 -134,0 -227,93 -93,93 -93,227 0,65 24.5,124 24.5,59 71.5,104 50,-33 107,-50.5 57,-17.5 117,-17.5 z m 0,80 q -41,0 -80,10 -39,10 -74,30 35,20 74,30 39,10 80,10 41,0 80,-10 39,-10 74,-30 -35,-20 -74,-30 -39,-10 -80,-10 z M 240,-560 q 17,0 28.5,-11.5 Q 280,-583 280,-600 280,-617 268.5,-628.5 257,-640 240,-640 q -17,0 -28.5,11.5 -11.5,11.5 -11.5,28.5 0,17 11.5,28.5 11.5,11.5 28.5,11.5 z m 120,-120 q 17,0 28.5,-11.5 Q 400,-703 400,-720 400,-737 388.5,-748.5 377,-760 360,-760 q -17,0 -28.5,11.5 -11.5,11.5 -11.5,28.5 0,17 11.5,28.5 11.5,11.5 28.5,11.5 z m 280,120 q 17,0 28.5,-11.5 Q 680,-583 680,-600 680,-617 668.5,-628.5 657,-640 640,-640 q -17,0 -28.5,11.5 -11.5,11.5 -11.5,28.5 0,17 11.5,28.5 11.5,11.5 28.5,11.5 z m -200,120 q 33,0 56.5,-23.5 23.5,-23.5 23.5,-56.5 0,-13 -4,-25.5 -4,-12.5 -12,-22.5 l 54,-136 q 7,-16 0.5,-31.5 Q 552,-751 536,-758 521,-765 505.5,-758.5 490,-752 484,-736 l -54,136 q -30,5 -50,27.5 -20,22.5 -20,52.5 0,33 23.5,56.5 23.5,23.5 56.5,23.5 z m 0,80 z m 0,-206 z m 0,286 z"
     id="path1" />
</svg>
