<?xml version="1.0" encoding="UTF-8" standalone="no"?>
<svg
   height="24"
   viewBox="0 -960 800 960"
   width="20"
   fill="#1f1f1f"
   version="1.1"
   id="svg1"
   sodipodi:docname="compare.svg"
   inkscape:version="1.4 (e7c3feb1, 2024-10-09)"
   xmlns:inkscape="http://www.inkscape.org/namespaces/inkscape"
   xmlns:sodipodi="http://sodipodi.sourceforge.net/DTD/sodipodi-0.dtd"
   xmlns="http://www.w3.org/2000/svg"
   xmlns:svg="http://www.w3.org/2000/svg">
  <defs
     id="defs1" />
  <sodipodi:namedview
     id="namedview1"
     pagecolor="#ffffff"
     bordercolor="#000000"
     borderopacity="0.25"
     inkscape:showpageshadow="2"
     inkscape:pageopacity="0.0"
     inkscape:pagecheckerboard="0"
     inkscape:deskcolor="#d1d1d1"
     inkscape:zoom="2.9157275"
     inkscape:cx="-16.805411"
     inkscape:cy="13.890187"
     inkscape:window-width="1440"
     inkscape:window-height="900"
     inkscape:window-x="0"
     inkscape:window-y="0"
     inkscape:window-maximized="0"
     inkscape:current-layer="svg1" />
  <path
     d="M 320,-120 H 120 Q 87,-120 63.5,-143.5 40,-167 40,-200 v -560 q 0,-33 23.5,-56.5 Q 87,-840 120,-840 h 200 v -40 q 0,-17 11.5,-28.5 11.5,-11.5 28.5,-11.5 17,0 28.5,11.5 11.5,11.5 11.5,28.5 v 800 q 0,17 -11.5,28.5 Q 377,-40 360,-40 343,-40 331.5,-51.5 320,-63 320,-80 Z M 120,-240 h 200 v -240 z m 360,120 v -360 l 200,240 V -760 H 480 v -80 h 200 q 33,0 56.5,23.5 23.5,23.5 23.5,56.5 v 560 q 0,33 -23.5,56.5 Q 713,-120 680,-120 Z"
     id="path1" />
</svg>
