<?xml version="1.0" encoding="UTF-8" standalone="no"?>
<svg
   height="16"
   viewBox="0 -960 640 640"
   width="16"
   fill="#1f1f1f"
   version="1.1"
   id="svg1"
   sodipodi:docname="event-comparison.svg"
   inkscape:version="1.4 (e7c3feb1, 2024-10-09)"
   xmlns:inkscape="http://www.inkscape.org/namespaces/inkscape"
   xmlns:sodipodi="http://sodipodi.sourceforge.net/DTD/sodipodi-0.dtd"
   xmlns="http://www.w3.org/2000/svg"
   xmlns:svg="http://www.w3.org/2000/svg">
  <defs
     id="defs1" />
  <sodipodi:namedview
     id="namedview1"
     pagecolor="#ffffff"
     bordercolor="#000000"
     borderopacity="0.25"
     inkscape:showpageshadow="2"
     inkscape:pageopacity="0.0"
     inkscape:pagecheckerboard="0"
     inkscape:deskcolor="#d1d1d1"
     inkscape:zoom="4.2651853"
     inkscape:cx="-13.364015"
     inkscape:cy="28.838137"
     inkscape:window-width="1440"
     inkscape:window-height="821"
     inkscape:window-x="0"
     inkscape:window-y="0"
     inkscape:window-maximized="0"
     inkscape:current-layer="svg1" />
  <path
     d="m 290.77626,-349.22374 v -29.22375 Q 199.45204,-388.67581 134.06394,-454.06394 68.675797,-519.45205 58.447491,-610.77626 H 29.223744 q -12.420092,0 -20.821918,-8.40183 Q 0,-627.5799 0,-640 q 0,-12.4201 8.401826,-20.82192 8.401826,-8.40182 20.821918,-8.40182 h 29.223747 q 10.228306,-91.32422 75.616449,-156.71232 65.3881,-65.38814 156.71232,-75.61645 v -29.22375 q 0,-12.42009 8.40182,-20.82192 Q 307.5799,-960 320,-960 q 12.4201,0 20.82191,8.40182 8.40183,8.40183 8.40183,20.82192 v 29.22375 q 91.32421,10.22831 156.71232,75.61645 65.38813,65.3881 75.61645,156.71232 h 29.22375 q 12.42008,0 20.82192,8.40182 Q 640,-652.4201 640,-640 q 0,12.4201 -8.40182,20.82191 -8.40184,8.40183 -20.82192,8.40183 h -29.22375 q -10.22832,91.32421 -75.61645,156.71232 -65.38811,65.38813 -156.71232,75.61645 v 29.22375 q 0,12.42008 -8.40183,20.82192 Q 332.4201,-320 320,-320 q -12.4201,0 -20.82192,-8.40182 -8.40182,-8.40184 -8.40182,-20.82192 z M 320,-435.43379 q 84.74885,0 144.65754,-59.90867 59.90867,-59.90869 59.90867,-144.65754 0,-84.74885 -59.90867,-144.65754 Q 404.74885,-844.56621 320,-844.56621 q -84.74885,0 -144.65754,59.90867 -59.90867,59.90869 -59.90867,144.65754 0,84.74885 59.90867,144.65754 59.90869,59.90867 144.65754,59.90867 z m 0,-87.67123 q -48.21918,0 -82.55708,-34.3379 -34.33791,-34.3379 -34.33791,-82.55708 0,-48.21918 34.33791,-82.55708 34.3379,-34.33791 82.55708,-34.33791 48.21918,0 82.55708,34.33791 34.3379,34.3379 34.3379,82.55708 0,48.21918 -34.3379,82.55708 -34.3379,34.3379 -82.55708,34.3379 z m 0,-58.44749 q 24.10959,0 41.27854,-17.16895 17.16895,-17.16895 17.16895,-41.27854 0,-24.10959 -17.16895,-41.27854 -17.16895,-17.16895 -41.27854,-17.16895 -24.10959,0 -41.27854,17.16895 -17.16895,17.16895 -17.16895,41.27854 0,24.10959 17.16895,41.27854 17.16895,17.16895 41.27854,17.16895 z M 320,-640 Z"
     id="path1"
     style="fill:#444749;fill-opacity:1;stroke:none;stroke-width:0;stroke-dasharray:none" />
</svg>
