<?xml version="1.0" encoding="UTF-8" standalone="no"?>
<svg
   height="16"
   viewBox="0 -960 640 640"
   width="16"
   fill="#1f1f1f"
   version="1.1"
   id="svg1"
   sodipodi:docname="event-categories.svg"
   inkscape:version="1.4 (e7c3feb1, 2024-10-09)"
   xmlns:inkscape="http://www.inkscape.org/namespaces/inkscape"
   xmlns:sodipodi="http://sodipodi.sourceforge.net/DTD/sodipodi-0.dtd"
   xmlns="http://www.w3.org/2000/svg"
   xmlns:svg="http://www.w3.org/2000/svg">
  <defs
     id="defs1" />
  <sodipodi:namedview
     id="namedview1"
     pagecolor="#ffffff"
     bordercolor="#000000"
     borderopacity="0.25"
     inkscape:showpageshadow="2"
     inkscape:pageopacity="0.0"
     inkscape:pagecheckerboard="0"
     inkscape:deskcolor="#d1d1d1"
     inkscape:zoom="5.2348753"
     inkscape:cx="-5.157716"
     inkscape:cy="17.669953"
     inkscape:window-width="1440"
     inkscape:window-height="900"
     inkscape:window-x="0"
     inkscape:window-y="0"
     inkscape:window-maximized="0"
     inkscape:current-layer="svg1" />
  <path
     d="M 110,-360 Q 81.125,-360 60.5625,-380.5625 40,-401.125 40,-430 40,-458.875 60.5625,-479.4375 81.125,-500 110,-500 q 28.875,0 49.4375,20.5625 Q 180,-458.875 180,-430 q 0,28.875 -20.5625,49.4375 Q 138.875,-360 110,-360 Z m 280,0 q -28.875,0 -49.4375,-20.5625 Q 320,-401.125 320,-430 q 0,-28.875 20.5625,-49.4375 Q 361.125,-500 390,-500 q 28.875,0 49.4375,20.5625 Q 460,-458.875 460,-430 q 0,28.875 -20.5625,49.4375 Q 418.875,-360 390,-360 Z M 250,-500 q -28.875,0 -49.4375,-20.5625 Q 180,-541.125 180,-570 q 0,-28.875 20.5625,-49.4375 Q 221.125,-640 250,-640 q 28.875,0 49.4375,20.5625 Q 320,-598.875 320,-570 q 0,28.875 -20.5625,49.4375 Q 278.875,-500 250,-500 Z m 280,0 q -28.875,0 -49.4375,-20.5625 Q 460,-541.125 460,-570 q 0,-28.875 20.5625,-49.4375 Q 501.125,-640 530,-640 q 28.875,0 49.4375,20.5625 Q 600,-598.875 600,-570 q 0,28.875 -20.5625,49.4375 Q 558.875,-500 530,-500 Z M 110,-640 Q 81.125,-640 60.5625,-660.5625 40,-681.125 40,-710 40,-738.875 60.5625,-759.4375 81.125,-780 110,-780 q 28.875,0 49.4375,20.5625 Q 180,-738.875 180,-710 q 0,28.875 -20.5625,49.4375 Q 138.875,-640 110,-640 Z m 280,0 q -28.875,0 -49.4375,-20.5625 Q 320,-681.125 320,-710 q 0,-28.875 20.5625,-49.4375 Q 361.125,-780 390,-780 q 28.875,0 49.4375,20.5625 Q 460,-738.875 460,-710 q 0,28.875 -20.5625,49.4375 Q 418.875,-640 390,-640 Z M 250,-780 q -28.875,0 -49.4375,-20.5625 Q 180,-821.125 180,-850 q 0,-28.875 20.5625,-49.4375 Q 221.125,-920 250,-920 q 28.875,0 49.4375,20.5625 Q 320,-878.875 320,-850 q 0,28.875 -20.5625,49.4375 Q 278.875,-780 250,-780 Z m 280,0 q -28.875,0 -49.4375,-20.5625 Q 460,-821.125 460,-850 q 0,-28.875 20.5625,-49.4375 Q 501.125,-920 530,-920 q 28.875,0 49.4375,20.5625 Q 600,-878.875 600,-850 q 0,28.875 -20.5625,49.4375 Q 558.875,-780 530,-780 Z"
     id="path1"
     style="stroke-width:0.875" />
</svg>
