<?xml version="1.0" encoding="UTF-8" standalone="no"?>
<svg
   height="22"
   viewBox="0 -960 880 880"
   width="22"
   fill="#1f1f1f"
   version="1.1"
   id="svg1"
   sodipodi:docname="event-pace.svg"
   inkscape:version="1.4 (e7c3feb1, 2024-10-09)"
   xmlns:inkscape="http://www.inkscape.org/namespaces/inkscape"
   xmlns:sodipodi="http://sodipodi.sourceforge.net/DTD/sodipodi-0.dtd"
   xmlns="http://www.w3.org/2000/svg"
   xmlns:svg="http://www.w3.org/2000/svg">
  <defs
     id="defs1" />
  <sodipodi:namedview
     id="namedview1"
     pagecolor="#ffffff"
     bordercolor="#000000"
     borderopacity="0.25"
     inkscape:showpageshadow="2"
     inkscape:pageopacity="0.0"
     inkscape:pagecheckerboard="0"
     inkscape:deskcolor="#d1d1d1"
     inkscape:zoom="4.1316259"
     inkscape:cx="-0.7261064"
     inkscape:cy="22.630316"
     inkscape:window-width="1440"
     inkscape:window-height="900"
     inkscape:window-x="0"
     inkscape:window-y="0"
     inkscape:window-maximized="0"
     inkscape:current-layer="svg1" />
  <path
     d="m 570,-801.19769 q -21,0 -35.5,-14.56202 -14.5,-14.56203 -14.5,-35.65185 0,-21.08983 14.5,-35.65185 14.5,-14.56203 35.5,-14.56203 21,0 35.5,14.56203 14.5,14.56202 14.5,35.65185 0,21.08982 -14.5,35.65185 -14.5,14.56202 -35.5,14.56202 z m 0,662.82314 q -21,0 -35.5,-14.56203 -14.5,-14.56202 -14.5,-35.65185 0,-21.08983 14.5,-35.65185 14.5,-14.56202 35.5,-14.56202 21,0 35.5,14.56202 14.5,14.56202 14.5,35.65185 0,21.08983 -14.5,35.65185 -14.5,14.56203 -35.5,14.56203 z m 160,-522.22429 q -21,0 -35.5,-14.56203 -14.5,-14.56202 -14.5,-35.65185 0,-21.08982 14.5,-35.65185 14.5,-14.56202 35.5,-14.56202 21,0 35.5,14.56202 14.5,14.56203 14.5,35.65185 0,21.08983 -14.5,35.65185 -14.5,14.56203 -35.5,14.56203 z m 0,381.62544 q -21,0 -35.5,-14.56202 -14.5,-14.56203 -14.5,-35.65186 0,-21.08982 14.5,-35.65185 14.5,-14.56202 35.5,-14.56202 21,0 35.5,14.56202 14.5,14.56203 14.5,35.65185 0,21.08983 -14.5,35.65186 -14.5,14.56202 -35.5,14.56202 z m 60,-190.81272 q -21,0 -35.5,-14.56203 Q 740,-498.91017 740,-520 q 0,-21.08982 14.5,-35.65185 14.5,-14.56202 35.5,-14.56202 21,0 35.5,14.56202 14.5,14.56203 14.5,35.65185 0,21.08983 -14.5,35.65185 -14.5,14.56203 -35.5,14.56203 z M 40,-520 Q 40,-677.67156 144.5,-791.15492 249,-904.63827 401,-919.70243 q 16,-2.00856 27.5,9.54063 11.5,11.54919 11.5,28.62191 0,16.06844 -10.5,28.11977 -10.5,12.05133 -26.5,14.05989 -121,14.05988 -202,104.44485 -81,90.38498 -81,214.91538 0,125.53469 81,215.41752 81,89.88284 202,103.94272 16,2.00856 26.5,14.05989 10.5,12.05133 10.5,28.11977 0,17.07271 -11.5,28.6219 -11.5,11.54919 -27.5,9.54064 Q 248,-135.36172 144,-248.84508 40,-362.32843 40,-520 Z m 400,80.3422 q -33,0 -56.5,-23.60052 Q 360,-486.85884 360,-520 q 0,-5.02138 0.5,-10.54491 0.5,-5.52353 2.5,-10.54491 l -55,-55.23526 q -11,-11.04706 -11,-28.11977 0,-17.07272 11,-28.11977 11,-11.04706 28,-11.04706 17,0 28,11.04706 l 55,55.23526 q 4,-1.00428 21,-3.01283 33,0 56.5,23.60052 23.5,23.60052 23.5,56.74167 0,33.14116 -23.5,56.74168 -23.5,23.60052 -56.5,23.60052 z"
     id="path1"
     style="stroke-width:1.00214" />
</svg>
