<?xml version="1.0" encoding="UTF-8" standalone="no"?>
<svg
   height="16"
   viewBox="0 -960 640 640"
   width="16"
   fill="#1f1f1f"
   version="1.1"
   id="svg1"
   sodipodi:docname="season-comparison.svg"
   inkscape:version="1.4 (e7c3feb1, 2024-10-09)"
   xmlns:inkscape="http://www.inkscape.org/namespaces/inkscape"
   xmlns:sodipodi="http://sodipodi.sourceforge.net/DTD/sodipodi-0.dtd"
   xmlns="http://www.w3.org/2000/svg"
   xmlns:svg="http://www.w3.org/2000/svg">
  <defs
     id="defs1" />
  <sodipodi:namedview
     id="namedview1"
     pagecolor="#ffffff"
     bordercolor="#000000"
     borderopacity="0.25"
     inkscape:showpageshadow="2"
     inkscape:pageopacity="0.0"
     inkscape:pagecheckerboard="0"
     inkscape:deskcolor="#d1d1d1"
     inkscape:zoom="4.9607116"
     inkscape:cx="3.4269277"
     inkscape:cy="13.102959"
     inkscape:window-width="1440"
     inkscape:window-height="823"
     inkscape:window-x="0"
     inkscape:window-y="0"
     inkscape:window-maximized="0"
     inkscape:current-layer="svg1" />
  <path
     d="m 71.11111,-420 q -13.222221,0 -22.166666,-9.03572 Q 40,-438.07143 40,-451.42858 q 0,-13.35714 8.944444,-22.39285 8.944445,-9.03572 22.166666,-9.03572 h 311.11111 q 13.22222,0 22.16667,9.03572 8.94444,9.03571 8.94444,22.39285 0,13.35715 -8.94444,22.39286 Q 395.44444,-420 382.22222,-420 Z m 435.55556,0 q -13.22223,0 -22.16667,-9.03572 -8.94444,-9.03571 -8.94444,-22.39286 0,-13.35714 8.94444,-22.39285 8.94444,-9.03572 22.16667,-9.03572 h 62.22222 q 13.22222,0 22.16667,9.03572 8.94444,9.03571 8.94444,22.39285 0,13.35715 -8.94444,22.39286 Q 582.11111,-420 568.88889,-420 Z M 71.11111,-545.71429 q -13.222221,0 -22.166666,-9.03571 Q 40,-563.78572 40,-577.14286 q 0,-13.35714 8.944444,-22.39286 8.944445,-9.03571 22.166666,-9.03571 h 62.22222 q 13.22223,0 22.16667,9.03571 8.94444,9.03572 8.94444,22.39286 0,13.35714 -8.94444,22.39286 -8.94444,9.03571 -22.16667,9.03571 z m 186.66667,0 q -13.22222,0 -22.16667,-9.03571 -8.94444,-9.03572 -8.94444,-22.39286 0,-13.35714 8.94444,-22.39286 8.94445,-9.03571 22.16667,-9.03571 h 311.11111 q 13.22222,0 22.16667,9.03571 Q 600,-590.5 600,-577.14286 q 0,13.35714 -8.94444,22.39286 -8.94445,9.03571 -22.16667,9.03571 z M 71.11111,-671.42857 q -13.222221,0 -22.166666,-9.03572 Q 40,-689.5 40,-702.85714 q 0,-13.35715 8.944444,-22.39286 8.944445,-9.03572 22.166666,-9.03572 h 342.22222 q 13.22223,0 22.16667,9.03572 8.94444,9.03571 8.94444,22.39286 0,13.35714 -8.94444,22.39285 -8.94444,9.03572 -22.16667,9.03572 z m 466.66667,0 q -13.22222,0 -22.16667,-9.03572 -8.94444,-9.03571 -8.94444,-22.39285 0,-13.35715 8.94444,-22.39286 8.94445,-9.03572 22.16667,-9.03572 h 31.11111 q 13.22222,0 22.16667,9.03572 8.94444,9.03571 8.94444,22.39286 0,13.35714 -8.94444,22.39285 -8.94445,9.03572 -22.16667,9.03572 z M 71.11111,-797.14286 q -13.222221,0 -22.166666,-9.03571 Q 40,-815.21429 40,-828.57143 40,-841.92857 48.944444,-850.96429 57.888889,-860 71.11111,-860 h 155.55556 q 13.22222,0 22.16666,9.03571 8.94445,9.03572 8.94445,22.39286 0,13.35714 -8.94445,22.39286 -8.94444,9.03571 -22.16666,9.03571 z m 280,0 q -13.22222,0 -22.16667,-9.03571 Q 320,-815.21429 320,-828.57143 q 0,-13.35714 8.94444,-22.39286 Q 337.88889,-860 351.11111,-860 h 217.77778 q 13.22222,0 22.16667,9.03571 8.94444,9.03572 8.94444,22.39286 0,13.35714 -8.94444,22.39286 -8.94445,9.03571 -22.16667,9.03571 z"
     id="path1"
     style="stroke-width:0;fill:#444749;fill-opacity:1;stroke:#000000;stroke-dasharray:none;stroke-opacity:1" />
</svg>
