<?xml version="1.0" encoding="UTF-8" standalone="no"?>
<svg
   height="16"
   viewBox="0 -960 640 640"
   width="16"
   fill="#1f1f1f"
   version="1.1"
   id="svg1"
   sodipodi:docname="season-ratings.svg"
   inkscape:version="1.4 (e7c3feb1, 2024-10-09)"
   xmlns:inkscape="http://www.inkscape.org/namespaces/inkscape"
   xmlns:sodipodi="http://sodipodi.sourceforge.net/DTD/sodipodi-0.dtd"
   xmlns="http://www.w3.org/2000/svg"
   xmlns:svg="http://www.w3.org/2000/svg">
  <defs
     id="defs1" />
  <sodipodi:namedview
     id="namedview1"
     pagecolor="#ffffff"
     bordercolor="#000000"
     borderopacity="0.25"
     inkscape:showpageshadow="2"
     inkscape:pageopacity="0.0"
     inkscape:pagecheckerboard="0"
     inkscape:deskcolor="#d1d1d1"
     inkscape:zoom="4.1431956"
     inkscape:cx="-3.8617535"
     inkscape:cy="19.308767"
     inkscape:window-width="1440"
     inkscape:window-height="823"
     inkscape:window-x="0"
     inkscape:window-y="0"
     inkscape:window-maximized="0"
     inkscape:current-layer="svg1" />
  <path
     d="m 71.111111,-400 q -13.222222,0 -22.166667,-8.31926 Q 40,-416.63853 40,-428.93658 v -28.93658 q 0,-12.29804 8.944444,-20.61731 8.944445,-8.31927 22.166667,-8.31927 13.222222,0 22.166667,8.31927 8.944442,8.31927 8.944442,20.61731 v 28.93658 q 0,12.29805 -8.944442,20.61732 Q 84.333333,-400 71.111111,-400 Z m 124.444449,0 q -13.22223,0 -22.16667,-8.31926 -8.94445,-8.31927 -8.94445,-20.61732 v -159.15119 q 0,-12.29804 8.94445,-20.61732 8.94444,-8.31926 22.16667,-8.31926 13.22222,0 22.16666,8.31926 8.94445,8.31928 8.94445,20.61732 v 159.15119 q 0,12.29805 -8.94445,20.61732 Q 208.77778,-400 195.55556,-400 Z M 320,-400 q -13.22222,0 -22.16667,-8.31926 -8.94444,-8.31927 -8.94444,-20.61732 v -101.27803 q 0,-12.29804 8.94444,-20.61732 8.94445,-8.31926 22.16667,-8.31926 13.22222,0 22.16667,8.31926 8.94444,8.31928 8.94444,20.61732 v 101.27803 q 0,12.29805 -8.94444,20.61732 Q 333.22222,-400 320,-400 Z m 124.44444,0 q -13.22222,0 -22.16666,-8.31926 -8.94445,-8.31927 -8.94445,-20.61732 v -144.6829 q 0,-12.29805 8.94445,-20.61731 8.94444,-8.31927 22.16666,-8.31927 13.22223,0 22.16667,8.31927 8.94445,8.31926 8.94445,20.61731 v 144.6829 q 0,12.29805 -8.94445,20.61732 Q 457.66667,-400 444.44444,-400 Z m 124.44445,0 q -13.22222,0 -22.16667,-8.31926 -8.94444,-8.31927 -8.94444,-20.61732 V -689.3658 q 0,-12.29805 8.94444,-20.61732 8.94445,-8.31926 22.16667,-8.31926 13.22222,0 22.16667,8.31926 Q 600,-701.66385 600,-689.3658 v 260.42922 q 0,12.29805 -8.94444,20.61732 Q 582.11111,-400 568.88889,-400 Z M 382.22222,-661.15264 q -12.44444,0 -23.72222,-4.34048 -11.27778,-4.34049 -20.61111,-12.29806 l -80.11111,-74.51169 -164.888891,153.36388 q -9.333333,8.68098 -22.166667,8.31927 -12.833333,-0.36171 -22.166666,-9.04269 -8.555556,-8.68097 -8.166667,-20.61731 0.388889,-11.93634 8.944444,-19.8939 L 213.44444,-792.81408 q 9.33334,-8.68098 20.61112,-12.65975 11.27777,-3.97878 23.72222,-3.97878 12.44444,0 24.11111,3.97878 11.66667,3.97877 20.22222,12.65975 l 80.11111,74.5117 164.88889,-153.36388 q 9.33333,-8.68098 22.16667,-8.31927 12.83333,0.3617 22.16666,9.04268 8.55556,8.68097 8.16667,20.61731 -0.38889,11.93635 -8.94444,19.8939 l -164.11111,152.64046 q -8.55556,7.95757 -20.22223,12.29806 -11.66666,4.34048 -24.11111,4.34048 z"
     id="path1"
     style="stroke-width:0;fill:#444749;fill-opacity:1;stroke:none;stroke-dasharray:none" />
</svg>
