<?xml version="1.0" encoding="UTF-8" standalone="no"?>
<svg
   height="16"
   viewBox="0 -960 640 640"
   width="16"
   fill="#1f1f1f"
   version="1.1"
   id="svg1"
   sodipodi:docname="season-statistics.svg"
   inkscape:version="1.4 (e7c3feb1, 2024-10-09)"
   xmlns:inkscape="http://www.inkscape.org/namespaces/inkscape"
   xmlns:sodipodi="http://sodipodi.sourceforge.net/DTD/sodipodi-0.dtd"
   xmlns="http://www.w3.org/2000/svg"
   xmlns:svg="http://www.w3.org/2000/svg">
  <defs
     id="defs1" />
  <sodipodi:namedview
     id="namedview1"
     pagecolor="#ffffff"
     bordercolor="#000000"
     borderopacity="0.25"
     inkscape:showpageshadow="2"
     inkscape:pageopacity="0.0"
     inkscape:pagecheckerboard="0"
     inkscape:deskcolor="#d1d1d1"
     inkscape:zoom="3.9404473"
     inkscape:cx="-3.2991178"
     inkscape:cy="11.92758"
     inkscape:window-width="1440"
     inkscape:window-height="823"
     inkscape:window-x="0"
     inkscape:window-y="0"
     inkscape:window-maximized="0"
     inkscape:current-layer="svg1" />
  <path
     d="m 320,-764.44444 q 0,-13.22223 -8.94444,-22.16667 -8.94445,-8.94445 -22.16667,-8.94445 h -93.33333 q -13.22223,0 -22.16667,8.94445 -8.94445,8.94444 -8.94445,22.16667 0,13.22222 8.94445,22.16666 8.94444,8.94445 22.16667,8.94445 h 93.33333 q 13.22222,0 22.16667,-8.94445 Q 320,-751.22222 320,-764.44444 Z m 155.55556,248.88888 q 0,-13.22222 -8.94445,-22.16666 -8.94444,-8.94445 -22.16667,-8.94445 H 195.55556 q -13.22223,0 -22.16667,8.94445 -8.94445,8.94444 -8.94445,22.16666 0,13.22223 8.94445,22.16667 8.94444,8.94445 22.16667,8.94445 h 248.88888 q 13.22223,0 22.16667,-8.94445 8.94445,-8.94444 8.94445,-22.16667 z M 257.77778,-640 q 0,-13.22222 -8.94445,-22.16667 -8.94444,-8.94444 -22.16666,-8.94444 h -31.11111 q -13.22223,0 -22.16667,8.94444 -8.94445,8.94445 -8.94445,22.16667 0,13.22222 8.94445,22.16667 8.94444,8.94444 22.16667,8.94444 h 31.11111 q 13.22222,0 22.16666,-8.94444 8.94445,-8.94445 8.94445,-22.16667 z M 40,-857.77778 q 0,-25.66666 18.277778,-43.94444 Q 76.555556,-920 102.22222,-920 h 435.55556 q 25.66666,0 43.94444,18.27778 Q 600,-883.44444 600,-857.77778 v 435.55556 q 0,25.66666 -18.27778,43.94444 Q 563.44444,-360 537.77778,-360 H 102.22222 Q 76.555556,-360 58.277778,-378.27778 40,-396.55556 40,-422.22222 Z m 62.22222,0 v 435.55556 h 435.55556 v -435.55556 z m 435.55556,0 H 102.22222 Z M 320,-640 q 0,13.22222 8.94444,22.16667 8.94445,8.94444 22.16667,8.94444 13.22222,0 22.16667,-8.94444 8.94444,-8.94445 8.94444,-22.16667 0,-13.22222 -8.94444,-22.16667 -8.94445,-8.94444 -22.16667,-8.94444 -13.22222,0 -22.16667,8.94444 Q 320,-653.22222 320,-640 Z"
     id="path1"
     style="stroke-width:0;fill:#444749;fill-opacity:1;stroke:none;stroke-dasharray:none" />
</svg>
