<?xml version="1.0" encoding="UTF-8" standalone="no"?>
<svg
   height="16"
   viewBox="0 -960 640 640"
   width="16"
   fill="#1f1f1f"
   version="1.1"
   id="svg1"
   sodipodi:docname="season-comparison.svg"
   inkscape:version="1.4 (e7c3feb1, 2024-10-09)"
   xmlns:inkscape="http://www.inkscape.org/namespaces/inkscape"
   xmlns:sodipodi="http://sodipodi.sourceforge.net/DTD/sodipodi-0.dtd"
   xmlns="http://www.w3.org/2000/svg"
   xmlns:svg="http://www.w3.org/2000/svg">
  <defs
     id="defs1" />
  <sodipodi:namedview
     id="namedview1"
     pagecolor="#ffffff"
     bordercolor="#000000"
     borderopacity="0.25"
     inkscape:showpageshadow="2"
     inkscape:pageopacity="0.0"
     inkscape:pagecheckerboard="0"
     inkscape:deskcolor="#d1d1d1"
     inkscape:zoom="4.9607116"
     inkscape:cx="3.5277197"
     inkscape:cy="13.203751"
     inkscape:window-width="1440"
     inkscape:window-height="900"
     inkscape:window-x="0"
     inkscape:window-y="0"
     inkscape:window-maximized="0"
     inkscape:current-layer="svg1" />
  <path
     d="m 71.11111,-440 q -13.222221,0 -22.166666,-9.03572 Q 40,-458.07143 40,-471.42858 q 0,-13.35714 8.944444,-22.39285 8.944445,-9.03572 22.166666,-9.03572 h 311.11111 q 13.22222,0 22.16667,9.03572 8.94444,9.03571 8.94444,22.39285 0,13.35715 -8.94444,22.39286 Q 395.44444,-440 382.22222,-440 Z m 435.55556,0 q -13.22223,0 -22.16667,-9.03572 -8.94444,-9.03571 -8.94444,-22.39286 0,-13.35714 8.94444,-22.39285 8.94444,-9.03572 22.16667,-9.03572 h 62.22222 q 13.22222,0 22.16667,9.03572 8.94444,9.03571 8.94444,22.39285 0,13.35715 -8.94444,22.39286 Q 582.11111,-440 568.88889,-440 Z M 71.11111,-565.71429 q -13.222221,0 -22.166666,-9.03571 Q 40,-583.78572 40,-597.14286 q 0,-13.35714 8.944444,-22.39286 8.944445,-9.03571 22.166666,-9.03571 h 62.22222 q 13.22223,0 22.16667,9.03571 8.94444,9.03572 8.94444,22.39286 0,13.35714 -8.94444,22.39286 -8.94444,9.03571 -22.16667,9.03571 z m 186.66667,0 q -13.22222,0 -22.16667,-9.03571 -8.94444,-9.03572 -8.94444,-22.39286 0,-13.35714 8.94444,-22.39286 8.94445,-9.03571 22.16667,-9.03571 h 311.11111 q 13.22222,0 22.16667,9.03571 Q 600,-610.5 600,-597.14286 q 0,13.35714 -8.94444,22.39286 -8.94445,9.03571 -22.16667,9.03571 z M 71.11111,-691.42857 q -13.222221,0 -22.166666,-9.03572 Q 40,-709.5 40,-722.85714 q 0,-13.35715 8.944444,-22.39286 8.944445,-9.03572 22.166666,-9.03572 h 342.22222 q 13.22223,0 22.16667,9.03572 8.94444,9.03571 8.94444,22.39286 0,13.35714 -8.94444,22.39285 -8.94444,9.03572 -22.16667,9.03572 z m 466.66667,0 q -13.22222,0 -22.16667,-9.03572 -8.94444,-9.03571 -8.94444,-22.39285 0,-13.35715 8.94444,-22.39286 8.94445,-9.03572 22.16667,-9.03572 h 31.11111 q 13.22222,0 22.16667,9.03572 8.94444,9.03571 8.94444,22.39286 0,13.35714 -8.94444,22.39285 -8.94445,9.03572 -22.16667,9.03572 z M 71.11111,-817.14286 q -13.222221,0 -22.166666,-9.03571 Q 40,-835.21429 40,-848.57143 40,-861.92857 48.944444,-870.96429 57.888889,-880 71.11111,-880 h 155.55556 q 13.22222,0 22.16666,9.03571 8.94445,9.03572 8.94445,22.39286 0,13.35714 -8.94445,22.39286 -8.94444,9.03571 -22.16666,9.03571 z m 280,0 q -13.22222,0 -22.16667,-9.03571 Q 320,-835.21429 320,-848.57143 q 0,-13.35714 8.94444,-22.39286 Q 337.88889,-880 351.11111,-880 h 217.77778 q 13.22222,0 22.16667,9.03571 8.94444,9.03572 8.94444,22.39286 0,13.35714 -8.94444,22.39286 -8.94445,9.03571 -22.16667,9.03571 z"
     id="path1"
     style="fill:#444749;fill-opacity:1;stroke:#000000;stroke-width:0;stroke-dasharray:none;stroke-opacity:1" />
</svg>
