<?xml version="1.0" encoding="UTF-8" standalone="no"?>
<svg
   height="16"
   viewBox="0 -960 640 640"
   width="16"
   fill="#1f1f1f"
   version="1.1"
   id="svg1"
   sodipodi:docname="season-statistics.svg"
   inkscape:version="1.4 (e7c3feb1, 2024-10-09)"
   xmlns:inkscape="http://www.inkscape.org/namespaces/inkscape"
   xmlns:sodipodi="http://sodipodi.sourceforge.net/DTD/sodipodi-0.dtd"
   xmlns="http://www.w3.org/2000/svg"
   xmlns:svg="http://www.w3.org/2000/svg">
  <defs
     id="defs1" />
  <sodipodi:namedview
     id="namedview1"
     pagecolor="#ffffff"
     bordercolor="#000000"
     borderopacity="0.25"
     inkscape:showpageshadow="2"
     inkscape:pageopacity="0.0"
     inkscape:pagecheckerboard="0"
     inkscape:deskcolor="#d1d1d1"
     inkscape:zoom="20.033798"
     inkscape:cx="3.7935892"
     inkscape:cy="7.9865036"
     inkscape:window-width="1440"
     inkscape:window-height="821"
     inkscape:window-x="0"
     inkscape:window-y="0"
     inkscape:window-maximized="0"
     inkscape:current-layer="svg1" />
  <path
     style="stroke-width:0;fill:#444749;fill-opacity:1;stroke:none;stroke-dasharray:none"
     d="M 537.77778,-857.77778 H 102.22222 Z"
     id="path6" />
  <path
     id="path4"
     style="stroke-width:0;fill:#444749;fill-opacity:1;stroke:none;stroke-dasharray:none"
     d="M 102.1875 -920 C 85.076391 -920 70.466435 -913.90394 58.28125 -901.71875 C 46.096065 -889.53356 40 -874.92361 40 -857.8125 L 40 -422.1875 C 40 -405.07639 46.096065 -390.46644 58.28125 -378.28125 C 70.466435 -366.09606 85.076391 -360 102.1875 -360 L 537.8125 -360 C 554.92361 -360 569.53356 -366.09606 581.71875 -378.28125 C 593.90394 -390.46644 600 -405.07639 600 -422.1875 L 600 -857.8125 C 600 -874.92361 593.90394 -889.53356 581.71875 -901.71875 C 569.53356 -913.90394 554.92361 -920 537.8125 -920 L 102.1875 -920 z M 102.1875 -857.8125 L 537.8125 -857.8125 L 537.8125 -422.1875 L 102.1875 -422.1875 L 102.1875 -857.8125 z " />
  <path
     style="fill:#444749;fill-opacity:1;stroke:none;stroke-width:0;stroke-dasharray:none"
     d="m 199.99999,-690 q 12.75001,0 21.375,-6.9 Q 230,-703.8 230,-714 v -71.99999 q 0,-10.20001 -8.62501,-17.1 Q 212.75,-810 199.99999,-810 187.25,-810 178.62501,-803.09999 170,-796.2 170,-785.99999 V -714 q 0,10.2 8.62501,17.1 8.62499,6.9 21.37498,6.9 z"
     id="path1" />
  <path
     style="fill:#444749;fill-opacity:1;stroke:none;stroke-width:0;stroke-dasharray:none"
     d="m 319.99999,-690 q 12.75001,0 21.375,-6.9 Q 350,-703.8 350,-714 v -71.99999 Q 350,-796.2 341.37499,-803.1 332.75,-810 319.99999,-810 307.25,-810 298.62501,-803.1 290,-796.2 290,-785.99999 V -714 q 0,10.2 8.62501,17.1 8.62499,6.9 21.37498,6.9 z"
     id="path1-2" />
  <path
     style="fill:#444749;fill-opacity:1;stroke:none;stroke-width:0;stroke-dasharray:none"
     d="m 439.99999,-690 q 12.75001,0 21.375,-6.9 Q 470,-703.8 470,-714 v -71.99999 Q 470,-796.2 461.37499,-803.1 452.75,-810 439.99999,-810 427.25,-810 418.62501,-803.1 410,-796.2 410,-785.99999 V -714 q 0,10.2 8.62501,17.1 8.62499,6.9 21.37498,6.9 z"
     id="path1-2-9" />
  <path
     style="fill:#444749;fill-opacity:1;stroke:none;stroke-width:0;stroke-dasharray:none"
     d="m 199.99999,-470 q 12.75001,0 21.375,-6.9 Q 230,-483.8 230,-494 v -71.99999 Q 230,-576.2 221.37499,-583.1 212.75,-590 199.99999,-590 187.25,-590 178.62501,-583.1 170,-576.2 170,-565.99999 V -494 q 0,10.2 8.62501,17.1 8.62499,6.9 21.37498,6.9 z"
     id="path1-4" />
  <path
     style="fill:#444749;fill-opacity:1;stroke:none;stroke-width:0;stroke-dasharray:none"
     d="m 319.99999,-470 q 12.75001,0 21.375,-6.9 Q 350,-483.8 350,-494 v -71.99999 Q 350,-576.2 341.37499,-583.1 332.75,-590 319.99999,-590 307.25,-590 298.62501,-583.1 290,-576.2 290,-565.99999 V -494 q 0,10.2 8.62501,17.1 8.62499,6.9 21.37498,6.9 z"
     id="path1-2-93" />
  <path
     style="fill:#444749;fill-opacity:1;stroke:none;stroke-width:0;stroke-dasharray:none"
     d="m 439.99999,-470 q 12.75001,0 21.375,-6.9 Q 470,-483.8 470,-494 v -71.99999 Q 470,-576.2 461.37499,-583.1 452.75,-590 439.99999,-590 427.25,-590 418.62501,-583.1 410,-576.2 410,-565.99999 V -494 q 0,10.2 8.62501,17.1 8.62499,6.9 21.37498,6.9 z"
     id="path1-2-9-0" />
</svg>
