<?xml version="1.0" encoding="UTF-8" standalone="no"?>
<svg
   height="20"
   viewBox="0 -960 800 800"
   width="20"
   fill="#1f1f1f"
   version="1.1"
   id="svg1"
   sodipodi:docname="info.svg"
   inkscape:version="1.4 (e7c3feb1, 2024-10-09)"
   xmlns:inkscape="http://www.inkscape.org/namespaces/inkscape"
   xmlns:sodipodi="http://sodipodi.sourceforge.net/DTD/sodipodi-0.dtd"
   xmlns="http://www.w3.org/2000/svg"
   xmlns:svg="http://www.w3.org/2000/svg">
  <defs
     id="defs1" />
  <sodipodi:namedview
     id="namedview1"
     pagecolor="#ffffff"
     bordercolor="#000000"
     borderopacity="0.25"
     inkscape:showpageshadow="2"
     inkscape:pageopacity="0.0"
     inkscape:pagecheckerboard="0"
     inkscape:deskcolor="#d1d1d1"
     inkscape:zoom="11.150296"
     inkscape:cx="7.9818511"
     inkscape:cy="13.766451"
     inkscape:window-width="1440"
     inkscape:window-height="900"
     inkscape:window-x="0"
     inkscape:window-y="0"
     inkscape:window-maximized="0"
     inkscape:current-layer="svg1" />
  <g
     id="g5"
     transform="translate(0,39.91694)">
    <path
       style="fill:#e3e5e8;fill-opacity:1;stroke:#e3e5e8;stroke-width:18;stroke-dasharray:none;stroke-opacity:1"
       d="m 517.53474,-696.82867 q 0,-44.51642 -31.73758,-70.89655 -31.73758,-26.38011 -83.90893,-26.38011 -39.1285,0 -69.12704,15.25101 -29.99853,15.251 -47.38898,44.10423 -6.08666,9.06819 -0.43476,19.78512 5.65189,10.7169 17.82521,15.66317 10.43426,4.12189 21.73806,0.41218 11.30381,-3.70971 19.1295,-13.60224 9.56475,-12.36565 23.91189,-18.96069 14.3471,-6.59504 30.86803,-6.59504 24.34664,0 39.56328,12.36569 15.21664,12.36567 15.21664,31.32639 0,14.8388 -10.43428,31.32638 -10.43426,16.48757 -31.3028,32.97512 -22.60759,18.96072 -33.91138,35.44829 -11.3038,16.48757 -14.78187,38.74579 -1.73905,11.54133 7.39092,21.02165 9.13,9.48038 23.04237,9.48038 12.17331,0 22.1728,-7.83162 9.99952,-7.83159 12.60811,-21.02167 2.60855,-13.19003 9.56473,-23.49477 6.95618,-10.30471 24.34661,-26.79229 33.04188,-31.3264 44.34568,-50.2871 11.30379,-18.9607 11.30379,-42.04332 z"
       id="path2" />
    <path
       style="fill:#e3e5e8;fill-opacity:1;stroke:#e3e5e8;stroke-width:27;stroke-dasharray:none;stroke-opacity:1"
       d="m 419.71771,-418.28227 q 8.05373,-8.05372 8.05373,-19.71773 0,-11.664 -8.05373,-19.71773 -8.0537,-8.05371 -19.71771,-8.05371 -11.66401,0 -19.71771,8.05371 -8.05373,8.05373 -8.05373,19.71774 0,11.664 8.05373,19.71772 8.0537,8.05372 19.71771,8.05372 11.66401,0 19.71771,-8.05372 z"
       id="path1" />
  </g>
  <circle
     style="fill:none;fill-opacity:1;stroke:#e3e5e8;stroke-width:72;stroke-linecap:round;stroke-linejoin:miter;stroke-dasharray:none;stroke-opacity:1"
     id="path5"
     cx="400"
     cy="-560"
     r="324" />
</svg>
