<?xml version="1.0" encoding="UTF-8" standalone="no"?>
<svg
   height="16"
   viewBox="0 -960 640 640"
   width="16"
   fill="#1f1f1f"
   version="1.1"
   id="svg1"
   sodipodi:docname="theme-light.svg"
   inkscape:version="1.4 (e7c3feb1, 2024-10-09)"
   xmlns:inkscape="http://www.inkscape.org/namespaces/inkscape"
   xmlns:sodipodi="http://sodipodi.sourceforge.net/DTD/sodipodi-0.dtd"
   xmlns="http://www.w3.org/2000/svg"
   xmlns:svg="http://www.w3.org/2000/svg">
  <defs
     id="defs1" />
  <sodipodi:namedview
     id="namedview1"
     pagecolor="#ffffff"
     bordercolor="#000000"
     borderopacity="0.25"
     inkscape:showpageshadow="2"
     inkscape:pageopacity="0.0"
     inkscape:pagecheckerboard="0"
     inkscape:deskcolor="#d1d1d1"
     inkscape:zoom="9.3788517"
     inkscape:cx="11.1954"
     inkscape:cy="8.2099603"
     inkscape:window-width="1440"
     inkscape:window-height="823"
     inkscape:window-x="0"
     inkscape:window-y="0"
     inkscape:window-maximized="0"
     inkscape:current-layer="svg1" />
  <path
     d="m 236.67013,-403.87317 q -101.33577,-34.89272 -147.317887,-129.17002 -45.98212,-94.27733 -11.089412,-195.61312 31.888699,-92.6115 115.741859,-139.93093 83.8532,-47.31946 181.73522,-26.37731 9.1864,1.66182 14.62645,7.66365 5.44007,6.00178 7.38693,13.42819 1.94693,7.42631 -0.49047,15.59503 -2.4374,8.16872 -10.34802,13.70215 -17.41668,13.52025 -29.82226,31.0179 -12.40559,17.49772 -19.80007,38.97282 -20.79695,60.39884 6.92431,117.23587 27.72128,56.83705 88.12011,77.63401 20.80399,7.16344 43.35218,8.17141 22.54822,1.00798 42.35179,-4.18372 8.99962,-2.15584 16.60169,0.83709 7.60209,2.99295 12.48662,8.42814 5.55556,5.66624 6.9358,13.64816 1.38032,7.98191 -3.19698,16.91513 -41.28407,89.3764 -131.77077,126.52979 -90.48667,37.15336 -182.42709,5.49576 z m 18.48619,-53.68783 q 59.05663,20.33481 117.24075,3.96201 58.1841,-16.37281 97.68329,-61.32399 -14.57734,-1.26604 -28.69255,-3.87429 -14.11517,-2.60828 -27.53712,-7.22982 -82.54506,-28.42254 -120.6068,-106.46072 -38.06177,-78.03817 -9.63923,-160.5832 4.62153,-13.42194 11.2564,-26.15069 6.63484,-12.72871 14.61188,-24.99525 -59.74011,3.45106 -108.4638,39.22064 -48.72367,35.76958 -69.0585,94.8262 -26.805,77.84736 9.27669,151.82574 36.08164,73.9784 113.92899,100.78337 z m 55.67997,-183.50718 z"
     id="path1-0"
     style="fill:#878c92;fill-opacity:1;stroke:#878c92;stroke-width:4;stroke-dasharray:none;stroke-opacity:1" />
</svg>
