<?xml version="1.0" encoding="UTF-8" standalone="no"?>
<svg
   width="512"
   height="512"
   viewBox="0 0 512 512"
   version="1.1"
   id="svg3"
   sodipodi:docname="AUS.svg"
   inkscape:version="1.4 (e7c3feb1, 2024-10-09)"
   xmlns:inkscape="http://www.inkscape.org/namespaces/inkscape"
   xmlns:sodipodi="http://sodipodi.sourceforge.net/DTD/sodipodi-0.dtd"
   xmlns="http://www.w3.org/2000/svg"
   xmlns:svg="http://www.w3.org/2000/svg">
  <defs
     id="defs3" />
  <sodipodi:namedview
     id="namedview3"
     pagecolor="#ffffff"
     bordercolor="#000000"
     borderopacity="0.25"
     inkscape:showpageshadow="2"
     inkscape:pageopacity="0.0"
     inkscape:pagecheckerboard="0"
     inkscape:deskcolor="#d1d1d1"
     inkscape:zoom="0.80672255"
     inkscape:cx="210.7292"
     inkscape:cy="303.07818"
     inkscape:window-width="1440"
     inkscape:window-height="900"
     inkscape:window-x="0"
     inkscape:window-y="0"
     inkscape:window-maximized="0"
     inkscape:current-layer="svg3" />
  <mask
     id="a">
    <circle
       cx="256"
       cy="256"
       r="256"
       fill="#fff"
       id="circle1" />
  </mask>
  <g
     mask="url(#a)"
     id="g3">
    <path
       fill="#0052b4"
       d="M0 0h512v512H0z"
       id="path1"
       style="fill:#0052b4;fill-opacity:0.80000001" />
    <path
       fill="#eee"
       d="m154 300 14 30 32-8-14 30 25 20-32 7 1 33-26-21-26 21 1-33-33-7 26-20-14-30 32 8zm222-27h47l-38 27 15-44 14 44zm7-162 7 15 16-4-7 15 12 10-15 3v17l-13-11-13 11v-17l-15-3 12-10-7-15 16 4zm57 67 7 15 16-4-7 15 12 10-15 3v16l-13-10-13 11v-17l-15-3 12-10-7-15 16 4zm-122 22 7 15 16-4-7 15 12 10-15 3v16l-13-10-13 11v-17l-15-3 12-10-7-15 16 4zm65 156 7 15 16-4-7 15 12 10-15 3v17l-13-11-13 11v-17l-15-3 12-10-7-15 16 4zM0 0v32l32 32L0 96v160h32l32-32 32 32h32v-83l83 83h45l-8-16 8-15v-14l-83-83h83V96l-32-32 32-32V0H96L64 32 32 0Z"
       id="path2" />
    <path
       fill="#d80027"
       d="M32 0v32H0v64h32v160h64V96h160V32H96V0Zm96 128 128 128v-31l-97-97z"
       id="path3"
       style="fill:#d80027;fill-opacity:0.89999998" />
  </g>
</svg>
