<?xml version="1.0" encoding="UTF-8" standalone="no"?>
<svg
   viewBox="0 0 16.5 17.5"
   version="1.1"
   id="svg1"
   sodipodi:docname="pace.svg"
   width="16.5"
   height="17.5"
   inkscape:version="1.4 (e7c3feb1, 2024-10-09)"
   xmlns:inkscape="http://www.inkscape.org/namespaces/inkscape"
   xmlns:sodipodi="http://sodipodi.sourceforge.net/DTD/sodipodi-0.dtd"
   xmlns="http://www.w3.org/2000/svg"
   xmlns:svg="http://www.w3.org/2000/svg">
  <defs
     id="defs1" />
  <sodipodi:namedview
     id="namedview1"
     pagecolor="#ffffff"
     bordercolor="#000000"
     borderopacity="0.25"
     inkscape:showpageshadow="2"
     inkscape:pageopacity="0.0"
     inkscape:pagecheckerboard="0"
     inkscape:deskcolor="#d1d1d1"
     inkscape:zoom="12.925736"
     inkscape:cx="1.3152056"
     inkscape:cy="11.914215"
     inkscape:window-width="1440"
     inkscape:window-height="823"
     inkscape:window-x="0"
     inkscape:window-y="0"
     inkscape:window-maximized="0"
     inkscape:current-layer="svg1" />
  <!--!Font Awesome Free 7.0.1 by @fontawesome - https://fontawesome.com License - https://fontawesome.com/license/free Copyright 2025 Fonticons, Inc.-->
  <path
     d="m 0.25,8.25 c 0,-4.41875 3.58125,-8 8,-8 4.41875,0 8,3.58125 8,8 0,4.41875 -3.58125,8 -8,8 -4.41875,0 -8,-3.58125 -8,-8 z m 9,-5 c 0,-0.553125 -0.446875,-1 -1,-1 -0.553125,0 -1,0.446875 -1,1 0,0.553125 0.446875,1 1,1 0.553125,0 1,-0.446875 1,-1 z m -1,10 c 1.103125,0 2,-0.896875 2,-2 0,-0.50625 -0.1875,-0.971875 -0.5,-1.321875 L 11.921875,5.5875 C 12.10625,5.215625 11.956245,4.765625 11.5875,4.58125 11.21875,4.396875 10.765625,4.54688 10.58125,4.915625 L 8.409375,9.25625 C 8.35625,9.253125 8.303125,9.25 8.25,9.25 c -1.103125,0 -2,0.896875 -2,2 0,1.103125 0.896875,2 2,2 z m -2.5,-8.5 c 0,-0.553125 -0.446875,-1 -1,-1 -0.553125,0 -1,0.446875 -1,1 0,0.553125 0.446875,1 1,1 0.553125,0 1,-0.446875 1,-1 z m -2.5,4.5 c 0.553125,0 1,-0.446875 1,-1 0,-0.553125 -0.446875,-1 -1,-1 -0.553125,0 -1,0.446875 -1,1 0,0.553125 0.446875,1 1,1 z m 11,-1 c 0,-0.553125 -0.446875,-1 -1,-1 -0.553125,0 -1,0.446875 -1,1 0,0.553125 0.446875,1 1,1 0.553125,0 1,-0.446875 1,-1 z"
     id="path1"
     style="fill:#82878c;fill-opacity:1;stroke:none;stroke-width:0;stroke-dasharray:none;stroke-opacity:1" />
</svg>
