<?xml version="1.0" encoding="UTF-8" standalone="no"?>
<svg
   height="11.5"
   viewBox="0 -960 640 460"
   width="16"
   fill="#1f1f1f"
   version="1.1"
   id="svg1"
   sodipodi:docname="sliders.svg"
   inkscape:version="1.4 (e7c3feb1, 2024-10-09)"
   xmlns:inkscape="http://www.inkscape.org/namespaces/inkscape"
   xmlns:sodipodi="http://sodipodi.sourceforge.net/DTD/sodipodi-0.dtd"
   xmlns="http://www.w3.org/2000/svg"
   xmlns:svg="http://www.w3.org/2000/svg">
  <defs
     id="defs1" />
  <sodipodi:namedview
     id="namedview1"
     pagecolor="#ffffff"
     bordercolor="#000000"
     borderopacity="0.25"
     inkscape:showpageshadow="2"
     inkscape:pageopacity="0.0"
     inkscape:pagecheckerboard="0"
     inkscape:deskcolor="#d1d1d1"
     inkscape:zoom="22.153184"
     inkscape:cx="4.6945848"
     inkscape:cy="6.6581851"
     inkscape:window-width="1440"
     inkscape:window-height="900"
     inkscape:window-x="0"
     inkscape:window-y="0"
     inkscape:window-maximized="0"
     inkscape:current-layer="svg1" />
  <path
     d="m 52.222223,-860 q -13.694446,0 -22.958335,-8.62502 Q 20,-877.25 20,-889.99999 20,-902.75002 29.263888,-911.375 38.527777,-920 52.222223,-920 H 567.77777 q 13.69446,0 22.95835,8.625 9.26388,8.62498 9.26388,21.37501 0,12.74999 -9.26388,21.37497 Q 581.47223,-860 567.77777,-860 Z"
     id="path3"
     style="fill:#82878c;fill-opacity:1;stroke:none;stroke-width:0;stroke-dasharray:none" />
  <path
     d="m 52.222223,-700 q -13.694445,0 -22.958335,-8.625 Q 20,-717.25002 20,-730 20,-742.75002 29.263888,-751.375 38.527778,-760 52.222223,-760 H 567.77778 q 13.69445,0 22.95834,8.625 Q 600,-742.75002 600,-730 q 0,12.74998 -9.26388,21.375 -9.26389,8.625 -22.95834,8.625 z"
     id="path2"
     style="fill:#82878c;fill-opacity:1;stroke:none;stroke-width:0;stroke-dasharray:none" />
  <path
     d="m 52.222223,-540 q -13.694445,0 -22.958335,-8.62502 Q 20,-557.25 20,-570.00002 20,-582.75 29.263888,-591.37499 38.527778,-600 52.222223,-600 H 567.77778 q 13.69445,0 22.95834,8.62501 Q 600,-582.75 600,-570.00002 q 0,12.75002 -9.26388,21.375 Q 581.47223,-540 567.77778,-540 Z"
     id="path1"
     style="fill:#82878c;fill-opacity:1;stroke:none;stroke-width:0;stroke-dasharray:none" />
  <circle
     style="fill:#42a65c;fill-opacity:1;stroke-width:0;stroke-linecap:round;stroke-linejoin:bevel;stroke-miterlimit:4.8"
     id="path4"
     cx="240"
     cy="-570"
     r="60" />
  <circle
     style="fill:#d94e41;fill-opacity:1;stroke-width:0;stroke-linecap:round;stroke-linejoin:bevel;stroke-miterlimit:4.8"
     id="path4-1"
     cx="440"
     cy="-730"
     r="60" />
  <circle
     style="fill:#367fb3;fill-opacity:1;stroke-width:0;stroke-linecap:round;stroke-linejoin:bevel;stroke-miterlimit:4.8"
     id="path4-4"
     cx="140"
     cy="-890"
     r="60" />
</svg>
