<?xml version="1.0" encoding="UTF-8" standalone="no"?>
<svg
   height="20"
   viewBox="0 -960 670 800"
   width="16.75"
   fill="#1f1f1f"
   version="1.1"
   id="svg1"
   sodipodi:docname="timer.svg"
   inkscape:version="1.4 (e7c3feb1, 2024-10-09)"
   xmlns:inkscape="http://www.inkscape.org/namespaces/inkscape"
   xmlns:sodipodi="http://sodipodi.sourceforge.net/DTD/sodipodi-0.dtd"
   xmlns="http://www.w3.org/2000/svg"
   xmlns:svg="http://www.w3.org/2000/svg">
  <defs
     id="defs1" />
  <sodipodi:namedview
     id="namedview1"
     pagecolor="#ffffff"
     bordercolor="#000000"
     borderopacity="0.25"
     inkscape:showpageshadow="2"
     inkscape:pageopacity="0.0"
     inkscape:pagecheckerboard="0"
     inkscape:deskcolor="#d1d1d1"
     inkscape:zoom="10.18304"
     inkscape:cx="-4.4191126"
     inkscape:cy="19.689602"
     inkscape:window-width="1440"
     inkscape:window-height="900"
     inkscape:window-x="0"
     inkscape:window-y="0"
     inkscape:window-maximized="0"
     inkscape:current-layer="svg1" />
  <path
     id="path3"
     style="fill:#82878c;fill-opacity:1;stroke:#82878c;stroke-width:9.95941;stroke-dasharray:none;stroke-opacity:1"
     d="m 335.00002,-821.06241 c -43.85463,0 -85.17497,8.52057 -123.99226,25.57055 -38.81727,17.04999 -72.76444,40.1914 -101.80332,69.50542 -29.03888,29.31402 -52.020663,63.56209 -68.910629,102.74715 -16.889958,39.18506 -25.314106,80.94808 -25.314106,125.21824 0,44.27014 8.424148,85.95567 25.314106,125.14074 16.889966,39.18506 39.871749,73.43314 68.910629,102.74714 29.03888,29.31402 62.98605,52.53293 101.80332,69.58291 38.81729,17.04999 80.13763,25.57056 123.99226,25.57056 43.85463,0 85.17497,-8.52057 123.99226,-25.57056 38.81727,-17.04998 72.76444,-40.26889 101.80332,-69.58291 29.03887,-29.314 52.02067,-63.56208 68.91063,-102.74714 16.88996,-39.18507 25.31411,-80.8706 25.31411,-125.14074 0,-37.09121 -5.96103,-72.67647 -17.81364,-106.77645 -11.8526,-34.09998 -28.9677,-66.09355 -51.48765,-96.00582 l 24.84534,-25.18312 c 6.51893,-6.58068 9.76624,-14.93546 9.76624,-25.10563 0,-10.17017 -3.24731,-18.52494 -9.76624,-25.10565 -6.51893,-6.58068 -14.77061,-9.91827 -24.84534,-9.91827 -10.07471,0 -18.40451,3.33759 -24.92345,9.91827 l -24.92344,25.10565 c -29.63153,-22.73333 -61.30426,-40.10604 -95.08418,-52.07095 -33.77992,-11.9649 -69.04489,-17.89939 -105.78796,-17.89939 z m 0,71.75253 c 68.7451,0 127.43112,24.55609 176.02679,73.61221 48.59569,49.0561 72.89527,108.28016 72.89527,177.67662 0,69.39644 -24.29958,128.62051 -72.89527,177.67662 -48.59567,49.0561 -107.28169,73.6122 -176.02679,73.6122 -68.7451,0 -127.43112,-24.5561 -176.02679,-73.6122 -48.59569,-49.05611 -72.89526,-108.28018 -72.89526,-177.67662 0,-69.39646 24.29957,-128.62052 72.89526,-177.67662 48.59567,-49.05612 107.28169,-73.61221 176.02679,-73.61221 z" />
  <path
     d="m 358.24795,-509.91994 v -123.1898 q 0,-14.54324 -9.81106,-24.38132 -9.81105,-9.83807 -24.31434,-9.83807 -14.50329,0 -24.31433,9.83807 -9.81106,9.83808 -9.81106,24.38132 v 136.02207 q 0,6.84388 2.55941,13.26002 2.5594,6.41613 7.67821,11.54904 l 112.61378,112.92399 q 9.38449,9.41032 23.88777,9.41032 14.5033,0 23.88778,-9.41032 9.38448,-9.41034 9.38448,-23.95357 0,-14.54325 -9.38448,-23.95358 z"
     id="path1-8"
     style="fill:#28538c;fill-opacity:1;stroke:#28538c;stroke-width:9.95941;stroke-dasharray:none;stroke-opacity:1" />
  <path
     style="fill:#82878c;fill-opacity:1;stroke:none;stroke-width:0;stroke-dasharray:none"
     d="m 261.66204,-870.65379 q -15.58433,0 -26.12667,-11.40602 -10.54234,-11.40601 -10.54234,-28.26707 0,-16.86108 10.54234,-28.2671 Q 246.07771,-950 261.66204,-950 H 408.338 q 15.58433,0 26.12667,11.40602 10.54234,11.40602 10.54234,28.2671 0,16.86106 -10.54234,28.26707 -10.54234,11.40602 -26.12667,11.40602 z"
     id="path1" />
</svg>
