<svg id="svg-laptimes-plot-laptimes-right" width="1074" height="322.2" xmlns="http://www.w3.org/2000/svg" xmlns:xlink="http://www.w3.org/1999/xlink"><g name="plot-laptimes-main-node" transform="translate(105, 40)"><g name="axis-bottom" transform="translate(0, 242.2)"><g name="ticks" fill="none" font-size="10" font-family="sans-serif" text-anchor="middle"><path class="domain" stroke="currentColor" d="M0.5,5V0.5H889.5V5" style="stroke: rgb(214, 219, 224); stroke-width: 1; shape-rendering: crispedges;"/><g class="tick" opacity="1" transform="translate(15.010337323177367,0)"><line stroke="currentColor" y2="4" style="stroke: rgb(214, 219, 224); stroke-width: 1; shape-rendering: crispedges;"/><text fill="currentColor" y="7" dy="8" font-family="Nunito" dx="0" style="fill: rgb(90, 97, 106); font-size: 11px; font-weight: 600; text-anchor: middle; dominant-baseline: hanging;">2</text></g><g class="tick" opacity="1" transform="translate(45.723884657236134,0)"><line stroke="currentColor" y2="4" style="stroke: rgb(214, 219, 224); stroke-width: 1; shape-rendering: crispedges;"/><text fill="currentColor" y="7" dy="8" font-family="Nunito" dx="0" style="fill: rgb(90, 97, 106); font-size: 11px; font-weight: 600; text-anchor: middle; dominant-baseline: hanging;">4</text></g><g class="tick" opacity="1" transform="translate(76.4374319912949,0)"><line stroke="currentColor" y2="4" style="stroke: rgb(214, 219, 224); stroke-width: 1; shape-rendering: crispedges;"/><text fill="currentColor" y="7" dy="8" font-family="Nunito" dx="0" style="fill: rgb(90, 97, 106); font-size: 11px; font-weight: 600; text-anchor: middle; dominant-baseline: hanging;">6</text></g><g class="tick" opacity="1" transform="translate(107.15097932535365,0)"><line stroke="currentColor" y2="4" style="stroke: rgb(214, 219, 224); stroke-width: 1; shape-rendering: crispedges;"/><text fill="currentColor" y="7" dy="8" font-family="Nunito" dx="0" style="fill: rgb(90, 97, 106); font-size: 11px; font-weight: 600; text-anchor: middle; dominant-baseline: hanging;">8</text></g><g class="tick" opacity="1" transform="translate(137.8645266594124,0)"><line stroke="currentColor" y2="4" style="stroke: rgb(214, 219, 224); stroke-width: 1; shape-rendering: crispedges;"/><text fill="currentColor" y="7" dy="8" font-family="Nunito" dx="0" style="fill: rgb(90, 97, 106); font-size: 11px; font-weight: 600; text-anchor: middle; dominant-baseline: hanging;">10</text></g><g class="tick" opacity="1" transform="translate(168.57807399347118,0)"><line stroke="currentColor" y2="4" style="stroke: rgb(214, 219, 224); stroke-width: 1; shape-rendering: crispedges;"/><text fill="currentColor" y="7" dy="8" font-family="Nunito" dx="0" style="fill: rgb(90, 97, 106); font-size: 11px; font-weight: 600; text-anchor: middle; dominant-baseline: hanging;">12</text></g><g class="tick" opacity="1" transform="translate(199.29162132752995,0)"><line stroke="currentColor" y2="4" style="stroke: rgb(214, 219, 224); stroke-width: 1; shape-rendering: crispedges;"/><text fill="currentColor" y="7" dy="8" font-family="Nunito" dx="0" style="fill: rgb(90, 97, 106); font-size: 11px; font-weight: 600; text-anchor: middle; dominant-baseline: hanging;">14</text></g><g class="tick" opacity="1" transform="translate(230.00516866158873,0)"><line stroke="currentColor" y2="4" style="stroke: rgb(214, 219, 224); stroke-width: 1; shape-rendering: crispedges;"/><text fill="currentColor" y="7" dy="8" font-family="Nunito" dx="0" style="fill: rgb(90, 97, 106); font-size: 11px; font-weight: 600; text-anchor: middle; dominant-baseline: hanging;">16</text></g><g class="tick" opacity="1" transform="translate(260.71871599564747,0)"><line stroke="currentColor" y2="4" style="stroke: rgb(214, 219, 224); stroke-width: 1; shape-rendering: crispedges;"/><text fill="currentColor" y="7" dy="8" font-family="Nunito" dx="0" style="fill: rgb(90, 97, 106); font-size: 11px; font-weight: 600; text-anchor: middle; dominant-baseline: hanging;">18</text></g><g class="tick" opacity="1" transform="translate(291.4322633297062,0)"><line stroke="currentColor" y2="4" style="stroke: rgb(214, 219, 224); stroke-width: 1; shape-rendering: crispedges;"/><text fill="currentColor" y="7" dy="8" font-family="Nunito" dx="0" style="fill: rgb(90, 97, 106); font-size: 11px; font-weight: 600; text-anchor: middle; dominant-baseline: hanging;">20</text></g><g class="tick" opacity="1" transform="translate(322.14581066376496,0)"><line stroke="currentColor" y2="4" style="stroke: rgb(214, 219, 224); stroke-width: 1; shape-rendering: crispedges;"/><text fill="currentColor" y="7" dy="8" font-family="Nunito" dx="0" style="fill: rgb(90, 97, 106); font-size: 11px; font-weight: 600; text-anchor: middle; dominant-baseline: hanging;">22</text></g><g class="tick" opacity="1" transform="translate(352.85935799782374,0)"><line stroke="currentColor" y2="4" style="stroke: rgb(214, 219, 224); stroke-width: 1; shape-rendering: crispedges;"/><text fill="currentColor" y="7" dy="8" font-family="Nunito" dx="0" style="fill: rgb(90, 97, 106); font-size: 11px; font-weight: 600; text-anchor: middle; dominant-baseline: hanging;">24</text></g><g class="tick" opacity="1" transform="translate(383.57290533188245,0)"><line stroke="currentColor" y2="4" style="stroke: rgb(214, 219, 224); stroke-width: 1; shape-rendering: crispedges;"/><text fill="currentColor" y="7" dy="8" font-family="Nunito" dx="0" style="fill: rgb(90, 97, 106); font-size: 11px; font-weight: 600; text-anchor: middle; dominant-baseline: hanging;">26</text></g><g class="tick" opacity="1" transform="translate(414.2864526659413,0)"><line stroke="currentColor" y2="4" style="stroke: rgb(214, 219, 224); stroke-width: 1; shape-rendering: crispedges;"/><text fill="currentColor" y="7" dy="8" font-family="Nunito" dx="0" style="fill: rgb(90, 97, 106); font-size: 11px; font-weight: 600; text-anchor: middle; dominant-baseline: hanging;">28</text></g><g class="tick" opacity="1" transform="translate(445,0)"><line stroke="currentColor" y2="4" style="stroke: rgb(214, 219, 224); stroke-width: 1; shape-rendering: crispedges;"/><text fill="currentColor" y="7" dy="8" font-family="Nunito" dx="0" style="fill: rgb(90, 97, 106); font-size: 11px; font-weight: 600; text-anchor: middle; dominant-baseline: hanging;">30</text></g><g class="tick" opacity="1" transform="translate(475.7135473340587,0)"><line stroke="currentColor" y2="4" style="stroke: rgb(214, 219, 224); stroke-width: 1; shape-rendering: crispedges;"/><text fill="currentColor" y="7" dy="8" font-family="Nunito" dx="0" style="fill: rgb(90, 97, 106); font-size: 11px; font-weight: 600; text-anchor: middle; dominant-baseline: hanging;">32</text></g><g class="tick" opacity="1" transform="translate(506.4270946681175,0)"><line stroke="currentColor" y2="4" style="stroke: rgb(214, 219, 224); stroke-width: 1; shape-rendering: crispedges;"/><text fill="currentColor" y="7" dy="8" font-family="Nunito" dx="0" style="fill: rgb(90, 97, 106); font-size: 11px; font-weight: 600; text-anchor: middle; dominant-baseline: hanging;">34</text></g><g class="tick" opacity="1" transform="translate(537.1406420021764,0)"><line stroke="currentColor" y2="4" style="stroke: rgb(214, 219, 224); stroke-width: 1; shape-rendering: crispedges;"/><text fill="currentColor" y="7" dy="8" font-family="Nunito" dx="0" style="fill: rgb(90, 97, 106); font-size: 11px; font-weight: 600; text-anchor: middle; dominant-baseline: hanging;">36</text></g><g class="tick" opacity="1" transform="translate(567.8541893362351,0)"><line stroke="currentColor" y2="4" style="stroke: rgb(214, 219, 224); stroke-width: 1; shape-rendering: crispedges;"/><text fill="currentColor" y="7" dy="8" font-family="Nunito" dx="0" style="fill: rgb(90, 97, 106); font-size: 11px; font-weight: 600; text-anchor: middle; dominant-baseline: hanging;">38</text></g><g class="tick" opacity="1" transform="translate(598.5677366702938,0)"><line stroke="currentColor" y2="4" style="stroke: rgb(214, 219, 224); stroke-width: 1; shape-rendering: crispedges;"/><text fill="currentColor" y="7" dy="8" font-family="Nunito" dx="0" style="fill: rgb(90, 97, 106); font-size: 11px; font-weight: 600; text-anchor: middle; dominant-baseline: hanging;">40</text></g><g class="tick" opacity="1" transform="translate(629.2812840043525,0)"><line stroke="currentColor" y2="4" style="stroke: rgb(214, 219, 224); stroke-width: 1; shape-rendering: crispedges;"/><text fill="currentColor" y="7" dy="8" font-family="Nunito" dx="0" style="fill: rgb(90, 97, 106); font-size: 11px; font-weight: 600; text-anchor: middle; dominant-baseline: hanging;">42</text></g><g class="tick" opacity="1" transform="translate(659.9948313384112,0)"><line stroke="currentColor" y2="4" style="stroke: rgb(214, 219, 224); stroke-width: 1; shape-rendering: crispedges;"/><text fill="currentColor" y="7" dy="8" font-family="Nunito" dx="0" style="fill: rgb(90, 97, 106); font-size: 11px; font-weight: 600; text-anchor: middle; dominant-baseline: hanging;">44</text></g><g class="tick" opacity="1" transform="translate(690.7083786724701,0)"><line stroke="currentColor" y2="4" style="stroke: rgb(214, 219, 224); stroke-width: 1; shape-rendering: crispedges;"/><text fill="currentColor" y="7" dy="8" font-family="Nunito" dx="0" style="fill: rgb(90, 97, 106); font-size: 11px; font-weight: 600; text-anchor: middle; dominant-baseline: hanging;">46</text></g><g class="tick" opacity="1" transform="translate(721.4219260065289,0)"><line stroke="currentColor" y2="4" style="stroke: rgb(214, 219, 224); stroke-width: 1; shape-rendering: crispedges;"/><text fill="currentColor" y="7" dy="8" font-family="Nunito" dx="0" style="fill: rgb(90, 97, 106); font-size: 11px; font-weight: 600; text-anchor: middle; dominant-baseline: hanging;">48</text></g><g class="tick" opacity="1" transform="translate(752.1354733405876,0)"><line stroke="currentColor" y2="4" style="stroke: rgb(214, 219, 224); stroke-width: 1; shape-rendering: crispedges;"/><text fill="currentColor" y="7" dy="8" font-family="Nunito" dx="0" style="fill: rgb(90, 97, 106); font-size: 11px; font-weight: 600; text-anchor: middle; dominant-baseline: hanging;">50</text></g><g class="tick" opacity="1" transform="translate(782.8490206746463,0)"><line stroke="currentColor" y2="4" style="stroke: rgb(214, 219, 224); stroke-width: 1; shape-rendering: crispedges;"/><text fill="currentColor" y="7" dy="8" font-family="Nunito" dx="0" style="fill: rgb(90, 97, 106); font-size: 11px; font-weight: 600; text-anchor: middle; dominant-baseline: hanging;">52</text></g><g class="tick" opacity="1" transform="translate(813.5625680087051,0)"><line stroke="currentColor" y2="4" style="stroke: rgb(214, 219, 224); stroke-width: 1; shape-rendering: crispedges;"/><text fill="currentColor" y="7" dy="8" font-family="Nunito" dx="0" style="fill: rgb(90, 97, 106); font-size: 11px; font-weight: 600; text-anchor: middle; dominant-baseline: hanging;">54</text></g><g class="tick" opacity="1" transform="translate(844.2761153427639,0)"><line stroke="currentColor" y2="4" style="stroke: rgb(214, 219, 224); stroke-width: 1; shape-rendering: crispedges;"/><text fill="currentColor" y="7" dy="8" font-family="Nunito" dx="0" style="fill: rgb(90, 97, 106); font-size: 11px; font-weight: 600; text-anchor: middle; dominant-baseline: hanging;">56</text></g><g class="tick" opacity="1" transform="translate(874.9896626768227,0)"><line stroke="currentColor" y2="4" style="stroke: rgb(214, 219, 224); stroke-width: 1; shape-rendering: crispedges;"/><text fill="currentColor" y="7" dy="8" font-family="Nunito" dx="0" style="fill: rgb(90, 97, 106); font-size: 11px; font-weight: 600; text-anchor: middle; dominant-baseline: hanging;">58</text></g></g><g name="grid-bottom"><path d="M 15.010337323177367, -5 V -242.2" style="stroke: rgb(245, 245, 245); shape-rendering: crispedges;"/><path d="M 45.723884657236134, -5 V -242.2" style="stroke: rgb(245, 245, 245); shape-rendering: crispedges;"/><path d="M 76.4374319912949, -5 V -242.2" style="stroke: rgb(245, 245, 245); shape-rendering: crispedges;"/><path d="M 107.15097932535365, -5 V -242.2" style="stroke: rgb(245, 245, 245); shape-rendering: crispedges;"/><path d="M 137.8645266594124, -5 V -242.2" style="stroke: rgb(245, 245, 245); shape-rendering: crispedges;"/><path d="M 168.57807399347118, -5 V -242.2" style="stroke: rgb(245, 245, 245); shape-rendering: crispedges;"/><path d="M 199.29162132752995, -5 V -242.2" style="stroke: rgb(245, 245, 245); shape-rendering: crispedges;"/><path d="M 230.00516866158873, -5 V -242.2" style="stroke: rgb(245, 245, 245); shape-rendering: crispedges;"/><path d="M 260.71871599564747, -5 V -242.2" style="stroke: rgb(245, 245, 245); shape-rendering: crispedges;"/><path d="M 291.4322633297062, -5 V -242.2" style="stroke: rgb(245, 245, 245); shape-rendering: crispedges;"/><path d="M 322.14581066376496, -5 V -242.2" style="stroke: rgb(245, 245, 245); shape-rendering: crispedges;"/><path d="M 352.85935799782374, -5 V -242.2" style="stroke: rgb(245, 245, 245); shape-rendering: crispedges;"/><path d="M 383.57290533188245, -5 V -242.2" style="stroke: rgb(245, 245, 245); shape-rendering: crispedges;"/><path d="M 414.2864526659413, -5 V -242.2" style="stroke: rgb(245, 245, 245); shape-rendering: crispedges;"/><path d="M 445, -5 V -242.2" style="stroke: rgb(245, 245, 245); shape-rendering: crispedges;"/><path d="M 475.7135473340587, -5 V -242.2" style="stroke: rgb(245, 245, 245); shape-rendering: crispedges;"/><path d="M 506.4270946681175, -5 V -242.2" style="stroke: rgb(245, 245, 245); shape-rendering: crispedges;"/><path d="M 537.1406420021764, -5 V -242.2" style="stroke: rgb(245, 245, 245); shape-rendering: crispedges;"/><path d="M 567.8541893362351, -5 V -242.2" style="stroke: rgb(245, 245, 245); shape-rendering: crispedges;"/><path d="M 598.5677366702938, -5 V -242.2" style="stroke: rgb(245, 245, 245); shape-rendering: crispedges;"/><path d="M 629.2812840043525, -5 V -242.2" style="stroke: rgb(245, 245, 245); shape-rendering: crispedges;"/><path d="M 659.9948313384112, -5 V -242.2" style="stroke: rgb(245, 245, 245); shape-rendering: crispedges;"/><path d="M 690.7083786724701, -5 V -242.2" style="stroke: rgb(245, 245, 245); shape-rendering: crispedges;"/><path d="M 721.4219260065289, -5 V -242.2" style="stroke: rgb(245, 245, 245); shape-rendering: crispedges;"/><path d="M 752.1354733405876, -5 V -242.2" style="stroke: rgb(245, 245, 245); shape-rendering: crispedges;"/><path d="M 782.8490206746463, -5 V -242.2" style="stroke: rgb(245, 245, 245); shape-rendering: crispedges;"/><path d="M 813.5625680087051, -5 V -242.2" style="stroke: rgb(245, 245, 245); shape-rendering: crispedges;"/><path d="M 844.2761153427639, -5 V -242.2" style="stroke: rgb(245, 245, 245); shape-rendering: crispedges;"/><path d="M 874.9896626768227, -5 V -242.2" style="stroke: rgb(245, 245, 245); shape-rendering: crispedges;"/></g></g><g name="axis-left" transform="translate(-5, 0)"><g name="ticks" fill="none" font-size="10" font-family="sans-serif" text-anchor="end"><path class="domain" stroke="currentColor" d="M-4,237.7H0.5V0.5H-4" style="stroke: rgb(214, 219, 224); stroke-width: 1; shape-rendering: crispedges;"/><g class="tick" opacity="1" transform="translate(0,224.38413173652668)"><line stroke="currentColor" x2="-3" style="stroke: rgb(214, 219, 224); stroke-width: 1; shape-rendering: crispedges;"/><text fill="currentColor" x="-6" dy="5" font-family="Nunito" dx="-8" style="fill: rgb(90, 97, 106); font-size: 11px; font-weight: 600; text-anchor: end; dominant-baseline: auto;">1:27.000</text></g><g class="tick" opacity="1" transform="translate(0,182.27047904191588)"><line stroke="currentColor" x2="-3" style="stroke: rgb(214, 219, 224); stroke-width: 1; shape-rendering: crispedges;"/><text fill="currentColor" x="-6" dy="5" font-family="Nunito" dx="-8" style="fill: rgb(90, 97, 106); font-size: 11px; font-weight: 600; text-anchor: end; dominant-baseline: auto;">1:28.000</text></g><g class="tick" opacity="1" transform="translate(0,140.1568263473051)"><line stroke="currentColor" x2="-3" style="stroke: rgb(214, 219, 224); stroke-width: 1; shape-rendering: crispedges;"/><text fill="currentColor" x="-6" dy="5" font-family="Nunito" dx="-8" style="fill: rgb(90, 97, 106); font-size: 11px; font-weight: 600; text-anchor: end; dominant-baseline: auto;">1:29.000</text></g><g class="tick" opacity="1" transform="translate(0,98.04317365269429)"><line stroke="currentColor" x2="-3" style="stroke: rgb(214, 219, 224); stroke-width: 1; shape-rendering: crispedges;"/><text fill="currentColor" x="-6" dy="5" font-family="Nunito" dx="-8" style="fill: rgb(90, 97, 106); font-size: 11px; font-weight: 600; text-anchor: end; dominant-baseline: auto;">1:30.000</text></g><g class="tick" opacity="1" transform="translate(0,55.929520958083494)"><line stroke="currentColor" x2="-3" style="stroke: rgb(214, 219, 224); stroke-width: 1; shape-rendering: crispedges;"/><text fill="currentColor" x="-6" dy="5" font-family="Nunito" dx="-8" style="fill: rgb(90, 97, 106); font-size: 11px; font-weight: 600; text-anchor: end; dominant-baseline: auto;">1:31.000</text></g><g class="tick" opacity="1" transform="translate(0,13.815868263472726)"><line stroke="currentColor" x2="-3" style="stroke: rgb(214, 219, 224); stroke-width: 1; shape-rendering: crispedges;"/><text fill="currentColor" x="-6" dy="5" font-family="Nunito" dx="-8" style="fill: rgb(90, 97, 106); font-size: 11px; font-weight: 600; text-anchor: end; dominant-baseline: auto;">1:32.000</text></g></g><g name="grid-left-2"><path d="M 5, 224.38413173652668 H 894" style="stroke: rgb(245, 245, 245); shape-rendering: crispedges;"/><path d="M 5, 182.27047904191588 H 894" style="stroke: rgb(245, 245, 245); shape-rendering: crispedges;"/><path d="M 5, 140.1568263473051 H 894" style="stroke: rgb(245, 245, 245); shape-rendering: crispedges;"/><path d="M 5, 98.04317365269429 H 894" style="stroke: rgb(245, 245, 245); shape-rendering: crispedges;"/><path d="M 5, 55.929520958083494 H 894" style="stroke: rgb(245, 245, 245); shape-rendering: crispedges;"/><path d="M 5, 13.815868263472726 H 894" style="stroke: rgb(245, 245, 245); shape-rendering: crispedges;"/></g><text transform="translate(0, 0) rotate(-90)" dy="-78" style="font-family: Nunito; fill: rgb(34, 153, 113); font-size: 15px; font-weight: 700; cursor: default; text-anchor: end; dominant-baseline: middle;">Fernando Alonso</text></g><g name="axis-right" transform="translate(894, 0)"><g name="ticks" fill="none" font-size="10" font-family="sans-serif" text-anchor="start"><path class="domain" stroke="currentColor" d="M4,237.7H0.5V0.5H4" style="stroke: rgb(214, 219, 224); stroke-width: 1; shape-rendering: crispedges;"/><g class="tick" opacity="1" transform="translate(0,224.38413173652668)"><line stroke="currentColor" x2="3" style="stroke: rgb(214, 219, 224); stroke-width: 1; shape-rendering: crispedges;"/><text fill="currentColor" x="6" dy="5" font-family="Nunito" dx="0.5rem" style="fill: rgb(90, 97, 106); font-size: 11px; font-weight: 600; text-anchor: start; dominant-baseline: auto;">1:27.000</text></g><g class="tick" opacity="1" transform="translate(0,182.27047904191588)"><line stroke="currentColor" x2="3" style="stroke: rgb(214, 219, 224); stroke-width: 1; shape-rendering: crispedges;"/><text fill="currentColor" x="6" dy="5" font-family="Nunito" dx="0.5rem" style="fill: rgb(90, 97, 106); font-size: 11px; font-weight: 600; text-anchor: start; dominant-baseline: auto;">1:28.000</text></g><g class="tick" opacity="1" transform="translate(0,140.1568263473051)"><line stroke="currentColor" x2="3" style="stroke: rgb(214, 219, 224); stroke-width: 1; shape-rendering: crispedges;"/><text fill="currentColor" x="6" dy="5" font-family="Nunito" dx="0.5rem" style="fill: rgb(90, 97, 106); font-size: 11px; font-weight: 600; text-anchor: start; dominant-baseline: auto;">1:29.000</text></g><g class="tick" opacity="1" transform="translate(0,98.04317365269429)"><line stroke="currentColor" x2="3" style="stroke: rgb(214, 219, 224); stroke-width: 1; shape-rendering: crispedges;"/><text fill="currentColor" x="6" dy="5" font-family="Nunito" dx="0.5rem" style="fill: rgb(90, 97, 106); font-size: 11px; font-weight: 600; text-anchor: start; dominant-baseline: auto;">1:30.000</text></g><g class="tick" opacity="1" transform="translate(0,55.929520958083494)"><line stroke="currentColor" x2="3" style="stroke: rgb(214, 219, 224); stroke-width: 1; shape-rendering: crispedges;"/><text fill="currentColor" x="6" dy="5" font-family="Nunito" dx="0.5rem" style="fill: rgb(90, 97, 106); font-size: 11px; font-weight: 600; text-anchor: start; dominant-baseline: auto;">1:31.000</text></g><g class="tick" opacity="1" transform="translate(0,13.815868263472726)"><line stroke="currentColor" x2="3" style="stroke: rgb(214, 219, 224); stroke-width: 1; shape-rendering: crispedges;"/><text fill="currentColor" x="6" dy="5" font-family="Nunito" dx="0.5rem" style="fill: rgb(90, 97, 106); font-size: 11px; font-weight: 600; text-anchor: start; dominant-baseline: auto;">1:32.000</text></g></g></g><g name="stint-lines"><line x1="183.93484766050057" y1="23.72" x2="183.93484766050057" y2="213.48" style="stroke: rgb(111, 118, 127); stroke-width: 1; stroke-dasharray: 4, 4; stroke-linecap: round;"/><line x1="552.4974156692057" y1="23.72" x2="552.4974156692057" y2="213.48" style="stroke: rgb(111, 118, 127); stroke-width: 1; stroke-dasharray: 4, 4; stroke-linecap: round;"/></g><g name="stint-and-compound-labels"><g name="stint-labels"><text x="91.29420565832427" y="-20" style="font-family: Nunito; fill: rgb(34, 153, 113); font-size: 14px; font-weight: 700; cursor: default; text-anchor: end;">0.528</text><text x="367.7161316648531" y="-20" style="font-family: Nunito; fill: rgb(34, 153, 113); font-size: 14px; font-weight: 700; cursor: default; text-anchor: end;">0.161</text><text x="720.9219260065289" y="-20" style="font-family: Nunito; fill: rgb(34, 153, 113); font-size: 14px; font-weight: 700; cursor: default; text-anchor: end;">0.322</text></g><g name="compound-labels"><circle r="12" transform="translate(116.29420565832427, -26) rotate(0)" style="r: 12; stroke: rgb(234, 227, 84); stroke-width: 2; stroke-dasharray: 20, 20; fill: none; opacity: 0.85;"/><circle r="12" transform="translate(392.7161316648531, -26) rotate(0)" style="r: 12; stroke: rgb(167, 174, 182); stroke-width: 2; stroke-dasharray: 20, 20; fill: none; opacity: 0.85;"/><circle r="12" transform="translate(745.9219260065289, -26) rotate(0)" style="r: 12; stroke: rgb(167, 174, 182); stroke-width: 2; stroke-dasharray: 20, 20; fill: none; opacity: 0.85;"/><text x="116.29420565832427" y="-25" style="font-family: Nunito; fill: rgb(95, 100, 105); font-size: 12px; font-weight: 800; text-anchor: middle; dominant-baseline: middle; cursor: default;">M</text><text x="392.7161316648531" y="-25" style="font-family: Nunito; fill: rgb(95, 100, 105); font-size: 12px; font-weight: 800; text-anchor: middle; dominant-baseline: middle; cursor: default;">H</text><text x="745.9219260065289" y="-25" style="font-family: Nunito; fill: rgb(95, 100, 105); font-size: 12px; font-weight: 800; text-anchor: middle; dominant-baseline: middle; cursor: default;">H</text></g></g><g name="moving-average"><g name="fill-area"><path d="M60.581,94.006C65.7,98.757,70.819,103.509,75.937,104.745C81.056,105.98,86.175,106.598,91.294,106.598C96.413,106.598,101.532,97.684,106.651,96.196C111.77,94.708,116.889,95.452,122.008,93.964C127.127,92.475,132.246,25.613,137.365,25.613C142.483,25.613,147.602,51.724,152.721,51.724C157.84,51.724,162.959,36.289,168.078,20.854L168.078,36.31C162.959,45.378,157.84,54.447,152.721,62.294C147.602,70.141,142.483,77.925,137.365,83.393C132.246,88.861,127.127,92.096,122.008,95.101C116.889,98.105,111.77,99.656,106.651,101.418C101.532,103.179,96.413,105.671,91.294,105.671C86.175,105.671,81.056,99.396,75.937,99.396C70.819,99.396,65.7,103.544,60.581,107.693ZM229.505,101.46C234.624,101.565,239.743,101.67,244.862,102.091C249.981,102.513,255.1,115.863,260.219,115.863C265.338,115.863,270.457,113.504,275.575,109.84C280.694,106.176,285.813,95.171,290.932,93.879C296.051,92.588,301.17,92.581,306.289,91.942C311.408,91.303,316.527,90.047,321.646,90.047C326.765,90.047,331.884,99.621,337.003,103.313C342.122,107.005,347.24,112.199,352.359,112.199C357.478,112.199,362.597,105.882,367.716,105.882C372.835,105.882,377.954,107.271,383.073,107.861C388.192,108.451,393.311,108.837,398.43,109.419C403.549,110.002,408.668,111.356,413.786,111.356C418.905,111.356,424.024,106.387,429.143,104.787C434.262,103.186,439.381,101.755,444.5,101.755C449.619,101.755,454.738,102.849,459.857,102.849C464.976,102.849,470.095,98.133,475.214,98.133C480.332,98.133,485.451,101.965,490.57,104.323C495.689,106.682,500.808,112.283,505.927,112.283C511.046,112.283,516.165,93.465,521.284,88.068C526.403,82.67,531.522,81.284,536.641,79.898L536.641,87.983C531.522,94.715,526.403,101.446,521.284,104.197C516.165,106.949,511.046,108.324,505.927,108.324C500.808,108.324,495.689,101.755,490.57,101.249C485.451,100.744,480.332,100.491,475.214,100.491C470.095,100.491,464.976,101.691,459.857,102.302C454.738,102.913,449.619,103.046,444.5,104.155C439.381,105.264,434.262,108.001,429.143,108.956C424.024,109.911,418.905,110.388,413.786,110.388C408.668,110.388,403.549,109.251,398.43,108.661C393.311,108.072,388.192,106.85,383.073,106.85C377.954,106.85,372.835,109.04,367.716,109.04C362.597,109.04,357.478,108.24,352.359,106.64C347.24,105.039,342.122,98.21,337.003,95.606C331.884,93.002,326.765,91.016,321.646,91.016C316.527,91.016,311.408,91.647,306.289,92.911C301.17,94.174,296.051,99.34,290.932,101.839C285.813,104.338,280.694,107.903,275.575,107.903C270.457,107.903,265.338,105.046,260.219,104.029C255.1,103.011,249.981,101.797,244.862,101.797C239.743,101.797,234.624,103.207,229.505,104.618ZM598.068,142.31C603.187,153.253,608.306,164.195,613.425,164.841C618.543,165.487,623.662,165.809,628.781,165.809C633.9,165.809,639.019,155.892,644.138,151.07C649.257,146.248,654.376,136.877,659.495,136.877C664.614,136.877,669.733,171.747,674.852,171.747C679.971,171.747,685.089,157.218,690.208,157.218C695.327,157.218,700.446,167.929,705.565,172.042C710.684,176.155,715.803,181.897,720.922,181.897C726.041,181.897,731.16,171.102,736.279,166.104C741.398,161.107,746.517,151.912,751.635,151.912C756.754,151.912,761.873,183.96,766.992,183.96C772.111,183.96,777.23,170.105,782.349,170.105C787.468,170.105,792.587,171.6,797.706,172.042C802.825,172.484,807.944,172.758,813.063,172.758C818.181,172.758,823.3,169.937,828.419,169.937C833.538,169.937,838.657,170.147,843.776,170.147C848.895,170.147,854.014,142.31,859.133,142.31C864.252,142.31,869.371,148.964,874.49,155.618L874.49,159.24C869.371,161.984,864.252,164.728,859.133,166.525C854.014,168.322,848.895,169.221,843.776,170.021C838.657,170.821,833.538,170.926,828.419,171.326C823.3,171.726,818.181,172.421,813.063,172.421C807.944,172.421,802.825,171.074,797.706,171.074C792.587,171.074,787.468,177.054,782.349,177.054C777.23,177.054,772.111,170.968,766.992,167.957C761.873,164.946,756.754,158.987,751.635,158.987C746.517,158.987,741.398,172.056,736.279,174.022C731.16,175.987,726.041,176.97,720.922,176.97C715.803,176.97,710.684,164.714,705.565,164.63C700.446,164.546,695.327,164.588,690.208,164.504C685.089,164.42,679.971,157.738,674.852,154.312C669.733,150.887,664.614,143.952,659.495,143.952C654.376,143.952,649.257,154.874,644.138,158.44C639.019,162.005,633.9,165.346,628.781,165.346C623.662,165.346,618.543,156.685,613.425,153.554C608.306,150.424,603.187,148.494,598.068,146.563Z" style="fill: rgb(232, 234, 238); stroke-width: 1; stroke: rgb(192, 197, 201); shape-rendering: geometricprecision;"/></g><g name="moving-average"><path d="M60.581,107.693C65.7,103.544,70.819,99.396,75.937,99.396C81.056,99.396,86.175,105.671,91.294,105.671C96.413,105.671,101.532,103.179,106.651,101.418C111.77,99.656,116.889,98.105,122.008,95.101C127.127,92.096,132.246,88.861,137.365,83.393C142.483,77.925,147.602,70.141,152.721,62.294C157.84,54.447,162.959,45.378,168.078,36.31M229.505,104.618C234.624,103.207,239.743,101.797,244.862,101.797C249.981,101.797,255.1,103.011,260.219,104.029C265.338,105.046,270.457,107.903,275.575,107.903C280.694,107.903,285.813,104.338,290.932,101.839C296.051,99.34,301.17,94.174,306.289,92.911C311.408,91.647,316.527,91.016,321.646,91.016C326.765,91.016,331.884,93.002,337.003,95.606C342.122,98.21,347.24,105.039,352.359,106.64C357.478,108.24,362.597,109.04,367.716,109.04C372.835,109.04,377.954,106.85,383.073,106.85C388.192,106.85,393.311,108.072,398.43,108.661C403.549,109.251,408.668,110.388,413.786,110.388C418.905,110.388,424.024,109.911,429.143,108.956C434.262,108.001,439.381,105.264,444.5,104.155C449.619,103.046,454.738,102.913,459.857,102.302C464.976,101.691,470.095,100.491,475.214,100.491C480.332,100.491,485.451,100.744,490.57,101.249C495.689,101.755,500.808,108.324,505.927,108.324C511.046,108.324,516.165,106.949,521.284,104.197C526.403,101.446,531.522,94.715,536.641,87.983M598.068,146.563C603.187,148.494,608.306,150.424,613.425,153.554C618.543,156.685,623.662,165.346,628.781,165.346C633.9,165.346,639.019,162.005,644.138,158.44C649.257,154.874,654.376,143.952,659.495,143.952C664.614,143.952,669.733,150.887,674.852,154.312C679.971,157.738,685.089,164.42,690.208,164.504C695.327,164.588,700.446,164.546,705.565,164.63C710.684,164.714,715.803,176.97,720.922,176.97C726.041,176.97,731.16,175.987,736.279,174.022C741.398,172.056,746.517,158.987,751.635,158.987C756.754,158.987,761.873,164.946,766.992,167.957C772.111,170.968,777.23,177.054,782.349,177.054C787.468,177.054,792.587,171.074,797.706,171.074C802.825,171.074,807.944,172.421,813.063,172.421C818.181,172.421,823.3,171.726,828.419,171.326C833.538,170.926,838.657,170.821,843.776,170.021C848.895,169.221,854.014,168.322,859.133,166.525C864.252,164.728,869.371,161.984,874.49,159.24" style="fill: none; stroke: rgb(160, 166, 172); stroke-width: 2.4;"/></g></g><g name="markers"><g class="marker" transform="translate(14.510337323177367, 191.66718742514942)"><path d="M2.523,0A2.523,2.523,0,1,1,-2.523,0A2.523,2.523,0,1,1,2.523,0" transform="rotate(0)" style="shape-rendering: geometricprecision; fill: rgb(34, 153, 113); stroke: rgb(27, 122, 90); opacity: 0;"/></g><g class="marker" transform="translate(29.867110990206747, 191.66718742514942)"><path d="M2.523,0A2.523,2.523,0,1,1,-2.523,0A2.523,2.523,0,1,1,2.523,0" transform="rotate(0)" style="shape-rendering: geometricprecision; fill: rgb(34, 153, 113); stroke: rgb(27, 122, 90); opacity: 0;"/></g><g class="marker" transform="translate(45.223884657236134, 121.3795010778441)"><path d="M2.523,0A2.523,2.523,0,1,1,-2.523,0A2.523,2.523,0,1,1,2.523,0" transform="rotate(0)" style="shape-rendering: geometricprecision; fill: rgb(34, 153, 113); stroke: rgb(27, 122, 90); opacity: 1;"/></g><g class="marker" transform="translate(60.580658324265514, 94.00562682634686)"><path d="M2.523,0A2.523,2.523,0,1,1,-2.523,0A2.523,2.523,0,1,1,2.523,0" transform="rotate(0)" style="shape-rendering: geometricprecision; fill: rgb(34, 153, 113); stroke: rgb(27, 122, 90); opacity: 1;"/></g><g class="marker" transform="translate(75.9374319912949, 104.74460826347303)"><path d="M2.523,0A2.523,2.523,0,1,1,-2.523,0A2.523,2.523,0,1,1,2.523,0" transform="rotate(0)" style="shape-rendering: geometricprecision; fill: rgb(34, 153, 113); stroke: rgb(27, 122, 90); opacity: 1;"/></g><g class="marker" transform="translate(91.29420565832427, 106.59760898203577)"><path d="M2.523,0A2.523,2.523,0,1,1,-2.523,0A2.523,2.523,0,1,1,2.523,0" transform="rotate(0)" style="shape-rendering: geometricprecision; fill: rgb(34, 153, 113); stroke: rgb(27, 122, 90); opacity: 1;"/></g><g class="marker" transform="translate(106.65097932535365, 96.1955367664669)"><path d="M2.523,0A2.523,2.523,0,1,1,-2.523,0A2.523,2.523,0,1,1,2.523,0" transform="rotate(0)" style="shape-rendering: geometricprecision; fill: rgb(34, 153, 113); stroke: rgb(27, 122, 90); opacity: 1;"/></g><g class="marker" transform="translate(122.00775299238305, 93.96351317365264)"><path d="M2.523,0A2.523,2.523,0,1,1,-2.523,0A2.523,2.523,0,1,1,2.523,0" transform="rotate(0)" style="shape-rendering: geometricprecision; fill: rgb(34, 153, 113); stroke: rgb(27, 122, 90); opacity: 1;"/></g><g class="marker" transform="translate(137.3645266594124, 25.61305485029913)"><path d="M0,-3.738L3.237,1.869L-3.237,1.869Z" transform="rotate(180)" style="shape-rendering: geometricprecision; fill: rgb(34, 153, 113); stroke: rgb(27, 122, 90); opacity: 1;"/></g><g class="marker" transform="translate(152.7213003264418, 51.72351952095802)"><path d="M2.523,0A2.523,2.523,0,1,1,-2.523,0A2.523,2.523,0,1,1,2.523,0" transform="rotate(0)" style="shape-rendering: geometricprecision; fill: rgb(34, 153, 113); stroke: rgb(27, 122, 90); opacity: 1;"/></g><g class="marker" transform="translate(168.07807399347118, 20.85421209580814)"><path d="M0,-3.738L3.237,1.869L-3.237,1.869Z" transform="rotate(180)" style="shape-rendering: geometricprecision; fill: rgb(34, 153, 113); stroke: rgb(27, 122, 90); opacity: 1;"/></g><g class="marker" transform="translate(183.43484766050057, 191.66718742514942)"><path d="M2.523,0A2.523,2.523,0,1,1,-2.523,0A2.523,2.523,0,1,1,2.523,0" transform="rotate(0)" style="shape-rendering: geometricprecision; fill: rgb(34, 153, 113); stroke: rgb(27, 122, 90); opacity: 0;"/></g><g class="marker" transform="translate(198.79162132752995, 191.66718742514942)"><path d="M2.523,0A2.523,2.523,0,1,1,-2.523,0A2.523,2.523,0,1,1,2.523,0" transform="rotate(0)" style="shape-rendering: geometricprecision; fill: rgb(34, 153, 113); stroke: rgb(27, 122, 90); opacity: 0;"/></g><g class="marker" transform="translate(214.1483949945593, 107.81890491017931)"><path d="M2.523,0A2.523,2.523,0,1,1,-2.523,0A2.523,2.523,0,1,1,2.523,0" transform="rotate(0)" style="shape-rendering: geometricprecision; fill: rgb(34, 153, 113); stroke: rgb(27, 122, 90); opacity: 1;"/></g><g class="marker" transform="translate(229.50516866158873, 101.45974335329326)"><path d="M2.523,0A2.523,2.523,0,1,1,-2.523,0A2.523,2.523,0,1,1,2.523,0" transform="rotate(0)" style="shape-rendering: geometricprecision; fill: rgb(34, 153, 113); stroke: rgb(27, 122, 90); opacity: 1;"/></g><g class="marker" transform="translate(244.86194232861808, 102.09144814371243)"><path d="M2.523,0A2.523,2.523,0,1,1,-2.523,0A2.523,2.523,0,1,1,2.523,0" transform="rotate(0)" style="shape-rendering: geometricprecision; fill: rgb(34, 153, 113); stroke: rgb(27, 122, 90); opacity: 1;"/></g><g class="marker" transform="translate(260.21871599564747, 115.8626125748501)"><path d="M2.523,0A2.523,2.523,0,1,1,-2.523,0A2.523,2.523,0,1,1,2.523,0" transform="rotate(0)" style="shape-rendering: geometricprecision; fill: rgb(34, 153, 113); stroke: rgb(27, 122, 90); opacity: 1;"/></g><g class="marker" transform="translate(275.57548966267683, 109.84036023952072)"><path d="M2.523,0A2.523,2.523,0,1,1,-2.523,0A2.523,2.523,0,1,1,2.523,0" transform="rotate(0)" style="shape-rendering: geometricprecision; fill: rgb(34, 153, 113); stroke: rgb(27, 122, 90); opacity: 1;"/></g><g class="marker" transform="translate(290.9322633297062, 93.87928586826303)"><path d="M2.523,0A2.523,2.523,0,1,1,-2.523,0A2.523,2.523,0,1,1,2.523,0" transform="rotate(0)" style="shape-rendering: geometricprecision; fill: rgb(34, 153, 113); stroke: rgb(27, 122, 90); opacity: 1;"/></g><g class="marker" transform="translate(306.28903699673555, 91.94205784431125)"><path d="M2.523,0A2.523,2.523,0,1,1,-2.523,0A2.523,2.523,0,1,1,2.523,0" transform="rotate(0)" style="shape-rendering: geometricprecision; fill: rgb(34, 153, 113); stroke: rgb(27, 122, 90); opacity: 1;"/></g><g class="marker" transform="translate(321.64581066376496, 90.0469434730537)"><path d="M2.523,0A2.523,2.523,0,1,1,-2.523,0A2.523,2.523,0,1,1,2.523,0" transform="rotate(0)" style="shape-rendering: geometricprecision; fill: rgb(34, 153, 113); stroke: rgb(27, 122, 90); opacity: 1;"/></g><g class="marker" transform="translate(337.0025843307944, 103.312744071856)"><path d="M2.523,0A2.523,2.523,0,1,1,-2.523,0A2.523,2.523,0,1,1,2.523,0" transform="rotate(0)" style="shape-rendering: geometricprecision; fill: rgb(34, 153, 113); stroke: rgb(27, 122, 90); opacity: 1;"/></g><g class="marker" transform="translate(352.35935799782374, 112.19872479041881)"><path d="M2.523,0A2.523,2.523,0,1,1,-2.523,0A2.523,2.523,0,1,1,2.523,0" transform="rotate(0)" style="shape-rendering: geometricprecision; fill: rgb(34, 153, 113); stroke: rgb(27, 122, 90); opacity: 1;"/></g><g class="marker" transform="translate(367.7161316648531, 105.88167688622697)"><path d="M2.523,0A2.523,2.523,0,1,1,-2.523,0A2.523,2.523,0,1,1,2.523,0" transform="rotate(0)" style="shape-rendering: geometricprecision; fill: rgb(34, 153, 113); stroke: rgb(27, 122, 90); opacity: 1;"/></g><g class="marker" transform="translate(383.07290533188245, 107.86101856287414)"><path d="M2.523,0A2.523,2.523,0,1,1,-2.523,0A2.523,2.523,0,1,1,2.523,0" transform="rotate(0)" style="shape-rendering: geometricprecision; fill: rgb(34, 153, 113); stroke: rgb(27, 122, 90); opacity: 1;"/></g><g class="marker" transform="translate(398.4296789989118, 109.41922371257441)"><path d="M2.523,0A2.523,2.523,0,1,1,-2.523,0A2.523,2.523,0,1,1,2.523,0" transform="rotate(0)" style="shape-rendering: geometricprecision; fill: rgb(34, 153, 113); stroke: rgb(27, 122, 90); opacity: 1;"/></g><g class="marker" transform="translate(413.7864526659413, 111.35645173652675)"><path d="M2.523,0A2.523,2.523,0,1,1,-2.523,0A2.523,2.523,0,1,1,2.523,0" transform="rotate(0)" style="shape-rendering: geometricprecision; fill: rgb(34, 153, 113); stroke: rgb(27, 122, 90); opacity: 1;"/></g><g class="marker" transform="translate(429.14322633297064, 104.78672191616724)"><path d="M2.523,0A2.523,2.523,0,1,1,-2.523,0A2.523,2.523,0,1,1,2.523,0" transform="rotate(0)" style="shape-rendering: geometricprecision; fill: rgb(34, 153, 113); stroke: rgb(27, 122, 90); opacity: 1;"/></g><g class="marker" transform="translate(444.5, 101.75453892215515)"><path d="M2.523,0A2.523,2.523,0,1,1,-2.523,0A2.523,2.523,0,1,1,2.523,0" transform="rotate(0)" style="shape-rendering: geometricprecision; fill: rgb(34, 153, 113); stroke: rgb(27, 122, 90); opacity: 1;"/></g><g class="marker" transform="translate(459.8567736670294, 102.84949389221548)"><path d="M2.523,0A2.523,2.523,0,1,1,-2.523,0A2.523,2.523,0,1,1,2.523,0" transform="rotate(0)" style="shape-rendering: geometricprecision; fill: rgb(34, 153, 113); stroke: rgb(27, 122, 90); opacity: 1;"/></g><g class="marker" transform="translate(475.2135473340587, 98.13276479041868)"><path d="M2.523,0A2.523,2.523,0,1,1,-2.523,0A2.523,2.523,0,1,1,2.523,0" transform="rotate(0)" style="shape-rendering: geometricprecision; fill: rgb(34, 153, 113); stroke: rgb(27, 122, 90); opacity: 1;"/></g><g class="marker" transform="translate(490.5703210010882, 104.32347173652668)"><path d="M2.523,0A2.523,2.523,0,1,1,-2.523,0A2.523,2.523,0,1,1,2.523,0" transform="rotate(0)" style="shape-rendering: geometricprecision; fill: rgb(34, 153, 113); stroke: rgb(27, 122, 90); opacity: 1;"/></g><g class="marker" transform="translate(505.9270946681175, 112.28295209580784)"><path d="M2.523,0A2.523,2.523,0,1,1,-2.523,0A2.523,2.523,0,1,1,2.523,0" transform="rotate(0)" style="shape-rendering: geometricprecision; fill: rgb(34, 153, 113); stroke: rgb(27, 122, 90); opacity: 1;"/></g><g class="marker" transform="translate(521.2838683351468, 88.0676017964071)"><path d="M2.523,0A2.523,2.523,0,1,1,-2.523,0A2.523,2.523,0,1,1,2.523,0" transform="rotate(0)" style="shape-rendering: geometricprecision; fill: rgb(34, 153, 113); stroke: rgb(27, 122, 90); opacity: 1;"/></g><g class="marker" transform="translate(536.6406420021764, 79.8975531736525)"><path d="M0,-3.738L3.237,1.869L-3.237,1.869Z" transform="rotate(180)" style="shape-rendering: geometricprecision; fill: rgb(34, 153, 113); stroke: rgb(27, 122, 90); opacity: 1;"/></g><g class="marker" transform="translate(551.9974156692057, 191.66718742514942)"><path d="M2.523,0A2.523,2.523,0,1,1,-2.523,0A2.523,2.523,0,1,1,2.523,0" transform="rotate(0)" style="shape-rendering: geometricprecision; fill: rgb(34, 153, 113); stroke: rgb(27, 122, 90); opacity: 0;"/></g><g class="marker" transform="translate(567.3541893362351, 191.66718742514942)"><path d="M2.523,0A2.523,2.523,0,1,1,-2.523,0A2.523,2.523,0,1,1,2.523,0" transform="rotate(0)" style="shape-rendering: geometricprecision; fill: rgb(34, 153, 113); stroke: rgb(27, 122, 90); opacity: 0;"/></g><g class="marker" transform="translate(582.7109630032644, 150.81694431137697)"><path d="M2.523,0A2.523,2.523,0,1,1,-2.523,0A2.523,2.523,0,1,1,2.523,0" transform="rotate(0)" style="shape-rendering: geometricprecision; fill: rgb(34, 153, 113); stroke: rgb(27, 122, 90); opacity: 1;"/></g><g class="marker" transform="translate(598.0677366702938, 142.30998646706567)"><path d="M2.523,0A2.523,2.523,0,1,1,-2.523,0A2.523,2.523,0,1,1,2.523,0" transform="rotate(0)" style="shape-rendering: geometricprecision; fill: rgb(34, 153, 113); stroke: rgb(27, 122, 90); opacity: 1;"/></g><g class="marker" transform="translate(613.4245103373232, 164.84079065868232)"><path d="M2.523,0A2.523,2.523,0,1,1,-2.523,0A2.523,2.523,0,1,1,2.523,0" transform="rotate(0)" style="shape-rendering: geometricprecision; fill: rgb(34, 153, 113); stroke: rgb(27, 122, 90); opacity: 1;"/></g><g class="marker" transform="translate(628.7812840043525, 165.80940467065818)"><path d="M2.523,0A2.523,2.523,0,1,1,-2.523,0A2.523,2.523,0,1,1,2.523,0" transform="rotate(0)" style="shape-rendering: geometricprecision; fill: rgb(34, 153, 113); stroke: rgb(27, 122, 90); opacity: 1;"/></g><g class="marker" transform="translate(644.138057671382, 151.06962622754466)"><path d="M2.523,0A2.523,2.523,0,1,1,-2.523,0A2.523,2.523,0,1,1,2.523,0" transform="rotate(0)" style="shape-rendering: geometricprecision; fill: rgb(34, 153, 113); stroke: rgb(27, 122, 90); opacity: 1;"/></g><g class="marker" transform="translate(659.4948313384112, 136.8773252694607)"><path d="M2.523,0A2.523,2.523,0,1,1,-2.523,0A2.523,2.523,0,1,1,2.523,0" transform="rotate(0)" style="shape-rendering: geometricprecision; fill: rgb(34, 153, 113); stroke: rgb(27, 122, 90); opacity: 1;"/></g><g class="marker" transform="translate(674.8516050054407, 171.74742970059853)"><path d="M0,-3.738L3.237,1.869L-3.237,1.869Z" transform="rotate(0)" style="shape-rendering: geometricprecision; fill: rgb(34, 153, 113); stroke: rgb(27, 122, 90); opacity: 1;"/></g><g class="marker" transform="translate(690.2083786724701, 157.2182195209579)"><path d="M2.523,0A2.523,2.523,0,1,1,-2.523,0A2.523,2.523,0,1,1,2.523,0" transform="rotate(0)" style="shape-rendering: geometricprecision; fill: rgb(34, 153, 113); stroke: rgb(27, 122, 90); opacity: 1;"/></g><g class="marker" transform="translate(705.5651523394995, 172.042225269461)"><path d="M2.523,0A2.523,2.523,0,1,1,-2.523,0A2.523,2.523,0,1,1,2.523,0" transform="rotate(0)" style="shape-rendering: geometricprecision; fill: rgb(34, 153, 113); stroke: rgb(27, 122, 90); opacity: 1;"/></g><g class="marker" transform="translate(720.9219260065289, 181.89681999999974)"><path d="M2.523,0A2.523,2.523,0,1,1,-2.523,0A2.523,2.523,0,1,1,2.523,0" transform="rotate(0)" style="shape-rendering: geometricprecision; fill: rgb(34, 153, 113); stroke: rgb(27, 122, 90); opacity: 1;"/></g><g class="marker" transform="translate(736.2786996735582, 166.10420023952065)"><path d="M2.523,0A2.523,2.523,0,1,1,-2.523,0A2.523,2.523,0,1,1,2.523,0" transform="rotate(0)" style="shape-rendering: geometricprecision; fill: rgb(34, 153, 113); stroke: rgb(27, 122, 90); opacity: 1;"/></g><g class="marker" transform="translate(751.6354733405876, 151.9118992814367)"><path d="M2.523,0A2.523,2.523,0,1,1,-2.523,0A2.523,2.523,0,1,1,2.523,0" transform="rotate(0)" style="shape-rendering: geometricprecision; fill: rgb(34, 153, 113); stroke: rgb(27, 122, 90); opacity: 1;"/></g><g class="marker" transform="translate(766.992247007617, 183.96038898203594)"><path d="M0,-3.738L3.237,1.869L-3.237,1.869Z" transform="rotate(0)" style="shape-rendering: geometricprecision; fill: rgb(34, 153, 113); stroke: rgb(27, 122, 90); opacity: 1;"/></g><g class="marker" transform="translate(782.3490206746463, 170.10499724550866)"><path d="M2.523,0A2.523,2.523,0,1,1,-2.523,0A2.523,2.523,0,1,1,2.523,0" transform="rotate(0)" style="shape-rendering: geometricprecision; fill: rgb(34, 153, 113); stroke: rgb(27, 122, 90); opacity: 1;"/></g><g class="marker" transform="translate(797.7057943416758, 172.042225269461)"><path d="M2.523,0A2.523,2.523,0,1,1,-2.523,0A2.523,2.523,0,1,1,2.523,0" transform="rotate(0)" style="shape-rendering: geometricprecision; fill: rgb(34, 153, 113); stroke: rgb(27, 122, 90); opacity: 1;"/></g><g class="marker" transform="translate(813.0625680087051, 172.75815736526923)"><path d="M2.523,0A2.523,2.523,0,1,1,-2.523,0A2.523,2.523,0,1,1,2.523,0" transform="rotate(0)" style="shape-rendering: geometricprecision; fill: rgb(34, 153, 113); stroke: rgb(27, 122, 90); opacity: 1;"/></g><g class="marker" transform="translate(828.4193416757345, 169.93654263473)"><path d="M2.523,0A2.523,2.523,0,1,1,-2.523,0A2.523,2.523,0,1,1,2.523,0" transform="rotate(0)" style="shape-rendering: geometricprecision; fill: rgb(34, 153, 113); stroke: rgb(27, 122, 90); opacity: 1;"/></g><g class="marker" transform="translate(843.7761153427639, 170.14711089820347)"><path d="M2.523,0A2.523,2.523,0,1,1,-2.523,0A2.523,2.523,0,1,1,2.523,0" transform="rotate(0)" style="shape-rendering: geometricprecision; fill: rgb(34, 153, 113); stroke: rgb(27, 122, 90); opacity: 1;"/></g><g class="marker" transform="translate(859.1328890097933, 142.30998646706567)"><path d="M2.523,0A2.523,2.523,0,1,1,-2.523,0A2.523,2.523,0,1,1,2.523,0" transform="rotate(0)" style="shape-rendering: geometricprecision; fill: rgb(34, 153, 113); stroke: rgb(27, 122, 90); opacity: 1;"/></g><g class="marker" transform="translate(874.4896626768227, 155.6179007185628)"><path d="M2.523,0A2.523,2.523,0,1,1,-2.523,0A2.523,2.523,0,1,1,2.523,0" transform="rotate(0)" style="shape-rendering: geometricprecision; fill: rgb(34, 153, 113); stroke: rgb(27, 122, 90); opacity: 1;"/></g></g></g></svg>