<svg id="svg-chart-pent-chart-pent-2" width="527" height="416.33000000000004" xmlns="http://www.w3.org/2000/svg" xmlns:xlink="http://www.w3.org/1999/xlink"><g name="chart-6-main-node" id="chart-6-main"><g><path d="M263.5,193.198L293.572,215.047L282.086,250.399L244.914,250.399L233.428,215.047L263.5,193.198" style="stroke: rgb(214, 219, 224); stroke-width: 1; fill: none; shape-rendering: geometricprecision;"/></g><g><path d="M263.5,161.578L323.645,205.276L300.672,275.98L226.328,275.98L203.355,205.276L263.5,161.578" style="stroke: rgb(214, 219, 224); stroke-width: 1; fill: none; shape-rendering: geometricprecision;"/></g><g><path d="M263.5,129.958L353.717,195.505L319.257,301.562L207.743,301.562L173.283,195.505L263.5,129.958" style="stroke: rgb(214, 219, 224); stroke-width: 1; fill: none; shape-rendering: geometricprecision;"/></g><g><path d="M263.5,98.338L383.79,185.734L337.843,327.143L189.157,327.143L143.21,185.734L263.5,98.338" style="stroke: rgb(214, 219, 224); stroke-width: 1; fill: none; shape-rendering: geometricprecision;"/></g><g><path d="M263.5,66.718L413.862,175.963L356.429,352.724L170.571,352.724L113.138,175.963L263.5,66.718" style="stroke: rgb(214, 219, 224); stroke-width: 1; fill: none; shape-rendering: geometricprecision;"/></g><g><path d="M293.572,215.047L432.883,169.782" style="stroke: rgb(214, 219, 224); stroke-width: 1; fill: none; shape-rendering: geometricprecision;"/><path d="M282.086,250.399L368.185,368.904" style="stroke: rgb(214, 219, 224); stroke-width: 1; fill: none; shape-rendering: geometricprecision;"/><path d="M244.914,250.399L158.815,368.904" style="stroke: rgb(214, 219, 224); stroke-width: 1; fill: none; shape-rendering: geometricprecision;"/><path d="M233.428,215.047L94.117,169.782" style="stroke: rgb(214, 219, 224); stroke-width: 1; fill: none; shape-rendering: geometricprecision;"/><path d="M263.5,193.198L263.5,46.718" style="stroke: rgb(214, 219, 224); stroke-width: 1; fill: none; shape-rendering: geometricprecision;"/></g><g><text x="238.9054119367695" y="200.22361193676954" style="font-family: Nunito; fill: rgb(120, 123, 127); font-size: 11px; font-weight: 700; cursor: default;">2</text><text x="221.01843879987462" y="182.33663879987463" style="font-family: Nunito; fill: rgb(120, 123, 127); font-size: 11px; font-weight: 700; cursor: default;">4</text><text x="203.13146566297968" y="164.44966566297973" style="font-family: Nunito; fill: rgb(120, 123, 127); font-size: 11px; font-weight: 700; cursor: default;">6</text><text x="184.35014386924007" y="145.66834386924006" style="font-family: Nunito; fill: rgb(120, 123, 127); font-size: 11px; font-weight: 700; cursor: default;">8</text><text x="161.54425311969905" y="122.86245311969907" style="font-family: Nunito; fill: rgb(120, 123, 127); font-size: 11px; font-weight: 700; cursor: default;">10</text></g><g style="cursor: default;"><text id="pentagon-1-label-0" x="263.5" y="30.718200000000053" style="font-family: Nunito; fill: rgb(95, 100, 105); font-size: 12.5px; font-weight: 700; dominant-baseline: middle; text-anchor: middle;">ПЛОТНОСТЬ</text><text id="pentagon-1-label-1" x="448.10006981288933" y="164.8380013918228" style="font-family: Nunito; fill: rgb(95, 100, 105); font-size: 12.5px; font-weight: 700; dominant-baseline: middle; text-anchor: start;">ОБГОНЫ</text><text id="pentagon-1-label-2" x="382.2913994883088" y="388.3205345631769" style="font-family: Nunito; fill: rgb(95, 100, 105); font-size: 12.5px; font-weight: 700; dominant-baseline: middle; text-anchor: middle;">КВАЛИФИКАЦИЯ</text><text id="pentagon-1-label-3" x="144.7086005116912" y="388.3205345631769" style="font-family: Nunito; fill: rgb(95, 100, 105); font-size: 12.5px; font-weight: 700; dominant-baseline: middle; text-anchor: middle;">ТЕМП</text><text id="pentagon-1-label-4" x="78.89993018711067" y="164.8380013918228" style="font-family: Nunito; fill: rgb(95, 100, 105); font-size: 12.5px; font-weight: 700; dominant-baseline: middle; text-anchor: end;">СТАРТ</text></g><g><path d="M352.965,195.749C358.456,213.859,342.162,305.758,329.387,315.503C316.611,325.248,212.454,322.62,199.658,312.689C186.862,302.759,170.519,214.211,175.839,196.335C181.159,178.46,248.739,98.229,263.5,98.18C278.261,98.131,347.475,177.639,352.965,195.749" fill-opacity="0.1" stroke-opacity="1" style="stroke-width: 2.4; stroke-linejoin: round; fill: rgb(39, 244, 210); stroke: rgb(39, 244, 210); stroke-dasharray: 0;"/></g><g><path d="M345.748,198.094C349.612,213.018,320.079,281.801,309.871,288.643C299.664,295.485,235.258,288.162,223.262,280.201C211.265,272.24,162.562,207.331,165.915,193.111C169.268,178.891,248.514,109.148,263.5,109.563C278.486,109.979,341.884,183.171,345.748,198.094" fill-opacity="0.1" stroke-opacity="1" style="stroke-width: 2.4; stroke-linejoin: round; fill: rgb(80, 80, 80); stroke: rgb(80, 80, 80); stroke-dasharray: 0;"/></g></g></svg>