<svg id="svg-event-comparison-radar" width="468" height="397.8" xmlns="http://www.w3.org/2000/svg" xmlns:xlink="http://www.w3.org/1999/xlink"><g name="plot-comparison-main-node" transform="translate(110, 10)"><g name="axis-circles"><circle class="radar-axis" cx="124" cy="188.9" r="24.8" style="stroke: rgb(214, 219, 224); stroke-width: 1; fill: none; shape-rendering: geometricprecision;"/><circle class="radar-axis" cx="124" cy="188.9" r="49.6" style="stroke: rgb(214, 219, 224); stroke-width: 1; fill: none; shape-rendering: geometricprecision;"/><circle class="radar-axis" cx="124" cy="188.9" r="74.39999999999999" style="stroke: rgb(214, 219, 224); stroke-width: 1; fill: none; shape-rendering: geometricprecision;"/><circle class="radar-axis" cx="124" cy="188.9" r="99.2" style="stroke: rgb(214, 219, 224); stroke-width: 1; fill: none; shape-rendering: geometricprecision;"/><circle class="radar-axis" cx="124" cy="188.9" r="124" style="stroke: rgb(214, 219, 224); stroke-width: 1; fill: none; shape-rendering: geometricprecision;"/><g name="ticks"><text x="124" dx="-27.280000000000005" y="164.1" dy="3.7199999999999998" style="font-family: Nunito; fill: rgb(120, 123, 127); font-size: 0.7rem; font-weight: 600; cursor: default;">2</text><text x="124" dx="-44.64" y="139.3" dy="11.78" style="font-family: Nunito; fill: rgb(120, 123, 127); font-size: 0.7rem; font-weight: 600; cursor: default;">4</text><text x="124" dx="-62" y="114.50000000000001" dy="18.599999999999998" style="font-family: Nunito; fill: rgb(120, 123, 127); font-size: 0.7rem; font-weight: 600; cursor: default;">6</text><text x="124" dx="-79.36" y="89.7" dy="26.66" style="font-family: Nunito; fill: rgb(120, 123, 127); font-size: 0.7rem; font-weight: 600; cursor: default;">8</text><text x="124" dx="-101.67999999999999" y="64.9" dy="32.24" style="font-family: Nunito; fill: rgb(120, 123, 127); font-size: 0.7rem; font-weight: 600; cursor: default;">10</text></g></g><g name="axis-lines"><line x1="124" y1="188.9" x2="124.00000000000001" y2="40.10000000000002" style="stroke: rgb(214, 219, 224); stroke-width: 1; fill: none; shape-rendering: geometricprecision;"/><line x1="124" y1="188.9" x2="-24.799999999999983" y2="188.89999999999998" style="stroke: rgb(214, 219, 224); stroke-width: 1; fill: none; shape-rendering: geometricprecision;"/><line x1="124" y1="188.9" x2="123.99999999999997" y2="337.7" style="stroke: rgb(214, 219, 224); stroke-width: 1; fill: none; shape-rendering: geometricprecision;"/><line x1="124" y1="188.9" x2="272.79999999999995" y2="188.90000000000003" style="stroke: rgb(214, 219, 224); stroke-width: 1; fill: none; shape-rendering: geometricprecision;"/></g><g name="labels"><text x="124.00000000000001" dx="0" y="40.10000000000002" dy="-17" style="font-family: Nunito; fill: rgb(73, 80, 87); font-size: 14px; font-weight: 700; text-anchor: middle; dominant-baseline: central; cursor: default;">ПЛОТНОСТЬ</text><text x="-24.799999999999983" dx="-15" y="188.89999999999998" dy="0" style="font-family: Nunito; fill: rgb(73, 80, 87); font-size: 14px; font-weight: 700; text-anchor: end; dominant-baseline: central; cursor: default;">СТАРТ</text><text x="123.99999999999997" dx="0" y="337.7" dy="19" style="font-family: Nunito; fill: rgb(73, 80, 87); font-size: 14px; font-weight: 700; text-anchor: middle; dominant-baseline: central; cursor: default;">ТЕМП</text><text x="272.79999999999995" dx="15" y="188.90000000000003" dy="0" style="font-family: Nunito; fill: rgb(73, 80, 87); font-size: 14px; font-weight: 700; text-anchor: start; dominant-baseline: central; cursor: default;">ОБГОНЫ</text></g><g name="line-left"><path d="M37.2,188.9C37.2,229.51,101.267,308.56,124,308.56C146.733,308.56,173.6,229.51,173.6,188.9C173.6,148.29,146.733,64.9,124,64.9C101.267,64.9,37.2,148.29,37.2,188.9" style="stroke: rgb(232, 0, 32); stroke-width: 2.4; stroke-opacity: 1; stroke-dasharray: 0; stroke-linejoin: round; fill: rgb(232, 0, 32); fill-opacity: 0.1;"/></g><g name="line-right"><path d="M0,188.9C0,220.913,88.867,286.488,124,286.488C159.133,286.488,210.8,220.913,210.8,188.9C210.8,156.887,159.133,94.412,124,94.412C88.867,94.412,0,156.887,0,188.9" style="stroke: rgb(165, 90, 100); stroke-width: 2.4; stroke-opacity: 0.75; stroke-dasharray: 10, 5; stroke-linejoin: round; fill: rgb(165, 90, 100); fill-opacity: 0.1; opacity: 1;"/></g><g name="circles-mean"><g><circle fill="#313336" cx="124" cy="112.76400000000001" r="3"/><circle fill="#313336" cx="41.53999999999999" cy="188.9" r="3"/><circle fill="#313336" cx="124" cy="251.768" r="3"/><circle fill="#313336" cx="173.6" cy="188.9" r="3"/></g></g></g></svg>