<svg id="svg-chart-pent-chart-pent-1" width="488" height="385.52000000000004" xmlns="http://www.w3.org/2000/svg" xmlns:xlink="http://www.w3.org/1999/xlink"><g name="chart-6-main-node" id="chart-6-main"><g><path d="M244,178.901L271.847,199.133L261.21,231.869L226.79,231.869L216.153,199.133L244,178.901" style="stroke: rgb(214, 219, 224); stroke-width: 1; fill: none; shape-rendering: geometricprecision;"/></g><g><path d="M244,149.621L299.694,190.085L278.421,255.557L209.579,255.557L188.306,190.085L244,149.621" style="stroke: rgb(214, 219, 224); stroke-width: 1; fill: none; shape-rendering: geometricprecision;"/></g><g><path d="M244,120.341L327.541,181.037L295.631,279.245L192.369,279.245L160.459,181.037L244,120.341" style="stroke: rgb(214, 219, 224); stroke-width: 1; fill: none; shape-rendering: geometricprecision;"/></g><g><path d="M244,91.061L355.388,171.989L312.841,302.933L175.159,302.933L132.612,171.989L244,91.061" style="stroke: rgb(214, 219, 224); stroke-width: 1; fill: none; shape-rendering: geometricprecision;"/></g><g><path d="M244,61.781L383.235,162.941L330.052,326.621L157.948,326.621L104.765,162.941L244,61.781" style="stroke: rgb(214, 219, 224); stroke-width: 1; fill: none; shape-rendering: geometricprecision;"/></g><g><path d="M271.847,199.133L402.256,156.76" style="stroke: rgb(214, 219, 224); stroke-width: 1; fill: none; shape-rendering: geometricprecision;"/><path d="M261.21,231.869L341.807,342.801" style="stroke: rgb(214, 219, 224); stroke-width: 1; fill: none; shape-rendering: geometricprecision;"/><path d="M226.79,231.869L146.193,342.801" style="stroke: rgb(214, 219, 224); stroke-width: 1; fill: none; shape-rendering: geometricprecision;"/><path d="M216.153,199.133L85.744,156.76" style="stroke: rgb(214, 219, 224); stroke-width: 1; fill: none; shape-rendering: geometricprecision;"/><path d="M244,178.901L244,41.781" style="stroke: rgb(214, 219, 224); stroke-width: 1; fill: none; shape-rendering: geometricprecision;"/></g><g><text x="221.22550479154367" y="185.4063047915437" style="font-family: Nunito; fill: rgb(120, 123, 127); font-size: 11px; font-weight: 700; cursor: default;">2</text><text x="204.66223554903" y="168.84303554903002" style="font-family: Nunito; fill: rgb(120, 123, 127); font-size: 11px; font-weight: 700; cursor: default;">4</text><text x="188.0989663065163" y="152.2797663065163" style="font-family: Nunito; fill: rgb(120, 123, 127); font-size: 11px; font-weight: 700; cursor: default;">6</text><text x="170.70753360187695" y="134.88833360187692" style="font-family: Nunito; fill: rgb(120, 123, 127); font-size: 11px; font-weight: 700; cursor: default;">8</text><text x="149.589365317672" y="113.770165317672" style="font-family: Nunito; fill: rgb(120, 123, 127); font-size: 11px; font-weight: 700; cursor: default;">10</text></g><g style="cursor: default;"><text id="pentagon-1-label-0" x="244.00000000000003" y="25.780800000000028" style="font-family: Nunito; fill: rgb(95, 100, 105); font-size: 12.5px; font-weight: 700; dominant-baseline: middle; text-anchor: middle;">ПЛОТНОСТЬ</text><text id="pentagon-1-label-1" x="417.472708572236" y="151.81610022600964" style="font-family: Nunito; fill: rgb(95, 100, 105); font-size: 12.5px; font-weight: 700; dominant-baseline: middle; text-anchor: start;">ОБГОНЫ</text><text id="pentagon-1-label-2" x="355.9143120364869" y="362.21763572899005" style="font-family: Nunito; fill: rgb(95, 100, 105); font-size: 12.5px; font-weight: 700; dominant-baseline: middle; text-anchor: middle;">КВАЛИФИКАЦИЯ</text><text id="pentagon-1-label-3" x="132.08568796351312" y="362.21763572899005" style="font-family: Nunito; fill: rgb(95, 100, 105); font-size: 12.5px; font-weight: 700; dominant-baseline: middle; text-anchor: middle;">ТЕМП</text><text id="pentagon-1-label-4" x="70.52729142776397" y="151.81610022600964" style="font-family: Nunito; fill: rgb(95, 100, 105); font-size: 12.5px; font-weight: 700; dominant-baseline: middle; text-anchor: end;">СТАРТ</text></g><g><path d="M327.819,180.946C332.638,195.582,312.412,280.548,301.827,287.773C291.242,294.997,211.956,276.329,200.802,267.638C189.648,258.947,164.378,196.438,167.978,183.48C171.578,170.522,230.68,112.354,244,112.142C257.32,111.931,323,166.31,327.819,180.946" fill-opacity="0.1" stroke-opacity="1" style="stroke-width: 2; stroke-linejoin: round; fill: rgb(0, 147, 204); stroke: rgb(0, 147, 204); stroke-dasharray: 0;"/></g></g></svg>