<svg class="svg-chart" id="svg-event-comparison-radar" width="234" height="234" xmlns="http://www.w3.org/2000/svg" xmlns:xlink="http://www.w3.org/1999/xlink"><g name="plot-comparison-main-node"><g name="levels"><circle cx="117" cy="117" fill="none" stroke="#404040" r="13.435500000000003" style="r: 13.4355;"/><circle cx="117" cy="117" fill="none" stroke="#323232" r="26.871000000000006" style="r: 26.871;"/><circle cx="117" cy="117" fill="none" stroke="#323232" r="40.30650000000001" style="r: 40.3065;"/><circle cx="117" cy="117" fill="none" stroke="#323232" r="53.74200000000001" style="r: 53.742;"/><circle cx="117" cy="117" fill="none" stroke="#323232" r="67.17750000000001" style="r: 67.1775;"/><circle cx="117" cy="117" fill="none" stroke="#404040" r="80.61300000000001" style="r: 80.613;"/></g><g name="levels"><path d="M117.5,104.5L117.5,26.5" style="stroke: rgb(64, 64, 64); stroke-width: 1; fill: none; shape-rendering: geometricprecision;"/><path d="M130.5,117.5L208.5,117.5" style="stroke: rgb(64, 64, 64); stroke-width: 1; fill: none; shape-rendering: geometricprecision;"/><path d="M117.5,130.5L117.5,208.5" style="stroke: rgb(64, 64, 64); stroke-width: 1; fill: none; shape-rendering: geometricprecision;"/><path d="M104.5,117.5L26.5,117.5" style="stroke: rgb(64, 64, 64); stroke-width: 1; fill: none; shape-rendering: geometricprecision;"/></g><g name="ticks"><text x="95.5" y="95.5" style="font-family: Nunito; fill: rgb(104, 110, 115); font-size: 10px; font-variation-settings: &quot;wght&quot; 600; cursor: default; text-anchor: end; dominant-baseline: auto;">2</text><text x="86.5" y="86.5" style="font-family: Nunito; fill: rgb(104, 110, 115); font-size: 10px; font-variation-settings: &quot;wght&quot; 600; cursor: default; text-anchor: end; dominant-baseline: auto;">4</text><text x="76.5" y="76.5" style="font-family: Nunito; fill: rgb(104, 110, 115); font-size: 10px; font-variation-settings: &quot;wght&quot; 600; cursor: default; text-anchor: end; dominant-baseline: auto;">6</text><text x="67.5" y="67.5" style="font-family: Nunito; fill: rgb(104, 110, 115); font-size: 10px; font-variation-settings: &quot;wght&quot; 600; cursor: default; text-anchor: end; dominant-baseline: auto;">8</text><text x="57.5" y="57.5" style="font-family: Nunito; fill: rgb(104, 110, 115); font-size: 10px; font-variation-settings: &quot;wght&quot; 600; cursor: default; text-anchor: end; dominant-baseline: auto;">10</text></g><g name="labels"><text transform="translate(117.5, 16.5) rotate(0)" style="font-family: Nunito; font-size: 10.5px; font-variation-settings: &quot;wght&quot; 675; fill: rgb(145, 150, 156); dominant-baseline: auto; text-anchor: middle; text-rendering: auto;">ПЛОТНОСТЬ</text><text transform="translate(218.5, 117.5) rotate(90)" style="font-family: Nunito; font-size: 10.5px; font-variation-settings: &quot;wght&quot; 675; fill: rgb(145, 150, 156); dominant-baseline: auto; text-anchor: middle; text-rendering: auto;">ОБГОНЫ</text><text transform="translate(117.5, 218.5) rotate(0)" style="font-family: Nunito; font-size: 10.5px; font-variation-settings: &quot;wght&quot; 675; fill: rgb(145, 150, 156); dominant-baseline: hanging; text-anchor: middle; text-rendering: auto;">ТЕМП</text><text transform="translate(16.5, 117.5) rotate(90)" style="font-family: Nunito; font-size: 10.5px; font-variation-settings: &quot;wght&quot; 675; fill: rgb(145, 150, 156); dominant-baseline: hanging; text-anchor: middle; text-rendering: auto;">СТАРТ</text></g><g name="metric"><path d="M187.5,117.5C187.5,140.833,140.667,194.5,117.5,194.5C94.333,194.5,48.5,140.833,48.5,117.5C48.5,94.167,94.333,54.5,117.5,54.5C140.667,54.5,187.5,94.167,187.5,117.5" fill-opacity="0.1" style="stroke-width: 3; stroke-linejoin: round; fill: rgb(204, 20, 0); stroke: rgb(204, 20, 0); stroke-dasharray: 0;"/></g><g name="metric"><path d="M169.5,117.5C169.5,143.333,135.5,191.5,117.5,191.5C99.5,191.5,61.5,143.333,61.5,117.5C61.5,91.667,99.5,36.5,117.5,36.5C135.5,36.5,169.5,91.667,169.5,117.5" fill-opacity="0.1" style="stroke-width: 3; stroke-linejoin: round; fill: rgb(54, 113, 198); stroke: rgb(54, 113, 198); stroke-dasharray: 0;"/></g><g name="middle-points"><circle cx="117.5" cy="65.5" fill="#BFC2C5" r="3" style="r: 3;"/><circle cx="169.5" cy="117.5" fill="#BFC2C5" r="3" style="r: 3;"/><circle cx="117.5" cy="159.5" fill="#BFC2C5" r="3" style="r: 3;"/><circle cx="61.5" cy="117.5" fill="#BFC2C5" r="3" style="r: 3;"/></g></g></svg>