<?xml version="1.0" encoding="UTF-8" standalone="no"?>
<svg
   viewBox="0 0 19.999999 20"
   version="1.1"
   id="svg1"
   sodipodi:docname="1.svg"
   width="20"
   height="20"
   inkscape:version="1.4 (e7c3feb1, 2024-10-09)"
   xmlns:inkscape="http://www.inkscape.org/namespaces/inkscape"
   xmlns:sodipodi="http://sodipodi.sourceforge.net/DTD/sodipodi-0.dtd"
   xmlns="http://www.w3.org/2000/svg"
   xmlns:svg="http://www.w3.org/2000/svg">
  <defs
     id="defs1" />
  <sodipodi:namedview
     id="namedview1"
     pagecolor="#ffffff"
     bordercolor="#000000"
     borderopacity="0.25"
     inkscape:showpageshadow="2"
     inkscape:pageopacity="0.0"
     inkscape:pagecheckerboard="0"
     inkscape:deskcolor="#d1d1d1"
     inkscape:zoom="9.3724338"
     inkscape:cx="2.2939613"
     inkscape:cy="10.776283"
     inkscape:window-width="1440"
     inkscape:window-height="821"
     inkscape:window-x="0"
     inkscape:window-y="0"
     inkscape:window-maximized="0"
     inkscape:current-layer="svg1" />
  <!--!Font Awesome Free 7.0.1 by @fontawesome - https://fontawesome.com License - https://fontawesome.com/license/free Copyright 2025 Fonticons, Inc.-->
  <circle
     style="fill:#c2dbf2;fill-opacity:1;stroke:none;stroke-width:0;stroke-dasharray:none"
     id="path3"
     cx="10"
     cy="10"
     r="8.5" />
  <path
     id="path2"
     style="fill:#4d8c5d;fill-opacity:1;stroke:none;stroke-width:0;stroke-dasharray:none"
     d="m 10.635287,1.5265625 c 0.07533,0.00557 0.151011,0.010189 0.225781,0.017709 A 8.5,8.5 0 0 0 10.635287,1.5265625 Z M 10.004426,3.09375 c -3.1675771,0 -5.834895,2.1305334 -6.6516916,5.0358074 l -0.00221,0.00221 1.0248662,1.0248732 C 4.5746102,9.3558602 4.8435539,9.46875 5.1257814,9.46875 h 0.7149737 c 0.2822262,0 0.5511722,0.112891 0.7503908,0.312109 l 0.9717447,0.971745 C 7.7621102,10.951824 7.875,11.220769 7.875,11.502994 v 1.246225 c 0,0.282226 0.1128908,0.551172 0.3121094,0.75039 l 0.4404947,0.440495 c 0.1992186,0.19922 0.3143229,0.468165 0.3143229,0.75039 V 15.3125 c 0,0.587695 0.4748045,1.0625 1.062499,1.0625 0.587696,0 1.0625,-0.474805 1.0625,-1.0625 v -0.08854 c 0,-0.282227 0.11068,-0.551172 0.309898,-0.750391 l 1.505207,-1.505212 c 0.199219,-0.199218 0.31211,-0.468164 0.31211,-0.75039 v -1.151043 c 0,-0.587695 -0.474805,-1.0625 -1.0625,-1.0625 H 9.386849 c -0.2822272,0 -0.5533845,-0.115103 -0.7526041,-0.314322 L 8.1029949,9.1588541 C 7.9635427,9.0194009 7.8838541,8.8268227 7.8838541,8.6276041 c 0,-0.415039 0.3353516,-0.7481771 0.7503908,-0.7481771 H 9.7875 c 0.415039,0 0.750391,-0.3375648 0.750391,-0.752604 0,-0.1992184 -0.07969,-0.3917968 -0.219141,-0.53125 L 9.665756,5.9425781 C 9.536262,5.8164065 9.46875,5.6537108 9.46875,5.484375 9.46875,5.3150392 9.534046,5.15345 9.656901,5.030599 L 10.232422,4.4550781 C 10.425,4.2624999 10.535676,3.9990894 10.535676,3.726823 c 0,-0.2390621 -0.07969,-0.4537758 -0.2125,-0.6264324 -0.10625,-0.00328 -0.2125,-0.00664 -0.31875,-0.00664 z M 4.4550781,3.5608074 a 8.5,8.5 0 0 0 -0.039844,0.033203 c 0.013075,-0.011408 0.026699,-0.021874 0.039844,-0.033203 z m -0.8610677,0.854427 a 8.5,8.5 0 0 0 -0.033203,0.039844 c 0.011329,-0.013145 0.021795,-0.026769 0.033203,-0.039844 z M 16.129297,6.8191406 c -0.2125,0.029886 -0.422787,0.1305987 -0.595443,0.3032553 l -0.442708,0.4427082 c -0.19922,0.1992186 -0.314322,0.4681646 -0.314322,0.7503908 V 9.46875 c 0,0.587695 0.474804,1.0625 1.0625,1.0625 h 0.801301 c 0.083,0 0.16491,-0.01 0.241277,-0.02656 0.01328,-0.166013 0.01771,-0.33535 0.01771,-0.504686 h 0.0066 c 0,-1.1488292 -0.278906,-2.2312506 -0.776953,-3.1808604 z m 2.326433,2.3197918 c 0.0075,0.07477 0.01214,0.1504512 0.0177,0.2257811 A 8.5,8.5 0 0 0 18.45573,9.1389324 Z M 3.5608074,15.544922 a 8.5,8.5 0 0 0 0.033203,0.03984 c -0.011408,-0.01307 -0.021874,-0.0267 -0.033203,-0.03984 z m 12.8783856,0 c -0.01133,0.01314 -0.02179,0.02678 -0.0332,0.03984 a 8.5,8.5 0 0 0 0.0332,-0.03984 z M 4.4152344,16.40599 a 8.5,8.5 0 0 0 0.039844,0.0332 c -0.013145,-0.01133 -0.026769,-0.02179 -0.039844,-0.0332 z m 11.1695316,0 c -0.01307,0.01141 -0.0267,0.02188 -0.03984,0.0332 a 8.5,8.5 0 0 0 0.03984,-0.0332 z" />
</svg>
