<?xml version="1.0" encoding="UTF-8" standalone="no"?>
<svg
   viewBox="0 0 20 20"
   version="1.1"
   id="svg1"
   sodipodi:docname="3.svg"
   width="20"
   height="20"
   inkscape:version="1.4 (e7c3feb1, 2024-10-09)"
   xmlns:inkscape="http://www.inkscape.org/namespaces/inkscape"
   xmlns:sodipodi="http://sodipodi.sourceforge.net/DTD/sodipodi-0.dtd"
   xmlns="http://www.w3.org/2000/svg"
   xmlns:svg="http://www.w3.org/2000/svg">
  <defs
     id="defs1" />
  <sodipodi:namedview
     id="namedview1"
     pagecolor="#ffffff"
     bordercolor="#000000"
     borderopacity="0.25"
     inkscape:showpageshadow="2"
     inkscape:pageopacity="0.0"
     inkscape:pagecheckerboard="0"
     inkscape:deskcolor="#d1d1d1"
     inkscape:zoom="4.7733724"
     inkscape:cx="-6.8086036"
     inkscape:cy="17.911865"
     inkscape:window-width="1440"
     inkscape:window-height="900"
     inkscape:window-x="0"
     inkscape:window-y="0"
     inkscape:window-maximized="0"
     inkscape:current-layer="svg1" />
  <!--!Font Awesome Free 7.0.1 by @fontawesome - https://fontawesome.com License - https://fontawesome.com/license/free Copyright 2025 Fonticons, Inc.-->
  <path
     d="m 12.723881,2.5 c 1.22388,0 2.397015,0.4864702 3.259701,1.3489855 l 0.164179,0.1641464 C 17.013433,4.8786306 17.5,6.0515322 17.5,7.2721843 c 0,0.7192598 -0.170149,1.4206132 -0.483582,2.0533233 -0.05672,0.110425 -0.158209,0.1939914 -0.277612,0.2298043 l -3.343284,1.0027851 c -0.116418,0.03581 -0.194029,0.140271 -0.194029,0.262635 0,0.152209 0.122388,0.274572 0.274626,0.274572 h 0.961194 c 0.426866,0 0.638806,0.513331 0.337314,0.814763 l -0.668657,0.668524 c -0.05672,0.05671 -0.125373,0.0955 -0.2,0.119379 l -2.41791,0.725229 c -0.116418,0.03581 -0.19403,0.140271 -0.19403,0.262635 0,0.152209 0.122388,0.274572 0.274627,0.274572 0.39403,0 0.564179,0.468563 0.232836,0.683446 -1.226866,0.793872 -2.6656717,1.226621 -4.1492537,1.226621 h -2.567164 l -1.432836,1.432551 c -0.262687,0.262635 -0.692538,0.262635 -0.955224,0 -0.262687,-0.262634 -0.262687,-0.692399 0,-0.955034 l 7.161194,-7.1627535 c 0.2626867,-0.2626337 0.2626867,-0.6923992 0,-0.9550339 -0.262687,-0.2626337 -0.6925371,-0.2626337 -0.955224,0 L 4.5895522,12.542777 c -0.1701489,0.170115 -0.462686,0.05074 -0.462686,-0.191007 0,-2.026461 0.80597,-3.9693587 2.238806,-5.4019096 L 9.4641792,3.8489855 C 10.326866,2.9864702 11.5,2.5 12.723881,2.5 Z"
     id="path1"
     style="stroke-width:0;stroke:none;stroke-dasharray:none;fill:#999999;fill-opacity:1" />
</svg>
