<?xml version="1.0" encoding="UTF-8" standalone="no"?>
<svg
   viewBox="0 0 20 20"
   version="1.1"
   id="svg1"
   sodipodi:docname="4.svg"
   inkscape:version="1.4 (e7c3feb1, 2024-10-09)"
   width="20"
   height="20"
   xmlns:inkscape="http://www.inkscape.org/namespaces/inkscape"
   xmlns:sodipodi="http://sodipodi.sourceforge.net/DTD/sodipodi-0.dtd"
   xmlns="http://www.w3.org/2000/svg"
   xmlns:svg="http://www.w3.org/2000/svg">
  <defs
     id="defs1" />
  <sodipodi:namedview
     id="namedview1"
     pagecolor="#ffffff"
     bordercolor="#000000"
     borderopacity="0.25"
     inkscape:showpageshadow="2"
     inkscape:pageopacity="0.0"
     inkscape:pagecheckerboard="0"
     inkscape:deskcolor="#d1d1d1"
     inkscape:zoom="12.421551"
     inkscape:cx="4.6693042"
     inkscape:cy="20.528838"
     inkscape:window-width="1440"
     inkscape:window-height="821"
     inkscape:window-x="0"
     inkscape:window-y="0"
     inkscape:window-maximized="0"
     inkscape:current-layer="svg1" />
  <!--!Font Awesome Free 7.0.1 by @fontawesome - https://fontawesome.com License - https://fontawesome.com/license/free Copyright 2025 Fonticons, Inc.-->
  <path
     d="m 6.4173035,2.0772924 c -1.199826,-0.321765 -2.434022,0.390492 -2.752726,1.590083 l -1.58727,5.919861 c -0.321828,1.1995916 0.390568,2.4335476 1.590394,2.7553126 l 5.921017,1.58696 c 1.1998255,0.321766 2.4340235,-0.390491 2.7558515,-1.590084 l 1.58727,-5.9198596 c 0.321828,-1.199593 -0.390568,-2.433548 -1.590395,-2.755313 z m 0.718646,6.425938 c -0.190598,-0.30927 -0.196847,-0.699761 -0.018747,-1.015279 0.178099,-0.315518 0.51555,-0.509202 0.881122,-0.506078 0.362447,0.0031 0.693649,0.203056 0.868624,0.521697 0.190597,0.309271 0.196846,0.699763 0.01875,1.01528 -0.178099,0.315517 -0.51555,0.509202 -0.881122,0.506078 -0.362448,-0.0031 -0.69365,-0.203056 -0.868624,-0.521698 z m -2.662114,0.384245 c 0.30933,-0.190561 0.699898,-0.196809 1.015477,-0.01875 0.31558,0.178065 0.509302,0.51545 0.506177,0.880951 -0.0031,0.3623756 -0.203095,0.6935126 -0.521799,0.8684536 -0.30933,0.19056 -0.699899,0.196808 -1.015478,0.01875 -0.315579,-0.178064 -0.509301,-0.515449 -0.506177,-0.8809496 0.0031,-0.362377 0.203096,-0.693514 0.5218,-0.868455 z M 10.254247,11.89895 c -0.3093295,0.190561 -0.6998985,0.196808 -1.0154775,0.01875 -0.315579,-0.178065 -0.509301,-0.51545 -0.506177,-0.880951 0.0031,-0.362376 0.203096,-0.693513 0.5218,-0.868454 0.30933,-0.1905596 0.699898,-0.1968076 1.0154775,-0.01875 0.315579,0.178064 0.509301,0.515449 0.506176,0.880949 -0.0031,0.362378 -0.203095,0.693515 -0.521799,0.868456 z m 0.281209,-6.5102846 c 0.30933,-0.19056 0.699899,-0.196808 1.015478,-0.01875 0.315579,0.178064 0.509302,0.515449 0.506178,0.88095 -0.0031,0.362376 -0.203097,0.693513 -0.521801,0.868454 -0.30933,0.19056 -0.699898,0.196809 -1.015478,0.01875 -0.315579,-0.178065 -0.509301,-0.51545 -0.506176,-0.88095 0.0031,-0.362377 0.203095,-0.693514 0.521799,-0.868454 z m -3.7807015,0.449847 c -0.30933,0.19056 -0.699899,0.196808 -1.015478,0.01875 -0.315579,-0.178064 -0.509301,-0.51545 -0.506176,-0.88095 0.0031,-0.362377 0.203095,-0.693515 0.521799,-0.868455 0.30933,-0.19056 0.699899,-0.196808 1.015478,-0.01875 0.315579,0.178065 0.509301,0.51545 0.506176,0.880951 -0.0031,0.362376 -0.203095,0.693514 -0.521799,0.868454 z m 8.3050465,2.164889 -1.268566,4.7233916 c -0.537422,1.99932 -2.593375,3.186416 -4.5930845,2.652223 L 8.0014485,15.05725 v 0.94343 c 0,1.10275 0.896745,1.999319 1.9997105,1.999319 H 16.00029 C 17.103255,17.999999 18,17.10343 18,16.00068 V 10.00272 C 18,8.8999714 17.103255,8.0034014 16.00029,8.0034014 Z"
     id="path1"
     style="fill:#808080;fill-opacity:1;stroke:none;stroke-width:0.0312424" />
</svg>
