<?xml version="1.0" encoding="UTF-8" standalone="no"?>
<svg
   viewBox="0 0 20 20"
   version="1.1"
   id="svg1"
   sodipodi:docname="5.svg"
   width="20"
   height="20"
   inkscape:version="1.4 (e7c3feb1, 2024-10-09)"
   xmlns:inkscape="http://www.inkscape.org/namespaces/inkscape"
   xmlns:sodipodi="http://sodipodi.sourceforge.net/DTD/sodipodi-0.dtd"
   xmlns="http://www.w3.org/2000/svg"
   xmlns:svg="http://www.w3.org/2000/svg">
  <defs
     id="defs1" />
  <sodipodi:namedview
     id="namedview1"
     pagecolor="#ffffff"
     bordercolor="#000000"
     borderopacity="0.25"
     inkscape:showpageshadow="2"
     inkscape:pageopacity="0.0"
     inkscape:pagecheckerboard="0"
     inkscape:deskcolor="#d1d1d1"
     inkscape:zoom="5.8645915"
     inkscape:cx="17.648288"
     inkscape:cy="32.909368"
     inkscape:window-width="1440"
     inkscape:window-height="821"
     inkscape:window-x="0"
     inkscape:window-y="0"
     inkscape:window-maximized="0"
     inkscape:current-layer="svg1" />
  <!--!Font Awesome Free 7.0.1 by @fontawesome - https://fontawesome.com License - https://fontawesome.com/license/free Copyright 2025 Fonticons, Inc.-->
  <path
     style="fill:#ffd980;fill-opacity:1;stroke:#000000;stroke-width:0;stroke-linecap:butt;stroke-linejoin:round;stroke-dasharray:none;stroke-opacity:1"
     d="m 13.993616,14.584196 c 0.0059,-0.120081 0.0088,-0.240165 0.0088,-0.363176 0,-4.5279942 -3.679087,-8.2007662 -8.214868,-8.2007662 -0.1202891,0 -0.2435119,0.00296 -0.363801,0.00878 L 2.5162732,16.91263 c -0.044008,0.161086 0.00294,0.333889 0.1202891,0.451041 0.1173553,0.117154 0.2904541,0.164014 0.4518176,0.120084 L 13.990681,14.581267 Z"
     id="path2" />
  <path
     style="fill:#b2a88f;fill-opacity:1;stroke:#000000;stroke-width:0;stroke-dasharray:none;stroke-opacity:1"
     d="M 7.4804002,2.5033331 C 6.8114754,2.4560865 6.2511041,2.9167413 6.0868066,3.5279942 L 5.8022203,4.6028553 c 5.3044567,0.00886 9.5996577,4.3319249 9.6084617,9.6707947 l 1.067931,-0.286434 c 0.610247,-0.162409 1.065,-0.72937 1.018056,-1.402634 C 17.127,7.186655 12.843535,2.8754004 7.4804002,2.5033331 Z"
     id="path1" />
  <g
     id="g1"
     style="fill:#d93a2c;fill-opacity:1"
     transform="matrix(0.31250004,0,0,0.31446541,2.1874995,2.1855346)">
    <path
       style="fill:#d93a2c;fill-opacity:1;stroke:none;stroke-width:0;stroke-dasharray:none"
       d="m 10.018016,36.98471 c 0,-1.662075 1.342543,-3.004883 3.004293,-3.004883 1.661751,0 3.004294,1.342808 3.004294,3.004883 0,1.662077 -1.342543,3.004892 -3.004294,3.004892 -1.66175,0 -3.004293,-1.342815 -3.004293,-3.004892 z"
       id="path5" />
    <path
       style="fill:#d93a2c;fill-opacity:1;stroke:none;stroke-width:0;stroke-dasharray:none"
       d="m 23.537338,32.477384 c 0,-1.662077 1.342544,-3.004885 3.004294,-3.004885 1.66175,0 3.004294,1.342808 3.004294,3.004885 0,1.662078 -1.342544,3.004885 -3.004294,3.004885 -1.66175,0 -3.004294,-1.342807 -3.004294,-3.004885 z"
       id="path4" />
    <path
       style="fill:#d93a2c;fill-opacity:1;stroke:none;stroke-width:0;stroke-dasharray:none"
       d="m 17.52875,20.457843 c 1.66175,0 3.004294,1.342808 3.004294,3.004885 0,1.662077 -1.342544,3.004886 -3.004294,3.004886 -1.66175,0 -3.004294,-1.342809 -3.004294,-3.004886 0,-1.662077 1.342544,-3.004885 3.004294,-3.004885 z"
       id="path3" />
  </g>
</svg>
