<?xml version="1.0" encoding="UTF-8" standalone="no"?>
<svg
   viewBox="0 0 20 20"
   version="1.1"
   id="svg1"
   sodipodi:docname="10.svg"
   width="20"
   height="20"
   inkscape:version="1.4 (e7c3feb1, 2024-10-09)"
   xmlns:inkscape="http://www.inkscape.org/namespaces/inkscape"
   xmlns:sodipodi="http://sodipodi.sourceforge.net/DTD/sodipodi-0.dtd"
   xmlns="http://www.w3.org/2000/svg"
   xmlns:svg="http://www.w3.org/2000/svg">
  <defs
     id="defs1" />
  <sodipodi:namedview
     id="namedview1"
     pagecolor="#ffffff"
     bordercolor="#000000"
     borderopacity="0.25"
     inkscape:showpageshadow="2"
     inkscape:pageopacity="0.0"
     inkscape:pagecheckerboard="0"
     inkscape:deskcolor="#d1d1d1"
     inkscape:zoom="18.673382"
     inkscape:cx="6.1317228"
     inkscape:cy="14.084219"
     inkscape:window-width="1440"
     inkscape:window-height="821"
     inkscape:window-x="0"
     inkscape:window-y="0"
     inkscape:window-maximized="0"
     inkscape:current-layer="svg1" />
  <!--!Font Awesome Free 7.0.1 by @fontawesome - https://fontawesome.com License - https://fontawesome.com/license/free Copyright 2025 Fonticons, Inc.-->
  <path
     id="path2"
     style="stroke-width:0;fill:#3076bf;fill-opacity:1;stroke:none;stroke-dasharray:none"
     d="M 12.833984 4.9921875 C 10.42706 4.9921875 8.9545486 5.8830373 8.3554688 6.4765625 C 8.2255797 6.6063959 8.1699219 6.7859232 8.1699219 6.96875 L 8.1699219 11.601562 C 8.1699219 13.73984 9.5075772 15.652201 11.519531 16.380859 L 12.253906 16.648438 C 12.627669 16.78357 13.038346 16.78357 13.412109 16.648438 L 14.148438 16.382812 C 16.160393 15.651505 17.5 13.742493 17.5 11.601562 L 17.5 6.96875 C 17.5 6.7859232 17.444339 6.6037461 17.314453 6.4765625 C 16.715373 5.8803884 15.240908 4.9921875 12.833984 4.9921875 z M 11.138672 8.3808594 C 11.695339 8.3808594 12.169495 8.7401444 12.341797 9.2382812 C 12.418667 9.4608522 12.222249 9.6542969 11.986328 9.6542969 L 10.289062 9.6542969 C 10.055794 9.6542969 9.8586739 9.4582033 9.9355469 9.2382812 C 10.110499 8.7401444 10.582004 8.3808594 11.138672 8.3808594 z M 14.53125 8.3808594 C 15.087917 8.3808594 15.562073 8.7401444 15.734375 9.2382812 C 15.811245 9.4608521 15.614827 9.6542969 15.378906 9.6542969 L 13.683594 9.6542969 C 13.450324 9.6542969 13.251252 9.4582033 13.328125 9.2382812 C 13.500427 8.7401443 13.974583 8.3808594 14.53125 8.3808594 z M 10.105469 11.703125 C 10.156553 11.700453 10.210597 11.71552 10.257812 11.751953 C 10.97088 12.297783 11.863792 12.623047 12.833984 12.623047 C 13.804176 12.623047 14.696393 12.297783 15.412109 11.751953 C 15.563204 11.635367 15.785158 11.742256 15.748047 11.927734 C 15.480316 13.28966 14.276018 14.320315 12.833984 14.320312 C 11.39195 14.320312 10.189605 13.29231 9.921875 11.927734 C 9.8963619 11.800219 9.9930837 11.709003 10.105469 11.703125 z " />
  <path
     style="stroke-width:0;stroke:none;stroke-dasharray:none;fill:#cc3629;fill-opacity:1"
     d="m 2.5229965,6.4209473 0.755478,4.2845067 c 0.371111,2.106483 2.022558,3.757223 4.129941,4.128176 l 0.336652,0.0583 c -0.437382,-0.757809 -0.718366,-1.60835 -0.811144,-2.503937 l -0.638842,0.113936 c -0.257128,0.04504 -0.49835,-0.153681 -0.447985,-0.410697 0.127238,-0.654468 0.506302,-1.234743 1.052366,-1.613645 V 8.5009368 c -0.03711,0.021201 -0.07952,0.034445 -0.124587,0.042392 L 5.1048735,8.837441 c -0.23062,0.039743 -0.458588,-0.1165851 -0.421477,-0.3471055 0.08218,-0.5193339 0.487747,-0.9538791 1.036462,-1.0519172 0.455937,-0.079486 0.89862,0.09274 1.182255,0.418647 V 7.2555914 c 0,-0.596174 0.182905,-1.3884232 0.856208,-1.9448533 C 8.4475285,4.7410607 9.5529105,4.1475356 11.069166,3.8746203 10.260673,3.442725 8.7815285,3.0267279 6.7271615,3.3870828 4.5985715,3.7633349 3.3341405,4.7145641 2.7483145,5.4034765 2.5097425,5.6816915 2.4620284,6.0632433 2.5256475,6.4235972 Z"
     id="path1" />
</svg>
