<?xml version="1.0" encoding="UTF-8" standalone="no"?>
<svg
   viewBox="0 0 20 20.000001"
   version="1.1"
   id="svg1"
   sodipodi:docname="11.svg"
   width="20"
   height="20"
   inkscape:version="1.4 (e7c3feb1, 2024-10-09)"
   xmlns:inkscape="http://www.inkscape.org/namespaces/inkscape"
   xmlns:sodipodi="http://sodipodi.sourceforge.net/DTD/sodipodi-0.dtd"
   xmlns="http://www.w3.org/2000/svg"
   xmlns:svg="http://www.w3.org/2000/svg">
  <defs
     id="defs1" />
  <sodipodi:namedview
     id="namedview1"
     pagecolor="#ffffff"
     bordercolor="#000000"
     borderopacity="0.25"
     inkscape:showpageshadow="2"
     inkscape:pageopacity="0.0"
     inkscape:pagecheckerboard="0"
     inkscape:deskcolor="#d1d1d1"
     inkscape:zoom="7.6016561"
     inkscape:cx="-5.1962361"
     inkscape:cy="7.6956914"
     inkscape:window-width="1440"
     inkscape:window-height="900"
     inkscape:window-x="0"
     inkscape:window-y="0"
     inkscape:window-maximized="0"
     inkscape:current-layer="svg1" />
  <!--!Font Awesome Free 7.0.1 by @fontawesome - https://fontawesome.com License - https://fontawesome.com/license/free Copyright 2025 Fonticons, Inc.-->
  <path
     d="M 5.9194355,3.5400682 C 6.0512725,3.3595155 6.2622105,3.25 6.4848685,3.25 h 7.0312845 c 0.222658,0 0.433596,0.1065553 0.565433,0.2900682 l 3.281266,4.4990136 c 0.19922,0.2723081 0.178712,0.6482124 -0.04395,0.8998023 L 10.521993,16.516166 C 10.390156,16.664165 10.199726,16.75 10.000506,16.75 9.8012865,16.75 9.6137855,16.664125 9.4790195,16.516166 L 2.6821115,8.9388841 C 2.4565235,8.6872942 2.4389455,8.3113899 2.6381615,8.0390818 Z m 1.127935,1.1780308 c -0.09668,0.073994 -0.123047,0.2071913 -0.06152,0.3107874 l 1.681649,2.8326029 -4.312522,0.3611044 c -0.120117,0.00889 -0.213868,0.1124756 -0.213868,0.23679 0,0.1243154 0.09375,0.2249513 0.213868,0.236791 l 5.625028,0.4735801 c 0.01172,0 0.026369,0 0.038089,0 l 5.625029,-0.4735801 c 0.120117,-0.00889 0.213867,-0.1124756 0.213867,-0.236791 0,-0.1243144 -0.09375,-0.2249503 -0.213867,-0.23679 L 11.330602,7.8585291 13.012252,5.0288864 C 13.073771,4.9252903 13.047411,4.7891362 12.950732,4.718099 12.854052,4.647065 12.719285,4.658905 12.637254,4.747701 L 10.000521,7.636541 7.3608605,4.7477008 c -0.08203,-0.088795 -0.216798,-0.100636 -0.313479,-0.029602 z"
     id="path1"
     style="stroke-width:0.0294475;fill:#5ca0e5;fill-opacity:1" />
</svg>
