<?xml version="1.0" encoding="UTF-8" standalone="no"?>
<svg
   viewBox="0 0 20 20"
   version="1.1"
   id="svg1"
   sodipodi:docname="13.svg"
   width="20"
   height="20"
   inkscape:version="1.4 (e7c3feb1, 2024-10-09)"
   xmlns:inkscape="http://www.inkscape.org/namespaces/inkscape"
   xmlns:sodipodi="http://sodipodi.sourceforge.net/DTD/sodipodi-0.dtd"
   xmlns="http://www.w3.org/2000/svg"
   xmlns:svg="http://www.w3.org/2000/svg">
  <defs
     id="defs1" />
  <sodipodi:namedview
     id="namedview1"
     pagecolor="#ffffff"
     bordercolor="#000000"
     borderopacity="0.25"
     inkscape:showpageshadow="2"
     inkscape:pageopacity="0.0"
     inkscape:pagecheckerboard="0"
     inkscape:deskcolor="#d1d1d1"
     inkscape:zoom="5.1169318"
     inkscape:cx="0.68400365"
     inkscape:cy="15.341225"
     inkscape:window-width="1440"
     inkscape:window-height="900"
     inkscape:window-x="0"
     inkscape:window-y="0"
     inkscape:window-maximized="0"
     inkscape:current-layer="svg1" />
  <!--!Font Awesome Free 7.0.1 by @fontawesome - https://fontawesome.com License - https://fontawesome.com/license/free Copyright 2025 Fonticons, Inc.-->
  <path
     d="M 9.666981,4.4143215 C 9.390996,4.2089187 9.016073,4.1960812 8.721863,4.3758128 8.427653,4.5555405 8.28185,4.8995904 8.349544,5.2333706 L 8.602096,6.4811947 C 8.096992,6.7122736 7.641357,6.9921348 7.237795,7.2899693 6.839439,7.5852369 6.482742,7.9036117 6.178117,8.2219776 L 3.754138,6.8278126 C 3.428685,6.6403821 3.014708,6.6917333 2.746534,6.9536221 2.47836,7.2155109 2.423684,7.6211816 2.608541,7.9446922 l 1.195066,2.0565948 -1.192462,2.056601 c -0.187461,0.323503 -0.130181,0.729181 0.137992,0.99107 0.268174,0.261888 0.679548,0.313237 1.007605,0.125811 l 2.423979,-1.394173 c 0.307228,0.315801 0.661322,0.63675 1.059677,0.93201 0.403563,0.297833 0.859198,0.577699 1.364302,0.808781 l -0.252552,1.24782 c -0.06769,0.333778 0.08071,0.675258 0.372319,0.854992 0.291606,0.179724 0.666529,0.166884 0.945117,-0.03856 l 2.020417,-1.494303 c 1.429392,-0.102697 2.642684,-0.693236 3.572179,-1.381334 1.020623,-0.754859 1.749639,-1.661199 2.124562,-2.297949 0.151011,-0.254187 0.151011,-0.5699978 0,-0.824175 C 17.011819,8.9511284 16.2802,8.0447863 15.26218,7.2899298 14.330081,6.6018301 13.119393,6.0112958 11.690001,5.9085944 Z m 2.832749,5.5869655 c 0,-0.4544521 0.372319,-0.8216112 0.833161,-0.8216112 0.460842,0 0.833161,0.3671591 0.833161,0.8216112 0,0.454452 -0.372319,0.821611 -0.833161,0.821611 -0.460842,0 -0.833161,-0.367159 -0.833161,-0.821611 z"
     id="path1"
     style="stroke-width:0;stroke:none;stroke-dasharray:none;fill:#005ab2;fill-opacity:1" />
</svg>
