<?xml version="1.0" encoding="UTF-8" standalone="no"?>
<svg
   viewBox="0 0 20 20.000001"
   version="1.1"
   id="svg1"
   sodipodi:docname="book-opened.svg"
   width="20"
   height="20"
   inkscape:version="1.4 (e7c3feb1, 2024-10-09)"
   xmlns:inkscape="http://www.inkscape.org/namespaces/inkscape"
   xmlns:sodipodi="http://sodipodi.sourceforge.net/DTD/sodipodi-0.dtd"
   xmlns="http://www.w3.org/2000/svg"
   xmlns:svg="http://www.w3.org/2000/svg">
  <defs
     id="defs1" />
  <sodipodi:namedview
     id="namedview1"
     pagecolor="#ffffff"
     bordercolor="#000000"
     borderopacity="0.25"
     inkscape:showpageshadow="2"
     inkscape:pageopacity="0.0"
     inkscape:pagecheckerboard="0"
     inkscape:deskcolor="#d1d1d1"
     inkscape:zoom="12.916208"
     inkscape:cx="2.4775073"
     inkscape:cy="8.245454"
     inkscape:window-width="1440"
     inkscape:window-height="900"
     inkscape:window-x="0"
     inkscape:window-y="0"
     inkscape:window-maximized="0"
     inkscape:current-layer="svg1" />
  <!--!Font Awesome Free 7.0.1 by @fontawesome - https://fontawesome.com License - https://fontawesome.com/license/free Copyright 2025 Fonticons, Inc.-->
  <path
     id="path3"
     style="stroke-width:0;fill:#707070;fill-opacity:1;stroke:none;stroke-dasharray:none"
     inkscape:label="path3"
     d="M 3.5 8.2832031 C 2.671875 8.2832031 2 8.9587215 2 9.7910156 L 2 15.822266 C 2 16.65456 2.671875 17.330078 3.5 17.330078 L 4.5996094 17.330078 C 6.1839844 17.330078 7.7523438 17.643416 9.2148438 18.255859 L 9.6152344 18.421875 C 9.8621094 18.525519 10.137891 18.525519 10.384766 18.421875 L 10.785156 18.255859 C 12.247656 17.643416 13.816016 17.330078 15.400391 17.330078 L 16.5 17.330078 C 17.328125 17.330078 18 16.65456 18 15.822266 L 18 9.7910156 C 18 8.9587215 17.328125 8.2832031 16.5 8.2832031 L 15.400391 8.2832031 C 13.816016 8.2832031 12.247656 8.5984946 10.785156 9.2109375 L 10 9.5410156 L 9.2148438 9.2109375 C 7.7523438 8.5984946 6.1839844 8.2832031 4.5996094 8.2832031 L 3.5 8.2832031 z M 15.400391 10.296875 L 16 10.296875 L 16 15.322266 L 15.400391 15.322266 C 13.553516 15.322266 11.721875 15.690163 10.015625 16.40625 L 10 16.412109 L 10 16.408203 L 10 11.720703 C 10.509375 11.507133 11.027734 11.290163 11.552734 11.070312 C 12.771484 10.561514 14.078516 10.296875 15.400391 10.296875 z " />
  <path
     style="stroke-width:0;fill:#707070;fill-opacity:1;stroke:none;stroke-dasharray:none"
     d="m 10,7.0276893 c 1.51875,0 2.75,-1.2374487 2.75,-2.7638447 C 12.75,2.7374486 11.51875,1.5 10,1.5 8.48125,1.5 7.25,2.7374486 7.25,4.2638446 c 0,1.526396 1.23125,2.7638447 2.75,2.7638447 z"
     id="path1" />
</svg>
