<?xml version="1.0" encoding="UTF-8" standalone="no"?>
<svg
   viewBox="0 0 20 20"
   version="1.1"
   id="svg1"
   sodipodi:docname="book-bookmark.svg"
   width="20"
   height="20"
   inkscape:version="1.4 (e7c3feb1, 2024-10-09)"
   xmlns:inkscape="http://www.inkscape.org/namespaces/inkscape"
   xmlns:sodipodi="http://sodipodi.sourceforge.net/DTD/sodipodi-0.dtd"
   xmlns="http://www.w3.org/2000/svg"
   xmlns:svg="http://www.w3.org/2000/svg">
  <defs
     id="defs1">
    <inkscape:path-effect
       effect="fillet_chamfer"
       id="path-effect3"
       is_visible="true"
       lpeversion="1"
       nodesatellites_param="F,0,1,1,0,1.7262984,0,1 @ F,0,0,1,0,0,0,1 @ F,0,0,1,0,0,0,1 @ F,0,0,1,0,0,0,1 @ F,0,0,1,0,0,0,1 @ F,0,0,1,0,0,0,1 @ F,0,0,1,0,0,0,1 @ F,0,0,1,0,0,0,1 @ F,0,0,1,0,1.7262984,0,1"
       radius="0"
       unit="px"
       method="auto"
       mode="F"
       chamfer_steps="1"
       flexible="false"
       use_knot_distance="true"
       apply_no_radius="true"
       apply_with_radius="true"
       only_selected="false"
       hide_knots="false" />
    <inkscape:path-effect
       effect="fillet_chamfer"
       id="path-effect2"
       nodesatellites_param="F,0,0,1,0,1,0,1 @ F,0,0,1,0,1,0,1 @ F,0,0,1,0,1,0,1 @ F,0,0,1,0,1,0,1 @ F,0,0,1,0,1,0,1 @ F,0,0,1,0,1,0,1 @ F,0,0,1,0,1,0,1 @ F,0,0,1,0,1,0,1 @ F,0,0,1,0,1,0,1"
       is_visible="true"
       lpeversion="1"
       radius="0"
       unit="px"
       method="auto"
       mode="F"
       chamfer_steps="1"
       flexible="false"
       use_knot_distance="true"
       apply_no_radius="true"
       apply_with_radius="true"
       only_selected="false"
       hide_knots="false" />
    <inkscape:path-effect
       effect="fillet_chamfer"
       id="path-effect1"
       is_visible="true"
       lpeversion="1"
       nodesatellites_param="F,0,0,1,0,0,0,1 @ F,0,0,1,0,0,0,1 @ F,0,0,1,0,0,0,1 @ F,0,0,1,0,0,0,1 @ F,0,0,1,0,0,0,1 @ F,0,0,1,0,0,0,1 @ F,0,0,1,0,0,0,1 @ F,0,0,1,0,0,0,1 @ F,0,0,1,0,0,0,1"
       radius="0"
       unit="px"
       method="auto"
       mode="F"
       chamfer_steps="1"
       flexible="false"
       use_knot_distance="true"
       apply_no_radius="true"
       apply_with_radius="true"
       only_selected="true"
       hide_knots="false" />
  </defs>
  <sodipodi:namedview
     id="namedview1"
     pagecolor="#ffffff"
     bordercolor="#000000"
     borderopacity="0.25"
     inkscape:showpageshadow="2"
     inkscape:pageopacity="0.0"
     inkscape:pagecheckerboard="0"
     inkscape:deskcolor="#d1d1d1"
     inkscape:zoom="11.573452"
     inkscape:cx="3.2833765"
     inkscape:cy="11.578223"
     inkscape:window-width="1440"
     inkscape:window-height="821"
     inkscape:window-x="0"
     inkscape:window-y="0"
     inkscape:window-maximized="0"
     inkscape:current-layer="svg1" />
  <!--!Font Awesome Free 7.0.1 by @fontawesome - https://fontawesome.com License - https://fontawesome.com/license/free Copyright 2025 Fonticons, Inc.-->
  <path
     style="fill:#707070;fill-opacity:1;stroke:none;stroke-width:0;stroke-dasharray:none"
     d="M 5.4285714,19 H 16.85714 C 17.48929,19 18,18.497266 18,17.875 18,17.252734 17.48929,16.75 16.85714,16.75 V 14.405078 C 17.52143,14.173047 18,13.547266 18,12.8125 V 2.6875 C 18,1.755859 17.23214,1 16.28571,1 h -1.71428 v 5.955469 c 0,0.439454 -0.36072,0.794532 -0.80714,0.794532 -0.21429,0 -0.42143,-0.08437 -0.57143,-0.232031 L 11.71429,6.0625 10.23571,7.51797 c -0.15,0.147656 -0.3571401,0.232031 -0.5714196,0.232031 -0.44643,0 -0.80715,-0.355078 -0.80715,-0.794532 V 1 H 5.4285714 C 3.535714,1 2,2.511719 2,4.375 v 11.25 C 2,17.488282 3.535714,19 5.4285714,19 Z"
     id="path1-1" />
  <path
     id="rect2"
     style="fill:#cd4b4b;fill-opacity:1;stroke:#cd4b4b;stroke-width:0;stroke-linecap:round;stroke-linejoin:bevel;stroke-miterlimit:4.8;stroke-dasharray:none;stroke-opacity:1"
     d="M 10,1.7262984 V 5.2934025 C 10,5.6840283 10.22061,6 10.494022,6 10.625249,6 10.752632,5.924648 10.844499,5.7934022 L 11.75,4.5 12.655503,5.7934022 C 12.747363,5.9246567 12.873548,6 13.004786,6 13.278192,6 13.5,5.6840283 13.5,5.2934025 V 1.7262984 A 1.7262984,1.7262984 45 0 0 11.773702,0 h -0.0474 A 1.7262984,1.7262984 135 0 0 10,1.7262984 Z"
     transform="matrix(1.1428571,0,0,1.0833333,-1.678571,0)"
     inkscape:original-d="M 10,0 V 5.2934025 C 10,5.6840283 10.22061,6 10.494022,6 10.625249,6 10.752632,5.924648 10.844499,5.7934022 L 11.75,4.5 12.655503,5.7934022 C 12.747363,5.9246567 12.873548,6 13.004786,6 13.278192,6 13.5,5.6840283 13.5,5.2934025 V 0 Z"
     inkscape:path-effect="#path-effect3" />
  <path
     style="stroke-width:0;fill:#b7cce5;fill-opacity:1;stroke:none;stroke-dasharray:none"
     d="m 4.285714,15.625 c 0,-0.622265 0.510715,-1.125 1.142857,-1.125 h 9.142859 v 2.25 H 5.428571 c -0.632142,0 -1.142857,-0.502734 -1.142857,-1.125 z"
     id="path2" />
</svg>
