<?xml version="1.0" encoding="UTF-8" standalone="no"?>
<svg
   viewBox="0 0 20 20.000001"
   version="1.1"
   id="svg1"
   sodipodi:docname="book-opened.svg"
   width="20"
   height="20"
   inkscape:version="1.4 (e7c3feb1, 2024-10-09)"
   xmlns:inkscape="http://www.inkscape.org/namespaces/inkscape"
   xmlns:sodipodi="http://sodipodi.sourceforge.net/DTD/sodipodi-0.dtd"
   xmlns="http://www.w3.org/2000/svg"
   xmlns:svg="http://www.w3.org/2000/svg">
  <defs
     id="defs1" />
  <sodipodi:namedview
     id="namedview1"
     pagecolor="#ffffff"
     bordercolor="#000000"
     borderopacity="0.25"
     inkscape:showpageshadow="2"
     inkscape:pageopacity="0.0"
     inkscape:pagecheckerboard="0"
     inkscape:deskcolor="#d1d1d1"
     inkscape:zoom="10.186133"
     inkscape:cx="6.9702605"
     inkscape:cy="23.561444"
     inkscape:window-width="1440"
     inkscape:window-height="821"
     inkscape:window-x="0"
     inkscape:window-y="0"
     inkscape:window-maximized="0"
     inkscape:current-layer="svg1" />
  <!--!Font Awesome Free 7.0.1 by @fontawesome - https://fontawesome.com License - https://fontawesome.com/license/free Copyright 2025 Fonticons, Inc.-->
  <path
     style="stroke-width:0;fill:#707070;fill-opacity:1;stroke:none;stroke-dasharray:none"
     d="M 10,9.540275 9.215625,9.210498 C 7.753125,8.598056 6.184375,8.2839823 4.6,8.2839823 H 3.5 C 2.671875,8.2839823 2,8.95924 2,9.791534 v 6.030206 c 0,0.832294 0.671875,1.507552 1.5,1.507552 h 1.1 c 1.584375,0 3.153125,0.314073 4.615625,0.926516 l 0.4,0.166459 c 0.246875,0.103644 0.521875,0.103644 0.76875,0 l 0.4,-0.166459 c 1.4625,-0.612443 3.03125,-0.926516 4.615625,-0.926516 h 1.1 c 0.828125,0 1.5,-0.675258 1.5,-1.507552 V 9.791534 C 18,8.95924 17.328125,8.2839823 16.5,8.2839823 h -1.1 c -1.584375,0 -3.153125,0.3140737 -4.615625,0.9265157 z"
     id="path3" />
  <path
     style="stroke-width:0;fill:#7accf3;fill-opacity:1;stroke:none;stroke-dasharray:none"
     d="m 10,16.409057 v -4.689113 c 0.509375,-0.21357 1.028125,-0.430281 1.553125,-0.650132 1.21875,-0.508799 2.525,-0.77262 3.846875,-0.77262 H 16 v 5.025172 h -0.6 c -1.846875,0 -3.678125,0.367466 -5.384375,1.083553 L 10,16.412198 Z"
     id="path2" />
  <path
     style="stroke-width:0;fill:#707070;fill-opacity:1;stroke:none;stroke-dasharray:none"
     d="m 10,7.0276893 c 1.51875,0 2.75,-1.2374487 2.75,-2.7638447 C 12.75,2.7374486 11.51875,1.5 10,1.5 8.48125,1.5 7.25,2.7374486 7.25,4.2638446 c 0,1.526396 1.23125,2.7638447 2.75,2.7638447 z"
     id="path1" />
</svg>
