<?xml version="1.0" encoding="UTF-8" standalone="no"?>
<svg
   viewBox="0 0 20 20"
   version="1.1"
   id="svg1"
   sodipodi:docname="book-bookmark.svg"
   width="20"
   height="20"
   inkscape:version="1.4 (e7c3feb1, 2024-10-09)"
   xmlns:inkscape="http://www.inkscape.org/namespaces/inkscape"
   xmlns:sodipodi="http://sodipodi.sourceforge.net/DTD/sodipodi-0.dtd"
   xmlns="http://www.w3.org/2000/svg"
   xmlns:svg="http://www.w3.org/2000/svg">
  <defs
     id="defs1" />
  <sodipodi:namedview
     id="namedview1"
     pagecolor="#ffffff"
     bordercolor="#000000"
     borderopacity="0.25"
     inkscape:showpageshadow="2"
     inkscape:pageopacity="0.0"
     inkscape:pagecheckerboard="0"
     inkscape:deskcolor="#d1d1d1"
     inkscape:zoom="11.047012"
     inkscape:cx="1.0862666"
     inkscape:cy="16.429782"
     inkscape:window-width="1440"
     inkscape:window-height="900"
     inkscape:window-x="0"
     inkscape:window-y="0"
     inkscape:window-maximized="0"
     inkscape:current-layer="svg1" />
  <!--!Font Awesome Free 7.0.1 by @fontawesome - https://fontawesome.com License - https://fontawesome.com/license/free Copyright 2025 Fonticons, Inc.-->
  <path
     d="M 5.9999997,18 H 15.999998 C 16.553129,18 17,17.553125 17,17 17,16.446875 16.553129,16 15.999998,16 V 13.915625 C 16.581252,13.709375 17,13.153125 17,12.5 V 3.5000003 C 17,2.6718749 16.328123,2 15.499997,2 h -1.499996 v 5.29375 c 0,0.3906255 -0.31563,0.7062502 -0.706247,0.7062502 -0.187504,0 -0.368752,-0.074996 -0.500001,-0.2062497 L 11.500004,6.4999999 10.206246,7.7937505 C 10.074996,7.9250004 9.8937488,8.0000002 9.7062538,8.0000002 9.3156276,8.0000002 8.9999976,7.6843755 8.9999976,7.29375 V 2 H 5.9999997 C 4.3437498,2 3,3.3437498 3,4.9999996 V 15 c 0,1.656251 1.3437498,3 2.9999997,3 z M 4.9999998,15 c 0,-0.553124 0.4468756,-1 0.9999999,-1 h 8.0000013 v 2 H 5.9999997 C 5.4468754,16 4.9999998,15.553125 4.9999998,15 Z"
     id="path1"
     style="stroke-width:0;fill:#707070;stroke:none;fill-opacity:1;stroke-dasharray:none" />
</svg>
