<?xml version="1.0" encoding="UTF-8" standalone="no"?>
<svg
   height="17.333334"
   viewBox="0 -960 640 693.33336"
   width="16"
   fill="#1f1f1f"
   version="1.1"
   id="svg1"
   sodipodi:docname="calendar.svg"
   inkscape:version="1.4 (e7c3feb1, 2024-10-09)"
   xmlns:inkscape="http://www.inkscape.org/namespaces/inkscape"
   xmlns:sodipodi="http://sodipodi.sourceforge.net/DTD/sodipodi-0.dtd"
   xmlns="http://www.w3.org/2000/svg"
   xmlns:svg="http://www.w3.org/2000/svg">
  <defs
     id="defs1" />
  <sodipodi:namedview
     id="namedview1"
     pagecolor="#ffffff"
     bordercolor="#000000"
     borderopacity="0.25"
     inkscape:showpageshadow="2"
     inkscape:pageopacity="0.0"
     inkscape:pagecheckerboard="0"
     inkscape:deskcolor="#d1d1d1"
     inkscape:zoom="6.4856982"
     inkscape:cx="13.799594"
     inkscape:cy="17.808414"
     inkscape:window-width="1440"
     inkscape:window-height="900"
     inkscape:window-x="0"
     inkscape:window-y="0"
     inkscape:window-maximized="0"
     inkscape:current-layer="svg1" />
  <path
     d="m 71.111113,-266.66667 q -29.333336,0 -50.222224,-20.36666 Q 0,-307.40001 0,-336 v -485.33333 q 0,-28.59999 20.888889,-48.96666 20.888888,-20.36667 50.222224,-20.36667 h 35.555557 v -34.66663 q 0,-14.73338 10.22222,-24.69998 Q 127.11111,-960 142.22223,-960 q 15.1111,0 25.33332,9.96673 10.22222,9.9666 10.22222,24.69998 v 34.66663 h 284.44446 v -34.66663 q 0,-14.73338 10.22222,-24.69998 Q 482.66667,-960 497.77777,-960 q 15.11111,0 25.33334,9.96673 10.22222,9.9666 10.22222,24.69998 v 34.66663 h 35.55556 q 29.33332,0 50.22222,20.36667 Q 640,-849.93332 640,-821.33333 V -336 q 0,28.59999 -20.88889,48.96667 -20.8889,20.36666 -50.22222,20.36666 z"
     id="path1"
     style="fill:#cdd2d7;fill-opacity:1;stroke-width:0.877707" />
  <path
     d="M 71.111113,-751.99999 H 568.88889 v -69.33334 H 71.111113 Z"
     id="path11"
     style="fill:#ffffff;fill-opacity:1;stroke-width:0.877707" />
  <path
     d="M 71.111113,-336 H 568.88889 V -682.66666 H 71.111113 Z"
     id="path10"
     style="fill:#ffffff;fill-opacity:1;stroke-width:0.877707" />
  <g
     id="g19"
     style="fill:#cdd2d7;fill-opacity:1"
     transform="matrix(0.88888887,0,0,0.8666666,-106.66667,-197.33333)">
    <path
       d="m 640,-240 q -17,0 -28.5,-11.5 Q 600,-263 600,-280 q 0,-17 11.5,-28.5 11.5,-11.5 28.5,-11.5 17,0 28.5,11.5 11.5,11.5 11.5,28.5 0,17 -11.5,28.5 Q 657,-240 640,-240 Z"
       id="path18"
       style="fill:#cdd2d7;fill-opacity:1" />
    <path
       d="m 320,-240 q -17,0 -28.5,-11.5 Q 280,-263 280,-280 q 0,-17 11.5,-28.5 11.5,-11.5 28.5,-11.5 17,0 28.5,11.5 11.5,11.5 11.5,28.5 0,17 -11.5,28.5 Q 337,-240 320,-240 Z"
       id="path17"
       style="fill:#cdd2d7;fill-opacity:1" />
    <path
       d="m 480,-240 q -17,0 -28.5,-11.5 Q 440,-263 440,-280 q 0,-17 11.5,-28.5 11.5,-11.5 28.5,-11.5 17,0 28.5,11.5 11.5,11.5 11.5,28.5 0,17 -11.5,28.5 Q 497,-240 480,-240 Z"
       id="path16"
       style="fill:#cdd2d7;fill-opacity:1" />
    <path
       d="m 640,-400 q -17,0 -28.5,-11.5 Q 600,-423 600,-440 q 0,-17 11.5,-28.5 11.5,-11.5 28.5,-11.5 17,0 28.5,11.5 11.5,11.5 11.5,28.5 0,17 -11.5,28.5 Q 657,-400 640,-400 Z"
       id="path15"
       style="fill:#cdd2d7;fill-opacity:1" />
    <path
       d="m 320,-400 q -17,0 -28.5,-11.5 Q 280,-423 280,-440 q 0,-17 11.5,-28.5 11.5,-11.5 28.5,-11.5 17,0 28.5,11.5 11.5,11.5 11.5,28.5 0,17 -11.5,28.5 Q 337,-400 320,-400 Z"
       id="path14"
       style="fill:#cdd2d7;fill-opacity:1" />
    <path
       d="m 480,-400 q -17,0 -28.5,-11.5 Q 440,-423 440,-440 q 0,-17 11.5,-28.5 11.5,-11.5 28.5,-11.5 17,0 28.5,11.5 11.5,11.5 11.5,28.5 0,17 -11.5,28.5 Q 497,-400 480,-400 Z"
       id="path13"
       style="fill:#cdd2d7;fill-opacity:1" />
    <path
       d="m 200,-640 v -80 z"
       id="path12"
       style="fill:#cdd2d7;fill-opacity:1" />
  </g>
</svg>
