<?xml version="1.0" encoding="UTF-8" standalone="no"?>
<svg
   height="6.268064"
   viewBox="0 -960 220 125.36128"
   width="11"
   fill="#5f6368"
   version="1.1"
   id="svg1"
   sodipodi:docname="caret-down-menu-overflow.svg"
   inkscape:version="1.4 (e7c3feb1, 2024-10-09)"
   xmlns:inkscape="http://www.inkscape.org/namespaces/inkscape"
   xmlns:sodipodi="http://sodipodi.sourceforge.net/DTD/sodipodi-0.dtd"
   xmlns="http://www.w3.org/2000/svg"
   xmlns:svg="http://www.w3.org/2000/svg">
  <defs
     id="defs1" />
  <sodipodi:namedview
     id="namedview1"
     pagecolor="#ffffff"
     bordercolor="#000000"
     borderopacity="0.25"
     inkscape:showpageshadow="2"
     inkscape:pageopacity="0.0"
     inkscape:pagecheckerboard="0"
     inkscape:deskcolor="#d1d1d1"
     inkscape:zoom="24.830248"
     inkscape:cx="5.29596"
     inkscape:cy="6.5847107"
     inkscape:window-width="1440"
     inkscape:window-height="900"
     inkscape:window-x="0"
     inkscape:window-y="0"
     inkscape:window-maximized="0"
     inkscape:current-layer="svg1" />
  <path
     d="m 110.12737,-834.63872 q -2.90412,0 -5.32422,-0.96803 -2.4201,-0.96804 -4.840199,-3.38814 L 4.1269109,-934.83094 q -4.35618372,-4.35619 -4.11417352,-10.40644 0.24201019,-6.05025 4.59819382,-10.40644 Q 8.9671146,-960 15.01737,-960 q 6.050255,0 10.406438,4.35618 l 84.703562,85.1876 85.18761,-85.1876 q 4.35618,-4.35618 10.16442,-4.11417 5.80825,0.24202 10.16443,4.59819 4.35617,4.35619 4.35617,10.40644 0,6.05026 -4.35617,10.40643 l -95.35202,95.35204 q -2.42011,2.4201 -4.84021,3.38814 -2.4201,0.96803 -5.32423,0.96803 z"
     id="path1"
     style="fill:#dadee2;fill-opacity:1;stroke:none;stroke-width:0.48402;stroke-opacity:1" />
</svg>
