<?xml version="1.0" encoding="UTF-8" standalone="no"?>
<svg
   height="24"
   viewBox="0 -960 960 960"
   width="24"
   fill="#5f6368"
   version="1.1"
   id="svg1"
   sodipodi:docname="close.svg"
   inkscape:version="1.4 (e7c3feb1, 2024-10-09)"
   xmlns:inkscape="http://www.inkscape.org/namespaces/inkscape"
   xmlns:sodipodi="http://sodipodi.sourceforge.net/DTD/sodipodi-0.dtd"
   xmlns="http://www.w3.org/2000/svg"
   xmlns:svg="http://www.w3.org/2000/svg">
  <defs
     id="defs1" />
  <sodipodi:namedview
     id="namedview1"
     pagecolor="#ffffff"
     bordercolor="#000000"
     borderopacity="0.25"
     inkscape:showpageshadow="2"
     inkscape:pageopacity="0.0"
     inkscape:pagecheckerboard="0"
     inkscape:deskcolor="#d1d1d1"
     inkscape:zoom="11.98118"
     inkscape:cx="7.052728"
     inkscape:cy="15.56608"
     inkscape:window-width="1440"
     inkscape:window-height="900"
     inkscape:window-x="0"
     inkscape:window-y="0"
     inkscape:window-maximized="0"
     inkscape:current-layer="svg1" />
  <path
     style="display:inline;fill:none;fill-opacity:1;stroke:#d2d7dc;stroke-width:79.6632;stroke-dasharray:none;stroke-opacity:1"
     d="m 480,-79.831568 q -83.03495,0 -156.06569,-31.513262 -73.03074,-31.51327 -127.05347,-85.53601 -54.02274,-54.02272 -85.536,-127.05347 -31.513262,-73.03074 -31.513262,-156.06568 0,-83.03495 31.513262,-156.0657 31.51326,-73.03073 85.536,-127.05347 54.02273,-54.02274 127.05347,-85.536 73.03074,-31.51326 156.06569,-31.51326 83.03495,0 156.06568,31.51326 73.03075,31.51326 127.05347,85.536 54.02275,54.02274 85.53601,127.05347 31.51326,73.03075 31.51326,156.0657 0,83.03494 -31.51326,156.06568 -31.51326,73.03075 -85.53601,127.05347 -54.02272,54.02274 -127.05347,85.53601 Q 563.03495,-79.831568 480,-79.831568 Z"
     id="path4"
     inkscape:label="circle" />
  <path
     style="display:inline;fill:#a6aaaf;fill-opacity:1;stroke:none;stroke-width:1.08379;stroke-opacity:1"
     d="m 479.99998,-419.3078 125.71958,125.71958 q 11.92168,11.92168 30.34611,11.92168 18.42442,0 30.3461,-11.92168 11.92168,-11.92169 11.92168,-30.3461 0,-18.42443 -11.92168,-30.34612 L 540.69219,-480.00001 666.41177,-605.71959 q 11.92168,-11.92168 11.92168,-30.34612 0,-18.42441 -11.92168,-30.34609 -11.92168,-11.92169 -30.3461,-11.92169 -18.42443,0 -30.34611,11.92169 L 479.99998,-540.69223 354.2804,-666.4118 q -11.92168,-11.92169 -30.34611,-11.92169 -18.42442,0 -30.3461,11.92169 -11.92168,11.92168 -11.92168,30.34609 0,18.42444 11.92168,30.34612 l 125.71958,125.71958 -125.71958,125.71957 q -11.92168,11.92169 -11.92168,30.34612 0,18.42441 11.92168,30.3461 11.92168,11.92168 30.3461,11.92168 18.42443,0 30.34611,-11.92168 z"
     id="path1"
     inkscape:label="cross" />
</svg>
