<?xml version="1.0" encoding="UTF-8" standalone="no"?>
<svg
   width="42"
   height="43.984013"
   viewBox="0 0 42 43.984012"
   version="1.1"
   id="svg9"
   sodipodi:docname="favicon.svg"
   inkscape:version="1.4 (e7c3feb1, 2024-10-09)"
   inkscape:export-filename="favicon.png"
   inkscape:export-xdpi="96"
   inkscape:export-ydpi="96"
   xmlns:inkscape="http://www.inkscape.org/namespaces/inkscape"
   xmlns:sodipodi="http://sodipodi.sourceforge.net/DTD/sodipodi-0.dtd"
   xmlns="http://www.w3.org/2000/svg"
   xmlns:svg="http://www.w3.org/2000/svg">
  <defs
     id="defs9" />
  <sodipodi:namedview
     id="namedview9"
     pagecolor="#ffffff"
     bordercolor="#000000"
     borderopacity="0.25"
     inkscape:showpageshadow="2"
     inkscape:pageopacity="0.0"
     inkscape:pagecheckerboard="0"
     inkscape:deskcolor="#d1d1d1"
     inkscape:zoom="8.4330837"
     inkscape:cx="15.119025"
     inkscape:cy="27.807147"
     inkscape:window-width="1440"
     inkscape:window-height="822"
     inkscape:window-x="0"
     inkscape:window-y="0"
     inkscape:window-maximized="0"
     inkscape:current-layer="svg9" />
  <path
     fill-rule="nonzero"
     fill="#1edae8"
     fill-opacity="1"
     d="M 39.603371,7.015959 C 35.74299,4.3686394 22.658659,-2.6000856 12.357018,2.0743553 0.58374854,7.4164529 1.3921426,16.347697 1.3921426,16.347697 c 0,0 -0.2200509,0.319193 -0.72778809,1.192536 C 0.15666654,18.41348 1.193758,33.430016 1.193758,33.430016 l -0.69205672,1.687155 1.13986132,1.349974 -0.3517929,0.510471 c 0,0 2.6467235,2.576502 2.3062104,3.753237 l 1.821334,0.361137 c 0,0 0.7405102,1.451502 1.676273,1.390675 0,0 0.08881,-0.0417 0.2539434,-0.121761 0.1650865,-0.08011 0.4066563,-0.198782 0.7112385,-0.352738 0.3045832,-0.154004 0.6726259,-0.343344 1.0910604,-0.564985 0.2092182,-0.110822 0.4306608,-0.22969 0.6635818,-0.356216 0.2329208,-0.126581 0.4770758,-0.260704 0.7303738,-0.402185 0.253295,-0.141525 0.516135,-0.290518 0.786726,-0.446214 0.27059,-0.155695 0.548933,-0.318001 0.833637,-0.487064 0.284757,-0.169113 0.575425,-0.344736 0.870962,-0.526472 0.295537,-0.181686 0.595796,-0.369435 0.898938,-0.56295 0.303192,-0.193563 0.609514,-0.393039 0.917128,-0.597634 0.307613,-0.204646 0.616618,-0.414609 0.925526,-0.629491 0.308905,-0.214882 0.617662,-0.434535 0.92463,-0.65891 0.306869,-0.224375 0.612047,-0.453518 0.913848,-0.68664 0.30175,-0.233073 0.594853,-0.458539 0.880352,-0.676403 0.285599,-0.217913 0.563595,-0.428275 0.834832,-0.63133 0.271337,-0.203004 0.535963,-0.398456 0.794976,-0.586852 0.259013,-0.188444 0.512458,-0.369733 0.761034,-0.543865 0.248725,-0.174132 0.49248,-0.341109 0.732808,-0.501277 0.240177,-0.160218 0.476678,-0.313678 0.710494,-0.460228 0.233815,-0.146408 0.465149,-0.285996 0.694492,-0.419182 0.229392,-0.133179 0.456849,-0.259755 0.683809,-0.37987 0.226708,-0.120118 0.452772,-0.233815 0.679134,-0.341208 0.113052,-0.05368 0.226313,-0.105458 0.339668,-0.156092 0.113354,-0.0504 0.226957,-0.09964 0.340811,-0.147055 0.113744,-0.04745 0.227853,-0.09337 0.342451,-0.137805 0.114497,-0.04439 0.229293,-0.08703 0.344785,-0.128358 0.115387,-0.0415 0.231679,-0.0814 0.348314,-0.119817 0.116683,-0.03832 0.234214,-0.07534 0.35229,-0.110715 0.118174,-0.03549 0.236996,-0.06934 0.356864,-0.101873 0.119815,-0.03261 0.240823,-0.06386 0.362577,-0.09353 0.121849,-0.02977 0.2445,-0.0579 0.368538,-0.08473 0.123944,-0.02683 0.248975,-0.05243 0.37545,-0.07643 0.12643,-0.02405 0.254189,-0.04696 0.38315,-0.06833 0.129156,-0.02127 0.25941,-0.04111 0.391351,-0.05978 0.132034,-0.01859 0.265622,-0.03589 0.400892,-0.05178 0.135076,-0.0158 0.271835,-0.03081 0.410386,-0.04419 0.06932,-0.0069 0.138949,-0.01447 0.208917,-0.02416 0.06984,-0.0098 0.140185,-0.02113 0.210659,-0.03409 0.141088,-0.02529 0.283313,-0.05626 0.426336,-0.09299 0.143123,-0.03654 0.28699,-0.07877 0.431653,-0.125828 0.144615,-0.04721 0.290172,-0.09949 0.436076,-0.156243 0.145804,-0.05661 0.292359,-0.117782 0.43906,-0.183325 0.146556,-0.06575 0.29335,-0.135471 0.440148,-0.209119 0.14695,-0.07356 0.293899,-0.151023 0.440702,-0.231929 0.146692,-0.0808 0.293249,-0.165286 0.439454,-0.252551 0.146151,-0.08726 0.291562,-0.177462 0.436722,-0.27034 0.145007,-0.09288 0.289574,-0.188395 0.433196,-0.286097 0.14362,-0.09785 0.28674,-0.197838 0.428472,-0.299614 0.141827,-0.101782 0.282319,-0.205093 0.421714,-0.31005 0.139446,-0.104961 0.277498,-0.211304 0.41411,-0.318547 0.13666,-0.107386 0.271985,-0.215777 0.405316,-0.324659 0.133481,-0.109028 0.265026,-0.21856 0.39478,-0.328237 0.129653,-0.109781 0.257472,-0.219703 0.383051,-0.32938 0.251162,-0.219456 0.493476,-0.438015 0.725652,-0.652501 0.232076,-0.214633 0.453816,-0.425292 0.663333,-0.628596 0.209415,-0.203302 0.406706,-0.399102 0.590182,-0.584566 0.183327,-0.185513 0.353036,-0.360292 0.506693,-0.5216 0.153857,-0.161211 0.291612,-0.308759 0.412223,-0.439307 0.120614,-0.130649 0.224026,-0.244401 0.307861,-0.33788 0.167921,-0.187052 0.258664,-0.293401 0.258664,-0.293401 0,0 1.850008,-5.688225 1.735263,-6.614149 -0.11465,-0.925774 -1.003748,-1.820636 -1.003748,-1.820636 l -0.487161,-3.25266 c 0,0 1.773724,-2.1647771 0.65379,-3.4069621 C 40.517815,7.6839941 40.154989,7.3941702 39.603371,7.0159404 Z m 0,0"
     id="path1"
     style="display:inline;fill:#a1aab2;fill-opacity:1;stroke-width:0;stroke-dasharray:none" />
  <path
     fill-rule="nonzero"
     fill="#1a1a1a"
     fill-opacity="1"
     d="m 21.257159,14.395068 c -1.565947,-1.028296 -3.943323,0.07982 -9.741374,1.492201 -5.2788861,1.285917 -8.9885916,1.12386 -10.6334069,0.938099 -0.1042113,0.171349 -0.2251205,0.373013 -0.3829523,0.644497 -0.50773733,0.873247 0.5294035,15.889783 0.5294035,15.889783 4.4147829,1.061492 13.2260117,-3.874744 16.4688797,-7.228881 3.24282,-3.354186 6.500945,-7.696166 4.842113,-10.502659 -0.337032,-0.569954 -0.683558,-0.970946 -1.082663,-1.23304 z m 0,0"
     id="path2"
     style="display:inline;fill:#cae5fe;fill-opacity:1;stroke:none;stroke-width:1;stroke-dasharray:none;stroke-opacity:1" />
  <path
     fill-rule="nonzero"
     fill="#148dc7"
     fill-opacity="1"
     d="m 2.5704681,15.183981 c 0,0 6.1110826,-20.0646347 32.6459489,-8.4598831 0,0 -9.1177,-3.8365283 -12.123272,4.3482901 0,0 2.910157,-4.7692587 8.862016,-3.3022527 0,0 -4.992241,0.41739 -8.016152,6.9902437 0,0 -1.082913,-2.251696 -4.071786,-2.147238 -2.988776,0.104465 -13.7921918,5.268054 -17.2967549,2.57084 z m 0,0"
     id="path3"
     style="fill:#8c96a0;fill-opacity:1;stroke-width:0;stroke-dasharray:none" />
  <path
     fill-rule="nonzero"
     fill="#148dc7"
     fill-opacity="1"
     d="m 33.934179,13.594874 c -4.888431,-1.306142 -8.688083,2.818967 -8.688083,2.818967 0,0 -3.84791,8.451087 -10.270086,13.810974 -6.4222246,5.360038 -14.47430872,4.892356 -14.47430872,4.892356 l 1.13986132,1.349974 -0.3517929,0.51047 c 0,0 2.6467235,2.576503 2.3062104,3.753238 l 1.821334,0.361137 C 13.355198,40.018073 28.790564,23.955553 28.790564,23.955553 29.134057,19.401971 33.934179,13.594874 33.934179,13.594874 Z m 0,0"
     id="path4"
     style="fill:#8c96a0;fill-opacity:1;stroke-width:0;stroke-dasharray:none" />
  <path
     fill-rule="nonzero"
     fill="#148dc7"
     fill-opacity="1"
     d="m 40.003964,11.246421 c 0,0 -4.112735,6.104773 -5.027973,11.119527 0,0 4.33373,-2.608258 6.506162,-5.725148 0.01432,-0.131298 0.02201,-0.24644 0.01265,-0.321134 -0.114739,-0.92587 -1.003746,-1.820735 -1.003746,-1.820735 z m 0,0"
     id="path5"
     style="fill:#8c96a0;fill-opacity:1;stroke-width:0;stroke-dasharray:none" />
  <path
     fill-rule="nonzero"
     fill="#148dc7"
     fill-opacity="1"
     d="m 26.798677,28.970307 5.612191,-5.247676 c 0,0 2.638773,1.550296 4.993734,0.380764 0,0 -5.678437,6.599043 -10.605925,4.866912 z m 0,0"
     id="path6"
     style="fill:#8c96a0;fill-opacity:1;stroke-width:0;stroke-dasharray:none" />
  <path
     fill-rule="nonzero"
     fill="#333333"
     fill-opacity="1"
     d="m 13.390083,16.470195 c 0,0 8.500434,-4.321803 8.979945,1.065071 0,0 -2.748747,-2.093764 -3.797767,-0.08881 -1.049067,2.005007 0.106454,5.928355 0.106454,5.928355 l 1.72259,-1.341277 c 0,0 -1.774969,2.768923 -3.640928,3.545611 0,0 0.610904,-9.093298 -3.370288,-9.108953 z m 0,0"
     id="path7"
     style="fill:#cae5fe;fill-opacity:1;stroke-width:0;stroke-dasharray:none" />
  <path
     fill-rule="nonzero"
     fill="#1a1a1a"
     fill-opacity="1"
     d="m 39.759614,22.933717 c 0,0 -0.09075,0.106497 -0.258666,0.293402 -0.08385,0.09348 -0.187252,0.20723 -0.307861,0.337878 -0.120614,0.130649 -0.258366,0.278095 -0.412223,0.439406 -0.153657,0.161212 -0.323368,0.336139 -0.506693,0.521602 -0.183476,0.185512 -0.380767,0.381313 -0.590182,0.584566 -0.209516,0.203205 -0.431256,0.414012 -0.663333,0.628497 -0.232176,0.214634 -0.47449,0.433045 -0.725652,0.652499 -0.125587,0.109783 -0.253397,0.219704 -0.383051,0.329481 -0.12976,0.109677 -0.261449,0.219206 -0.39478,0.328138 -0.13333,0.109028 -0.268653,0.217268 -0.405316,0.324658 -0.136614,0.107343 -0.274814,0.213742 -0.41411,0.318548 -0.139401,0.104962 -0.279983,0.208273 -0.421714,0.310049 -0.141737,0.101784 -0.284854,0.201912 -0.428472,0.299614 -0.143771,0.0977 -0.288185,0.193215 -0.433196,0.286245 -0.145155,0.09284 -0.290568,0.182927 -0.436722,0.270192 -0.146211,0.08727 -0.292755,0.171748 -0.439454,0.252552 -0.1468,0.08091 -0.29375,0.158379 -0.440702,0.232027 -0.146797,0.07356 -0.293598,0.14338 -0.440298,0.209019 -0.146558,0.06566 -0.293103,0.12673 -0.43891,0.183475 -0.14591,0.05672 -0.291463,0.10903 -0.436077,0.156094 -0.144659,0.04707 -0.288529,0.0893 -0.431652,0.125933 -0.143123,0.03677 -0.285251,0.06759 -0.426336,0.09304 -0.07046,0.01251 -0.140833,0.02414 -0.210659,0.03394 -0.06997,0.0098 -0.139596,0.01754 -0.208917,0.02414 -0.138559,0.01341 -0.275315,0.02828 -0.410386,0.04428 -0.135273,0.01591 -0.268853,0.0331 -0.400892,0.05178 -0.131944,0.01859 -0.262341,0.03842 -0.39135,0.05978 -0.129112,0.02127 -0.256726,0.04419 -0.383152,0.06823 -0.126476,0.02414 -0.251508,0.04975 -0.375449,0.07658 -0.124034,0.02684 -0.246787,0.05496 -0.36854,0.08458 -0.12176,0.02967 -0.242762,0.06107 -0.362575,0.09353 -0.119863,0.03256 -0.238689,0.0664 -0.356864,0.101874 -0.118084,0.03554 -0.235606,0.0724 -0.35229,0.110822 -0.116637,0.03831 -0.232922,0.07837 -0.348316,0.119711 -0.115642,0.04135 -0.230286,0.08408 -0.344884,0.128508 -0.114497,0.04439 -0.228598,0.0902 -0.342352,0.13776 -0.11385,0.04745 -0.227454,0.09655 -0.340809,0.147053 -0.113353,0.05055 -0.226611,0.102416 -0.339669,0.156143 -0.226361,0.107236 -0.452425,0.220945 -0.679234,0.341059 -0.226859,0.120118 -0.454315,0.246788 -0.68371,0.380021 -0.229341,0.133029 -0.460675,0.272628 -0.69449,0.41918 -0.233816,0.146558 -0.470317,0.299961 -0.710494,0.46013 -0.240328,0.160168 -0.484084,0.327143 -0.732808,0.501275 -0.248575,0.174134 -0.502022,0.355422 -0.761034,0.543866 -0.259013,0.188394 -0.523639,0.383847 -0.794976,0.586852 -0.271385,0.203055 -0.549233,0.413416 -0.834832,0.63133 -0.285499,0.217863 -0.578602,0.443332 -0.880353,0.676453 -0.3018,0.23307 -0.606978,0.462164 -0.913847,0.686588 -0.306969,0.224377 -0.615725,0.444029 -0.924632,0.658911 -0.308904,0.214883 -0.617911,0.424845 -0.925524,0.629441 -0.307614,0.204648 -0.613937,0.404172 -0.917128,0.597688 -0.30314,0.193561 -0.603401,0.381262 -0.898938,0.562946 -0.295537,0.181738 -0.586355,0.357359 -0.87096,0.526473 -0.284704,0.169065 -0.563049,0.331368 -0.833639,0.487064 -0.270592,0.155696 -0.533429,0.304682 -0.786727,0.446214 -0.253445,0.14148 -0.497452,0.275609 -0.7303728,0.402183 -0.232921,0.12652 -0.4543636,0.245448 -0.6635818,0.356217 -0.4184345,0.221641 -0.786527,0.410982 -1.0911102,0.564987 -0.3045832,0.153955 -0.546151,0.272627 -0.7112395,0.352737 -0.1650874,0.08011 -0.2538927,0.121761 -0.2538927,0.121761 0,0 0.944311,1.49732 2.0305003,0.740361 C 10.210328,42.466128 22.902313,36.063484 27.652292,34.632159 32.40232,33.200783 39.339141,27.91315 40.639818,24.387219 Z m 0,0"
     id="path8"
     style="fill:#6c7784;fill-opacity:1;stroke-width:0;stroke-dasharray:none" />
  <path
     fill-rule="nonzero"
     fill="#1edae8"
     fill-opacity="1"
     d="m 9.4609722,8.4810253 4.5711768,0.697425 c 0,0 3.099196,-3.7965236 8.832497,-4.6487489 0,0 -7.28295,-1.3171242 -13.4036738,3.9513239 z m 0,0"
     id="path9"
     style="fill:#959fa9;fill-opacity:1;stroke-width:0;stroke-dasharray:none" />
</svg>
