<?xml version="1.0" encoding="UTF-8" standalone="no"?>
<svg
   width="48"
   height="48"
   viewBox="0 0 48 48"
   version="1.1"
   id="svg11"
   sodipodi:docname="favicon.svg"
   inkscape:version="1.4 (e7c3feb1, 2024-10-09)"
   inkscape:export-filename="favicon.png"
   inkscape:export-xdpi="96"
   inkscape:export-ydpi="96"
   xmlns:inkscape="http://www.inkscape.org/namespaces/inkscape"
   xmlns:sodipodi="http://sodipodi.sourceforge.net/DTD/sodipodi-0.dtd"
   xmlns="http://www.w3.org/2000/svg"
   xmlns:svg="http://www.w3.org/2000/svg">
  <defs
     id="defs11" />
  <sodipodi:namedview
     id="namedview11"
     pagecolor="#ffffff"
     bordercolor="#000000"
     borderopacity="0.25"
     inkscape:showpageshadow="2"
     inkscape:pageopacity="0.0"
     inkscape:pagecheckerboard="0"
     inkscape:deskcolor="#d1d1d1"
     inkscape:zoom="7.7964014"
     inkscape:cx="12.313373"
     inkscape:cy="31.681283"
     inkscape:window-width="1440"
     inkscape:window-height="823"
     inkscape:window-x="0"
     inkscape:window-y="0"
     inkscape:window-maximized="0"
     inkscape:current-layer="svg11" />
  <path
     fill-rule="nonzero"
     fill="#7feb19"
     fill-opacity="1"
     d="M 23.058865,1.5022227 C 14.951418,1.6073195 10.051032,5.4075377 10.051032,5.4075377 L 9.7785995,6.4965231 C 5.6955135,9.2185095 3.5481557,16.782794 3.5481557,16.782794 L 2.9227893,16.97526 2.2971042,18.322569 2.0564558,34.683128 c 0,0 -1.0564558,1.07525 -1.0564558,2.300161 0,1.224909 5.6483639,8.846588 5.6483639,8.846588 l 0.612375,0.06824 c 0,0 0.1624376,-0.206894 0.4707009,-0.572232 0.1541326,-0.182614 0.3446803,-0.405001 0.5697294,-0.660876 0.2250488,-0.25582 0.4844902,-0.545131 0.7764092,-0.862127 0.1459327,-0.158443 0.3001716,-0.32381 0.4620773,-0.495298 0.1619043,-0.17154 0.3315297,-0.349313 0.5089273,-0.532302 0.177346,-0.18304 0.36241,-0.371353 0.554662,-0.564351 0.192307,-0.192997 0.391906,-0.390626 0.598586,-0.592142 0.20668,-0.201518 0.420548,-0.406813 0.641179,-0.615303 0.220629,-0.208493 0.448072,-0.42007 0.682065,-0.634045 0.234047,-0.213921 0.474589,-0.430133 0.721414,-0.648047 0.246983,-0.217913 0.500196,-0.437586 0.759425,-0.657949 0.259283,-0.220311 0.524475,-0.441313 0.795576,-0.662581 0.271262,-0.221269 0.548167,-0.442856 0.830715,-0.663593 0.282442,-0.220681 0.570689,-0.440513 0.863992,-0.65912 0.293462,-0.218659 0.591931,-0.435988 0.895616,-0.651027 0.303685,-0.21504 0.612374,-0.42779 0.926016,-0.637824 0.31348,-0.209877 0.631862,-0.416769 0.954606,-0.620149 0.322851,-0.203327 0.650282,-0.402874 0.981867,-0.598054 0.165896,-0.09759 0.332861,-0.194221 0.50078,-0.289469 0.168029,-0.0953 0.336749,-0.189484 0.506747,-0.282283 0.169944,-0.09269 0.341113,-0.184 0.512974,-0.274084 0.172021,-0.09008 0.345,-0.178834 0.518884,-0.266043 0.173778,-0.08727 0.348406,-0.17298 0.524103,-0.257207 0.17564,-0.08413 0.352559,-0.166694 0.530012,-0.247514 0.177611,-0.08083 0.355913,-0.159989 0.535123,-0.237453 0.179208,-0.07753 0.359267,-0.153017 0.540127,-0.226913 0.180857,-0.07373 0.362569,-0.145826 0.545186,-0.215732 0.182401,-0.06995 0.365709,-0.137947 0.549709,-0.203912 0.184,-0.06596 0.368798,-0.129908 0.554291,-0.191668 0.185383,-0.06171 0.371671,-0.121388 0.558547,-0.17878 0.186874,-0.0574 0.37439,-0.112608 0.562647,-0.165366 0.188207,-0.05271 0.377265,-0.103128 0.566696,-0.151257 0.189588,-0.04796 0.379606,-0.09366 0.570261,-0.136723 0.190814,-0.04291 0.382055,-0.08342 0.573935,-0.121443 0.191933,-0.03785 0.384505,-0.0733 0.577395,-0.105888 0.192997,-0.03258 0.386368,-0.06229 0.580326,-0.08938 0.38791,-0.05415 0.7656,-0.108505 1.133014,-0.16329 0.367628,-0.05478 0.725139,-0.109838 1.072802,-0.165044 0.347714,-0.05521 0.685421,-0.110266 1.013917,-0.165741 0.328337,-0.05548 0.647141,-0.111218 0.956682,-0.166856 0.309488,-0.05558 0.609767,-0.111051 0.901047,-0.166697 0.291279,-0.05558 0.573509,-0.11105 0.847061,-0.166536 0.273549,-0.05549 0.538263,-0.110793 0.794617,-0.166004 0.256355,-0.05506 0.504297,-0.109996 0.74388,-0.164781 0.239637,-0.05468 0.471074,-0.108888 0.694579,-0.163023 0.223558,-0.0541 0.439181,-0.108078 0.647141,-0.161372 0.415862,-0.106698 0.801007,-0.211952 1.15772,-0.314707 0.356659,-0.103018 0.684729,-0.203592 0.986497,-0.301608 0.301769,-0.09786 0.577237,-0.192998 0.828266,-0.284732 0.25119,-0.09173 0.478157,-0.180168 0.682866,-0.264553 0.204709,-0.0844 0.387326,-0.164779 0.550082,-0.240701 0.162599,-0.07577 0.305443,-0.146786 0.430294,-0.213017 0.124955,-0.06613 0.23181,-0.127298 0.32317,-0.182508 0.09142,-0.05531 0.166964,-0.104836 0.229094,-0.148011 0.06213,-0.04323 0.110693,-0.08013 0.147744,-0.110165 0.07428,-0.05994 0.103018,-0.0921 0.103018,-0.0921 0,0 2.068988,-5.966902 2.068988,-7.025541 0,-1.058587 -0.67355,-1.635982 -0.67355,-1.635982 L 44.930906,15.146866 47,11.489759 C 37.610676,3.5740855 29.36475,1.4204445 23.058865,1.5022227 Z m 0,0"
     id="path1"
     style="fill:#9aa4ad;fill-opacity:1;stroke-width:0;stroke-dasharray:none" />
  <path
     fill-rule="nonzero"
     fill="#1a1a1a"
     fill-opacity="1"
     d="M 20.050122,13.155291 C 14.405168,13.086715 3.5481557,16.782794 3.5481557,16.782794 L 2.9227893,16.97526 2.2971042,18.322569 2.0564558,34.683128 c 0,0 5.5337893,-2.598466 11.6931032,-6.496115 6.159209,-3.897701 12.366707,-12.078036 8.998272,-14.435853 -0.578994,-0.405322 -1.526092,-0.581549 -2.697709,-0.595869 z m 0,0"
     id="path2"
     style="fill:#cae5fe;fill-opacity:1;stroke-width:0;stroke-dasharray:none" />
  <path
     fill-rule="nonzero"
     fill="#1a1a1a"
     fill-opacity="1"
     d="m 44.30554,27.128534 c 0,0 -0.02875,0.03216 -0.103018,0.0921 -0.03705,0.03002 -0.08562,0.06691 -0.147743,0.110164 -0.06213,0.04319 -0.137681,0.09269 -0.229094,0.148012 -0.09137,0.05521 -0.198216,0.116383 -0.32317,0.182507 -0.12485,0.06623 -0.267696,0.137255 -0.430295,0.213017 -0.162756,0.07592 -0.345371,0.156314 -0.550081,0.240702 -0.20471,0.08438 -0.431676,0.17282 -0.682867,0.264552 -0.251029,0.09173 -0.526496,0.186874 -0.828266,0.284733 -0.301768,0.09801 -0.629838,0.198587 -0.986496,0.301608 -0.356714,0.102744 -0.741857,0.20801 -1.157721,0.314706 -0.207959,0.0533 -0.423583,0.107279 -0.647141,0.161373 -0.223505,0.05415 -0.454942,0.108341 -0.694579,0.163023 -0.239582,0.05478 -0.487524,0.109738 -0.743879,0.16478 -0.256355,0.05521 -0.521068,0.110524 -0.794617,0.166005 -0.273552,0.05548 -0.555782,0.110949 -0.847062,0.166536 -0.29128,0.05564 -0.591559,0.111118 -0.901047,0.166696 -0.30954,0.05564 -0.628344,0.111376 -0.956681,0.166857 -0.328494,0.05548 -0.666203,0.110523 -1.013917,0.165739 -0.347664,0.05521 -0.705175,0.110266 -1.072802,0.165045 -0.367414,0.05478 -0.745103,0.109141 -1.133014,0.163291 -0.193958,0.0271 -0.38733,0.0568 -0.580326,0.08938 -0.19289,0.03258 -0.385463,0.06805 -0.577396,0.105888 -0.191878,0.03802 -0.383121,0.07836 -0.573935,0.121442 -0.190655,0.04308 -0.38067,0.08876 -0.570261,0.136724 -0.18943,0.04814 -0.378489,0.09854 -0.566694,0.151257 -0.188259,0.05277 -0.375773,0.107979 -0.562649,0.165365 -0.186874,0.0574 -0.373164,0.117076 -0.558547,0.17878 -0.185493,0.06175 -0.37029,0.125703 -0.55429,0.191668 -0.184,0.06596 -0.367309,0.133954 -0.54971,0.203913 -0.182617,0.06991 -0.364327,0.141993 -0.545185,0.215732 -0.18086,0.07391 -0.36092,0.149391 -0.540128,0.226912 -0.17921,0.07746 -0.357512,0.156634 -0.535122,0.237454 -0.177453,0.08083 -0.354372,0.163395 -0.530012,0.247513 -0.175696,0.08422 -0.350326,0.169946 -0.524104,0.257207 -0.173884,0.08721 -0.346863,0.175961 -0.518884,0.266043 -0.17186,0.09008 -0.34303,0.181393 -0.512973,0.274085 -0.169999,0.0928 -0.338718,0.186981 -0.506747,0.282282 -0.16792,0.09524 -0.334885,0.19188 -0.50078,0.289469 -0.331583,0.195182 -0.659016,0.394728 -0.981867,0.598054 -0.322745,0.203379 -0.641126,0.410273 -0.954606,0.620149 -0.313643,0.210035 -0.622331,0.422785 -0.926017,0.637823 -0.303685,0.21504 -0.602152,0.432369 -0.895615,0.651028 -0.293304,0.218607 -0.581549,0.438438 -0.863991,0.659121 -0.282549,0.220736 -0.559453,0.442324 -0.830715,0.663593 -0.271103,0.221267 -0.536294,0.442269 -0.795578,0.66258 -0.259228,0.220363 -0.512442,0.440036 -0.759425,0.657949 -0.246825,0.217914 -0.487366,0.434126 -0.721413,0.648047 -0.233993,0.213976 -0.461437,0.425553 -0.682065,0.634046 -0.220631,0.208489 -0.4345,0.413785 -0.64118,0.615302 -0.20668,0.201515 -0.406278,0.399145 -0.598586,0.592142 -0.192251,0.192998 -0.377316,0.381311 -0.554661,0.564352 C 9.8711854,42.958274 9.70156,43.136047 9.5396557,43.307587 9.37775,43.479075 9.2235111,43.644442 9.0775784,43.802885 8.7856594,44.119881 8.526218,44.409192 8.3011692,44.665012 8.0761201,44.920888 7.8855724,45.143274 7.73144,45.32589 7.4231765,45.691229 7.2607389,45.898122 7.2607389,45.898122 l 0.4763443,0.544333 h 1.2929512 c 0,0 0.3402623,0.884595 3.2664776,-2.177705 2.926167,-3.062301 14.903309,-7.145227 21.096059,-8.642411 6.192644,-1.497077 11.490364,-7.098429 11.490364,-7.3871 0,-0.288669 -0.577395,-1.106715 -0.577395,-1.106715 z m 0,0"
     id="path3"
     style="fill:#6c7784;fill-opacity:1;stroke-width:0;stroke-dasharray:none" />
  <path
     fill-rule="nonzero"
     fill="#47b20f"
     fill-opacity="1"
     d="m 46.348919,19.771783 c -7.56732,1.296038 -20.809994,10.965569 -20.809994,10.965569 0,0 3.974686,-1.443889 8.125867,-1.511931 3.097014,-0.05068 8.425561,-1.994399 10.933517,-2.978713 0.431679,-1.262924 1.776219,-5.234896 1.776219,-6.143714 0,-0.117238 -0.01084,-0.226116 -0.02551,-0.331211 z m 0,0"
     id="path4"
     style="fill:#8c96a0;fill-opacity:1;stroke-width:0;stroke-dasharray:none" />
  <path
     fill-rule="nonzero"
     fill="#1a1a1a"
     fill-opacity="1"
     d="m 2.7783467,39.254539 c 0,0 -1.251104,-1.92476 -1.251104,-2.598413 0,-0.673656 1.7804241,-1.539831 1.7804241,-1.539831 0,0 -1.0586385,2.406002 -0.5293201,4.138244 z m 0,0"
     id="path5"
     style="fill:#6c7784;fill-opacity:1;stroke-width:0;stroke-dasharray:none" />
  <path
     fill-rule="nonzero"
     fill="#47b20f"
     fill-opacity="1"
     d="m 7.0128493,44.018413 c 0,0 -2.2616128,-6.30365 0.3849839,-9.286996 C 10.044378,31.74786 38.146065,16.301551 18.705848,10.142343 c 0,0 10.393816,-2.30969 15.013303,0.96238 4.619484,3.272067 0.192465,12.895917 0.192465,12.895917 0,0 -18.189168,9.046562 -26.8987667,20.017773 z m 0,0"
     id="path6"
     style="fill:#8c96a0;fill-opacity:1;stroke-width:0;stroke-dasharray:none" />
  <path
     fill-rule="nonzero"
     fill="#47b20f"
     fill-opacity="1"
     d="m 35.842232,22.488445 c 0,0 3.334628,-5.239901 0.06815,-11.500693 l 5.444079,2.722146 c 0,0 -4.28721,8.64241 -5.512225,8.778547 z m 0,0"
     id="path7"
     style="fill:#8c96a0;fill-opacity:1;stroke-width:0;stroke-dasharray:none" />
  <path
     fill-rule="nonzero"
     fill="#1a1a1a"
     fill-opacity="1"
     d="M 41.218321,15.615277 42.545295,13.029375 47,11.489759 44.930906,15.146866 c 0,0 0.166376,-1.096813 -3.712585,0.468411 z m 0,0"
     id="path8"
     style="fill:#6c7784;fill-opacity:1;stroke-width:0;stroke-dasharray:none" />
  <path
     fill-rule="nonzero"
     fill="#d4f485"
     fill-opacity="1"
     d="m 8.1454927,10.851723 4.3621223,-0.7631 c 0,0 4.22806,-5.1387962 17.005996,-5.6336688 0,0 -13.882471,-2.858283 -21.3681183,6.3967688 z m 0,0"
     id="path9"
     style="fill:#a5aeb6;fill-opacity:1;stroke-width:0;stroke-dasharray:none" />
  <path
     fill-rule="nonzero"
     fill="#333333"
     fill-opacity="1"
     d="m 3.4159057,18.035814 9.5272163,-2.790133 c -2.833471,1.105916 -5.0163953,2.51983 -5.4242187,4.774735 l -0.554184,11.342566 -4.0901127,2.165355 c 0,0 -0.6015136,-14.143189 0.5412991,-15.492523 z m 0,0"
     id="path10"
     style="fill:#d5ebfe;fill-opacity:1;stroke-width:0;stroke-dasharray:none" />
  <path
     fill-rule="nonzero"
     fill="#333333"
     fill-opacity="1"
     d="m 15.529984,14.37679 c 0,0 4.042037,8.035999 -2.646599,13.56979 0,0 6.881047,-4.571359 8.517189,-7.747382 1.636089,-3.175809 -5.87059,-5.822408 -5.87059,-5.822408 z m 0,0"
     id="path11"
     style="fill:#cae5fe;fill-opacity:1;stroke-width:0;stroke-dasharray:none" />
</svg>
