<?xml version="1.0" encoding="UTF-8" standalone="no"?>
<svg
   height="50"
   viewBox="0 -960 2000 2000"
   width="50"
   fill="#1f1f1f"
   version="1.1"
   id="svg1"
   sodipodi:docname="favicon.svg"
   inkscape:version="1.4 (e7c3feb1, 2024-10-09)"
   inkscape:export-filename="favicon.png"
   inkscape:export-xdpi="96"
   inkscape:export-ydpi="96"
   xmlns:inkscape="http://www.inkscape.org/namespaces/inkscape"
   xmlns:sodipodi="http://sodipodi.sourceforge.net/DTD/sodipodi-0.dtd"
   xmlns="http://www.w3.org/2000/svg"
   xmlns:svg="http://www.w3.org/2000/svg">
  <defs
     id="defs1" />
  <sodipodi:namedview
     id="namedview1"
     pagecolor="#ffffff"
     bordercolor="#000000"
     borderopacity="0.25"
     inkscape:showpageshadow="2"
     inkscape:pageopacity="0.0"
     inkscape:pagecheckerboard="0"
     inkscape:deskcolor="#d1d1d1"
     inkscape:zoom="5.3768275"
     inkscape:cx="8.4622391"
     inkscape:cy="14.878662"
     inkscape:window-width="1440"
     inkscape:window-height="823"
     inkscape:window-x="0"
     inkscape:window-y="0"
     inkscape:window-maximized="0"
     inkscape:current-layer="svg1" />
  <path
     style="fill:#53a668;fill-opacity:1;stroke:none;stroke-width:0;stroke-dasharray:none"
     d="m 1720,572.63158 q -60,0 -102,-42.36842 -42,-42.36842 -42,-102.89474 V -734.73684 q 0,-60.52632 42,-102.89474 Q 1660,-880 1720,-880 q 60,0 102,42.36842 42,42.36842 42,102.89474 V 427.36842 q 0,60.52632 -42,102.89474 -42,42.36842 -102,42.36842 z"
     id="path5" />
  <path
     style="fill:#92969a;fill-opacity:1;stroke:none;stroke-width:0;stroke-dasharray:none"
     d="m 1240,572.63158 q -60,0 -102,-42.36842 -42,-42.36842 -42,-102.89474 v -581.05263 q 0,-60.52632 42,-102.89474 42,-42.36842 102,-42.36842 60,0 102,42.36842 42,42.36842 42,102.89474 v 581.05263 q 0,60.52632 -42,102.89474 -42,42.36842 -102,42.36842 z"
     id="path4" />
  <path
     style="fill:#d91200;fill-opacity:1;stroke:none;stroke-width:0;stroke-dasharray:none"
     d="m 760,572.63158 q -60,0 -102,-42.36842 -42,-42.36842 -42,-102.89474 v -871.57895 q 0,-60.52631 42,-102.89473 42,-42.36842 102,-42.36842 60,0 102,42.36842 42,42.36842 42,102.89473 v 871.57895 q 0,60.52632 -42,102.89474 -42,42.36842 -102,42.36842 z"
     id="path3" />
  <path
     style="fill:#4786b3;fill-opacity:1;stroke:none;stroke-width:0;stroke-dasharray:none"
     d="m 280,572.63158 q -60,0 -102,-42.36842 -42,-42.36842 -42,-102.89474 V 40 q 0,-60.52632 42,-102.89474 42,-42.36842 102,-42.36842 60,0 102,42.36842 Q 424,-20.52632 424,40 v 387.36842 q 0,60.52632 -42,102.89474 -42,42.36842 -102,42.36842 z"
     id="path2" />
  <path
     style="fill:#92969a;fill-opacity:1;stroke:none;stroke-width:0;stroke-dasharray:none"
     d="m 136,960 q -40.8,0 -68.4,-27.84211 -27.6,-27.8421 -27.6,-69 0,-41.15789 27.6,-69 27.6,-27.8421 68.4,-27.8421 h 1728 q 40.8,0 68.4,27.8421 27.6,27.84211 27.6,69 0,41.1579 -27.6,69 Q 1904.8,960 1864,960 Z"
     id="path1" />
</svg>
