<?xml version="1.0" encoding="UTF-8" standalone="no"?>
<svg
   height="50"
   viewBox="0 -960 2000 2000"
   width="50"
   fill="#1f1f1f"
   version="1.1"
   id="svg1"
   sodipodi:docname="favicon.svg"
   inkscape:version="1.4 (e7c3feb1, 2024-10-09)"
   inkscape:export-filename="favicon.png"
   inkscape:export-xdpi="96"
   inkscape:export-ydpi="96"
   xmlns:inkscape="http://www.inkscape.org/namespaces/inkscape"
   xmlns:sodipodi="http://sodipodi.sourceforge.net/DTD/sodipodi-0.dtd"
   xmlns="http://www.w3.org/2000/svg"
   xmlns:svg="http://www.w3.org/2000/svg">
  <defs
     id="defs1" />
  <sodipodi:namedview
     id="namedview1"
     pagecolor="#ffffff"
     bordercolor="#000000"
     borderopacity="0.25"
     inkscape:showpageshadow="2"
     inkscape:pageopacity="0.0"
     inkscape:pagecheckerboard="0"
     inkscape:deskcolor="#d1d1d1"
     inkscape:zoom="6.4387788"
     inkscape:cx="22.519798"
     inkscape:cy="32.459571"
     inkscape:window-width="1440"
     inkscape:window-height="823"
     inkscape:window-x="0"
     inkscape:window-y="0"
     inkscape:window-maximized="0"
     inkscape:current-layer="svg1" />
  <path
     style="fill:#4f5963;fill-opacity:1;stroke:#000000;stroke-width:0;stroke-dasharray:none;stroke-opacity:1"
     d="m 412.1824,958.45831 q -76.31593,9.25012 -137.59992,-37.00042 -61.284,-46.25052 -70.53442,-122.5639 L 81.480066,-211.67994 q -9.250413,-76.31335 39.314254,-136.43903 48.56468,-60.12568 124.88061,-71.68834 h 4.62521 q 39.31425,-6.93756 70.5344,20.81275 31.22016,27.75033 31.22016,69.3758 0,34.68788 -24.28235,60.12565 -24.28234,25.4378 -58.97138,32.37538 h -2.3126 L 391.36896,775.76873 1487.5431,641.64223 q 39.3143,-4.62507 69.3781,18.50021 30.0639,23.12526 34.6891,62.43822 4.6252,39.31291 -18.5009,68.21949 -23.126,28.90659 -62.4403,33.53164 z"
     id="path6"
     inkscape:label="card at back" />
  <path
     id="path2"
     style="fill:#4f5963;fill-opacity:1;stroke:#000000;stroke-width:0;stroke-dasharray:none;stroke-opacity:1"
     d="m 717.53125,-880 c -50.87729,0 -94.58173,18.03605 -130.8125,54.26562 -36.2308,36.22958 -54.26562,79.93694 -54.26562,130.8125 V 322.46875 c 0,50.87556 18.03482,94.40325 54.26562,130.63282 36.23077,36.22958 79.93521,54.4453 130.8125,54.4453 H 1734.9219 c 50.8773,0 94.5817,-18.21572 130.8125,-54.4453 C 1901.9652,416.872 1920,373.34431 1920,322.46875 V -694.92188 c 0,-50.87556 -18.0348,-94.58292 -54.2656,-130.8125 C 1829.5036,-861.96395 1785.7992,-880 1734.9219,-880 Z m 0,185.07812 H 1734.9219 V 322.46875 H 717.53125 Z"
     inkscape:label="card" />
  <path
     d="m 1143.7225,-73.26557 -132.4976,-142.67542 q -16.94739,-18.24916 -43.13878,-18.24916 -26.19136,0 -43.13875,18.24916 Q 908,-197.69182 908,-169.48851 q 0,28.20325 16.94737,46.45243 L 1100.5837,66.091798 Q 1119.0718,86 1143.7225,86 q 24.6507,0 43.1387,-19.908202 L 1535.0526,-308.8459 Q 1552,-327.09511 1552,-355.29836 q 0,-28.20329 -16.9474,-46.45247 Q 1518.1052,-420 1491.9139,-420 q -26.1914,0 -43.1388,18.24917 z"
     id="path1"
     style="fill:#b40f00;fill-opacity:1;stroke:#b40f00;stroke-width:23;stroke-dasharray:none;stroke-opacity:1"
     inkscape:label="check" />
</svg>
