<?xml version="1.0" encoding="UTF-8" standalone="no"?>
<svg
   height="50"
   viewBox="0 -960 2000 2000"
   width="50"
   fill="#1f1f1f"
   version="1.1"
   id="svg1"
   sodipodi:docname="favicon.svg"
   inkscape:version="1.4 (e7c3feb1, 2024-10-09)"
   inkscape:export-filename="favicon.png"
   inkscape:export-xdpi="96"
   inkscape:export-ydpi="96"
   xmlns:inkscape="http://www.inkscape.org/namespaces/inkscape"
   xmlns:sodipodi="http://sodipodi.sourceforge.net/DTD/sodipodi-0.dtd"
   xmlns="http://www.w3.org/2000/svg"
   xmlns:svg="http://www.w3.org/2000/svg">
  <defs
     id="defs1" />
  <sodipodi:namedview
     id="namedview1"
     pagecolor="#ffffff"
     bordercolor="#000000"
     borderopacity="0.25"
     inkscape:showpageshadow="2"
     inkscape:pageopacity="0.0"
     inkscape:pagecheckerboard="0"
     inkscape:deskcolor="#d1d1d1"
     inkscape:zoom="4.1297251"
     inkscape:cx="-10.412315"
     inkscape:cy="43.70751"
     inkscape:window-width="1440"
     inkscape:window-height="900"
     inkscape:window-x="0"
     inkscape:window-y="0"
     inkscape:window-maximized="0"
     inkscape:current-layer="svg1" />
  <path
     id="path2"
     style="fill:#9da7b0;fill-opacity:1;stroke:#000000;stroke-width:0;stroke-dasharray:none;stroke-opacity:1"
     d="m 325.42865,-880 c -67.46743,0 -125.42307,23.91727 -173.46802,71.96063 C 103.91565,-759.996 80,-702.03649 80,-634.57135 v 1349.1427 c 0,67.46514 23.91565,125.18639 71.96063,173.22975 C 200.00558,935.84447 257.96122,960 325.42865,960 H 1674.5714 c 67.4674,0 125.4231,-24.15553 173.468,-72.1989 48.045,-48.04336 71.9607,-105.76461 71.9607,-173.22975 v -1349.1427 c 0,-67.46514 -23.9157,-125.42465 -71.9607,-173.46802 C 1799.9945,-856.08273 1742.0388,-880 1674.5714,-880 Z m 0,245.42865 H 1674.5714 V 714.57135 H 325.42865 Z"
     inkscape:label="card" />
  <path
     d="M 890.59285,189.79546 714.89031,0.596257 q -22.47362,-24.199877 -57.20553,-24.199877 -34.73188,0 -57.2055,24.199877 -22.47358,24.199878 -22.47358,61.599765 0,37.399795 22.47358,61.599698 L 833.3874,374.59467 q 24.51665,26.39989 57.20545,26.39989 32.6889,0 57.2055,-26.39989 l 461.73015,-497.19788 q 22.4736,-24.19994 22.4736,-61.59974 0,-37.39985 -22.4736,-61.59976 -22.4736,-24.19988 -57.2055,-24.19988 -34.7319,0 -57.2055,24.19988 z"
     id="path1"
     style="fill:#d20514;fill-opacity:1;stroke:#d20514;stroke-width:30.4999;stroke-dasharray:none;stroke-opacity:1"
     inkscape:label="check" />
</svg>
