<?xml version="1.0" encoding="UTF-8" standalone="no"?>
<svg
   viewBox="0 0 50 50"
   version="1.1"
   id="svg1"
   sodipodi:docname="favicon.svg"
   width="50"
   height="50"
   inkscape:version="1.4 (e7c3feb1, 2024-10-09)"
   inkscape:export-filename="favicon.png"
   inkscape:export-xdpi="96"
   inkscape:export-ydpi="96"
   xmlns:inkscape="http://www.inkscape.org/namespaces/inkscape"
   xmlns:sodipodi="http://sodipodi.sourceforge.net/DTD/sodipodi-0.dtd"
   xmlns="http://www.w3.org/2000/svg"
   xmlns:svg="http://www.w3.org/2000/svg">
  <defs
     id="defs1" />
  <sodipodi:namedview
     id="namedview1"
     pagecolor="#ffffff"
     bordercolor="#000000"
     borderopacity="0.25"
     inkscape:showpageshadow="2"
     inkscape:pageopacity="0.0"
     inkscape:pagecheckerboard="0"
     inkscape:deskcolor="#d1d1d1"
     inkscape:zoom="2.4099377"
     inkscape:cx="-2.0747424"
     inkscape:cy="9.5438152"
     inkscape:window-width="1440"
     inkscape:window-height="823"
     inkscape:window-x="0"
     inkscape:window-y="0"
     inkscape:window-maximized="0"
     inkscape:current-layer="svg1" />
  <!--!Font Awesome Free 7.0.1 by @fontawesome - https://fontawesome.com License - https://fontawesome.com/license/free Copyright 2025 Fonticons, Inc.-->
  <path
     style="fill:#e6bc5c;fill-opacity:1;stroke:none;stroke-width:0;stroke-dasharray:none"
     d="m 37.247088,39.041068 c 0.01802,-0.368954 0.02703,-0.737917 0.02703,-1.115873 0,-13.912465 -11.282534,-25.19722 -25.192261,-25.19722 -0.368887,0 -0.74677,0.009 -1.115657,0.027 L 2.0499056,46.195286 c -0.1349583,0.494943 0.00901,1.025888 0.3688865,1.385841 0.3598897,0.359964 0.8907259,0.503943 1.3855738,0.368964 L 37.238089,39.032068 Z"
     id="path2" />
  <path
     style="fill:#ccba8f;fill-opacity:1;stroke:none;stroke-width:0;stroke-dasharray:none"
     d="M 17.273228,2.0101578 C 15.221859,1.8661734 13.503387,3.2700191 12.999541,5.132813 L 12.12681,8.4084522 C 28.393811,8.4354533 41.56576,21.609995 41.592757,37.880203 l 3.274989,-0.872908 c 1.871424,-0.494942 3.266001,-2.222754 3.12204,-4.274528 C 46.856135,16.282583 33.720175,3.1440329 17.273228,2.0101578 Z"
     id="path1" />
  <g
     id="g1"
     style="fill:#b11e1e;fill-opacity:1"
     transform="matrix(0.95833345,0,0,0.95833345,1.0416663,1.0416665)">
    <path
       style="fill:#b11e1e;fill-opacity:1;stroke:none;stroke-width:0;stroke-dasharray:none"
       d="m 10.018016,36.98471 c 0,-1.662075 1.342543,-3.004883 3.004293,-3.004883 1.661751,0 3.004294,1.342808 3.004294,3.004883 0,1.662077 -1.342543,3.004892 -3.004294,3.004892 -1.66175,0 -3.004293,-1.342815 -3.004293,-3.004892 z"
       id="path5" />
    <path
       style="fill:#b11e1e;fill-opacity:1;stroke:none;stroke-width:0;stroke-dasharray:none"
       d="m 23.537338,32.477384 c 0,-1.662077 1.342544,-3.004885 3.004294,-3.004885 1.66175,0 3.004294,1.342808 3.004294,3.004885 0,1.662078 -1.342544,3.004885 -3.004294,3.004885 -1.66175,0 -3.004294,-1.342807 -3.004294,-3.004885 z"
       id="path4" />
    <path
       style="fill:#b11e1e;fill-opacity:1;stroke:none;stroke-width:0;stroke-dasharray:none"
       d="m 17.52875,20.457843 c 1.66175,0 3.004294,1.342808 3.004294,3.004885 0,1.662077 -1.342544,3.004886 -3.004294,3.004886 -1.66175,0 -3.004294,-1.342809 -3.004294,-3.004886 0,-1.662077 1.342544,-3.004885 3.004294,-3.004885 z"
       id="path3" />
  </g>
</svg>
