<?xml version="1.0" encoding="UTF-8" standalone="no"?>
<svg
   viewBox="0 0 16 18"
   version="1.1"
   id="svg1"
   sodipodi:docname="flag-checkered-solid — копия.svg"
   inkscape:version="1.4 (e7c3feb1, 2024-10-09)"
   width="16"
   height="18"
   xmlns:inkscape="http://www.inkscape.org/namespaces/inkscape"
   xmlns:sodipodi="http://sodipodi.sourceforge.net/DTD/sodipodi-0.dtd"
   xmlns="http://www.w3.org/2000/svg"
   xmlns:svg="http://www.w3.org/2000/svg">
  <defs
     id="defs1" />
  <sodipodi:namedview
     id="namedview1"
     pagecolor="#ffffff"
     bordercolor="#000000"
     borderopacity="0.25"
     inkscape:showpageshadow="2"
     inkscape:pageopacity="0.0"
     inkscape:pagecheckerboard="0"
     inkscape:deskcolor="#d1d1d1"
     inkscape:zoom="6.5882116"
     inkscape:cx="-1.3660763"
     inkscape:cy="19.352748"
     inkscape:window-width="1440"
     inkscape:window-height="900"
     inkscape:window-x="0"
     inkscape:window-y="0"
     inkscape:window-maximized="0"
     inkscape:current-layer="svg1" />
  <!--!Font Awesome Free 6.7.2 by @fontawesome - https://fontawesome.com License - https://fontawesome.com/license/free Copyright 2025 Fonticons, Inc.-->
  <path
     d="M 1.1428571,0 C 1.775,0 2.2857143,0.50273439 2.2857143,1.125 V 1.6875 L 4.75,1.0828125 c 1.3607143,-0.33398436 2.7964286,-0.17929686 4.0535714,0.4394532 1.6535716,0.815625 3.5999996,0.815625 5.2535716,0 L 14.4,1.3535156 C 15.135714,0.98789061 16,1.5152344 16,2.3238282 v 9.8332028 c 0,0.467579 -0.296429,0.889453 -0.742857,1.054688 l -1.239286,0.457031 c -1.65,0.608203 -3.485714,0.513282 -5.0607141,-0.260156 -1.3535715,-0.667969 -2.9035715,-0.833203 -4.375,-0.471094 L 2.2857143,13.5 v 3.375 C 2.2857143,17.497266 1.775,18 1.1428571,18 0.51071429,18 0,17.497266 0,16.875 V 14.0625 11.742187 2.25 1.125 C 0,0.50273439 0.51071429,0 1.1428571,0 Z"
     id="path1"
     inkscape:label="path1"
     style="fill:#cdd2d7;fill-opacity:1;stroke-width:0.0354342" />
  <path
     d="M 13.714286,6.5496094 V 4.0605469 C 12.967857,4.275 12.2,4.3804688 11.428571,4.3804688 v 2.4398438 c 0.496429,0.049219 1,0.017578 1.489286,-0.091406 L 13.714286,6.546094 Z"
     id="path4"
     style="fill:#ffffff;fill-opacity:1;stroke-width:0.0354342" />
  <path
     d="m 11.428571,11.801954 c 0.6,0.05273 1.210715,-0.02461 1.785715,-0.239063 l 0.5,-0.182813 V 8.8593751 l -0.282143,0.063282 C 12.775,9.0738282 12.1,9.123047 11.428571,9.0808595 Z"
     id="path3"
     style="fill:#ffffff;fill-opacity:1;stroke-width:0.0354342" />
  <path
     d="M 2.2857143,6.5777345 4.5714286,6.0890626 V 8.391797 L 2.2857143,8.8804689 v 2.2992191 l 1.7428571,-0.428906 c 0.1821429,-0.0457 0.3607143,-0.08438 0.5428572,-0.116017 V 8.3882814 L 5.9607143,8.0929689 C 6.2571429,8.0296874 6.5571429,8.005078 6.8571429,8.0191408 V 5.7691407 C 7.3428571,5.7832032 7.8285714,5.8605469 8.3,5.9941407 L 9.1428571,6.2367189 V 8.5816407 L 7.6535714,8.1492188 C 7.3928571,8.0753907 7.125,8.0296877 6.8571429,8.0156251 v 2.5101559 c 0.7785714,0.0668 1.5464285,0.235547 2.2857142,0.506251 V 8.5781251 L 9.9535714,8.813672 C 10.435714,8.954297 10.928571,9.0386721 11.428571,9.0738282 V 6.816797 C 11.15,6.788672 10.871429,6.7359376 10.6,6.6585938 L 9.1428571,6.2367189 V 4.0570313 C 8.6785714,3.9234376 8.2214286,3.7476564 7.7785714,3.5296876 7.4857143,3.3855469 7.175,3.2835938 6.8571429,3.2203126 V 5.7656251 C 6.3928571,5.7515625 5.9285714,5.7937501 5.475,5.8921876 l -0.9035714,0.196875 v -2.64375 l -2.2857143,0.5625 z"
     id="path2"
     style="fill:#ffffff;fill-opacity:1;stroke-width:0.0354342" />
</svg>
