<?xml version="1.0" encoding="UTF-8" standalone="no"?>
<svg
   height="24"
   viewBox="0 -960 480 480"
   width="24"
   fill="#5f6368"
   version="1.1"
   id="svg1"
   sodipodi:docname="fullscreen.svg"
   inkscape:version="1.4 (e7c3feb1, 2024-10-09)"
   xmlns:inkscape="http://www.inkscape.org/namespaces/inkscape"
   xmlns:sodipodi="http://sodipodi.sourceforge.net/DTD/sodipodi-0.dtd"
   xmlns="http://www.w3.org/2000/svg"
   xmlns:svg="http://www.w3.org/2000/svg">
  <defs
     id="defs1" />
  <sodipodi:namedview
     id="namedview1"
     pagecolor="#ffffff"
     bordercolor="#000000"
     borderopacity="0.25"
     inkscape:showpageshadow="2"
     inkscape:pageopacity="0.0"
     inkscape:pagecheckerboard="0"
     inkscape:deskcolor="#d1d1d1"
     inkscape:zoom="9.0965908"
     inkscape:cx="7.8600875"
     inkscape:cy="15.775141"
     inkscape:window-width="1440"
     inkscape:window-height="822"
     inkscape:window-x="0"
     inkscape:window-y="0"
     inkscape:window-maximized="0"
     inkscape:current-layer="svg1" />
  <path
     d="m 114.74734,-594.7474 h 43.00342 q 5.32323,0 8.92634,3.62399 3.59891,3.6198 3.59891,8.97646 0,5.35244 -3.59891,8.90127 -3.60311,3.54883 -8.92634,3.54883 h -55.5287 q -5.323234,0 -8.922153,-3.60311 -3.603107,-3.59892 -3.603107,-8.92214 v -55.52869 q 0,-5.32324 3.623973,-8.92635 3.619805,-3.59894 8.976447,-3.59894 5.35246,0 8.90129,3.59894 3.54883,3.60311 3.54883,8.92635 z m 250.50529,0 v -43.00339 q 0,-5.32324 3.62397,-8.92635 3.61981,-3.59894 8.97647,-3.59894 5.35244,0 8.90126,3.59894 3.54884,3.60311 3.54884,8.92635 v 55.52869 q 0,5.32322 -3.59892,8.92214 -3.60311,3.60311 -8.92634,3.60311 h -55.52868 q -5.32324,0 -8.92216,-3.62398 -3.60312,-3.6198 -3.60312,-8.97642 0,-5.35247 3.60312,-8.90131 3.59892,-3.54884 8.92216,-3.54884 z M 114.74734,-845.25268 v 43.00341 q 0,5.32324 -3.62398,8.92217 -3.61979,3.60309 -8.97645,3.60309 -5.352454,0 -8.901287,-3.60309 -3.548823,-3.59893 -3.548823,-8.92217 v -55.5287 q 0,-5.32321 3.603107,-8.92632 3.598919,-3.59891 8.922153,-3.59891 h 55.5287 q 5.32323,0 8.92634,3.62397 3.59891,3.61979 3.59891,8.97641 0,5.35248 -3.59891,8.90131 -3.60311,3.54883 -8.92634,3.54883 z m 250.50529,0 h -43.0034 q -5.32324,0 -8.92216,-3.62398 -3.60312,-3.61979 -3.60312,-8.97645 0,-5.35244 3.60312,-8.90128 3.59892,-3.54881 8.92216,-3.54881 h 55.52869 q 5.32322,0 8.92633,3.59891 3.59892,3.60311 3.59892,8.92632 v 55.5287 q 0,5.32324 -3.62398,8.92217 -3.6198,3.60309 -8.97642,3.60309 -5.35247,0 -8.90131,-3.60309 -3.54883,-3.59893 -3.54883,-8.92217 z"
     id="path1"
     style="fill:#a6aaaf;fill-opacity:1;stroke:#a6aaaf;stroke-width:19.3936;stroke-dasharray:none;stroke-opacity:1" />
</svg>
