<?xml version="1.0" encoding="UTF-8" standalone="no"?>
<svg
   height="24"
   viewBox="0 -960 480 480"
   width="24"
   fill="#5f6368"
   version="1.1"
   id="svg1"
   sodipodi:docname="fullscreen-exit.svg"
   inkscape:version="1.4 (e7c3feb1, 2024-10-09)"
   xmlns:inkscape="http://www.inkscape.org/namespaces/inkscape"
   xmlns:sodipodi="http://sodipodi.sourceforge.net/DTD/sodipodi-0.dtd"
   xmlns="http://www.w3.org/2000/svg"
   xmlns:svg="http://www.w3.org/2000/svg">
  <defs
     id="defs1" />
  <sodipodi:namedview
     id="namedview1"
     pagecolor="#ffffff"
     bordercolor="#000000"
     borderopacity="0.25"
     inkscape:showpageshadow="2"
     inkscape:pageopacity="0.0"
     inkscape:pagecheckerboard="0"
     inkscape:deskcolor="#d1d1d1"
     inkscape:zoom="12.139421"
     inkscape:cx="6.548912"
     inkscape:cy="12.97426"
     inkscape:window-width="1440"
     inkscape:window-height="822"
     inkscape:window-x="0"
     inkscape:window-y="0"
     inkscape:window-maximized="0"
     inkscape:current-layer="svg1" />
  <path
     d="m 145.22548,-625.22552 h -43.00341 q -5.323247,0 -8.922165,-3.62397 -3.603105,-3.61981 -3.603105,-8.97644 0,-5.35246 3.603105,-8.90129 3.598918,-3.54882 8.922165,-3.54882 h 55.52867 q 5.32323,0 8.92634,3.59892 3.59891,3.6031 3.59891,8.92635 v 55.52867 q 0,5.32323 -3.62396,8.92216 -3.6198,3.6031 -8.97645,3.6031 -5.35245,0 -8.90128,-3.6031 -3.54882,-3.59893 -3.54882,-8.92216 z m 189.549,0 v 43.00342 q 0,5.32323 -3.62397,8.92216 -3.61981,3.6031 -8.97644,3.6031 -5.35246,0 -8.90129,-3.6031 -3.54882,-3.59893 -3.54882,-8.92216 v -55.52867 q 0,-5.32325 3.6031,-8.92635 3.59892,-3.59892 8.92217,-3.59892 h 55.52867 q 5.32323,0 8.92634,3.62397 3.59892,3.6198 3.59892,8.97645 0,5.35245 -3.59892,8.90128 -3.60311,3.54882 -8.92634,3.54882 z m -189.549,-189.549 v -43.00341 q 0,-5.32324 3.62397,-8.92636 3.6198,-3.59891 8.97643,-3.59891 5.35247,0 8.90129,3.59891 3.54882,3.60312 3.54882,8.92636 v 55.52867 q 0,5.32323 -3.59891,8.92217 -3.60311,3.60308 -8.92634,3.60308 h -55.52867 q -5.323247,0 -8.922165,-3.62396 -3.603105,-3.6198 -3.603105,-8.97645 0,-5.35245 3.603105,-8.90128 3.598918,-3.54882 8.922165,-3.54882 z m 189.549,0 h 43.00342 q 5.32323,0 8.92634,3.62397 3.59892,3.6198 3.59892,8.97643 0,5.35247 -3.59892,8.90129 -3.60311,3.54882 -8.92634,3.54882 h -55.52867 q -5.32325,0 -8.92217,-3.60308 -3.6031,-3.59894 -3.6031,-8.92217 v -55.52867 q 0,-5.32324 3.62397,-8.92636 3.6198,-3.59891 8.97645,-3.59891 5.35245,0 8.90128,3.59891 3.54882,3.60312 3.54882,8.92636 z"
     id="path1"
     style="fill:#a6aaaf;fill-opacity:1;stroke:#a6aaaf;stroke-width:19.3936;stroke-dasharray:none;stroke-opacity:1" />
</svg>
