<?xml version="1.0" encoding="UTF-8" standalone="no"?>
<svg
   height="28"
   viewBox="0 -960 560 560"
   width="28"
   fill="#5f6368"
   version="1.1"
   id="svg1"
   sodipodi:docname="info.svg"
   inkscape:version="1.4 (e7c3feb1, 2024-10-09)"
   xmlns:inkscape="http://www.inkscape.org/namespaces/inkscape"
   xmlns:sodipodi="http://sodipodi.sourceforge.net/DTD/sodipodi-0.dtd"
   xmlns="http://www.w3.org/2000/svg"
   xmlns:svg="http://www.w3.org/2000/svg">
  <defs
     id="defs1" />
  <sodipodi:namedview
     id="namedview1"
     pagecolor="#ffffff"
     bordercolor="#000000"
     borderopacity="0.25"
     inkscape:showpageshadow="2"
     inkscape:pageopacity="0.0"
     inkscape:pagecheckerboard="0"
     inkscape:deskcolor="#d1d1d1"
     inkscape:zoom="10.765318"
     inkscape:cx="10.450225"
     inkscape:cy="18.345951"
     inkscape:window-width="1440"
     inkscape:window-height="900"
     inkscape:window-x="0"
     inkscape:window-y="0"
     inkscape:window-maximized="0"
     inkscape:current-layer="svg1" />
  <path
     d="m 280.14945,-458.59778 q -45.79704,0 -86.07011,-17.43542 -40.27859,-17.43542 -70.44464,-47.60148 -30.166057,-30.16606 -47.601477,-70.4834 -17.435424,-40.31733 -17.435424,-86.15867 0,-45.84132 17.435424,-86.15866 17.43542,-40.31736 47.601477,-70.20664 30.16605,-29.88931 70.4834,-47.32473 40.31733,-17.43542 86.15867,-17.43542 45.84132,0 86.15866,17.43542 40.31735,17.43542 70.20664,47.32473 29.88931,29.88928 47.32473,70.2952 17.43542,40.4059 17.43542,86.1974 0,45.79705 -17.43542,86.07013 -17.43542,40.27858 -47.32473,70.34502 -29.88929,30.06088 -70.2952,47.60146 -40.4059,17.53506 -86.19742,17.53506 z"
     id="path2"
     style="display:inline;fill:none;stroke:#d2d7dc;stroke-width:37.1956;stroke-dasharray:none;stroke-opacity:1"
     inkscape:label="circle" />
  <path
     d="m 279.20654,-780.47763 q 16.36661,0 28.81884,10.01595 12.45227,10.01594 12.45227,25.55418 0,14.23889 -8.47295,24.75834 -8.47295,10.51943 -19.13856,19.79907 -12.45226,10.28664 -21.65611,22.94463 -9.20384,12.6634 -9.20384,28.48859 0,5.95543 4.54778,9.47454 4.54777,3.5191 10.6115,3.5191 6.49683,0 10.76307,-4.33121 4.26085,-4.33122 5.47898,-10.82804 1.62422,-11.36945 8.66245,-20.57329 7.03824,-9.20385 16.36659,-16.66436 13.41053,-10.94715 22.07298,-25.56502 8.66243,-14.61785 8.66243,-31.73159 0,-27.28127 -20.30259,-45.41824 -20.30259,-18.13697 -48.15773,-18.13697 -19.24685,0 -37.11313,8.12103 -17.86629,8.12105 -29.23573,23.82171 -3.78983,5.41402 -3.51912,11.64013 0.27071,6.22614 5.1271,10.01595 6.17739,4.33123 12.80416,2.70701 6.62134,-1.62419 11.03376,-7.57962 6.9029,-9.69111 17.25992,-14.86149 10.3516,-5.1704 22.13793,-5.1704 z"
     id="path5"
     style="display:inline;fill:#a6aaaf;fill-opacity:1;stroke:#a6aaaf;stroke-width:21.6561;stroke-dasharray:none;stroke-opacity:1"
     inkscape:label="question" />
  <path
     d="m 279.88872,-556.8785 q 8.64619,0 14.6016,-5.97165 5.95544,-5.97167 5.95544,-14.61786 0,-8.64619 -5.97167,-14.60163 -5.97166,-5.95542 -14.61787,-5.95542 -8.64619,0 -14.60161,5.97167 -5.95543,5.97166 -5.95543,14.61785 0,8.6462 5.97167,14.60164 5.97168,5.9554 14.61787,5.9554 z"
     id="path1"
     inkscape:label="point"
     style="fill:#a6aaaf;fill-opacity:1;stroke:#a6aaaf;stroke-width:21.6561;stroke-dasharray:none;stroke-opacity:1" />
</svg>
