<?xml version="1.0" encoding="UTF-8" standalone="no"?>
<svg
   height="20"
   viewBox="0 -960 800 800"
   width="20"
   fill="#1f1f1f"
   version="1.1"
   id="svg1"
   sodipodi:docname="info.svg"
   inkscape:version="1.4 (e7c3feb1, 2024-10-09)"
   xmlns:inkscape="http://www.inkscape.org/namespaces/inkscape"
   xmlns:sodipodi="http://sodipodi.sourceforge.net/DTD/sodipodi-0.dtd"
   xmlns="http://www.w3.org/2000/svg"
   xmlns:svg="http://www.w3.org/2000/svg">
  <defs
     id="defs1" />
  <sodipodi:namedview
     id="namedview1"
     pagecolor="#ffffff"
     bordercolor="#000000"
     borderopacity="0.25"
     inkscape:showpageshadow="2"
     inkscape:pageopacity="0.0"
     inkscape:pagecheckerboard="0"
     inkscape:deskcolor="#d1d1d1"
     inkscape:zoom="7.4055953"
     inkscape:cx="-4.7261562"
     inkscape:cy="15.1237"
     inkscape:window-width="1440"
     inkscape:window-height="823"
     inkscape:window-x="0"
     inkscape:window-y="0"
     inkscape:window-maximized="0"
     inkscape:current-layer="svg1" />
  <path
     d="m 400.00004,-265.21181 q -61.16855,0 -114.96738,-23.21455 -53.79887,-23.2146 -93.59525,-63.01099 -39.79641,-39.7964 -63.011,-93.59523 -23.21456,-53.79885 -23.21456,-114.9674 0,-61.16855 23.21456,-114.96739 23.21459,-53.79883 63.011,-93.59523 39.79638,-39.7964 93.59525,-63.011 53.79883,-23.21455 114.96738,-23.21455 61.16854,0 114.96739,23.21455 53.79887,23.2146 93.59525,63.011 39.7964,39.7964 63.011,93.59523 23.21455,53.79884 23.21455,114.96739 0,61.16855 -23.21455,114.9674 -23.2146,53.79883 -63.011,93.59523 -39.79638,39.79639 -93.59525,63.01099 -53.79885,23.21455 -114.96739,23.21455 z"
     id="path3"
     style="fill:none;fill-opacity:1;stroke:#b9bec3;stroke-width:50.4237;stroke-dasharray:none;stroke-opacity:1" />
  <path
     d="M 399.99999,-640 Q 417,-640 428.5,-651.5 440,-663 440,-680 440,-697 428.5,-708.5 417,-720 399.99999,-720 383,-720 371.5,-708.5 360,-697 360,-680 q 0,17 11.5,28.5 11.5,11.5 28.49999,11.5 z"
     id="path2"
     style="fill:#91969b;fill-opacity:1;stroke:none;stroke-width:0;stroke-dasharray:none;stroke-opacity:1" />
  <path
     d="m 400,-400 q 17,0 28.5,-9.58333 11.5,-9.58334 11.5,-23.75 v -133.33334 q 0,-14.16666 -11.5,-23.75 Q 417,-600 400,-600 q -17,0 -28.5,9.58333 -11.5,9.58334 -11.5,23.75 v 133.33334 q 0,14.16666 11.5,23.75 Q 383,-400 400,-400 Z"
     id="path1"
     style="fill:#91969b;fill-opacity:1;stroke:none;stroke-width:0;stroke-dasharray:none;stroke-opacity:1"
     inkscape:label="path1" />
</svg>
