<?xml version="1.0" encoding="UTF-8" standalone="no"?>
<svg
   width="52"
   height="44"
   viewBox="0 0 52 44.000001"
   version="1.1"
   id="svg9"
   sodipodi:docname="logo.svg"
   inkscape:version="1.4 (e7c3feb1, 2024-10-09)"
   xmlns:inkscape="http://www.inkscape.org/namespaces/inkscape"
   xmlns:sodipodi="http://sodipodi.sourceforge.net/DTD/sodipodi-0.dtd"
   xmlns="http://www.w3.org/2000/svg"
   xmlns:svg="http://www.w3.org/2000/svg">
  <defs
     id="defs9" />
  <sodipodi:namedview
     id="namedview9"
     pagecolor="#ffffff"
     bordercolor="#000000"
     borderopacity="0.25"
     inkscape:showpageshadow="2"
     inkscape:pageopacity="0.0"
     inkscape:pagecheckerboard="0"
     inkscape:deskcolor="#d1d1d1"
     inkscape:zoom="6.7709847"
     inkscape:cx="18.53497"
     inkscape:cy="23.556396"
     inkscape:window-width="1440"
     inkscape:window-height="900"
     inkscape:window-x="0"
     inkscape:window-y="0"
     inkscape:window-maximized="0"
     inkscape:current-layer="svg9" />
  <path
     fill-rule="nonzero"
     fill="#000000"
     fill-opacity="1"
     d="m 8.587232,10.838537 c 0,0 0.1843887,-0.04055 0.5132276,-0.106204 0.1644338,-0.03287 0.3650397,-0.07206 0.5967741,-0.115781 0.2317153,-0.04367 0.4946083,-0.09215 0.7837213,-0.1431 0.289027,-0.05078 0.604237,-0.104277 0.940802,-0.158679 0.336491,-0.05429 0.694543,-0.109578 1.068564,-0.163643 0.374039,-0.0541 0.764286,-0.107318 1.165913,-0.1573911 0.401622,-0.050052 0.814562,-0.097199 1.233837,-0.1396903 0.209591,-0.021223 0.42088,-0.041458 0.633021,-0.060099 0.2122,-0.01858 0.425179,-0.035789 0.638682,-0.051303 0.213443,-0.015494 0.427311,-0.029676 0.64087,-0.041478 0.213506,-0.012064 0.426916,-0.022101 0.63926,-0.03011 0.212323,-0.00787 0.423901,-0.013749 0.633765,-0.017309 0.210013,-0.00343 0.41829,-0.00474 0.624529,-0.00353 0.206218,0.00141 0.410332,0.00545 0.611637,0.012387 0.20138,0.00686 0.400242,0.016502 0.59546,0.02893 0.195329,0.01274 0.387008,0.028496 0.574766,0.047349 0.187963,0.018974 0.371935,0.041044 0.551115,0.066726 0.179114,0.026146 0.353624,0.055489 0.522927,0.0881 0.16922,0.033933 0.333495,0.069732 0.491765,0.1104714 0.158203,0.04019 0.310345,0.08532 0.456269,0.134257 0.07296,0.02379 0.144012,0.0501 0.213622,0.07659 0.06959,0.02661 0.137627,0.05418 0.203704,0.08303 0.06609,0.02873 0.130673,0.05869 0.193188,0.08978 0.06255,0.03097 0.122966,0.0632 0.181599,0.09647 0.05886,0.03332 0.115651,0.06751 0.170239,0.103361 0.0547,0.036 0.107753,0.0728 0.158342,0.110815 0.101287,0.07617 0.196041,0.154065 0.284379,0.233582 0.0884,0.07951 0.170442,0.160615 0.246355,0.243199 0.07568,0.08271 0.145348,0.166923 0.209156,0.252563 0.06369,0.08567 0.121645,0.17293 0.173651,0.261229 0.05213,0.08854 0.09872,0.178231 0.139444,0.269332 0.04092,0.09092 0.0761,0.183444 0.106273,0.276838 0.03008,0.09353 0.05483,0.187823 0.07455,0.283579 0.01971,0.09579 0.03448,0.192468 0.04426,0.290338 0.0098,0.09788 0.01458,0.19692 0.01488,0.296656 2.98e-4,0.09961 -0.0039,0.200325 -0.01267,0.30185 -0.0084,0.101364 -0.02167,0.203718 -0.03921,0.306757 -0.01741,0.102905 -0.03916,0.206414 -0.06434,0.310834 -0.02527,0.10439 -0.05522,0.20932 -0.08843,0.314876 -0.03324,0.10558 -0.07037,0.211659 -0.110919,0.318422 -0.04049,0.106486 -0.08477,0.213545 -0.132134,0.321085 -0.0476,0.107281 -0.09834,0.2154 -0.152111,0.323601 -0.05416,0.108036 -0.110799,0.21637 -0.170663,0.325025 -0.0601,0.108491 -0.122885,0.217506 -0.188258,0.326445 -0.0655,0.108903 -0.133904,0.218021 -0.204555,0.327177 -0.07056,0.108968 -0.143598,0.218004 -0.218931,0.32714 -0.07536,0.109077 -0.152997,0.217876 -0.232655,0.326687 -0.07956,0.108883 -0.16154,0.217516 -0.244866,0.326063 -0.08345,0.108471 -0.168634,0.216704 -0.255452,0.324525 -0.08703,0.10784 -0.175306,0.215198 -0.265248,0.322305 -0.179633,0.214329 -0.364798,0.426968 -0.553807,0.637239 -0.188956,0.210279 -0.381591,0.41827 -0.576284,0.623058 -0.194797,0.204839 -0.391744,0.406292 -0.588695,0.604141 -0.197142,0.197993 -0.394434,0.392119 -0.590481,0.581744 -0.04894,0.0475 -0.101161,0.09579 -0.156726,0.144522 -0.05545,0.04881 -0.114292,0.09825 -0.176062,0.14831 -0.123614,0.100023 -0.259484,0.202323 -0.406644,0.307084 -0.147408,0.10484 -0.306135,0.212085 -0.475259,0.321043 -0.16917,0.108911 -0.348992,0.219755 -0.538149,0.332269 -0.189079,0.112692 -0.38774,0.226754 -0.595192,0.342491 -0.207346,0.115755 -0.423358,0.233025 -0.647026,0.351351 -0.223734,0.118313 -0.455134,0.237502 -0.693459,0.35794 -0.238156,0.120401 -0.483228,0.24193 -0.734086,0.363806 -0.250857,0.121875 -0.507531,0.244295 -0.769197,0.367215 -0.261645,0.1228 -0.528503,0.246046 -0.799053,0.369474 -0.54122,0.246755 -1.09842,0.49375 -1.664335,0.739209 -0.565912,0.245539 -1.140581,0.489291 -1.716383,0.729251 -0.575872,0.240043 -1.1529305,0.476285 -1.7239464,0.706451 -0.5709973,0.23033 -1.1358846,0.45416 -1.6872957,0.670492 -0.5513159,0.216187 -1.0891871,0.424431 -1.6061164,0.622424 -0.5169468,0.198088 -1.0128653,0.385816 -1.4805794,0.561446 -0.4677766,0.175673 -0.9072095,0.338999 -1.3109503,0.48796 -0.2737479,0.10082 -0.4173946,0.151576 -0.6560063,0.238627 0.811232,-3.248881 3.5241512,-14.028706 4.0811743,-15.028075 0.6511431,-1.168273 2.114478,-2.649407 2.114478,-2.649407 z m 0,0"
     id="path1"
     style="fill:#cae5fe;fill-opacity:1;stroke-width:0.0137482" />
  <path
     fill-rule="nonzero"
     fill="#000000"
     fill-opacity="1"
     d="M 3.9234064,40.608455 C 4.0197003,40.510036 4.1133052,40.405758 4.2106393,40.309322 4.5205896,40.002261 4.8355728,39.705686 5.1547816,39.419074 5.4740141,39.1324 5.7976233,38.855837 6.125101,38.588943 6.4525085,38.32205 6.7837107,38.064541 7.1183362,37.816743 7.4528995,37.56899 7.79094,37.330631 8.1315084,37.101334 c 0.3406429,-0.229337 0.683856,-0.449782 1.0294351,-0.661343 0.3455707,-0.211506 0.6934018,-0.414229 1.0428275,-0.608641 0.349417,-0.194359 0.700319,-0.380179 1.052511,-0.55807 0.352173,-0.177853 0.705666,-0.347772 1.059534,-0.509839 0.353814,-0.162063 0.708375,-0.316047 1.06271,-0.462859 0.354555,-0.146828 0.708849,-0.286287 1.062647,-0.418595 0.354006,-0.132257 0.707534,-0.257456 1.059966,-0.375815 0.352259,-0.11839 0.703701,-0.230219 1.053377,-0.335434 0.349559,-0.105168 0.697344,-0.203685 1.043315,-0.296252 0.345916,-0.09257 0.689937,-0.179028 1.030959,-0.259644 0.682016,-0.161291 1.353188,-0.299421 2.009201,-0.416871 0.656046,-0.117334 1.296767,-0.214208 1.918029,-0.292963 0.621327,-0.07875 1.222875,-0.139644 1.800581,-0.185081 0.577864,-0.04539 1.131694,-0.07562 1.657404,-0.09276 0.525581,-0.01726 1.022874,-0.0214 1.487571,-0.01564 0.464701,0.0057 0.896746,0.02155 1.291782,0.04504 0.395123,0.02337 0.753289,0.05457 1.069991,0.09057 0.316698,0.03601 0.591997,0.07707 0.821519,0.120405 0.459297,0.08642 0.921629,0.162508 1.382465,0.228197 0.460751,0.06555 0.919924,0.120824 1.372375,0.166605 0.452539,0.04566 0.898233,0.08152 1.332676,0.108494 0.434303,0.02687 0.857455,0.04495 1.263863,0.05436 0.406411,0.0094 0.79643,0.01028 1.165073,0.0034 0.36868,-0.007 0.715845,-0.02189 1.036776,-0.04393 0.321033,-0.02192 0.615989,-0.05094 0.879435,-0.08684 0.263597,-0.03574 0.495925,-0.07856 0.69222,-0.126989 0.196208,-0.04857 0.419316,-0.09222 0.659746,-0.1312 0.240413,-0.03886 0.497992,-0.073 0.762864,-0.103346 0.529755,-0.06076 1.088785,-0.105384 1.59889,-0.137871 1.020224,-0.06485 1.844215,-0.08092 1.844215,-0.08092 0,0 1.016741,0.694114 -0.03505,1.894497 -1.051768,1.200265 -8.79425,2.499795 -13.094023,3.803989 C 27.246558,38.720157 21.542009,37.96525 21.542009,37.96525 17.893406,38.101088 6.0536431,42.859431 5.0800519,42.316773 4.8166477,42.169949 4.3953378,41.507406 3.9233994,40.608494 Z m 0,0"
     id="path2"
     style="fill:#6c7784;fill-opacity:1;stroke-width:0.0137482" />
  <path
     fill-rule="nonzero"
     fill="#e42145"
     fill-opacity="1"
     d="m 36.400652,4.2101458 c 7.80749,4.3099159 14.511383,11.5132152 14.596566,12.2724372 0.106977,0.95295 -2.906366,3.612266 -2.906366,3.612266 l -0.999295,2.250113 c 0,0 1.294843,3.401237 0.469656,5.110595 -0.825107,1.709438 -2.885745,4.262006 -2.885745,4.262006 0,0 -0.823992,0.01606 -1.844215,0.08092 -0.510117,0.03256 -1.069135,0.07711 -1.598892,0.137871 -0.264867,0.03032 -0.522452,0.0645 -0.762862,0.103348 -0.240437,0.039 -0.463528,0.08257 -0.659747,0.131199 -0.196294,0.04843 -0.428622,0.09124 -0.69222,0.126989 -0.263447,0.0359 -0.558393,0.06486 -0.879434,0.08684 -0.320959,0.0222 -0.668108,0.03702 -1.036777,0.04393 -0.368641,0.0069 -0.758691,0.0062 -1.165074,-0.0034 -0.406412,-0.0094 -0.829564,-0.02746 -1.263861,-0.05436 -0.434461,-0.0269 -0.880132,-0.06287 -1.332677,-0.108494 -0.452473,-0.04566 -0.911647,-0.100931 -1.372375,-0.166603 -0.460858,-0.06557 -0.923242,-0.141355 -1.382464,-0.228197 -0.229542,-0.04324 -0.504956,-0.08361 -0.82152,-0.120406 -0.3167,-0.03601 -0.674915,-0.06695 -1.06999,-0.09057 -0.395035,-0.02349 -0.827079,-0.03931 -1.291783,-0.04503 -0.464701,-0.0057 -0.961998,-0.0016 -1.487571,0.01565 -0.525705,0.01711 -1.079539,0.04736 -1.657403,0.09275 -0.577708,0.04544 -1.179254,0.106336 -1.800582,0.185081 -0.621289,0.07891 -1.261982,0.17563 -1.918048,0.29307 -0.656021,0.117503 -1.327165,0.255473 -2.009181,0.416766 -0.341022,0.08062 -0.685043,0.16708 -1.03096,0.259643 -0.345971,0.09257 -0.693755,0.191083 -1.043314,0.296252 -0.349676,0.105216 -0.701118,0.217044 -1.053377,0.335433 -0.352451,0.118465 -0.70596,0.24356 -1.059967,0.375816 -0.353806,0.132362 -0.708091,0.271767 -1.062647,0.418594 -0.354344,0.146867 -0.708905,0.300849 -1.06271,0.46286 -0.353868,0.162066 -0.70736,0.331986 -1.059533,0.509838 -0.352193,0.177891 -0.703095,0.363711 -1.052521,0.558124 -0.3494156,0.194359 -0.6972468,0.397081 -1.0428265,0.608641 -0.3455708,0.211508 -0.6887838,0.431952 -1.0294268,0.661289 -0.3405776,0.22935 -0.6786088,0.467656 -1.0131814,0.715463 -0.3346255,0.247797 -0.6658185,0.505255 -0.9932259,0.772146 -0.3274777,0.266895 -0.6510869,0.543457 -0.9703194,0.830131 -0.3192183,0.286665 -0.634192,0.583187 -0.9441423,0.890249 -0.097312,0.09646 -0.1909192,0.20066 -0.2872421,0.299185 -1.2727095,-2.42393 -2.92447507,-6.619276 -2.9233981,-7.456442 0.00161,-1.14756 1.04384,-3.246583 1.04384,-3.246583 0,0 0.2103525,-0.839788 0.3476727,-1.389313 0.2386289,-0.08719 0.3822984,-0.137766 0.6560401,-0.238864 0.4037935,-0.148949 0.8432079,-0.312169 1.3109751,-0.487791 0.4677235,-0.175682 0.9636327,-0.363358 1.480591,-0.56151 0.5169176,-0.197928 1.0547364,-0.406183 1.6061047,-0.622359 0.5513575,-0.216342 1.1163264,-0.440321 1.6873022,-0.670493 0.5709735,-0.230229 1.1480507,-0.466576 1.7238757,-0.706355 0.575874,-0.240056 1.150499,-0.48387 1.716426,-0.729327 0.565968,-0.24545 1.123159,-0.492392 1.664432,-0.739138 0.270506,-0.123491 0.537417,-0.246728 0.799,-0.369484 0.261675,-0.122972 0.518368,-0.245498 0.769225,-0.367373 0.250733,-0.121789 0.495823,-0.243424 0.73411,-0.363638 0.238176,-0.120519 0.46959,-0.239706 0.693408,-0.357949 0.22372,-0.118315 0.439601,-0.235773 0.647025,-0.351351 0.207346,-0.115753 0.406007,-0.229817 0.595192,-0.34249 0.189238,-0.112667 0.368873,-0.223377 0.538017,-0.332456 0.169149,-0.108792 0.328101,-0.216063 0.475293,-0.320927 0.147253,-0.104732 0.283157,-0.207081 0.406664,-0.307191 0.0618,-0.05001 0.120777,-0.09943 0.176202,-0.148176 0.05543,-0.04869 0.107644,-0.09697 0.156717,-0.144472 0.19595,-0.189692 0.393402,-0.383792 0.590376,-0.581759 0.197137,-0.197981 0.394012,-0.399338 0.588694,-0.604141 0.194851,-0.204761 0.387329,-0.412781 0.576284,-0.62306 0.188956,-0.210279 0.374281,-0.422892 0.553912,-0.637219 0.08976,-0.107084 0.178304,-0.214547 0.265152,-0.322378 0.08703,-0.107839 0.171933,-0.216052 0.255441,-0.324471 0.08345,-0.108471 0.165444,-0.217197 0.244973,-0.326044 0.0797,-0.108861 0.157204,-0.217723 0.23258,-0.326866 0.07534,-0.108944 0.148354,-0.217874 0.219006,-0.326962 0.0706,-0.109232 0.138999,-0.218269 0.204459,-0.327248 0.06537,-0.108926 0.128396,-0.217735 0.188277,-0.32655 0.05983,-0.108538 0.117005,-0.216698 0.170644,-0.324921 0.05404,-0.108194 0.104628,-0.216203 0.15213,-0.323705 0.0476,-0.107281 0.09162,-0.214469 0.132256,-0.320957 0.04051,-0.106616 0.07756,-0.212905 0.110937,-0.318527 0.0331,-0.105605 0.0628,-0.210495 0.0884,-0.314716 0.02527,-0.10439 0.04758,-0.207894 0.06435,-0.310996 0.01751,-0.102889 0.03077,-0.205246 0.03919,-0.30665 0.0084,-0.101496 0.01282,-0.202127 0.01269,-0.301956 -4.85e-4,-0.09977 -0.0051,-0.198734 -0.01492,-0.296497 -0.0098,-0.09788 -0.02439,-0.194731 -0.04413,-0.290316 -0.01985,-0.09582 -0.04447,-0.190036 -0.07468,-0.283601 -0.03008,-0.09352 -0.06527,-0.185908 -0.106157,-0.276873 -0.04088,-0.09108 -0.08734,-0.1808 -0.139401,-0.26927 -0.05215,-0.0884 -0.109945,-0.175621 -0.173701,-0.261238 -0.06369,-0.08567 -0.13339,-0.16984 -0.209254,-0.252634 -0.07584,-0.08262 -0.15782,-0.163578 -0.246251,-0.243181 -0.0884,-0.07951 -0.183018,-0.157367 -0.284407,-0.233423 -0.05061,-0.03829 -0.103506,-0.0752 -0.158262,-0.11094 -0.05472,-0.03587 -0.111515,-0.07005 -0.170242,-0.103351 -0.05873,-0.0333 -0.11914,-0.06554 -0.181652,-0.09648 -0.06257,-0.03083 -0.127034,-0.06105 -0.193134,-0.08977 -0.06622,-0.02875 -0.13413,-0.05643 -0.203727,-0.08291 -0.06962,-0.02648 -0.140833,-0.05242 -0.213759,-0.07674 -0.145765,-0.04892 -0.298077,-0.0934 -0.456314,-0.133998 -0.158204,-0.040187 -0.322404,-0.077337 -0.491606,-0.1104467 -0.169234,-0.033933 -0.343567,-0.063336 -0.522927,-0.0881 -0.179259,-0.026186 -0.36331,-0.047802 -0.551092,-0.066857 -0.187811,-0.018863 -0.37959,-0.03473 -0.574787,-0.047248 -0.195168,-0.01272 -0.394084,-0.022363 -0.595436,-0.029061 -0.201381,-0.00686 -0.405441,-0.010854 -0.611688,-0.012397 -0.206242,-0.00131 -0.414626,9.58e-5 -0.624479,0.00353 -0.209917,0.00353 -0.421442,0.00938 -0.633789,0.01744 -0.212483,0.00787 -0.425786,0.017925 -0.639399,0.029969 -0.213495,0.012064 -0.427316,0.025984 -0.640845,0.041649 -0.213444,0.015494 -0.426454,0.032561 -0.6386,0.051161 -0.212209,0.018711 -0.423423,0.038825 -0.633024,0.060099 -0.419262,0.042426 -0.832258,0.089593 -1.233887,0.1396812 -0.401594,0.050193 -0.791816,0.1032695 -1.165862,0.1574005 -0.374101,0.05422 -0.732067,0.109323 -1.068645,0.163792 -0.336491,0.05429 -0.651691,0.107736 -0.940803,0.158679 -0.289079,0.05073 -0.5519652,0.09917 -0.7836885,0.142905 -0.2317537,0.04376 -0.4323474,0.08288 -0.5967227,0.11574 C 8.7717369,10.79822 8.5873642,10.838677 8.5873642,10.838677 11.20321,5.9162542 20.252945,-1.1626847 30.306873,1.6332242 c 2.04216,0.5679722 4.103789,1.4786137 6.093969,2.5770707 z m 0,0"
     id="path3"
     style="fill:#9aa4ad;fill-opacity:1;stroke-width:0.0137482" />
  <path
     fill-rule="nonzero"
     fill="#b21630"
     fill-opacity="1"
     d="m 50.339582,16.378505 c 0.254602,0.146634 0.376211,0.439509 0.423881,0.770969 -0.671304,1.169143 -2.672611,2.945375 -2.672611,2.945375 -2.993481,-1.837879 -6.478144,0.436391 -8.65369,2.378094 1.537053,-1.94932 3.214513,-3.90562 5.729651,-5.9041 0,0 4.17275,-0.60666 5.090849,-0.230183 0.02863,0.01192 0.05611,0.02491 0.08169,0.04008 z m 0,0"
     id="path4"
     style="fill:#8c96a0;fill-opacity:1;stroke-width:0.0137482" />
  <path
     fill-rule="nonzero"
     fill="#b21630"
     fill-opacity="1"
     d="m 45.998653,23.980509 c 0,0 -2.190648,0.854346 -2.560822,2.813591 -0.260114,1.376837 -1.845654,3.853775 -2.773865,5.219305 -0.06337,0.0093 -0.13331,0.01636 -0.194477,0.02635 -0.240435,0.039 -0.463529,0.08257 -0.659746,0.131198 -0.196293,0.04843 -0.428593,0.09109 -0.692219,0.126991 -0.263447,0.0359 -0.558394,0.06486 -0.879436,0.08684 -0.320936,0.02207 -0.668106,0.03702 -1.036776,0.04393 -0.368641,0.0069 -0.758662,0.006 -1.165073,-0.0034 -0.406413,-0.0094 -0.829564,-0.02746 -1.263862,-0.05436 -0.434439,-0.02703 -0.880132,-0.06287 -1.332647,-0.108693 -0.452474,-0.04566 -0.911647,-0.100932 -1.372398,-0.166476 -0.460836,-0.0657 -0.923221,-0.141483 -1.382465,-0.228197 -0.229542,-0.04324 -0.504957,-0.08361 -0.821519,-0.120404 -0.316701,-0.03601 -0.674915,-0.06695 -1.069992,-0.09057 -0.395033,-0.02349 -0.827078,-0.03931 -1.291781,-0.04504 -0.464702,-0.0057 -0.961999,-0.0015 -1.487572,0.01564 -0.525704,0.01711 -1.079539,0.04736 -1.657403,0.09276 -0.577707,0.04543 -1.179254,0.106336 -1.800582,0.185081 -0.621261,0.07875 -1.261982,0.175629 -1.918029,0.292963 -0.656013,0.11745 -1.327184,0.25558 -2.009201,0.416871 -0.341022,0.08062 -0.685041,0.167082 -1.030958,0.259646 -0.345971,0.09257 -0.693757,0.191082 -1.043314,0.29625 -0.349677,0.105216 -0.70112,0.217044 -1.053379,0.335434 -0.352431,0.118359 -0.705958,0.243558 -1.059965,0.375817 -0.353798,0.132307 -0.708092,0.271765 -1.062647,0.418594 -0.354336,0.146812 -0.708897,0.300796 -1.06271,0.462858 -0.35386,0.162015 -0.707352,0.331934 -1.059533,0.50984 -0.352194,0.17789 -0.703096,0.363711 -1.052512,0.558069 C 9.8543443,36.025782 9.5065132,36.228505 9.1609425,36.440011 8.815363,36.651571 8.47215,36.872016 8.1315069,37.101354 7.7909388,37.33065 7.4528983,37.569009 7.1183348,37.816763 6.7837095,38.064561 6.452507,38.32207 6.1250994,38.588963 5.7976221,38.855856 5.4740127,39.132419 5.1547897,39.41904 4.8355712,39.705706 4.5205884,40.00228 4.210638,40.309341 4.1133264,40.405813 4.0197187,40.510001 3.923405,40.608474 2.6506859,38.1846 0.99892958,33.9892 1.0000066,33.152034 c 0.0016,-1.147506 1.0438587,-3.24669 1.0438587,-3.24669 0,0 0.00982,-0.04019 0.010102,-0.04179 11.4067867,-1.95521 20.3234647,-9.42506 20.3234647,-9.42506 -1.988179,8.304401 -4.353365,8.958543 -4.809964,9.006463 9.032657,-0.487127 19.562295,-8.332019 19.562295,-8.332019 l -3.40706,5.951116 c 3.792049,-1.946963 12.275682,-3.083577 12.275682,-3.083577 z m 0,0"
     id="path5"
     style="fill:#8c96a0;fill-opacity:1;stroke-width:0.0137482" />
  <path
     fill-rule="nonzero"
     fill="#ea516d"
     fill-opacity="1"
     d="m 40.816923,12.069245 c 0,0 -4.604972,-8.2511376 -13.675611,-8.9753506 C 18.070714,2.3695382 15.275303,8.8422931 15.275303,8.8422931 L 22.701567,8.4695202 C 22.579598,8.3391687 25.99922,-0.6453341 40.816923,12.069245 Z m 0,0"
     id="path6"
     style="fill:#a5aeb6;fill-opacity:1;stroke-width:0.0137482" />
  <path
     fill-rule="nonzero"
     fill="#333333"
     fill-opacity="1"
     d="m 19.183671,11.381565 c 0,0 -3.421845,-0.0124 -5.351738,0.536145 0,0 1.72028,7.274988 -3.116862,12.068314 0,0 4.526727,-1.808198 7.102207,-4.162452 0,0 -3.572097,-2.171372 1.366459,-8.441995 z m 0,0"
     id="path7"
     style="fill:#dbeefe;fill-opacity:1;stroke-width:0.0137482" />
  <path
     fill-rule="nonzero"
     fill="#b21630"
     fill-opacity="1"
     d="m 25.022264,18.876393 c 0,0 5.873759,-4.792192 1.061378,-8.750244 l 14.32821,4.284905 c 0,0 -4.866768,5.252396 -15.389588,4.465339 z m 0,0"
     id="path8"
     style="fill:#8c96a0;fill-opacity:1;stroke-width:0.0137482" />
  <path
     fill-rule="nonzero"
     fill="#ea516d"
     fill-opacity="1"
     d="m 31.740939,20.906491 -5.704012,0.520544 -3.093273,6.035889 c 0,0 6.348346,-1.514817 8.797285,-6.556433 z m 0,0"
     id="path9"
     style="fill:#a5aeb6;fill-opacity:1;stroke-width:0.0137482" />
</svg>
