<?xml version="1.0" encoding="UTF-8"?>
<svg xmlns="http://www.w3.org/2000/svg" xmlns:xlink="http://www.w3.org/1999/xlink" width="3750" height="3750" viewBox="0 0 3750 3750">
<rect x="-375" y="-375" width="4500" height="4500" fill="rgb(100%, 100%, 100%)" fill-opacity="1"/>
<path fill-rule="nonzero" fill="rgb(0%, 0%, 0%)" fill-opacity="1" d="M 451.832031 1194.75 C 451.832031 1194.75 464.527344 1189.519531 487.253906 1180.660156 C 498.617188 1176.230469 512.492188 1170.890625 528.539062 1164.828125 C 544.585938 1158.769531 562.804688 1151.980469 582.871094 1144.679688 C 602.933594 1137.390625 624.835938 1129.578125 648.257812 1121.429688 C 671.675781 1113.289062 696.625 1104.808594 722.734375 1096.210938 C 748.84375 1087.609375 776.125 1078.871094 804.261719 1070.210938 C 832.398438 1061.550781 861.382812 1052.960938 890.878906 1044.621094 C 905.625 1040.449219 920.503906 1036.339844 935.464844 1032.320312 C 950.429688 1028.308594 965.46875 1024.390625 980.566406 1020.578125 C 995.660156 1016.769531 1010.800781 1013.058594 1025.949219 1009.511719 C 1041.089844 1005.949219 1056.25 1002.539062 1071.359375 999.28125 C 1086.46875 996.03125 1101.550781 992.941406 1116.539062 990.039062 C 1131.539062 987.140625 1146.441406 984.410156 1161.230469 981.898438 C 1176.019531 979.398438 1190.691406 977.109375 1205.199219 975.058594 C 1219.710938 973 1234.078125 971.179688 1248.21875 969.609375 C 1262.371094 968.058594 1276.300781 966.761719 1289.988281 965.75 C 1303.691406 964.730469 1317.148438 963.988281 1330.308594 963.570312 C 1343.46875 963.179688 1356.339844 963.058594 1368.878906 963.269531 C 1381.429688 963.519531 1393.648438 964.050781 1405.5 964.96875 C 1417.339844 965.890625 1428.808594 967.160156 1439.878906 968.820312 C 1445.410156 969.640625 1450.828125 970.589844 1456.148438 971.609375 C 1461.46875 972.640625 1466.691406 973.75 1471.789062 974.980469 C 1476.890625 976.199219 1481.890625 977.539062 1486.761719 978.96875 C 1491.628906 980.398438 1496.371094 981.941406 1500.988281 983.589844 C 1505.621094 985.238281 1510.121094 986.96875 1514.488281 988.839844 C 1518.859375 990.730469 1523.121094 992.691406 1527.230469 994.78125 C 1535.449219 998.960938 1543.21875 1003.339844 1550.550781 1007.921875 C 1557.890625 1012.5 1564.789062 1017.269531 1571.269531 1022.230469 C 1577.738281 1027.199219 1583.789062 1032.351562 1589.441406 1037.679688 C 1595.089844 1043.011719 1600.339844 1048.53125 1605.179688 1054.199219 C 1610.03125 1059.878906 1614.5 1065.71875 1618.570312 1071.730469 C 1622.648438 1077.730469 1626.339844 1083.910156 1629.679688 1090.21875 C 1633.011719 1096.539062 1635.980469 1102.980469 1638.601562 1109.589844 C 1641.21875 1116.199219 1643.5 1122.941406 1645.441406 1129.828125 C 1647.378906 1136.710938 1648.96875 1143.75 1650.25 1150.890625 C 1651.53125 1158.019531 1652.5 1165.289062 1653.160156 1172.671875 C 1653.820312 1180.039062 1654.171875 1187.539062 1654.230469 1195.140625 C 1654.28125 1202.730469 1654.03125 1210.421875 1653.550781 1218.21875 C 1653.039062 1226.019531 1652.238281 1233.910156 1651.191406 1241.890625 C 1650.140625 1249.871094 1648.828125 1257.941406 1647.269531 1266.101562 C 1645.710938 1274.238281 1643.898438 1282.46875 1641.859375 1290.769531 C 1639.808594 1299.058594 1637.539062 1307.441406 1635.050781 1315.871094 C 1632.539062 1324.289062 1629.851562 1332.769531 1626.929688 1341.308594 C 1624 1349.839844 1620.878906 1358.441406 1617.570312 1367.070312 C 1614.25 1375.699219 1610.730469 1384.378906 1607.050781 1393.089844 C 1603.371094 1401.789062 1599.519531 1410.519531 1595.5 1419.289062 C 1591.480469 1428.050781 1587.289062 1436.828125 1582.960938 1445.628906 C 1578.640625 1454.429688 1574.140625 1463.25 1569.539062 1472.078125 C 1564.929688 1480.898438 1560.191406 1489.730469 1555.339844 1498.550781 C 1550.46875 1507.371094 1545.5 1516.179688 1540.410156 1524.988281 C 1530.25 1542.609375 1519.671875 1560.179688 1508.789062 1577.628906 C 1497.910156 1595.078125 1486.738281 1612.410156 1475.378906 1629.539062 C 1464.011719 1646.671875 1452.449219 1663.589844 1440.839844 1680.25 C 1429.21875 1696.921875 1417.539062 1713.320312 1405.890625 1729.378906 C 1402.980469 1733.398438 1399.851562 1737.519531 1396.488281 1741.710938 C 1393.128906 1745.910156 1389.539062 1750.191406 1385.75 1754.558594 C 1378.160156 1763.28125 1369.71875 1772.328125 1360.5 1781.691406 C 1351.269531 1791.058594 1341.25 1800.75 1330.511719 1810.691406 C 1319.769531 1820.628906 1308.289062 1830.839844 1296.160156 1841.289062 C 1284.039062 1851.75 1271.25 1862.429688 1257.851562 1873.339844 C 1244.460938 1884.25 1230.46875 1895.378906 1215.941406 1906.679688 C 1201.410156 1917.980469 1186.339844 1929.441406 1170.789062 1941.078125 C 1155.25 1952.710938 1139.230469 1964.511719 1122.800781 1976.410156 C 1106.371094 1988.308594 1089.53125 2000.320312 1072.339844 2012.429688 C 1055.148438 2024.53125 1037.589844 2036.730469 1019.769531 2048.988281 C 984.117188 2073.5 947.324219 2098.230469 909.886719 2122.960938 C 872.449219 2147.691406 834.363281 2172.410156 796.148438 2196.871094 C 757.929688 2221.339844 719.578125 2245.550781 681.582031 2269.25 C 643.589844 2292.960938 605.953125 2316.128906 569.1875 2338.589844 C 532.425781 2361.039062 496.527344 2382.75 462 2403.460938 C 427.472656 2424.179688 394.320312 2443.890625 363.035156 2462.378906 C 331.746094 2480.871094 302.332031 2498.121094 275.292969 2513.890625 C 256.957031 2524.570312 247.308594 2530.019531 231.316406 2539.269531 C 248.390625 2296.300781 306.566406 1489.859375 333.84375 1411.238281 C 365.730469 1319.328125 451.84375 1194.75 451.84375 1194.75 Z M 451.832031 1194.75 "/>
<path fill-rule="nonzero" fill="rgb(0%, 0%, 0%)" fill-opacity="1" d="M 493.765625 3386.121094 C 499.421875 3377.851562 504.808594 3369.203125 510.5625 3361.066406 C 528.886719 3335.15625 547.703125 3309.933594 566.949219 3285.371094 C 586.195312 3260.804688 605.882812 3236.90625 625.96875 3213.652344 C 646.050781 3190.398438 666.523438 3167.769531 687.363281 3145.792969 C 708.199219 3123.820312 729.402344 3102.476562 750.902344 3081.75 C 772.40625 3061.019531 794.207031 3040.894531 816.289062 3021.375 C 838.371094 3001.859375 860.726562 2982.945312 883.300781 2964.605469 C 905.875 2946.269531 928.664062 2928.527344 951.644531 2911.335938 C 974.625 2894.148438 997.800781 2877.511719 1021.101562 2861.433594 C 1044.398438 2845.355469 1067.851562 2829.847656 1091.378906 2814.855469 C 1114.921875 2799.859375 1138.539062 2785.394531 1162.210938 2771.449219 C 1185.898438 2757.503906 1209.640625 2744.070312 1233.390625 2731.140625 C 1257.128906 2718.210938 1280.890625 2705.761719 1304.609375 2693.808594 C 1328.320312 2681.859375 1351.988281 2670.410156 1375.601562 2659.410156 C 1399.210938 2648.410156 1422.761719 2637.871094 1446.171875 2627.789062 C 1492.988281 2607.621094 1539.320312 2589.25 1584.828125 2572.550781 C 1630.339844 2555.859375 1675.011719 2540.828125 1718.519531 2527.339844 C 1762.03125 2513.851562 1804.351562 2501.890625 1845.160156 2491.339844 C 1885.980469 2480.789062 1925.269531 2471.628906 1962.710938 2463.761719 C 2000.140625 2455.890625 2035.710938 2449.308594 2069.070312 2443.851562 C 2102.429688 2438.390625 2133.578125 2434.070312 2162.171875 2430.761719 C 2190.769531 2427.449219 2216.820312 2425.160156 2239.960938 2423.738281 C 2263.101562 2422.320312 2283.339844 2421.78125 2300.328125 2421.988281 C 2334.320312 2422.378906 2368.398438 2421.988281 2402.238281 2420.871094 C 2436.070312 2419.75 2469.660156 2417.910156 2502.648438 2415.46875 C 2535.640625 2413.019531 2568.019531 2409.960938 2599.480469 2406.410156 C 2630.929688 2402.851562 2661.46875 2398.800781 2690.699219 2394.339844 C 2719.929688 2389.878906 2747.878906 2385.019531 2774.199219 2379.871094 C 2800.519531 2374.71875 2825.199219 2369.261719 2847.910156 2363.628906 C 2870.628906 2358 2891.390625 2352.199219 2909.808594 2346.300781 C 2928.238281 2340.410156 2944.339844 2334.410156 2957.789062 2328.460938 C 2971.230469 2322.5 2986.660156 2316.558594 3003.390625 2310.730469 C 3020.121094 2304.910156 3038.140625 2299.210938 3056.730469 2293.691406 C 3093.910156 2282.648438 3133.390625 2272.390625 3169.519531 2263.621094 C 3241.78125 2246.089844 3300.601562 2234.53125 3300.601562 2234.53125 C 3300.601562 2234.53125 3382.199219 2271.410156 3322.019531 2370.679688 C 3261.839844 2469.941406 2723.648438 2660.820312 2432.121094 2808.550781 C 2140.589844 2956.277344 1722.429688 2974.253906 1722.429688 2974.253906 C 1462.789062 3030.0625 674.789062 3520.453125 598.195312 3493.878906 C 577.472656 3486.691406 538.925781 3444.550781 493.765625 3386.121094 Z M 493.765625 3386.121094 "/>
<path fill-rule="nonzero" fill="rgb(89.451599%, 12.939453%, 27.050781%)" fill-opacity="1" d="M 2360.429688 368.648438 C 2974.128906 578.761719 3545.320312 1010.070312 3561.011719 1063.378906 C 3580.710938 1130.289062 3398.449219 1358.839844 3398.449219 1358.839844 L 3355.289062 1532.640625 C 3355.289062 1532.640625 3491 1759.921875 3453.480469 1892.789062 C 3415.96875 2025.660156 3300.601562 2234.53125 3300.601562 2234.53125 C 3300.601562 2234.53125 3241.78125 2246.089844 3169.519531 2263.621094 C 3133.390625 2272.390625 3093.910156 2282.648438 3056.730469 2293.691406 C 3038.140625 2299.210938 3020.121094 2304.910156 3003.390625 2310.730469 C 2986.660156 2316.558594 2971.230469 2322.5 2957.789062 2328.460938 C 2944.339844 2334.410156 2928.238281 2340.410156 2909.808594 2346.300781 C 2891.390625 2352.199219 2870.628906 2358 2847.910156 2363.628906 C 2825.199219 2369.269531 2800.519531 2374.71875 2774.199219 2379.871094 C 2747.878906 2385.019531 2719.929688 2389.890625 2690.699219 2394.339844 C 2661.46875 2398.800781 2630.929688 2402.851562 2599.480469 2406.410156 C 2568.019531 2409.96875 2535.640625 2413.019531 2502.648438 2415.46875 C 2469.660156 2417.910156 2436.070312 2419.75 2402.238281 2420.871094 C 2368.398438 2422 2334.320312 2422.410156 2300.328125 2421.988281 C 2283.339844 2421.789062 2263.101562 2422.339844 2239.960938 2423.738281 C 2216.820312 2425.160156 2190.769531 2427.460938 2162.171875 2430.761719 C 2133.578125 2434.070312 2102.429688 2438.390625 2069.070312 2443.851562 C 2035.710938 2449.308594 2000.140625 2455.890625 1962.710938 2463.761719 C 1925.269531 2471.628906 1885.980469 2480.789062 1845.160156 2491.339844 C 1804.351562 2501.890625 1762.03125 2513.851562 1718.519531 2527.339844 C 1675.011719 2540.839844 1630.339844 2555.859375 1584.828125 2572.558594 C 1539.320312 2589.261719 1492.988281 2607.621094 1446.171875 2627.789062 C 1422.761719 2637.871094 1399.210938 2648.410156 1375.601562 2659.410156 C 1351.988281 2670.410156 1328.320312 2681.859375 1304.609375 2693.808594 C 1280.890625 2705.761719 1257.128906 2718.210938 1233.390625 2731.140625 C 1209.640625 2744.078125 1185.898438 2757.503906 1162.210938 2771.449219 C 1138.539062 2785.398438 1114.921875 2799.859375 1091.378906 2814.855469 C 1067.851562 2829.851562 1044.398438 2845.359375 1021.101562 2861.433594 C 997.800781 2877.511719 974.625 2894.148438 951.644531 2911.335938 C 928.664062 2928.527344 905.875 2946.269531 883.300781 2964.609375 C 860.726562 2982.945312 838.371094 3001.859375 816.289062 3021.378906 C 794.207031 3040.894531 772.40625 3061.019531 750.902344 3081.75 C 729.402344 3102.480469 708.199219 3123.820312 687.363281 3145.796875 C 666.523438 3167.773438 646.050781 3190.398438 625.96875 3213.652344 C 605.882812 3236.90625 586.195312 3260.804688 566.949219 3285.371094 C 547.703125 3309.9375 528.886719 3335.15625 510.5625 3361.066406 C 504.808594 3369.203125 499.421875 3377.851562 493.765625 3386.125 C 371.984375 3228.570312 200.675781 2948.914062 190.179688 2888.933594 C 175.800781 2806.710938 223.945312 2643.191406 223.945312 2643.191406 C 223.945312 2643.191406 228.410156 2580.378906 231.300781 2539.28125 C 247.292969 2530.03125 256.945312 2524.589844 275.277344 2513.890625 C 302.320312 2498.121094 331.734375 2480.878906 363.023438 2462.390625 C 394.308594 2443.898438 427.460938 2424.191406 461.988281 2403.46875 C 496.515625 2382.761719 532.410156 2361.050781 569.175781 2338.601562 C 605.9375 2316.140625 643.578125 2292.960938 681.570312 2269.261719 C 719.5625 2245.558594 757.914062 2221.339844 796.132812 2196.890625 C 834.351562 2172.421875 872.433594 2147.699219 909.871094 2122.96875 C 947.3125 2098.238281 984.105469 2073.511719 1019.761719 2049 C 1037.578125 2036.738281 1055.140625 2024.539062 1072.328125 2012.441406 C 1089.519531 2000.328125 1106.359375 1988.308594 1122.789062 1976.410156 C 1139.210938 1964.519531 1155.230469 1952.710938 1170.78125 1941.089844 C 1186.320312 1929.449219 1201.390625 1917.988281 1215.929688 1906.691406 C 1230.460938 1895.390625 1244.441406 1884.25 1257.839844 1873.351562 C 1271.230469 1862.441406 1284.019531 1851.761719 1296.148438 1841.300781 C 1308.28125 1830.839844 1319.75 1820.640625 1330.488281 1810.691406 C 1341.230469 1800.761719 1351.261719 1791.070312 1360.480469 1781.699219 C 1369.710938 1772.339844 1378.148438 1763.289062 1385.730469 1754.558594 C 1389.53125 1750.199219 1393.121094 1745.910156 1396.480469 1741.71875 C 1399.839844 1737.53125 1402.96875 1733.410156 1405.878906 1729.390625 C 1417.519531 1713.328125 1429.210938 1696.929688 1440.820312 1680.261719 C 1452.441406 1663.589844 1464 1646.679688 1475.359375 1629.550781 C 1486.730469 1612.421875 1497.890625 1595.089844 1508.769531 1577.640625 C 1519.648438 1560.191406 1530.238281 1542.621094 1540.398438 1525 C 1545.480469 1516.191406 1550.460938 1507.378906 1555.320312 1498.558594 C 1560.191406 1489.730469 1564.910156 1480.910156 1569.519531 1472.089844 C 1574.128906 1463.269531 1578.628906 1454.441406 1582.949219 1445.640625 C 1587.28125 1436.839844 1591.460938 1428.058594 1595.480469 1419.289062 C 1599.5 1410.53125 1603.359375 1401.808594 1607.039062 1393.101562 C 1610.71875 1384.390625 1614.238281 1375.710938 1617.550781 1367.078125 C 1620.859375 1358.449219 1624 1349.859375 1626.910156 1341.308594 C 1629.828125 1332.78125 1632.550781 1324.308594 1635.03125 1315.878906 C 1637.539062 1307.449219 1639.800781 1299.070312 1641.839844 1290.769531 C 1643.890625 1282.480469 1645.691406 1274.25 1647.261719 1266.109375 C 1648.820312 1257.960938 1650.128906 1249.878906 1651.179688 1241.890625 C 1652.21875 1233.910156 1653.019531 1226.019531 1653.539062 1218.230469 C 1654.039062 1210.429688 1654.28125 1202.738281 1654.21875 1195.140625 C 1654.171875 1187.550781 1653.820312 1180.050781 1653.148438 1172.679688 C 1652.488281 1165.300781 1651.519531 1158.039062 1650.238281 1150.890625 C 1648.949219 1143.75 1647.359375 1136.71875 1645.421875 1129.839844 C 1643.480469 1122.949219 1641.210938 1116.199219 1638.589844 1109.601562 C 1635.960938 1102.988281 1633 1096.550781 1629.660156 1090.230469 C 1626.320312 1083.910156 1622.640625 1077.738281 1618.558594 1071.738281 C 1614.480469 1065.730469 1610.019531 1059.890625 1605.171875 1054.210938 C 1600.320312 1048.539062 1595.078125 1043.019531 1589.429688 1037.691406 C 1583.78125 1032.359375 1577.730469 1027.210938 1571.25 1022.238281 C 1564.769531 1017.28125 1557.878906 1012.511719 1550.539062 1007.929688 C 1543.199219 1003.351562 1535.441406 998.96875 1527.21875 994.800781 C 1523.109375 992.699219 1518.851562 990.71875 1514.480469 988.851562 C 1510.109375 986.96875 1505.609375 985.238281 1500.980469 983.601562 C 1496.351562 981.960938 1491.621094 980.410156 1486.75 978.980469 C 1481.878906 977.558594 1476.878906 976.210938 1471.78125 974.988281 C 1466.679688 973.761719 1461.460938 972.640625 1456.140625 971.621094 C 1450.820312 970.601562 1445.390625 969.648438 1439.859375 968.820312 C 1428.800781 967.160156 1417.328125 965.898438 1405.480469 964.980469 C 1393.640625 964.058594 1381.410156 963.511719 1368.871094 963.28125 C 1356.320312 963.03125 1343.460938 963.128906 1330.300781 963.578125 C 1317.128906 963.980469 1303.671875 964.738281 1289.980469 965.75 C 1276.289062 966.761719 1262.351562 968.058594 1248.210938 969.621094 C 1234.070312 971.179688 1219.699219 973 1205.191406 975.058594 C 1190.679688 977.109375 1176.011719 979.398438 1161.21875 981.898438 C 1146.429688 984.410156 1131.519531 987.140625 1116.53125 990.039062 C 1101.539062 992.949219 1086.460938 996.03125 1071.351562 999.289062 C 1056.230469 1002.539062 1041.078125 1005.949219 1025.929688 1009.511719 C 1010.789062 1013.070312 995.648438 1016.769531 980.550781 1020.589844 C 965.457031 1024.390625 950.414062 1028.308594 935.453125 1032.320312 C 920.488281 1036.339844 905.613281 1040.449219 890.867188 1044.621094 C 861.371094 1052.960938 832.382812 1061.550781 804.246094 1070.210938 C 776.113281 1078.878906 748.832031 1087.609375 722.722656 1096.210938 C 696.609375 1104.820312 671.664062 1113.289062 648.242188 1121.441406 C 624.824219 1129.578125 602.921875 1137.390625 582.855469 1144.691406 C 562.789062 1151.980469 544.570312 1158.769531 528.523438 1164.828125 C 512.476562 1170.890625 498.601562 1176.230469 487.242188 1180.660156 C 464.515625 1189.519531 451.820312 1194.75 451.820312 1194.75 C 577.023438 809.109375 1135.859375 187.730469 1891.351562 261.019531 C 2044.808594 275.910156 2203.988281 315.101562 2360.421875 368.648438 Z M 2360.429688 368.648438 "/>
<path fill-rule="nonzero" fill="rgb(69.726562%, 8.616638%, 18.821716%)" fill-opacity="1" d="M 3512.589844 1064.230469 C 3532.679688 1071.519531 3545.089844 1090.960938 3552.691406 1114.101562 C 3519.371094 1206.328125 3398.449219 1358.839844 3398.449219 1358.839844 C 3160.808594 1265 2939.921875 1471.921875 2808.609375 1638.488281 C 2894.089844 1479.441406 2989.539062 1318.121094 3144.460938 1143.199219 C 3144.460938 1143.199219 3435.699219 1047.039062 3506.21875 1062.410156 C 3508.421875 1062.910156 3510.550781 1063.488281 3512.578125 1064.25 Z M 3512.589844 1064.230469 "/>
<path fill-rule="nonzero" fill="rgb(69.726562%, 8.616638%, 18.821716%)" fill-opacity="1" d="M 3297.660156 1663.601562 C 3297.660156 1663.601562 3151.53125 1752.46875 3149.761719 1897.488281 C 3148.519531 1999.398438 3066.230469 2196.851562 3016.988281 2306.390625 C 3012.570312 2307.859375 3007.648438 2309.25 3003.390625 2310.730469 C 2986.660156 2316.558594 2971.230469 2322.5 2957.789062 2328.460938 C 2944.339844 2334.410156 2928.238281 2340.398438 2909.808594 2346.300781 C 2891.390625 2352.199219 2870.628906 2358 2847.910156 2363.628906 C 2825.199219 2369.261719 2800.519531 2374.71875 2774.199219 2379.871094 C 2747.878906 2385.019531 2719.929688 2389.878906 2690.699219 2394.339844 C 2661.46875 2398.800781 2630.929688 2402.851562 2599.480469 2406.410156 C 2568.019531 2409.960938 2535.640625 2413.019531 2502.648438 2415.460938 C 2469.660156 2417.910156 2436.070312 2419.75 2402.238281 2420.871094 C 2368.398438 2421.988281 2334.320312 2422.398438 2300.328125 2421.988281 C 2283.339844 2421.789062 2263.101562 2422.339844 2239.960938 2423.738281 C 2216.820312 2425.160156 2190.769531 2427.460938 2162.171875 2430.761719 C 2133.578125 2434.070312 2102.429688 2438.390625 2069.070312 2443.851562 C 2035.710938 2449.308594 2000.140625 2455.890625 1962.710938 2463.761719 C 1925.269531 2471.628906 1885.980469 2480.789062 1845.160156 2491.339844 C 1804.351562 2501.890625 1762.03125 2513.851562 1718.519531 2527.339844 C 1675.011719 2540.828125 1630.339844 2555.859375 1584.828125 2572.550781 C 1539.320312 2589.25 1492.988281 2607.621094 1446.171875 2627.789062 C 1422.761719 2637.871094 1399.210938 2648.410156 1375.601562 2659.410156 C 1351.988281 2670.410156 1328.320312 2681.859375 1304.609375 2693.808594 C 1280.890625 2705.761719 1257.128906 2718.210938 1233.390625 2731.140625 C 1209.640625 2744.070312 1185.898438 2757.503906 1162.210938 2771.449219 C 1138.539062 2785.394531 1114.921875 2799.859375 1091.378906 2814.855469 C 1067.851562 2829.847656 1044.398438 2845.355469 1021.101562 2861.433594 C 997.800781 2877.507812 974.625 2894.144531 951.644531 2911.335938 C 928.664062 2928.527344 905.875 2946.269531 883.300781 2964.605469 C 860.726562 2982.945312 838.371094 3001.859375 816.289062 3021.375 C 794.207031 3040.894531 772.40625 3061.019531 750.902344 3081.75 C 729.402344 3102.476562 708.199219 3123.820312 687.363281 3145.792969 C 666.523438 3167.769531 646.050781 3190.398438 625.96875 3213.652344 C 605.882812 3236.90625 586.195312 3260.804688 566.949219 3285.367188 C 547.703125 3309.933594 528.886719 3335.15625 510.5625 3361.066406 C 504.8125 3369.203125 499.421875 3377.851562 493.765625 3386.121094 C 371.984375 3228.570312 200.675781 2948.910156 190.179688 2888.929688 C 175.800781 2806.710938 223.945312 2643.179688 223.945312 2643.179688 C 223.945312 2643.179688 224.140625 2640.171875 224.140625 2640.058594 C 1016.53125 2355.929688 1560.898438 1708.230469 1560.898438 1708.230469 C 1523.371094 2328.199219 1362.210938 2404.929688 1330.109375 2414.128906 C 1970.980469 2265.148438 2626.148438 1570.210938 2626.148438 1570.210938 L 2457.261719 2039.53125 C 2704.300781 1852.171875 3297.640625 1663.601562 3297.640625 1663.601562 Z M 3297.660156 1663.601562 "/>
<path fill-rule="nonzero" fill="rgb(91.796875%, 31.762695%, 42.747498%)" fill-opacity="1" d="M 2776.039062 875.828125 C 2776.039062 875.828125 2341.960938 342.949219 1683.070312 405.640625 C 1024.179688 468.320312 905.695312 967.28125 905.695312 967.28125 L 1432.941406 846.78125 C 1422.558594 838.980469 1554.03125 152.21875 2776.039062 875.828125 Z M 2776.039062 875.828125 "/>
<path fill-rule="nonzero" fill="rgb(19.993591%, 19.993591%, 19.993591%)" fill-opacity="1" d="M 1217.730469 1099.808594 C 1217.730469 1099.808594 972.460938 1142.140625 841.148438 1205.808594 C 841.148438 1205.808594 1056.261719 1705.199219 770.3125 2109.648438 C 770.3125 2109.648438 1071.730469 1922.949219 1226.480469 1721.78125 C 1226.480469 1721.78125 943.179688 1611.359375 1217.730469 1099.808594 Z M 1217.730469 1099.808594 "/>
<path fill-rule="nonzero" fill="rgb(69.726562%, 8.616638%, 18.821716%)" fill-opacity="1" d="M 1730.621094 1562.929688 C 1730.621094 1562.929688 2090.839844 1145.46875 1696.128906 922.730469 L 2776.601562 1048.691406 C 2776.601562 1048.691406 2494.328125 1486.398438 1730.621094 1562.929688 Z M 1730.621094 1562.929688 "/>
<path fill-rule="nonzero" fill="rgb(91.796875%, 31.762695%, 42.747498%)" fill-opacity="1" d="M 2237.53125 1623.488281 L 1835.519531 1732.820312 L 1690.179688 2204.25 C 1690.179688 2204.25 2125.789062 2015.558594 2237.53125 1623.488281 Z M 2237.53125 1623.488281 "/>
</svg>
