<?xml version="1.0" encoding="UTF-8" standalone="no"?>
<svg
   width="512"
   height="512"
   viewBox="0 0 512 512"
   version="1.1"
   id="svg11"
   sodipodi:docname="logo-example-1.svg"
   inkscape:version="1.4 (e7c3feb1, 2024-10-09)"
   xmlns:inkscape="http://www.inkscape.org/namespaces/inkscape"
   xmlns:sodipodi="http://sodipodi.sourceforge.net/DTD/sodipodi-0.dtd"
   xmlns="http://www.w3.org/2000/svg"
   xmlns:svg="http://www.w3.org/2000/svg">
  <defs
     id="defs11" />
  <sodipodi:namedview
     id="namedview11"
     pagecolor="#ffffff"
     bordercolor="#000000"
     borderopacity="0.25"
     inkscape:showpageshadow="2"
     inkscape:pageopacity="0.0"
     inkscape:pagecheckerboard="0"
     inkscape:deskcolor="#d1d1d1"
     inkscape:zoom="0.45859457"
     inkscape:cx="53.424095"
     inkscape:cy="168.99459"
     inkscape:window-width="1440"
     inkscape:window-height="900"
     inkscape:window-x="0"
     inkscape:window-y="0"
     inkscape:window-maximized="0"
     inkscape:current-layer="svg11" />
  <rect
     x="0"
     y="0"
     width="512"
     height="512"
     fill="#ffffff"
     fill-opacity="1"
     id="rect1"
     style="stroke-width:0.113778" />
  <path
     fill-rule="nonzero"
     fill="#7feb19"
     fill-opacity="1"
     d="M 248.14356,67.93778 C 180.464,68.81511 139.55644,100.53867 139.55644,100.53867 l -2.27422,9.09066 c -34.08489,22.72267 -52.01066,85.868 -52.01066,85.868 L 80.05111,197.104 74.828,208.35111 72.81911,344.92622 c 0,0 -8.81911,8.976 -8.81911,19.20134 0,10.22533 47.15156,73.84977 47.15156,73.84977 l 5.112,0.56978 c 0,0 1.356,-1.72711 3.92933,-4.77689 1.28667,-1.52444 2.87733,-3.38089 4.756,-5.51689 1.87867,-2.13555 4.04444,-4.55066 6.48133,-7.19689 1.21822,-1.32266 2.50578,-2.70311 3.85734,-4.13466 1.35155,-1.432 2.76755,-2.916 4.24844,-4.44356 1.48044,-1.528 3.02533,-3.1 4.63022,-4.71111 1.60534,-1.61111 3.27156,-3.26089 4.99689,-4.94311 1.72533,-1.68222 3.51067,-3.396 5.35245,-5.13644 1.84177,-1.74045 3.74044,-3.50667 5.69377,-5.29289 1.95378,-1.78578 3.96178,-3.59067 6.02223,-5.40978 2.06177,-1.81911 4.17555,-3.65289 6.33955,-5.49245 2.16445,-1.83911 4.37822,-3.684 6.64133,-5.53111 2.26445,-1.84711 4.576,-3.69689 6.93467,-5.53955 2.35778,-1.84222 4.764,-3.67734 7.21245,-5.50222 2.44977,-1.82534 4.94133,-3.63956 7.47644,-5.43467 2.53511,-1.79511 5.112,-3.57111 7.73022,-5.32445 2.61689,-1.752 5.27467,-3.47911 7.96889,-5.17688 2.69511,-1.69734 5.42845,-3.36312 8.19645,-4.99245 1.38488,-0.81467 2.77866,-1.62133 4.18044,-2.41644 1.40267,-0.79556 2.81111,-1.58178 4.23022,-2.35645 1.41867,-0.77378 2.84756,-1.536 4.28222,-2.288 1.436,-0.752 2.88,-1.49289 4.33156,-2.22089 1.45067,-0.72844 2.90844,-1.444 4.37511,-2.14711 1.46622,-0.70222 2.94311,-1.39155 4.42445,-2.06622 1.48266,-0.67467 2.97111,-1.33556 4.46711,-1.98222 1.496,-0.64711 2.99911,-1.27734 4.50889,-1.89422 1.50977,-0.61556 3.02666,-1.21734 4.55111,-1.80089 1.52266,-0.584 3.05289,-1.15156 4.58889,-1.70223 1.536,-0.55066 3.07866,-1.08444 4.62711,-1.6 1.54755,-0.51511 3.10266,-1.01333 4.66266,-1.49244 1.56,-0.47911 3.12534,-0.94 4.69689,-1.38044 1.57111,-0.44 3.14934,-0.86089 4.73067,-1.26267 1.58266,-0.40045 3.16889,-0.78178 4.76044,-1.14133 1.59289,-0.35823 3.18934,-0.69645 4.79111,-1.01378 1.60223,-0.316 3.20978,-0.612 4.82,-0.884 1.61111,-0.272 3.22534,-0.52 4.84445,-0.74622 3.23822,-0.452 6.39111,-0.90578 9.45822,-1.36312 3.06889,-0.45733 6.05333,-0.91688 8.95556,-1.37777 2.90266,-0.46089 5.72177,-0.92045 8.464,-1.38356 2.74089,-0.46311 5.40222,-0.92844 7.98622,-1.39289 2.58355,-0.464 5.09022,-0.92711 7.52178,-1.39155 2.43155,-0.464 4.78755,-0.92711 7.07111,-1.39023 2.28355,-0.46311 4.49333,-0.92488 6.63333,-1.38577 2.14,-0.45956 4.20978,-0.91823 6.20978,-1.37556 2.00044,-0.45644 3.93244,-0.90889 5.79822,-1.36089 1.86622,-0.45155 3.66622,-0.90222 5.40222,-1.34711 3.47156,-0.89067 6.68667,-1.76933 9.66445,-2.62711 2.97733,-0.86 5.716,-1.69956 8.23511,-2.51778 2.51911,-0.81689 4.81867,-1.61111 6.91422,-2.37689 2.09689,-0.76577 3.99156,-1.504 5.70045,-2.20844 1.70888,-0.70445 3.23333,-1.37556 4.59199,-2.00933 1.35734,-0.63245 2.54978,-1.22534 3.59201,-1.77823 1.04311,-0.552 1.93511,-1.06266 2.69777,-1.52355 0.76311,-0.46178 1.39378,-0.87511 1.91245,-1.23556 0.51866,-0.36089 0.924,-0.66889 1.23333,-0.91955 0.62,-0.50045 0.86,-0.76889 0.86,-0.76889 0,0 17.27156,-49.81067 17.27156,-58.648 0,-8.83689 -5.62267,-13.65689 -5.62267,-13.65689 l -6.42844,-27.716 L 448,151.312 C 369.61956,85.23333 300.784,67.25511 248.14356,67.93778 Z m 0,0"
     id="path1"
     style="stroke-width:0.113778" />
  <path
     fill-rule="nonzero"
     fill="#1a1a1a"
     fill-opacity="1"
     d="M 223.02711,165.21556 C 175.904,164.64311 85.27156,195.49733 85.27156,195.49733 L 80.05111,197.104 74.828,208.35111 72.81911,344.92622 c 0,0 46.19511,-21.69155 97.612,-54.22844 51.416,-32.53734 103.23511,-100.82534 75.116,-120.508 -4.83333,-3.38356 -12.73955,-4.85467 -22.52,-4.97422 z m 0,0"
     id="path2"
     style="stroke-width:0.113778" />
  <path
     fill-rule="nonzero"
     fill="#1a1a1a"
     fill-opacity="1"
     d="m 425.50711,281.86178 c 0,0 -0.24,0.26844 -0.86,0.76889 -0.30933,0.25066 -0.71467,0.55866 -1.23333,0.91955 -0.51867,0.36045 -1.14934,0.77378 -1.91245,1.23556 -0.76266,0.46089 -1.65466,0.97155 -2.69777,1.52355 -1.04223,0.55289 -2.23467,1.14578 -3.59201,1.77823 -1.35866,0.63377 -2.88311,1.30488 -4.59199,2.00933 -1.70889,0.70444 -3.60356,1.44267 -5.70045,2.20844 -2.09555,0.76578 -4.39511,1.56 -6.91422,2.37689 -2.51911,0.81822 -5.25778,1.65778 -8.23511,2.51778 -2.97778,0.85778 -6.19289,1.73644 -9.66445,2.62711 -1.736,0.44489 -3.536,0.89556 -5.40222,1.34711 -1.86578,0.452 -3.79778,0.90445 -5.79822,1.36089 -2,0.45733 -4.06978,0.916 -6.20978,1.37556 -2.14,0.46089 -4.34978,0.92266 -6.63333,1.38577 -2.28356,0.46312 -4.63956,0.92623 -7.07111,1.39023 -2.43156,0.46444 -4.93823,0.92755 -7.52178,1.39155 -2.584,0.46445 -5.24533,0.92978 -7.98622,1.39289 -2.74222,0.46311 -5.56134,0.92267 -8.464,1.38356 -2.90223,0.46089 -5.88667,0.92044 -8.95556,1.37777 -3.06711,0.45734 -6.22,0.91112 -9.45822,1.36312 -1.61911,0.22622 -3.23334,0.47422 -4.84445,0.74622 -1.61022,0.272 -3.21777,0.568 -4.82,0.884 -1.60177,0.31733 -3.19822,0.65422 -4.79111,1.01378 -1.59155,0.35955 -3.17777,0.74089 -4.76044,1.14133 -1.58133,0.40178 -3.15956,0.82267 -4.73067,1.26267 -1.57155,0.44044 -3.13689,0.90133 -4.69689,1.38044 -1.56,0.47911 -3.11511,0.97733 -4.66266,1.49244 -1.54845,0.51556 -3.09111,1.04934 -4.62711,1.6 -1.536,0.55067 -3.06623,1.11823 -4.58889,1.70223 -1.52445,0.58355 -3.04134,1.18533 -4.55111,1.80089 -1.50978,0.61688 -3.01289,1.24711 -4.50889,1.89422 -1.496,0.64666 -2.98445,1.30755 -4.46711,1.98222 -1.48134,0.67467 -2.95823,1.364 -4.42445,2.06622 -1.46667,0.70311 -2.92444,1.41867 -4.37511,2.14711 -1.45156,0.728 -2.89556,1.46889 -4.33156,2.22089 -1.43466,0.752 -2.86355,1.51422 -4.28222,2.288 -1.41911,0.77467 -2.82755,1.56089 -4.23022,2.35645 -1.40178,0.79511 -2.79556,1.60177 -4.18044,2.41644 -2.768,1.62934 -5.50134,3.29511 -8.19645,4.99245 -2.69422,1.69777 -5.352,3.42488 -7.96889,5.17688 -2.61822,1.75334 -5.19511,3.52934 -7.73022,5.32445 -2.53511,1.79511 -5.02667,3.60933 -7.47644,5.43467 -2.44845,1.82488 -4.85467,3.66 -7.21245,5.50222 -2.35867,1.84266 -4.67022,3.69244 -6.93467,5.53955 -2.26311,1.84711 -4.47688,3.692 -6.64133,5.53111 -2.164,1.83956 -4.27778,3.67334 -6.33955,5.49245 -2.06045,1.81911 -4.06845,3.624 -6.02223,5.40978 -1.95333,1.78622 -3.852,3.55244 -5.69377,5.29289 -1.84178,1.74044 -3.62712,3.45422 -5.35245,5.13644 -1.72533,1.68222 -3.39155,3.332 -4.99689,4.94311 -1.60489,1.61111 -3.14978,3.18311 -4.63022,4.71111 -1.48089,1.52756 -2.89689,3.01156 -4.24844,4.44356 -1.35156,1.43155 -2.63912,2.812 -3.85734,4.13466 -2.43689,2.64623 -4.60266,5.06134 -6.48133,7.19689 -1.87867,2.136 -3.46933,3.99245 -4.756,5.51689 -2.57333,3.04978 -3.92933,4.77689 -3.92933,4.77689 l 3.97644,4.544 h 10.79333 c 0,0 2.84045,7.38445 27.268,-18.17911 24.42711,-25.56355 124.41023,-59.64711 176.10623,-72.14533 51.69511,-12.49734 95.91955,-59.25645 95.91955,-61.66623 0,-2.40977 -4.82,-9.23866 -4.82,-9.23866 z m 0,0"
     id="path3"
     style="stroke-width:0.113778" />
  <path
     fill-rule="nonzero"
     fill="#47b20f"
     fill-opacity="1"
     d="m 442.56489,220.44889 c -63.17067,10.81911 -173.71822,91.53867 -173.71822,91.53867 0,0 33.18,-12.05334 67.83333,-12.62134 25.85333,-0.42311 70.33511,-16.64889 91.27111,-24.86578 3.60356,-10.54266 14.82756,-43.7 14.82756,-51.28666 0,-0.97867 -0.0911,-1.88756 -0.21289,-2.76489 z m 0,0"
     id="path4"
     style="stroke-width:0.113778" />
  <path
     fill-rule="nonzero"
     fill="#1a1a1a"
     fill-opacity="1"
     d="m 78.84533,383.08756 c 0,0 -10.444,-16.06756 -10.444,-21.69111 0,-5.62356 14.86267,-12.85423 14.86267,-12.85423 0,0 -8.83733,20.08489 -4.41867,34.54534 z m 0,0"
     id="path5"
     style="stroke-width:0.113778" />
  <path
     fill-rule="nonzero"
     fill="#47b20f"
     fill-opacity="1"
     d="m 114.19422,422.85556 c 0,0 -18.87955,-52.62178 3.21378,-77.52623 C 139.50089,320.42311 374.08889,191.48 211.80533,140.064 c 0,0 86.76578,-19.28089 125.32845,8.03378 38.56266,27.31466 1.60666,107.65289 1.60666,107.65289 0,0 -151.84,75.51911 -224.54622,167.10489 z m 0,0"
     id="path6"
     style="stroke-width:0.113778" />
  <path
     fill-rule="nonzero"
     fill="#47b20f"
     fill-opacity="1"
     d="m 354.85689,243.12711 c 0,0 27.83689,-43.74178 0.56889,-96.00578 l 45.44622,22.724 c 0,0 -35.78889,72.14534 -46.01511,73.28178 z m 0,0"
     id="path7"
     style="stroke-width:0.113778" />
  <path
     fill-rule="nonzero"
     fill="#1a1a1a"
     fill-opacity="1"
     d="M 399.73556,185.75111 410.81289,164.16444 448,151.312 430.72756,181.84089 c 0,0 1.38888,-9.156 -30.992,3.91022 z m 0,0"
     id="path8"
     style="stroke-width:0.113778" />
  <path
     fill-rule="nonzero"
     fill="#d4f485"
     fill-opacity="1"
     d="m 123.64933,145.98578 36.41423,-6.37022 c 0,0 35.29511,-42.89778 141.96311,-47.02889 0,0 -115.88845,-23.86045 -178.37734,53.39911 z m 0,0"
     id="path9"
     style="stroke-width:0.113778" />
  <path
     fill-rule="nonzero"
     fill="#333333"
     fill-opacity="1"
     d="m 84.16756,205.95733 79.53155,-23.29155 c -23.65333,9.232 -41.876,21.03511 -45.28044,39.85866 l -4.62623,94.68578 -34.14355,18.076 c 0,0 -5.02133,-118.06489 4.51867,-129.32889 z m 0,0"
     id="path10"
     style="stroke-width:0.113778" />
  <path
     fill-rule="nonzero"
     fill="#333333"
     fill-opacity="1"
     d="m 185.29378,175.41244 c 0,0 33.74222,67.08312 -22.09334,113.27823 0,0 57.44178,-38.16089 71.1,-64.67378 13.65778,-26.51111 -49.00666,-48.60445 -49.00666,-48.60445 z m 0,0"
     id="path11"
     style="stroke-width:0.113778" />
</svg>
