<?xml version="1.0" encoding="UTF-8" standalone="no"?>
<svg
   viewBox="0 0 448 512"
   version="1.1"
   id="svg1"
   sodipodi:docname="flag-checkered.svg"
   inkscape:version="1.4 (e7c3feb1, 2024-10-09)"
   xmlns:inkscape="http://www.inkscape.org/namespaces/inkscape"
   xmlns:sodipodi="http://sodipodi.sourceforge.net/DTD/sodipodi-0.dtd"
   xmlns="http://www.w3.org/2000/svg"
   xmlns:svg="http://www.w3.org/2000/svg">
  <defs
     id="defs1" />
  <sodipodi:namedview
     id="namedview1"
     pagecolor="#ffffff"
     bordercolor="#000000"
     borderopacity="0.25"
     inkscape:showpageshadow="2"
     inkscape:pageopacity="0.0"
     inkscape:pagecheckerboard="0"
     inkscape:deskcolor="#d1d1d1"
     inkscape:zoom="0.99603486"
     inkscape:cx="187.24244"
     inkscape:cy="275.09077"
     inkscape:window-width="1440"
     inkscape:window-height="821"
     inkscape:window-x="0"
     inkscape:window-y="0"
     inkscape:window-maximized="0"
     inkscape:current-layer="svg1"
     showguides="false" />
  <!--!Font Awesome Free 6.7.1 by @fontawesome - https://fontawesome.com License - https://fontawesome.com/license/free Copyright 2024 Fonticons, Inc.-->
  <path
     d="m 32.340909,63.693622 c 14.035199,0 28.37964,11.21582 32.099447,25.09833 l 3.36254,12.549168 51.098764,-13.490348 c 28.21485,-7.45107 61.0161,-4.00005 92.6267,9.80403 41.58923,18.196298 84.80495,18.196298 116.64281,0 l 6.60355,-3.76475 c 14.1491,-8.15696 36.49085,3.60789 41.3245,21.647318 l 58.78139,219.37512 c 2.79511,10.4315 -1.26446,19.84338 -10.18858,23.5297 l -24.78327,10.1962 c -32.9985,13.56878 -74.32351,11.45111 -113.91606,-5.80399 -34.04579,-14.90214 -69.44752,-18.58846 -99.95239,-10.50993 l -47.62409,12.54916 20.17524,75.295 c 3.71981,13.88252 -4.61409,25.09834 -18.64929,25.09834 -14.0352,0 -28.37964,-11.21582 -32.09945,-25.09834 L 91.030016,377.4228 77.159546,325.65749 20.416696,113.89029 13.691617,88.791952 c -3.7198092,-13.88251 4.614094,-25.09833 18.649292,-25.09833 z m 64.695067,146.746828 47.827534,-10.90209 13.7654,51.37314 -47.82754,10.9021 13.74438,51.29472 36.13198,-9.56875 c 3.77083,-1.01961 7.50441,-1.88237 11.3593,-2.58826 l -13.42914,-50.11824 29.08038,-6.58831 c 6.2032,-1.41178 12.71686,-1.9608 19.46169,-1.64707 l -13.45015,-50.19668 c 10.86817,0.31373 22.11463,2.03925 33.38016,5.01967 l 20.16369,5.41183 14.01758,52.31434 -35.65092,-9.64717 c -6.22986,-1.64708 -12.45019,-2.6667 -18.48137,-2.98043 l 15.00533,56.00066 c 17.68559,1.49022 35.74276,5.25496 53.77502,11.29425 l -14.66907,-54.74574 19.40801,5.25496 c 11.54545,3.1373 22.99252,5.01967 34.30397,5.80399 l -13.49219,-50.35353 c -6.35313,-0.62746 -12.85337,-1.80395 -19.34213,-3.52945 l -34.87423,-9.41188 -13.02984,-48.62802 c -11.10694,-2.98043 -22.30748,-6.90204 -33.44304,-11.76485 -7.36383,-3.21572 -14.87195,-5.49026 -22.30748,-6.90204 l 15.21549,56.78498 c -10.3924,-0.31373 -20.44855,0.62746 -29.93055,2.82357 l -18.88473,4.39221 -15.80393,-58.98109 -47.386204,12.54917 z M 331.26052,326.99084 c 13.63679,1.17648 26.73387,-0.54903 38.21838,-5.3334 l 10.00846,-4.07848 -15.06838,-56.23596 -5.88601,1.41179 c -13.68658,3.37258 -28.3791,4.47063 -43.53873,3.52944 z m 19.35103,-117.17785 -14.87923,-55.53007 c -15.29067,4.78437 -31.7086,7.13734 -48.8363,7.13734 l 14.58501,54.43201 c 11.31622,1.09805 22.30766,0.39216 32.51957,-2.03924 l 16.58994,-4.07847 z"
     id="path1"
     style="fill:#bb0000;fill-opacity:1;stroke-width:0.788624" />
</svg>
