<?xml version="1.0" encoding="UTF-8" standalone="no"?>
<svg
   height="22"
   viewBox="0 -960 880 880"
   width="22"
   fill="#1f1f1f"
   version="1.1"
   id="svg1"
   sodipodi:docname="logo.svg"
   inkscape:version="1.4 (e7c3feb1, 2024-10-09)"
   xmlns:inkscape="http://www.inkscape.org/namespaces/inkscape"
   xmlns:sodipodi="http://sodipodi.sourceforge.net/DTD/sodipodi-0.dtd"
   xmlns="http://www.w3.org/2000/svg"
   xmlns:svg="http://www.w3.org/2000/svg">
  <defs
     id="defs1" />
  <sodipodi:namedview
     id="namedview1"
     pagecolor="#ffffff"
     bordercolor="#000000"
     borderopacity="0.25"
     inkscape:showpageshadow="2"
     inkscape:pageopacity="0.0"
     inkscape:pagecheckerboard="0"
     inkscape:deskcolor="#d1d1d1"
     inkscape:zoom="5.3768275"
     inkscape:cx="9.3921555"
     inkscape:cy="16.273537"
     inkscape:window-width="1440"
     inkscape:window-height="900"
     inkscape:window-x="0"
     inkscape:window-y="0"
     inkscape:window-maximized="0"
     inkscape:current-layer="svg1" />
  <path
     style="fill:#53a668;fill-opacity:1;stroke:none;stroke-width:0;stroke-dasharray:none"
     d="m 740,-300 q -25,0 -42.5,-17.5 Q 680,-335 680,-360 v -480 q 0,-25 17.5,-42.5 17.5,-17.5 42.5,-17.5 25,0 42.5,17.5 17.5,17.5 17.5,42.5 v 480 q 0,25 -17.5,42.5 Q 765,-300 740,-300 Z"
     id="path5" />
  <path
     style="fill:#92969a;fill-opacity:1;stroke:none;stroke-width:0;stroke-dasharray:none"
     d="m 540,-300 q -25,0 -42.5,-17.5 Q 480,-335 480,-360 v -240 q 0,-25 17.5,-42.5 17.5,-17.5 42.5,-17.5 25,0 42.5,17.5 17.5,17.5 17.5,42.5 v 240 q 0,25 -17.5,42.5 Q 565,-300 540,-300 Z"
     id="path4" />
  <path
     style="fill:#d91200;fill-opacity:1;stroke:none;stroke-width:0;stroke-dasharray:none"
     d="m 340,-300 q -25,0 -42.5,-17.5 Q 280,-335 280,-360 v -360 q 0,-25 17.5,-42.5 17.5,-17.5 42.5,-17.5 25,0 42.5,17.5 17.5,17.5 17.5,42.5 v 360 q 0,25 -17.5,42.5 Q 365,-300 340,-300 Z"
     id="path3" />
  <path
     style="fill:#4786b3;fill-opacity:1;stroke:none;stroke-width:0;stroke-dasharray:none"
     d="m 140,-300 q -25,0 -42.5,-17.5 Q 80,-335 80,-360 v -160 q 0,-25 17.5,-42.5 17.5,-17.5 42.5,-17.5 25,0 42.5,17.5 17.5,17.5 17.5,42.5 v 160 q 0,25 -17.5,42.5 Q 165,-300 140,-300 Z"
     id="path2" />
  <path
     style="fill:#92969a;fill-opacity:1;stroke:none;stroke-width:0;stroke-dasharray:none"
     d="M 80,-140 Q 63,-140 51.5,-151.5 40,-163 40,-180 40,-197 51.5,-208.5 63,-220 80,-220 h 720 q 17,0 28.5,11.5 11.5,11.5 11.5,28.5 0,17 -11.5,28.5 Q 817,-140 800,-140 Z"
     id="path1" />
</svg>
