<?xml version="1.0" encoding="UTF-8" standalone="no"?>
<svg
   width="46"
   height="46"
   viewBox="0 0 46 46"
   version="1.1"
   id="svg11"
   sodipodi:docname="logo.svg"
   inkscape:version="1.4 (e7c3feb1, 2024-10-09)"
   xmlns:inkscape="http://www.inkscape.org/namespaces/inkscape"
   xmlns:sodipodi="http://sodipodi.sourceforge.net/DTD/sodipodi-0.dtd"
   xmlns="http://www.w3.org/2000/svg"
   xmlns:svg="http://www.w3.org/2000/svg">
  <defs
     id="defs11" />
  <sodipodi:namedview
     id="namedview11"
     pagecolor="#ffffff"
     bordercolor="#000000"
     borderopacity="0.25"
     inkscape:showpageshadow="2"
     inkscape:pageopacity="0.0"
     inkscape:pagecheckerboard="0"
     inkscape:deskcolor="#d1d1d1"
     inkscape:zoom="5.8539068"
     inkscape:cx="16.57013"
     inkscape:cy="24.257304"
     inkscape:window-width="1440"
     inkscape:window-height="819"
     inkscape:window-x="0"
     inkscape:window-y="0"
     inkscape:window-maximized="0"
     inkscape:current-layer="svg11" />
  <path
     fill-rule="nonzero"
     fill="#7feb19"
     fill-opacity="1"
     d="M 22.099784,1.5021261 C 14.344835,1.6026534 9.6575089,5.2376448 9.6575089,5.2376448 L 9.3969213,6.279283 c -3.9055606,2.6036391 -5.959555,9.839042 -5.959555,9.839042 l -0.5981765,0.184098 -0.5984814,1.28873 -0.2301855,15.64923 c 0,0 -1.0105229,1.0285 -1.0105229,2.200154 0,1.171652 5.4027829,8.461954 5.4027829,8.461954 l 0.58575,0.06527 c 0,0 0.1553751,-0.197899 0.4502356,-0.547352 0.1474312,-0.174675 0.3296942,-0.387393 0.5449586,-0.632143 0.215264,-0.244697 0.4634254,-0.521429 0.7426522,-0.824643 0.1395878,-0.151554 0.2871207,-0.309731 0.441987,-0.473763 0.154865,-0.164082 0.3171154,-0.334126 0.4868,-0.509158 0.1696354,-0.175082 0.3466527,-0.355208 0.5305467,-0.539814 0.183945,-0.184606 0.374866,-0.373643 0.57256,-0.566397 0.197694,-0.192757 0.402263,-0.389126 0.613302,-0.588551 0.211036,-0.199428 0.42859,-0.401806 0.65241,-0.606478 0.223871,-0.20462 0.453954,-0.411431 0.690048,-0.619871 0.236245,-0.208438 0.478448,-0.41856 0.726406,-0.629342 0.24801,-0.210733 0.501672,-0.422126 0.760986,-0.633773 0.259468,-0.211649 0.524334,-0.423602 0.794597,-0.634742 0.270162,-0.211086 0.545877,-0.42136 0.826427,-0.630462 0.280703,-0.209152 0.566195,-0.417032 0.856676,-0.622722 0.290482,-0.20569 0.58575,-0.40919 0.885755,-0.610092 0.29985,-0.200752 0.60439,-0.398649 0.913101,-0.593186 0.308814,-0.194487 0.622009,-0.385358 0.939177,-0.572052 0.158684,-0.09335 0.318389,-0.185776 0.479007,-0.276883 0.160724,-0.09116 0.322108,-0.181246 0.484715,-0.27001 0.162555,-0.08866 0.326282,-0.176 0.490671,-0.262167 0.164542,-0.08616 0.33,-0.171059 0.496324,-0.254476 0.166222,-0.08348 0.333257,-0.165459 0.501315,-0.246024 0.168004,-0.08047 0.337231,-0.159447 0.506968,-0.236753 0.169889,-0.07731 0.340439,-0.153033 0.511857,-0.227129 0.171417,-0.07416 0.343647,-0.146364 0.516643,-0.217047 0.172994,-0.07052 0.346806,-0.139486 0.521483,-0.206352 0.17447,-0.06691 0.349808,-0.13195 0.525808,-0.195047 0.176,-0.06309 0.352764,-0.124259 0.530192,-0.183334 0.177323,-0.05903 0.355511,-0.11611 0.534262,-0.171007 0.178749,-0.05491 0.358112,-0.107712 0.538184,-0.158176 0.180024,-0.05042 0.360862,-0.09865 0.542057,-0.144681 0.181345,-0.04587 0.363102,-0.08959 0.545467,-0.130778 0.182518,-0.04105 0.365444,-0.07979 0.548982,-0.116163 0.183588,-0.0362 0.367787,-0.07011 0.55229,-0.101285 0.184606,-0.03116 0.36957,-0.05958 0.555095,-0.08549 0.371044,-0.0518 0.732313,-0.103788 1.083752,-0.156191 0.351645,-0.0524 0.693612,-0.105062 1.026159,-0.157868 0.332596,-0.05281 0.65562,-0.105472 0.969833,-0.158535 0.314062,-0.05307 0.619005,-0.106382 0.915088,-0.159601 0.296032,-0.05316 0.583255,-0.106223 0.861871,-0.15945 0.278614,-0.05316 0.548573,-0.106221 0.810232,-0.159295 0.261655,-0.05308 0.51486,-0.105976 0.760068,-0.158786 0.245209,-0.05267 0.482371,-0.105214 0.711538,-0.157617 0.229218,-0.0523 0.450592,-0.104154 0.66438,-0.155935 0.213838,-0.05175 0.420086,-0.103379 0.619004,-0.154356 0.397781,-0.102059 0.766181,-0.202737 1.107384,-0.301024 0.341152,-0.09854 0.654959,-0.19474 0.943606,-0.288495 0.288649,-0.09361 0.55214,-0.184606 0.792255,-0.272352 0.240268,-0.08774 0.457367,-0.172334 0.653176,-0.253051 0.195808,-0.08073 0.370486,-0.157614 0.526165,-0.230235 0.15553,-0.07248 0.292163,-0.140404 0.411586,-0.203756 0.119522,-0.06325 0.221731,-0.121763 0.309119,-0.174573 0.08745,-0.05291 0.159705,-0.100277 0.219133,-0.141575 0.05943,-0.04135 0.105881,-0.07665 0.141321,-0.105376 0.07105,-0.05733 0.09854,-0.0881 0.09854,-0.0881 0,0 1.979032,-5.707472 1.979032,-6.720083 0,-1.012561 -0.644266,-1.564852 -0.644266,-1.564852 L 43.020867,14.553524 45,11.055422 C 36.018907,3.4839079 28.1315,1.4239034 22.099784,1.5021261 Z m 0,0"
     id="path1"
     style="fill:#9aa4ad;fill-opacity:1;stroke-width:0;stroke-dasharray:none" />
  <path
     fill-rule="nonzero"
     fill="#1a1a1a"
     fill-opacity="1"
     d="M 19.221856,12.648539 C 13.822335,12.582945 3.4373663,16.118325 3.4373663,16.118325 l -0.5981765,0.184098 -0.5984814,1.28873 -0.2301855,15.64923 c 0,0 5.2931898,-2.485489 11.1847071,-6.213675 5.891418,-3.728236 11.829024,-11.552904 8.607043,-13.808207 -0.55382,-0.387699 -1.45974,-0.556264 -2.580417,-0.569962 z m 0,0"
     id="path2"
     style="fill:#cae5fe;fill-opacity:1;stroke-width:0;stroke-dasharray:none" />
  <path
     fill-rule="nonzero"
     fill="#1a1a1a"
     fill-opacity="1"
     d="m 42.387047,25.978607 c 0,0 -0.0275,0.03076 -0.09854,0.0881 -0.03544,0.02871 -0.0819,0.064 -0.141319,0.105374 -0.05943,0.04131 -0.131695,0.08866 -0.219133,0.141577 -0.0874,0.05281 -0.189598,0.111322 -0.309119,0.174571 -0.119422,0.06335 -0.256057,0.131288 -0.411587,0.203756 -0.15568,0.07262 -0.330355,0.149518 -0.526164,0.230237 -0.19581,0.08071 -0.412908,0.165306 -0.653178,0.253049 -0.240114,0.08774 -0.503604,0.178749 -0.792254,0.272354 -0.288648,0.09375 -0.602454,0.189952 -0.943605,0.288494 -0.341205,0.09828 -0.709602,0.198966 -1.107385,0.301023 -0.198917,0.05098 -0.405166,0.102615 -0.619005,0.154357 -0.213787,0.0518 -0.435161,0.103631 -0.664379,0.155935 -0.229166,0.0524 -0.466328,0.104967 -0.711537,0.157616 -0.245209,0.05281 -0.498413,0.105718 -0.760068,0.158787 -0.261659,0.05307 -0.531618,0.106125 -0.810234,0.159295 -0.278615,0.05322 -0.565839,0.106287 -0.861871,0.159449 -0.296081,0.05322 -0.601024,0.106533 -0.915086,0.159602 -0.314211,0.05307 -0.637237,0.105718 -0.969833,0.158533 -0.332549,0.05281 -0.674516,0.105472 -1.026159,0.157869 -0.351439,0.0524 -0.712707,0.104396 -1.083752,0.156192 -0.185525,0.02592 -0.37049,0.05433 -0.555095,0.08549 -0.184503,0.03116 -0.368704,0.06509 -0.552292,0.101284 -0.183535,0.03637 -0.366463,0.07495 -0.548981,0.116162 -0.182366,0.04121 -0.364119,0.0849 -0.545467,0.130779 -0.181194,0.04605 -0.362033,0.09426 -0.542055,0.144681 -0.180074,0.05048 -0.359435,0.103284 -0.538186,0.158175 -0.178749,0.0549 -0.35694,0.111986 -0.534262,0.171007 -0.177429,0.05907 -0.354191,0.120238 -0.530191,0.183335 -0.176,0.06309 -0.351339,0.128129 -0.525809,0.195047 -0.174678,0.06687 -0.348487,0.135819 -0.521482,0.206352 -0.172996,0.0707 -0.345228,0.142896 -0.516644,0.217046 -0.171418,0.07409 -0.341968,0.149824 -0.511856,0.22713 -0.169737,0.07732 -0.338964,0.156291 -0.506968,0.236752 -0.168057,0.08056 -0.335094,0.162557 -0.501317,0.246024 -0.166323,0.08342 -0.331782,0.16831 -0.496323,0.254476 -0.164388,0.08616 -0.328116,0.173506 -0.49067,0.262168 -0.162608,0.08876 -0.323991,0.178851 -0.484715,0.270009 -0.160619,0.0911 -0.320325,0.183537 -0.479007,0.276883 -0.317166,0.186696 -0.630363,0.377566 -0.939177,0.572052 -0.308713,0.194536 -0.613251,0.392435 -0.913101,0.593186 -0.300007,0.200903 -0.595273,0.404403 -0.885756,0.610092 -0.290481,0.20569 -0.575971,0.41357 -0.856675,0.622722 -0.280552,0.209102 -0.556264,0.419375 -0.826426,0.630464 -0.270264,0.211138 -0.535129,0.423092 -0.794597,0.634741 -0.259316,0.211646 -0.512977,0.42304 -0.760988,0.633772 -0.247957,0.210782 -0.490162,0.420904 -0.726406,0.629342 -0.236094,0.20844 -0.466176,0.415251 -0.690047,0.619871 -0.22382,0.204673 -0.441375,0.407051 -0.65241,0.606479 -0.211039,0.199424 -0.415609,0.395795 -0.613303,0.58855 -0.197694,0.192753 -0.388614,0.381791 -0.572561,0.566397 C 9.9661807,40.589851 9.7891622,40.769977 9.6195278,40.94506 9.4498384,41.120097 9.287588,41.290141 9.132723,41.454223 8.9778567,41.618255 8.8303238,41.776432 8.690736,41.927986 8.4115092,42.2312 8.1633478,42.507932 7.9480838,42.752629 7.7328194,42.99738 7.5505564,43.210097 7.4031254,43.384774 7.1082647,43.734228 6.9528896,43.932126 6.9528896,43.932126 l 0.4556336,0.520666 h 1.236736 c 0,0 0.3254683,0.846135 3.1244568,-2.083022 2.798943,-2.929157 14.255339,-6.834565 20.178839,-8.266654 5.923399,-1.431987 10.990783,-6.789802 10.990783,-7.065922 0,-0.276118 -0.552291,-1.058597 -0.552291,-1.058597 z m 0,0"
     id="path3"
     style="fill:#6c7784;fill-opacity:1;stroke-width:0;stroke-dasharray:none" />
  <path
     fill-rule="nonzero"
     fill="#47b20f"
     fill-opacity="1"
     d="m 44.32939,19.455731 c -7.238306,1.162694 -19.905212,9.837368 -19.905212,9.837368 0,0 3.801874,-1.295333 7.772569,-1.356375 2.962361,-0.04547 8.059232,-1.789203 10.458146,-2.672246 0.412911,-1.132987 1.698992,-4.6963 1.698992,-5.511613 0,-0.105177 -0.01037,-0.202852 -0.0244,-0.297134 z m 0,0"
     id="path4"
     style="fill:#8c96a0;fill-opacity:1;stroke-width:0;stroke-dasharray:none" />
  <path
     fill-rule="nonzero"
     fill="#1a1a1a"
     fill-opacity="1"
     d="m 2.7010273,37.613037 c 0,0 -1.1967082,-1.841074 -1.1967082,-2.485438 0,-0.644367 1.7030144,-1.472882 1.7030144,-1.472882 0,0 -1.0126108,2.301393 -0.5063062,3.95832 z m 0,0"
     id="path5"
     style="fill:#6c7784;fill-opacity:1;stroke-width:0;stroke-dasharray:none" />
  <path
     fill-rule="nonzero"
     fill="#47b20f"
     fill-opacity="1"
     d="m 6.7514211,42.169786 c 0,0 -2.1632818,-6.029578 0.3682454,-8.883213 C 9.6511442,30.432736 36.531019,15.658005 17.936029,9.766589 c 0,0 9.94191,-2.2092687 14.36055,0.920537 4.418637,3.129804 0.184097,12.335225 0.184097,12.335225 0,0 -17.398334,8.653234 -25.7292549,19.147435 z m 0,0"
     id="path6"
     style="fill:#8c96a0;fill-opacity:1;stroke-width:0;stroke-dasharray:none" />
  <path
     fill-rule="nonzero"
     fill="#47b20f"
     fill-opacity="1"
     d="m 34.078715,21.575904 c 0,0 3.189645,-5.012079 0.06519,-11.000663 l 5.20738,2.603792 c 0,0 -4.100809,8.266653 -5.272563,8.396871 z m 0,0"
     id="path7"
     style="fill:#8c96a0;fill-opacity:1;stroke-width:0;stroke-dasharray:none" />
  <path
     fill-rule="nonzero"
     fill="#1a1a1a"
     fill-opacity="1"
     d="M 39.469698,15.001569 40.738978,12.528098 45,11.055422 43.020867,14.553524 c 0,0 0.159142,-1.049125 -3.551169,0.448045 z m 0,0"
     id="path8"
     style="fill:#6c7784;fill-opacity:1;stroke-width:0;stroke-dasharray:none" />
  <path
     fill-rule="nonzero"
     fill="#d4f485"
     fill-opacity="1"
     d="M 7.8348191,10.445126 12.007284,9.7152046 c 0,0 4.044231,-4.9153703 16.266605,-5.3887267 0,0 -13.278886,-2.7340098 -20.4390699,6.1186481 z m 0,0"
     id="path9"
     style="fill:#a5aeb6;fill-opacity:1;stroke-width:0;stroke-dasharray:none" />
  <path
     fill-rule="nonzero"
     fill="#333333"
     fill-opacity="1"
     d="m 3.3108663,17.316866 9.1129897,-2.668823 c -2.7102768,1.057832 -4.7982913,2.410272 -5.1883833,4.567138 l -0.530089,10.84941 -3.9122817,2.07121 c 0,0 -0.5753609,-13.528268 0.5177643,-14.818935 z m 0,0"
     id="path10"
     style="fill:#d5ebfe;fill-opacity:1;stroke-width:0;stroke-dasharray:none" />
  <path
     fill-rule="nonzero"
     fill="#333333"
     fill-opacity="1"
     d="m 14.898246,13.81693 c 0,0 3.866296,7.686607 -2.53153,12.979799 0,0 6.581871,-4.372605 8.146877,-7.41054 1.564954,-3.03773 -5.615347,-5.569259 -5.615347,-5.569259 z m 0,0"
     id="path11"
     style="fill:#cae5fe;fill-opacity:1;stroke-width:0;stroke-dasharray:none" />
</svg>
