<?xml version="1.0" encoding="UTF-8" standalone="no"?>
<svg
   width="25"
   height="24.000055"
   viewBox="0 0 25 24.000055"
   version="1.1"
   id="svg9"
   sodipodi:docname="logo-example21.svg"
   inkscape:version="1.4 (e7c3feb1, 2024-10-09)"
   inkscape:export-filename="favicon.png"
   inkscape:export-xdpi="96"
   inkscape:export-ydpi="96"
   xmlns:inkscape="http://www.inkscape.org/namespaces/inkscape"
   xmlns:sodipodi="http://sodipodi.sourceforge.net/DTD/sodipodi-0.dtd"
   xmlns="http://www.w3.org/2000/svg"
   xmlns:svg="http://www.w3.org/2000/svg">
  <defs
     id="defs9" />
  <sodipodi:namedview
     id="namedview9"
     pagecolor="#ffffff"
     bordercolor="#000000"
     borderopacity="0.25"
     inkscape:showpageshadow="2"
     inkscape:pageopacity="0.0"
     inkscape:pagecheckerboard="0"
     inkscape:deskcolor="#d1d1d1"
     inkscape:zoom="9.0581597"
     inkscape:cx="-3.0911356"
     inkscape:cy="7.5622425"
     inkscape:window-width="1440"
     inkscape:window-height="900"
     inkscape:window-x="0"
     inkscape:window-y="0"
     inkscape:window-maximized="0"
     inkscape:current-layer="svg9" />
  <path
     fill-rule="nonzero"
     fill="#000000"
     fill-opacity="1"
     d="m 1.9580091,6.960993 c 0,0 0.094091,-0.038751 0.2623864,-0.1044359 C 2.3046001,6.8237147 2.4073501,6.7841683 2.5262138,6.7392809 2.6450775,6.6943928 2.7800321,6.644164 2.9286685,6.5900263 3.0772821,6.5360478 3.2395208,6.4782042 3.4130209,6.4178051 3.5864868,6.357462 3.7712937,6.2946764 3.9647028,6.2309926 4.1581006,6.1672404 4.3601802,6.1025455 4.5686007,6.0383959 4.7770213,5.9743031 4.9917259,5.9106078 5.2102146,5.8488332 c 0.1092045,-0.03091 0.2194432,-0.061365 0.3302614,-0.09114 0.1109092,-0.02966 0.2222501,-0.058752 0.334091,-0.086935 0.1118182,-0.028183 0.2239546,-0.055684 0.3361706,-0.081934 0.1121591,-0.026365 0.2244432,-0.051592 0.3363637,-0.075798 0.1119319,-0.024092 0.2236478,-0.046934 0.3346706,-0.068412 0.1111364,-0.021478 0.2215,-0.041705 0.3310455,-0.060343 0.1095455,-0.018523 0.2182274,-0.035457 0.3256933,-0.050683 0.1075,-0.015229 0.2139205,-0.028751 0.3186592,-0.040342 0.1048864,-0.011477 0.2080228,-0.021136 0.3094092,-0.028638 0.1014773,-0.00796 0.2011818,-0.013068 0.2986705,-0.016138 0.0975,-0.00342 0.1928182,-0.00342 0.2857046,-0.00227 0.092955,0.00227 0.1834774,0.00568 0.2712615,0.012614 0.087727,0.00682 0.1726585,0.01625 0.2546586,0.028523 0.041023,0.00568 0.081136,0.013068 0.1205227,0.020683 0.039432,0.00796 0.078068,0.01591 0.1158523,0.025 0.037727,0.00908 0.074773,0.018977 0.1109092,0.029546 0.036023,0.010228 0.071136,0.022045 0.1053409,0.034206 0.034318,0.012159 0.067614,0.025 0.1,0.038865 0.032386,0.013978 0.063977,0.028525 0.094432,0.043978 0.060909,0.03091 0.1184206,0.063411 0.1727386,0.097389 0.05432,0.033866 0.105455,0.069207 0.153467,0.1060256 0.04795,0.036819 0.09273,0.075002 0.134614,0.1144353 0.04182,0.039547 0.08068,0.080343 0.116579,0.1223787 0.03591,0.042047 0.06898,0.085343 0.09921,0.1298562 0.03023,0.044434 0.0575,0.09023 0.08227,0.1369586 0.02466,0.046819 0.0467,0.094549 0.06614,0.143493 0.01943,0.048978 0.03625,0.098867 0.05068,0.1499137 0.01432,0.051024 0.02614,0.1031856 0.03568,0.1560275 0.0091,0.052842 0.0167,0.1067079 0.02159,0.1613459 0.0045,0.054546 0.008,0.110117 0.008,0.1664369 3.75e-4,0.056252 -0.0011,0.1131855 -0.0045,0.1709598 -0.0034,0.057729 -0.01023,0.1162307 -0.0175,0.1753461 -0.008,0.059093 -0.0175,0.1189014 -0.02909,0.1793464 -0.01159,0.060231 -0.025,0.1212423 -0.04011,0.1827329 -0.01523,0.061365 -0.03205,0.1235037 -0.05045,0.1859487 -0.01864,0.062389 -0.03852,0.1251744 -0.06011,0.1884263 -0.02171,0.063184 -0.04489,0.126913 -0.06932,0.1908354 -0.02455,0.063865 -0.05068,0.1282198 -0.07795,0.1927445 -0.02727,0.064433 -0.05579,0.1291061 -0.08557,0.194074 -0.02977,0.064888 -0.0608,0.1299244 -0.09284,0.1951197 -0.03205,0.065229 -0.06534,0.1305267 -0.09943,0.1959263 -0.03409,0.065343 -0.0692,0.1307544 -0.105227,0.1960964 -0.03614,0.065349 -0.07284,0.1305844 -0.110568,0.1958361 C 9.946898,9.5377955 9.8685006,9.6679595 9.7878869,9.7972125 9.7073189,9.9264667 9.6245573,10.054857 9.5404096,10.181747 c -0.084205,0.126913 -0.1698524,0.252235 -0.255841,0.375648 -0.086136,0.123493 -0.1726023,0.244974 -0.2588865,0.36392 -0.021591,0.02977 -0.044773,0.06034 -0.069659,0.09136 -0.024886,0.03114 -0.051477,0.06284 -0.079545,0.09522 -0.05625,0.06466 -0.1187501,0.13163 -0.1870342,0.200983 -0.068409,0.06944 -0.1425909,0.141187 -0.2221364,0.214827 -0.079546,0.07363 -0.1646137,0.149253 -0.2544546,0.226654 -0.089773,0.0775 -0.1845228,0.156608 -0.2837728,0.237427 -0.099205,0.08079 -0.2028296,0.163255 -0.3104433,0.246962 -0.1076137,0.08375 -0.2192728,0.168608 -0.3344547,0.254816 -0.1151023,0.08614 -0.2337727,0.173584 -0.3554773,0.261723 -0.1216932,0.08818 -0.2464319,0.177119 -0.3737842,0.266815 -0.127341,0.08966 -0.2573978,0.180016 -0.3894092,0.270814 -0.264091,0.181575 -0.5366252,0.364773 -0.8139434,0.547961 -0.2773183,0.183198 -0.559432,0.366307 -0.8425003,0.547505 -0.2831023,0.181256 -0.5671933,0.360602 -0.848648,0.536153 -0.2814205,0.175642 -0.5602047,0.34726 -0.8325457,0.51364 -0.2723069,0.166301 -0.5382274,0.327124 -0.7939888,0.480549 -0.2557501,0.15347 -0.5013297,0.299486 -0.7330684,0.436434 -0.2317729,0.136992 -0.44964793,0.26477 -0.64994344,0.38158 -0.13581822,0.07909 -0.20728415,0.11948 -0.3257501,0.188004 C 0.45160007,15.120916 0.88253202,9.1470963 1.0845889,8.564704 1.3207822,7.8838791 1.9586574,6.9610554 1.9586574,6.9610554 Z m 0,0"
     id="path1"
     style="stroke-width:0.00740751;fill:#9ac3eb;fill-opacity:1" />
  <path
     fill-rule="nonzero"
     fill="#000000"
     fill-opacity="1"
     d="m 2.2686342,23.193851 c 0.041932,-0.06126 0.081818,-0.125323 0.1244205,-0.185596 0.1357386,-0.191927 0.2751137,-0.378774 0.4176819,-0.560722 0.1425569,-0.181972 0.2883978,-0.35901 0.437182,-0.531266 0.14875,-0.172256 0.3003978,-0.339886 0.4547728,-0.502675 0.154341,-0.162765 0.3113978,-0.320874 0.4706592,-0.474411 0.1592842,-0.153562 0.3207729,-0.302635 0.4843411,-0.44723 C 4.8212713,20.34739 4.9868622,20.207272 5.1540782,20.071427 5.3212941,19.935593 5.490101,19.804169 5.6603283,19.676824 5.8305557,19.549502 6.0022262,19.426259 6.1748285,19.307165 6.3473967,19.188059 6.521124,19.073192 6.6953968,18.962131 6.8697946,18.850987 7.0447265,18.743898 7.2200788,18.640588 7.3955447,18.537285 7.5714084,18.437775 7.7473403,18.342 c 0.1758296,-0.09579 0.3518524,-0.187996 0.5275456,-0.276544 0.1756364,-0.08852 0.3509547,-0.173323 0.5258638,-0.254803 0.1748864,-0.08147 0.3493291,-0.159561 0.5227382,-0.234246 0.3467956,-0.14939 0.6899891,-0.285474 1.0270921,-0.409182 0.337125,-0.12364 0.668023,-0.234985 0.990307,-0.334908 0.322306,-0.0999 0.635783,-0.188517 0.938068,-0.266668 0.302375,-0.07819 0.593409,-0.146016 0.87075,-0.20429 0.277261,-0.0583 0.540739,-0.107051 0.787852,-0.147493 0.247103,-0.04045 0.47783,-0.07239 0.689637,-0.09694 0.21183,-0.02455 0.404807,-0.04148 0.576216,-0.05204 0.171409,-0.01029 0.32133,-0.01453 0.447159,-0.01296 0.251796,0.0034 0.504228,0 0.754898,-0.008 0.250603,-0.008 0.499421,-0.02195 0.743773,-0.04 0.244387,-0.01818 0.484228,-0.0408 0.717273,-0.06715 0.232955,-0.02637 0.459171,-0.05637 0.675693,-0.08943 0.216523,-0.03306 0.423557,-0.06909 0.618523,-0.107154 0.194966,-0.03819 0.377773,-0.07864 0.546001,-0.120323 0.168295,-0.04171 0.322079,-0.08466 0.458511,-0.128356 0.136511,-0.04364 0.255784,-0.08807 0.355409,-0.132151 0.09955,-0.0442 0.213864,-0.08818 0.337796,-0.131345 0.12392,-0.04307 0.257398,-0.08535 0.395102,-0.126219 0.275409,-0.08182 0.567853,-0.157789 0.835478,-0.222747 0.535273,-0.129868 0.970977,-0.215483 0.970977,-0.215483 0,0 0.604432,0.273178 0.158648,1.008531 -0.445773,0.735295 -4.432376,2.149258 -6.591831,3.243587 -2.15949,1.094306 -5.256979,1.227468 -5.256979,1.227468 -1.9232621,0.413412 -7.7602973,4.046044 -8.3276498,3.849187 -0.1535,-0.05329 -0.4390342,-0.365398 -0.773557,-0.79823 z m 0,0"
     id="path2"
     style="stroke-width:0.00740751" />
  <path
     fill-rule="nonzero"
     fill="#e42145"
     fill-opacity="1"
     d="m 16.095774,0.84153393 c 4.54591,1.55644507 8.776957,4.75141757 8.893196,5.14630447 0.14592,0.4956513 -1.204171,2.1886688 -1.204171,2.1886688 l -0.319705,1.2874486 c 0,0 1.005273,1.6836202 0.727341,2.6678532 -0.277863,0.984259 -1.132432,2.531498 -1.132432,2.531498 0,0 -0.435704,0.08558 -0.970977,0.215484 -0.267625,0.06501 -0.560069,0.140947 -0.835478,0.222746 -0.137704,0.04091 -0.271182,0.08307 -0.395102,0.126219 -0.123932,0.04319 -0.238228,0.08717 -0.337796,0.131344 -0.09966,0.04409 -0.218898,0.08852 -0.355409,0.132153 -0.136432,0.04376 -0.290216,0.08671 -0.458511,0.128356 -0.168228,0.04182 -0.351035,0.08216 -0.546001,0.120322 -0.194966,0.03819 -0.402,0.07421 -0.618523,0.107155 -0.216522,0.03307 -0.442738,0.06306 -0.675693,0.08943 -0.233045,0.02637 -0.472886,0.04898 -0.717273,0.06716 -0.244352,0.01807 -0.49317,0.0317 -0.743773,0.04 -0.25067,0.008 -0.503102,0.01131 -0.754898,0.008 -0.125829,-0.0011 -0.27575,0.0023 -0.447159,0.01294 -0.171409,0.01029 -0.364386,0.02761 -0.576216,0.05205 -0.211807,0.02455 -0.442534,0.05648 -0.689637,0.09694 -0.247113,0.04045 -0.510591,0.0892 -0.787852,0.147495 -0.277341,0.0583 -0.568375,0.126128 -0.87075,0.204289 -0.302285,0.07819 -0.615762,0.166755 -0.938068,0.266668 -0.322284,0.1 -0.653182,0.211269 -0.990307,0.334965 -0.337103,0.123731 -0.6802965,0.259735 -1.0270921,0.409126 -0.1734091,0.07466 -0.3478518,0.152754 -0.5227382,0.234247 -0.1749091,0.08148 -0.3502274,0.166288 -0.5258638,0.254801 -0.1756932,0.08852 -0.351716,0.180767 -0.5275456,0.276543 -0.1759319,0.09579 -0.3517956,0.19529 -0.5272615,0.298589 -0.1753523,0.103303 -0.3502842,0.210462 -0.524682,0.321544 C 6.521124,19.07306 6.3473967,19.187879 6.1748285,19.306951 6.0022262,19.426046 5.8305557,19.549287 5.6603283,19.67661 5.490101,19.803954 5.3212941,19.935378 5.1540782,20.071234 4.9868622,20.207056 4.8212713,20.347175 4.6576917,20.49176 4.4941235,20.636332 4.3326348,20.785404 4.1733506,20.938965 4.0140892,21.092538 3.8570324,21.250611 3.7026914,21.4134 c -0.154375,0.162801 -0.3060228,0.330397 -0.4547728,0.502653 -0.1487842,0.172256 -0.2946251,0.349295 -0.437182,0.531266 -0.1425682,0.181982 -0.2819433,0.368795 -0.4176819,0.560721 -0.042614,0.06023 -0.0825,0.124345 -0.1244205,0.185631 -0.9020798,-1.167152 -2.1710348,-3.238737 -2.24878482,-3.683047 -0.1064773,-0.609076 0.25011371,-1.820373 0.25011371,-1.820373 0,0 0.0330682,-0.465288 0.0545455,-0.769729 0.11845458,-0.06853 0.1899546,-0.108857 0.32575009,-0.188086 C 0.85057692,16.615627 1.0684633,16.487907 1.3002248,16.350948 1.5319749,16.213966 1.7775431,16.067984 2.0333046,15.914479 2.289066,15.761089 2.5549411,15.600266 2.8272821,15.433966 3.099589,15.267585 3.3784072,15.095876 3.6598391,14.920325 3.9412597,14.74474 4.2253507,14.565337 4.5084416,14.38423 4.791544,14.202974 5.073635,14.019831 5.3509532,13.836633 5.6282942,13.653445 5.9008398,13.47028 6.1649535,13.288706 6.2969308,13.19791 6.4270217,13.107508 6.55434,13.017893 c 0.1273409,-0.08977 0.2520796,-0.178768 0.3737842,-0.266907 0.1216364,-0.08807 0.2403068,-0.175551 0.3555001,-0.261643 0.1151023,-0.08625 0.2267273,-0.17112 0.3344319,-0.254804 0.1076136,-0.08375 0.2111932,-0.166244 0.3104432,-0.246973 0.099205,-0.0808 0.1939206,-0.159927 0.2837615,-0.237418 0.089886,-0.0775 0.1748296,-0.153049 0.2543751,-0.226745 0.079545,-0.07353 0.153875,-0.145345 0.2221591,-0.214767 0.068409,-0.06931 0.1308751,-0.136368 0.1870455,-0.201041 0.028182,-0.03228 0.054773,-0.06409 0.079659,-0.09512 0.024886,-0.03103 0.048068,-0.06159 0.069659,-0.09136 0.08625,-0.118982 0.172829,-0.240462 0.258829,-0.363932 0.086023,-0.123492 0.1717046,-0.248758 0.255841,-0.375648 0.084205,-0.126879 0.1668978,-0.2552689 0.2474887,-0.3845231 0.080568,-0.1292656 0.1590228,-0.259417 0.2342847,-0.3899432 0.03761,-0.065223 0.07455,-0.1305387 0.110568,-0.1958704 0.03602,-0.065349 0.07102,-0.1307308 0.105227,-0.1960738 0.03409,-0.065342 0.0675,-0.1307312 0.09943,-0.1959264 0.03205,-0.065229 0.06307,-0.1302426 0.09284,-0.1951992 0.02977,-0.064888 0.05841,-0.1294924 0.08568,-0.1939831 0.02727,-0.064548 0.0533,-0.1288335 0.07784,-0.1927786 0.02454,-0.063865 0.04773,-0.1275492 0.06932,-0.1908922 0.02159,-0.063184 0.04182,-0.1259242 0.06011,-0.1883693 0.01852,-0.062502 0.03534,-0.1245151 0.05045,-0.1860056 0.01523,-0.061365 0.02852,-0.1223675 0.04011,-0.1826761 0.01159,-0.060343 0.02125,-0.1202197 0.02898,-0.1794032 0.008,-0.059093 0.01364,-0.1175604 0.0175,-0.1752553 0.0034,-0.057729 0.0057,-0.114765 0.0045,-0.1710508 -3.53e-4,-0.056252 -0.0034,-0.1118209 -0.008,-0.16638 -0.0045,-0.05466 -0.01205,-0.108413 -0.02159,-0.1614027 -0.0091,-0.052842 -0.02136,-0.1050027 -0.03568,-0.1559365 -0.01443,-0.051024 -0.03114,-0.1010266 -0.05057,-0.1499137 -0.01943,-0.048978 -0.04136,-0.096708 -0.06614,-0.143493 -0.02477,-0.046819 -0.05193,-0.092503 -0.08227,-0.1369928 -0.03023,-0.044546 -0.0633,-0.087731 -0.0992,-0.1298335 -0.03591,-0.042047 -0.07477,-0.082843 -0.116613,-0.1223673 -0.04182,-0.039547 -0.08671,-0.077616 -0.134659,-0.1144694 -0.04795,-0.036707 -0.09909,-0.072048 -0.153421,-0.1060255 -0.05432,-0.033865 -0.1118184,-0.066366 -0.1727388,-0.097276 -0.030455,-0.015568 -0.061932,-0.030229 -0.094318,-0.044093 -0.032386,-0.013978 -0.065682,-0.026819 -0.1,-0.038865 C 9.694738,5.3843775 9.659738,5.3728997 9.6236016,5.3623306 9.5875789,5.352102 9.5505334,5.3417614 9.5126925,5.3327841 c -0.037841,-0.00909 -0.076477,-0.017387 -0.1158637,-0.025 -0.039432,-0.00795 -0.079659,-0.01466 -0.1205909,-0.020797 -0.081932,-0.012273 -0.1668978,-0.021591 -0.2546592,-0.028409 -0.087727,-0.00682 -0.1783068,-0.01136 -0.2711819,-0.012614 -0.092955,-0.00227 -0.1882273,-0.00114 -0.2857046,0.00227 -0.097614,0.00341 -0.19725,0.00908 -0.2986705,0.016138 -0.1013637,0.00796 -0.2046592,0.01716 -0.3094092,0.028638 -0.1047728,0.011591 -0.2111932,0.025 -0.3186592,0.040229 -0.1075,0.015229 -0.2161478,0.03216 -0.3257274,0.050684 -0.1095454,0.018637 -0.2199887,0.038865 -0.3310114,0.060343 -0.1110228,0.021591 -0.2227501,0.044434 -0.3346706,0.068524 -0.1120455,0.024092 -0.22425,0.04932 -0.3364546,0.075685 -0.1121591,0.026364 -0.2243069,0.053751 -0.3361365,0.082048 -0.1118182,0.028183 -0.2232387,0.05716 -0.3340569,0.086934 -0.1107955,0.029772 -0.2210455,0.060228 -0.3302728,0.09114 C 4.9911344,5.9104201 4.7764071,5.9740136 4.5679865,6.0381633 4.3596001,6.1023696 4.1575092,6.1670413 3.9641114,6.2307592 3.7706795,6.2945114 3.5858954,6.3572631 3.4124067,6.4176513 3.2389407,6.4778801 3.076702,6.5358026 2.9280543,6.5898838 2.7794178,6.6438623 2.6444633,6.6942042 2.5255996,6.7390476 2.4067359,6.7839358 2.3039518,6.8234822 2.2198154,6.8563238 2.0514631,6.9218943 1.957429,6.9607596 1.957429,6.9607596 2.8848611,4.1040703 7.024385,-0.49886532 12.620613,0.04402622 c 1.136727,0.11034442 2.31583,0.40062586 3.474603,0.79727422 z m 0,0"
     id="path3"
     style="stroke-width:0.00740751;fill:#d5233e;fill-opacity:1" />
  <path
     fill-rule="nonzero"
     fill="#b21630"
     fill-opacity="1"
     d="m 24.630288,5.9941454 c 0.148807,0.053979 0.240738,0.1980174 0.297045,0.3694317 -0.246818,0.6831799 -1.142534,1.8129301 -1.142534,1.8129301 -1.760296,-0.6951347 -3.396501,0.8376735 -4.369183,2.0715288 0.633193,-1.1781605 1.340216,-2.3731627 2.487796,-3.6689183 0,0 2.157319,-0.7123171 2.679683,-0.59845 0.01636,0.00342 0.03205,0.00796 0.04705,0.013637 z m 0,0"
     id="path4"
     style="stroke-width:0.00740751" />
  <path
     fill-rule="nonzero"
     fill="#b21630"
     fill-opacity="1"
     d="m 23.038219,10.434065 c 0,0 -1.082443,0.658303 -1.095546,1.732553 -0.0091,0.754909 -0.61875,2.217568 -0.983511,3.028989 -0.03273,0.01131 -0.06921,0.02114 -0.100682,0.03216 -0.123932,0.04318 -0.238227,0.08717 -0.337796,0.131346 -0.09966,0.04409 -0.218897,0.08841 -0.355409,0.132151 -0.136432,0.04376 -0.290216,0.08671 -0.458511,0.128356 -0.168228,0.04171 -0.351035,0.08216 -0.546001,0.120322 -0.194965,0.03819 -0.402,0.07409 -0.618522,0.107165 -0.216523,0.03307 -0.442739,0.06307 -0.675694,0.08943 -0.233045,0.02625 -0.472886,0.04898 -0.717273,0.06705 -0.244352,0.01818 -0.49317,0.03182 -0.743773,0.04012 -0.25067,0.008 -0.503102,0.01131 -0.754898,0.008 -0.125829,-0.0011 -0.27575,0.0023 -0.447159,0.01296 -0.171409,0.01029 -0.364386,0.02761 -0.576216,0.05205 -0.211807,0.02455 -0.442534,0.05648 -0.689636,0.09694 -0.247114,0.04045 -0.510592,0.0892 -0.787853,0.147493 -0.277341,0.0583 -0.568375,0.126128 -0.87075,0.20429 -0.302284,0.07818 -0.615762,0.166755 -0.938068,0.266667 -0.322284,0.09989 -0.653182,0.211267 -0.990307,0.334909 -0.337103,0.123708 -0.6802964,0.259792 -1.027092,0.409182 -0.1734091,0.07466 -0.3478518,0.152755 -0.5227382,0.234246 -0.1749092,0.08147 -0.3502274,0.166289 -0.5258638,0.254804 -0.1756932,0.08852 -0.351716,0.180766 -0.5275456,0.276542 -0.1759319,0.09579 -0.3517956,0.195289 -0.5272615,0.298588 -0.1753523,0.103304 -0.3502842,0.210462 -0.524682,0.321544 -0.1742728,0.111029 -0.3480001,0.225928 -0.5205683,0.345033 -0.1726023,0.119072 -0.3442729,0.242315 -0.5145002,0.369659 -0.1702273,0.127345 -0.3390342,0.258769 -0.5062501,0.394604 -0.167216,0.135844 -0.3328069,0.275963 -0.4963865,0.420524 -0.1635683,0.144595 -0.3250569,0.293668 -0.4843411,0.447228 -0.1592614,0.153539 -0.3163182,0.311647 -0.4706592,0.474413 -0.154375,0.162789 -0.3060228,0.330419 -0.4547729,0.502674 -0.1487841,0.172257 -0.294625,0.349294 -0.4371819,0.531244 -0.1425682,0.181971 -0.2819433,0.368818 -0.4176819,0.560744 -0.042614,0.06023 -0.0825,0.124346 -0.1244205,0.185597 C 1.3665885,22.026609 0.09763349,19.955 0.01988347,19.51068 c -0.1064773,-0.609042 0.25011371,-1.820419 0.25011371,-1.820419 0,0 0.001136,-0.02228 0.001136,-0.02307 C 6.1406807,15.562367 10.173034,10.764459 10.173034,10.764459 9.8950563,15.356951 8.7012724,15.925343 8.4634882,15.993493 13.210682,14.889903 18.063775,9.7420632 18.063775,9.7420632 l -1.251012,3.4765508 c 1.829921,-1.387896 6.225024,-2.784756 6.225024,-2.784756 z m 0,0"
     id="path5"
     style="stroke-width:0.00740751" />
  <path
     fill-rule="nonzero"
     fill="#ea516d"
     fill-opacity="1"
     d="m 19.174354,4.5985346 c 0,0 -3.215387,-3.94737019 -8.096058,-3.4829697 C 6.1976239,1.5798745 5.3199646,5.2759871 5.3199646,5.2759871 L 9.2254879,4.383369 C 9.148556,4.3255265 10.122454,-0.76169682 19.174354,4.5985346 Z m 0,0"
     id="path6"
     style="stroke-width:0.00740751" />
  <path
     fill-rule="nonzero"
     fill="#333333"
     fill-opacity="1"
     d="m 7.6313289,6.2576989 c 0,0 -1.8168073,0.3135777 -2.7894894,0.7852057 0,0 1.5934322,3.6993064 -0.5247161,6.6953174 0,0 2.2327279,-1.383007 3.3790237,-2.873179 0,0 -2.0985233,-0.817967 -0.064773,-4.6073441 z m 0,0"
     id="path7"
     style="stroke-width:0.00740751;fill:#b8d1eb;fill-opacity:0.99068326" />
  <path
     fill-rule="nonzero"
     fill="#b21630"
     fill-opacity="1"
     d="m 11.430523,9.6883258 c 0,0 2.668284,-3.0923893 -0.255499,-4.7423601 l 8.003501,0.9330738 c 0,0 -2.09091,3.2423716 -7.748002,3.8092863 z m 0,0"
     id="path8"
     style="stroke-width:0.00740751" />
  <path
     fill-rule="nonzero"
     fill="#ea516d"
     fill-opacity="1"
     d="m 15.18541,10.136919 -2.977864,0.8099 -1.076591,3.492174 c 0,0 3.226739,-1.397759 4.054455,-4.302074 z m 0,0"
     id="path9"
     style="stroke-width:0.00740751" />
</svg>
