<?xml version="1.0" encoding="UTF-8" standalone="no"?>
<svg
   width="44"
   height="44"
   viewBox="0 0 44 43.999998"
   version="1.1"
   id="svg9"
   sodipodi:docname="logo.svg"
   inkscape:version="1.4 (e7c3feb1, 2024-10-09)"
   xmlns:inkscape="http://www.inkscape.org/namespaces/inkscape"
   xmlns:sodipodi="http://sodipodi.sourceforge.net/DTD/sodipodi-0.dtd"
   xmlns="http://www.w3.org/2000/svg"
   xmlns:svg="http://www.w3.org/2000/svg">
  <defs
     id="defs9">
    <filter
       style="color-interpolation-filters:sRGB"
       inkscape:label="Drop Shadow"
       id="filter107"
       x="-0.053506006"
       y="-0.061497439"
       width="1.1516002"
       height="1.1742427">
      <feFlood
         result="flood"
         in="SourceGraphic"
         flood-opacity="0.200000"
         flood-color="rgb(0,0,0)"
         id="feFlood106" />
      <feGaussianBlur
         result="blur"
         in="SourceGraphic"
         stdDeviation="0.500000"
         id="feGaussianBlur106" />
      <feOffset
         result="offset"
         in="blur"
         dx="1.000000"
         dy="1.000000"
         id="feOffset106" />
      <feComposite
         result="comp1"
         operator="in"
         in="flood"
         in2="offset"
         id="feComposite106" />
      <feComposite
         result="comp2"
         operator="over"
         in="SourceGraphic"
         in2="comp1"
         id="feComposite107" />
    </filter>
    <filter
       style="color-interpolation-filters:sRGB"
       inkscape:label="Drop Shadow"
       id="filter126"
       x="-0.058539014"
       y="-0.05716392"
       width="1.1658605"
       height="1.138146">
      <feFlood
         result="flood"
         in="SourceGraphic"
         flood-opacity="0.501961"
         flood-color="rgb(0,0,0)"
         id="feFlood125" />
      <feGaussianBlur
         result="blur"
         in="SourceGraphic"
         stdDeviation="1.000000"
         id="feGaussianBlur125" />
      <feOffset
         result="offset"
         in="blur"
         dx="2.000000"
         dy="1.000000"
         id="feOffset125" />
      <feComposite
         result="comp1"
         operator="in"
         in="flood"
         in2="offset"
         id="feComposite125" />
      <feComposite
         result="comp2"
         operator="over"
         in="SourceGraphic"
         in2="comp1"
         id="feComposite126" />
    </filter>
    <filter
       style="color-interpolation-filters:sRGB"
       inkscape:label="Drop Shadow"
       id="filter133"
       x="-0.11707803"
       y="-0.11432784"
       width="1.2829386"
       height="1.2762923">
      <feFlood
         result="flood"
         in="SourceGraphic"
         flood-opacity="0.200000"
         flood-color="rgb(0,0,0)"
         id="feFlood132" />
      <feGaussianBlur
         result="blur"
         in="SourceGraphic"
         stdDeviation="2.000000"
         id="feGaussianBlur132" />
      <feOffset
         result="offset"
         in="blur"
         dx="2.000000"
         dy="2.000000"
         id="feOffset132" />
      <feComposite
         result="comp1"
         operator="in"
         in="flood"
         in2="offset"
         id="feComposite132" />
      <feComposite
         result="comp2"
         operator="over"
         in="SourceGraphic"
         in2="comp1"
         id="feComposite133" />
    </filter>
    <filter
       style="color-interpolation-filters:sRGB"
       inkscape:label="Drop Shadow"
       id="filter139"
       x="-0.11707803"
       y="-0.11432784"
       width="1.2585473"
       height="1.323929">
      <feFlood
         result="flood"
         in="SourceGraphic"
         flood-opacity="0.400000"
         flood-color="rgb(0,0,0)"
         id="feFlood138" />
      <feGaussianBlur
         result="blur"
         in="SourceGraphic"
         stdDeviation="2.000000"
         id="feGaussianBlur138" />
      <feOffset
         result="offset"
         in="blur"
         dx="1.000000"
         dy="4.000000"
         id="feOffset138" />
      <feComposite
         result="comp1"
         operator="in"
         in="flood"
         in2="offset"
         id="feComposite138" />
      <feComposite
         result="comp2"
         operator="over"
         in="SourceGraphic"
         in2="comp1"
         id="feComposite139" />
    </filter>
    <filter
       style="color-interpolation-filters:sRGB"
       inkscape:label="Drop Shadow"
       id="filter142"
       x="-0.11707803"
       y="-0.11432784"
       width="1.2585473"
       height="1.323929">
      <feFlood
         result="flood"
         in="SourceGraphic"
         flood-opacity="0.301961"
         flood-color="rgb(0,0,0)"
         id="feFlood141" />
      <feGaussianBlur
         result="blur"
         in="SourceGraphic"
         stdDeviation="2.000000"
         id="feGaussianBlur141" />
      <feOffset
         result="offset"
         in="blur"
         dx="1.000000"
         dy="4.000000"
         id="feOffset141" />
      <feComposite
         result="comp1"
         operator="in"
         in="flood"
         in2="offset"
         id="feComposite141" />
      <feComposite
         result="comp2"
         operator="over"
         in="SourceGraphic"
         in2="comp1"
         id="feComposite142" />
    </filter>
    <filter
       style="color-interpolation-filters:sRGB"
       inkscape:label="Drop Shadow"
       id="filter152"
       x="-0.058539014"
       y="-0.05716392"
       width="1.1414694"
       height="1.209601">
      <feFlood
         result="flood"
         in="SourceGraphic"
         flood-opacity="0.200000"
         flood-color="rgb(0,0,0)"
         id="feFlood151" />
      <feGaussianBlur
         result="blur"
         in="SourceGraphic"
         stdDeviation="1.000000"
         id="feGaussianBlur151" />
      <feOffset
         result="offset"
         in="blur"
         dx="1.000000"
         dy="4.000000"
         id="feOffset151" />
      <feComposite
         result="comp1"
         operator="in"
         in="flood"
         in2="offset"
         id="feComposite151" />
      <feComposite
         result="comp2"
         operator="over"
         in="SourceGraphic"
         in2="comp1"
         id="feComposite152" />
    </filter>
    <filter
       style="color-interpolation-filters:sRGB"
       inkscape:label="Drop Shadow"
       id="filter164"
       x="-0.058539014"
       y="-0.05716392"
       width="1.1658605"
       height="1.209601">
      <feFlood
         result="flood"
         in="SourceGraphic"
         flood-opacity="0.501961"
         flood-color="rgb(0,0,0)"
         id="feFlood163" />
      <feGaussianBlur
         result="blur"
         in="SourceGraphic"
         stdDeviation="1.000000"
         id="feGaussianBlur163" />
      <feOffset
         result="offset"
         in="blur"
         dx="2.000000"
         dy="4.000000"
         id="feOffset163" />
      <feComposite
         result="comp1"
         operator="in"
         in="offset"
         in2="flood"
         id="feComposite163" />
      <feComposite
         result="comp2"
         operator="over"
         in="SourceGraphic"
         in2="comp1"
         id="feComposite164" />
    </filter>
    <filter
       style="color-interpolation-filters:sRGB"
       inkscape:label="Drop Shadow"
       id="filter182"
       x="-0.029269507"
       y="-0.02858196"
       width="1.1073215"
       height="1.1286188">
      <feFlood
         result="flood"
         in="SourceGraphic"
         flood-opacity="0.101961"
         flood-color="rgb(0,0,0)"
         id="feFlood181" />
      <feGaussianBlur
         result="blur"
         in="SourceGraphic"
         stdDeviation="0.500000"
         id="feGaussianBlur181" />
      <feOffset
         result="offset"
         in="blur"
         dx="2.000000"
         dy="3.000000"
         id="feOffset181" />
      <feComposite
         result="comp1"
         operator="in"
         in="offset"
         in2="flood"
         id="feComposite181" />
      <feComposite
         result="comp2"
         operator="over"
         in="SourceGraphic"
         in2="comp1"
         id="feComposite182" />
    </filter>
    <filter
       style="color-interpolation-filters:sRGB"
       inkscape:label="Drop Shadow"
       id="filter248"
       x="-0.029269507"
       y="-0.02858196"
       width="1.0829303"
       height="1.0809822">
      <feFlood
         result="flood"
         in="SourceGraphic"
         flood-opacity="0.800000"
         flood-color="rgb(178,178,178)"
         id="feFlood247" />
      <feGaussianBlur
         result="blur"
         in="SourceGraphic"
         stdDeviation="0.500000"
         id="feGaussianBlur247" />
      <feOffset
         result="offset"
         in="blur"
         dx="1.000000"
         dy="1.000000"
         id="feOffset247" />
      <feComposite
         result="comp1"
         operator="in"
         in="flood"
         in2="offset"
         id="feComposite247" />
      <feComposite
         result="comp2"
         operator="over"
         in="SourceGraphic"
         in2="comp1"
         id="feComposite248" />
    </filter>
  </defs>
  <sodipodi:namedview
     id="namedview9"
     pagecolor="#ffffff"
     bordercolor="#000000"
     borderopacity="0.25"
     inkscape:showpageshadow="2"
     inkscape:pageopacity="0.0"
     inkscape:pagecheckerboard="0"
     inkscape:deskcolor="#d1d1d1"
     inkscape:zoom="6.7355299"
     inkscape:cx="18.855235"
     inkscape:cy="32.068746"
     inkscape:window-width="1440"
     inkscape:window-height="823"
     inkscape:window-x="0"
     inkscape:window-y="0"
     inkscape:window-maximized="0"
     inkscape:current-layer="svg9" />
  <path
     fill-rule="nonzero"
     fill="#1edae8"
     fill-opacity="1"
     d="M 40.155951,7.418438 C 36.402589,4.844509 23.68099,-1.9310247 13.664938,2.6138285 2.2180532,7.8078292 3.0040361,16.491476 3.0040361,16.491476 c 0,0 -0.2139505,0.310344 -0.7076114,1.159475 -0.4936132,0.849038 0.5147266,15.449277 0.5147266,15.449277 l -0.6728714,1.640383 1.1082619,1.312548 -0.34204,0.49632 c 0,0 2.5733495,2.505074 2.2422761,3.649188 l 1.7708419,0.351124 c 0,0 0.7199809,1.411263 1.6298008,1.352122 0,0 0.08635,-0.04054 0.246905,-0.118385 0.160508,-0.07789 0.395382,-0.193271 0.69152,-0.342959 0.296139,-0.149735 0.6539794,-0.333826 1.0608134,-0.549322 0.203419,-0.10775 0.418723,-0.223322 0.645186,-0.346341 0.226464,-0.123072 0.463851,-0.253476 0.710127,-0.391036 0.246272,-0.137601 0.501827,-0.282463 0.764916,-0.433843 0.263089,-0.151379 0.533716,-0.309185 0.810527,-0.473561 0.276862,-0.164425 0.559472,-0.335179 0.846816,-0.511877 0.287344,-0.17665 0.579279,-0.359194 0.874017,-0.547344 0.294787,-0.188196 0.592617,-0.382143 0.891703,-0.581066 0.299085,-0.198972 0.599524,-0.403115 0.899868,-0.61204 0.300342,-0.208925 0.600539,-0.422488 0.898997,-0.640643 0.298362,-0.218155 0.59508,-0.440945 0.888514,-0.667604 0.293384,-0.226612 0.578362,-0.445828 0.855946,-0.657652 0.277682,-0.211872 0.54797,-0.416402 0.811688,-0.613827 0.263815,-0.197377 0.521105,-0.387411 0.772937,-0.570583 0.251833,-0.18322 0.498252,-0.359484 0.739937,-0.528788 0.241829,-0.169305 0.478826,-0.331653 0.712492,-0.487381 0.233519,-0.155776 0.463464,-0.304982 0.690797,-0.447469 0.227333,-0.142349 0.452254,-0.278067 0.675239,-0.407561 0.223032,-0.129487 0.444184,-0.252554 0.664852,-0.369339 0.220423,-0.116788 0.44022,-0.227333 0.660307,-0.331749 0.109918,-0.05219 0.220039,-0.102534 0.330252,-0.151765 0.110211,-0.049 0.220664,-0.09688 0.331362,-0.142978 0.110591,-0.04613 0.221537,-0.09078 0.332958,-0.133985 0.111322,-0.04316 0.222936,-0.08462 0.335226,-0.1248 0.112189,-0.04035 0.225256,-0.07914 0.338658,-0.116495 0.113448,-0.03726 0.227721,-0.07325 0.342524,-0.107645 0.114897,-0.0345 0.230426,-0.06742 0.346971,-0.09905 0.116493,-0.0317 0.234146,-0.06209 0.352525,-0.09093 0.118471,-0.02894 0.237722,-0.0563 0.358321,-0.08238 0.120508,-0.02609 0.242073,-0.05098 0.365041,-0.07432 0.122926,-0.02338 0.247143,-0.04566 0.372529,-0.06644 0.125575,-0.02069 0.252218,-0.03997 0.380502,-0.05812 0.128373,-0.01808 0.258258,-0.0349 0.389778,-0.05034 0.131331,-0.01536 0.264299,-0.02995 0.399008,-0.04296 0.0674,-0.0067 0.135097,-0.01407 0.203126,-0.02349 0.0679,-0.0095 0.136299,-0.02054 0.204819,-0.03314 0.137176,-0.02459 0.275459,-0.05469 0.414517,-0.09041 0.139155,-0.03552 0.279033,-0.07659 0.419686,-0.122339 0.140607,-0.0459 0.282127,-0.09673 0.423987,-0.151912 0.141762,-0.05504 0.284254,-0.114517 0.426888,-0.178243 0.142493,-0.06392 0.285218,-0.131716 0.427946,-0.203322 0.142876,-0.07152 0.285751,-0.146836 0.428485,-0.225499 0.142625,-0.07856 0.285119,-0.160703 0.427271,-0.24555 0.142099,-0.08484 0.283479,-0.172542 0.424615,-0.262845 0.140987,-0.0903 0.281546,-0.183172 0.421187,-0.278166 0.139638,-0.09513 0.27879,-0.192353 0.416593,-0.291308 0.137895,-0.09896 0.274493,-0.199407 0.410023,-0.301454 0.13558,-0.102052 0.269805,-0.205446 0.40263,-0.309717 0.132871,-0.104408 0.264444,-0.209795 0.39408,-0.315658 0.12978,-0.106005 0.257679,-0.212501 0.383835,-0.319138 0.126059,-0.106737 0.250334,-0.213611 0.372432,-0.320248 0.244199,-0.213372 0.479795,-0.425872 0.705535,-0.634412 0.225642,-0.208683 0.441235,-0.413502 0.644943,-0.611169 0.20361,-0.197667 0.395432,-0.388038 0.573821,-0.568361 0.178245,-0.18037 0.343249,-0.350304 0.492647,-0.50714 0.149591,-0.156742 0.283527,-0.300199 0.400794,-0.427128 0.117271,-0.127027 0.217816,-0.237626 0.299327,-0.328513 0.163265,-0.181867 0.251493,-0.285268 0.251493,-0.285268 0,0 1.798721,-5.530532 1.687157,-6.430787 -0.111472,-0.900109 -0.975922,-1.770163 -0.975922,-1.770163 l -0.473655,-3.16249 c 0,0 1.724551,-2.1047631 0.635665,-3.3125115 C 41.045044,8.0679533 40.692276,7.786164 40.155951,7.4184195 Z m 0,0"
     id="path1"
     style="display:inline;fill:#9aa4ad;fill-opacity:1;stroke-width:0;stroke-dasharray:none" />
  <path
     fill-rule="nonzero"
     fill="#1a1a1a"
     fill-opacity="1"
     d="m 22.318343,14.592979 c -1.522535,-0.99979 -3.834003,0.07761 -9.471318,1.450833 -5.1325414,1.250268 -8.7394042,1.092703 -10.3386213,0.912092 -0.1013219,0.166598 -0.218879,0.362672 -0.3723352,0.62663 -0.4936618,0.849038 0.5147266,15.449277 0.5147266,15.449277 4.2923933,1.032064 12.8593529,-3.767327 16.0123199,-7.028478 3.152921,-3.261199 6.320722,-7.482808 4.707877,-10.211498 -0.327689,-0.554153 -0.664608,-0.944029 -1.052649,-1.198856 z m 0,0"
     id="path2"
     style="display:inline;fill:#cae5fe;fill-opacity:1;stroke:none;stroke-width:0.972276;stroke-dasharray:none;stroke-opacity:1" />
  <path
     fill-rule="nonzero"
     fill="#148dc7"
     fill-opacity="1"
     d="m 4.1496961,15.360021 c 0,0 5.9416669,-19.5083904 31.7409179,-8.2253529 0,0 -8.864934,-3.7301697 -11.787183,4.2277439 0,0 2.82948,-4.6370426 8.616338,-3.2107058 0,0 -4.853843,0.4058189 -7.793924,6.7964558 0,0 -1.052891,-2.189273 -3.958905,-2.087711 -2.905919,0.101569 -13.4098364,5.12201 -16.8172439,2.49957 z m 0,0"
     id="path3"
     style="fill:#8c96a0;fill-opacity:1;stroke-width:0;stroke-dasharray:none" />
  <path
     fill-rule="nonzero"
     fill="#148dc7"
     fill-opacity="1"
     d="m 34.643923,13.814968 c -4.75291,-1.269932 -8.447226,2.740817 -8.447226,2.740817 0,0 -3.741237,8.216801 -9.985373,13.428098 -6.2441844,5.211444 -14.0730441,4.756728 -14.0730441,4.756728 l 1.1082619,1.312548 -0.34204,0.496319 c 0,0 2.5733495,2.505075 2.2422761,3.649189 l 1.7708419,0.351124 C 14.635445,39.505647 29.642902,23.888421 29.642902,23.888421 29.976873,19.461077 34.643923,13.814968 34.643923,13.814968 Z m 0,0"
     id="path4"
     style="fill:#8c96a0;fill-opacity:1;stroke-width:0;stroke-dasharray:none" />
  <path
     fill-rule="nonzero"
     fill="#148dc7"
     fill-opacity="1"
     d="m 40.545438,11.53162 c 0,0 -3.99872,5.935533 -4.888585,10.811264 0,0 4.213588,-2.535949 6.325795,-5.566431 0.01392,-0.127658 0.0214,-0.239609 0.0123,-0.312232 -0.111558,-0.900202 -0.975919,-1.770259 -0.975919,-1.770259 z m 0,0"
     id="path5"
     style="fill:#8c96a0;fill-opacity:1;stroke-width:0;stroke-dasharray:none" />
  <path
     fill-rule="nonzero"
     fill="#148dc7"
     fill-opacity="1"
     d="m 27.706236,28.764154 5.456606,-5.102197 c 0,0 2.56562,1.507318 4.855295,0.370208 0,0 -5.521016,6.4161 -10.311901,4.731989 z m 0,0"
     id="path6"
     style="fill:#8c96a0;fill-opacity:1;stroke-width:0;stroke-dasharray:none" />
  <path
     fill-rule="nonzero"
     fill="#333333"
     fill-opacity="1"
     d="m 14.669363,16.610578 c 0,0 8.26478,-4.201992 8.730997,1.035543 0,0 -2.672543,-2.035719 -3.692482,-0.08635 -1.019984,1.949423 0.103503,5.764006 0.103503,5.764006 l 1.674835,-1.304094 c 0,0 -1.725762,2.692161 -3.539992,3.447317 0,0 0.593968,-8.841207 -3.276855,-8.856428 z m 0,0"
     id="path7"
     style="fill:#cae5fe;fill-opacity:1;stroke-width:0;stroke-dasharray:none" />
  <path
     fill-rule="nonzero"
     fill="#1a1a1a"
     fill-opacity="1"
     d="m 40.307862,22.894914 c 0,0 -0.08824,0.103544 -0.251495,0.285267 -0.08152,0.09089 -0.182061,0.201486 -0.299327,0.328512 -0.117269,0.127027 -0.251203,0.270385 -0.400794,0.427225 -0.149398,0.156742 -0.314404,0.32682 -0.492647,0.507141 -0.178389,0.180369 -0.370211,0.370742 -0.573821,0.56836 -0.203707,0.197572 -0.4193,0.402535 -0.644943,0.611074 -0.22574,0.208684 -0.461336,0.42104 -0.705535,0.63441 -0.122106,0.106739 -0.246372,0.213614 -0.372432,0.320347 -0.126163,0.106636 -0.254201,0.213128 -0.383835,0.319041 -0.129635,0.106006 -0.261206,0.211245 -0.39408,0.315658 -0.132827,0.104367 -0.267196,0.207816 -0.40263,0.309717 -0.135536,0.102051 -0.272221,0.202499 -0.410023,0.301453 -0.137807,0.09896 -0.276957,0.196315 -0.416593,0.291308 -0.139786,0.09499 -0.280196,0.187859 -0.421187,0.278309 -0.141131,0.09027 -0.282513,0.177857 -0.424615,0.262702 -0.142158,0.08485 -0.284639,0.166987 -0.427271,0.245551 -0.142731,0.07867 -0.285607,0.153988 -0.428485,0.225594 -0.142727,0.07152 -0.285458,0.139406 -0.428092,0.203225 -0.142495,0.06384 -0.284977,0.123217 -0.426742,0.178388 -0.141865,0.05514 -0.283382,0.106008 -0.423988,0.151767 -0.140649,0.04576 -0.28053,0.08683 -0.419685,0.122442 -0.139155,0.03575 -0.277344,0.06571 -0.414517,0.09046 -0.06851,0.01216 -0.136929,0.02347 -0.204819,0.033 -0.06803,0.0095 -0.135726,0.01706 -0.203126,0.02347 -0.134717,0.01304 -0.267682,0.0275 -0.399008,0.04305 -0.131523,0.01547 -0.2614,0.03218 -0.389778,0.05034 -0.128287,0.01808 -0.255069,0.03735 -0.380501,0.05812 -0.125533,0.02068 -0.249609,0.04296 -0.372531,0.06634 -0.122969,0.02347 -0.244535,0.04837 -0.36504,0.07446 -0.120595,0.02609 -0.239945,0.05344 -0.358323,0.08224 -0.118384,0.02885 -0.236032,0.05938 -0.352523,0.09093 -0.11654,0.03166 -0.232073,0.06456 -0.346971,0.09905 -0.11481,0.03455 -0.229075,0.07039 -0.342524,0.10775 -0.113404,0.03725 -0.226464,0.0762 -0.33866,0.116392 -0.112436,0.0402 -0.223902,0.08175 -0.335323,0.124946 -0.111322,0.04316 -0.22226,0.0877 -0.33286,0.133941 -0.110695,0.04613 -0.221149,0.09388 -0.331361,0.142976 -0.110211,0.04915 -0.220329,0.09958 -0.330253,0.151814 -0.220086,0.104264 -0.439883,0.21482 -0.660404,0.331604 -0.22057,0.116788 -0.441721,0.239947 -0.664756,0.369486 -0.222983,0.129341 -0.447904,0.26507 -0.675237,0.40756 -0.227333,0.142494 -0.457278,0.291644 -0.690797,0.447373 -0.233666,0.155728 -0.470664,0.318074 -0.712492,0.487379 -0.241684,0.169307 -0.488105,0.345568 -0.739937,0.528788 -0.251832,0.183171 -0.509122,0.373206 -0.772937,0.570583 -0.263862,0.197426 -0.534006,0.401956 -0.811688,0.613828 -0.277584,0.211824 -0.562562,0.431042 -0.855947,0.6577 -0.293433,0.226608 -0.590151,0.449351 -0.888513,0.667554 -0.298459,0.218156 -0.598655,0.431719 -0.898999,0.640644 -0.30034,0.208926 -0.600781,0.413068 -0.899866,0.611991 -0.299086,0.198975 -0.596917,0.392968 -0.891703,0.581119 -0.294736,0.188195 -0.586673,0.370693 -0.874017,0.547339 -0.287344,0.1767 -0.5701,0.347453 -0.846814,0.511879 -0.276812,0.164378 -0.54744,0.322181 -0.810529,0.473561 -0.26309,0.15138 -0.518642,0.296235 -0.764917,0.433843 -0.246419,0.137558 -0.483662,0.267969 -0.710126,0.391034 -0.226463,0.123012 -0.441767,0.238643 -0.645186,0.346342 -0.406834,0.215497 -0.7647224,0.399588 -1.0608614,0.549323 -0.29614,0.149688 -0.53101,0.26507 -0.691522,0.342959 -0.16051,0.07789 -0.246855,0.118385 -0.246855,0.118385 0,0 0.918132,1.455811 1.9742094,0.719836 1.056129,-0.735966 13.396259,-6.961113 18.014557,-8.352758 4.618345,-1.391694 11.362859,-6.532739 12.627477,-9.960923 z m 0,0"
     id="path8"
     style="fill:#6c7784;fill-opacity:1;stroke-width:0;stroke-dasharray:none" />
  <path
     fill-rule="nonzero"
     fill="#1edae8"
     fill-opacity="1"
     d="m 10.849177,8.8428884 4.444452,0.6780906 c 0,0 3.013279,-3.6912738 8.587638,-4.5198731 0,0 -7.081048,-1.28061 -13.03209,3.8417825 z m 0,0"
     id="path9"
     style="fill:#9aa4ad;fill-opacity:1;stroke-width:0;stroke-dasharray:none" />
</svg>
