<?xml version="1.0" encoding="UTF-8" standalone="no"?>
<svg
   width="512"
   height="512"
   viewBox="0 0 512 512"
   version="1.1"
   id="svg9"
   sodipodi:docname="logo-example.svg"
   inkscape:version="1.4 (e7c3feb1, 2024-10-09)"
   xmlns:inkscape="http://www.inkscape.org/namespaces/inkscape"
   xmlns:sodipodi="http://sodipodi.sourceforge.net/DTD/sodipodi-0.dtd"
   xmlns="http://www.w3.org/2000/svg"
   xmlns:svg="http://www.w3.org/2000/svg">
  <defs
     id="defs9" />
  <sodipodi:namedview
     id="namedview9"
     pagecolor="#ffffff"
     bordercolor="#000000"
     borderopacity="0.25"
     inkscape:showpageshadow="2"
     inkscape:pageopacity="0.0"
     inkscape:pagecheckerboard="0"
     inkscape:deskcolor="#d1d1d1"
     inkscape:zoom="0.7886056"
     inkscape:cx="128.70819"
     inkscape:cy="302.43255"
     inkscape:window-width="1440"
     inkscape:window-height="900"
     inkscape:window-x="0"
     inkscape:window-y="0"
     inkscape:window-maximized="0"
     inkscape:current-layer="svg9" />
  <rect
     x="0"
     y="0"
     width="512"
     height="512"
     fill="#ffffff"
     fill-opacity="1"
     id="rect1"
     style="display:inline;stroke-width:0.113778" />
  <path
     fill-rule="nonzero"
     fill="#1edae8"
     fill-opacity="1"
     d="M 422.36934,122.27467 C 387.84445,98.59867 270.82622,36.27467 178.69467,78.08 73.40178,125.85644 80.63156,205.732 80.63156,205.732 c 0,0 -1.968,2.85467 -6.50889,10.66533 -4.54045,7.80978 4.73466,142.10845 4.73466,142.10845 L 72.668,373.59467 82.86222,385.668 79.716,390.23334 c 0,0 23.67067,23.04266 20.62533,33.56666 l 16.28889,3.22978 c 0,0 6.62267,12.98134 14.99156,12.43733 0,0 0.79422,-0.37288 2.27111,-1.08889 1.47644,-0.71644 3.63689,-1.77778 6.36089,-3.15467 2.724,-1.37732 6.01555,-3.07066 9.75778,-5.05288 1.87111,-0.99112 3.85155,-2.05422 5.93466,-3.18578 2.08311,-1.132 4.26667,-2.33156 6.53201,-3.59689 2.26532,-1.26578 4.616,-2.59822 7.03599,-3.99066 2.42,-1.39245 4.90933,-2.84401 7.45555,-4.35601 2.54668,-1.51244 5.14623,-3.0831 7.78934,-4.70844 2.64311,-1.62489 5.32844,-3.30401 8.03955,-5.03467 2.71157,-1.73111 5.45112,-3.51511 8.20223,-5.34489 2.75111,-1.83022 5.51466,-3.708 8.27734,-5.62977 2.76266,-1.92178 5.524,-3.88623 8.26933,-5.89289 2.74444,-2.00667 5.47377,-4.056 8.17289,-6.14089 2.69866,-2.08445 5.31999,-4.10089 7.87333,-6.04933 2.55422,-1.94889 5.04044,-3.83023 7.46622,-5.64623 2.42666,-1.81555 4.79333,-3.56355 7.10978,-5.24844 2.31645,-1.68533 4.5831,-3.30667 6.80622,-4.864 2.22445,-1.55733 4.40444,-3.05067 6.55378,-4.48312 2.148,-1.43288 4.26311,-2.80533 6.35422,-4.11599 2.09111,-1.30934 4.16,-2.55778 6.21112,-3.7489 2.05154,-1.1911 4.08577,-2.3231 6.11555,-3.39732 2.02755,-1.07422 4.04933,-2.09111 6.07378,-3.05157 1.01111,-0.47999 2.02399,-0.9431 3.03777,-1.39599 1.01379,-0.45067 2.02978,-0.89111 3.04801,-1.31511 1.01733,-0.42444 2.03777,-0.83511 3.06266,-1.23245 1.024,-0.39689 2.05067,-0.77822 3.08356,-1.148 1.03199,-0.37111 2.07199,-0.728 3.11511,-1.07155 1.04355,-0.34266 2.09467,-0.67378 3.15066,-0.99022 1.05689,-0.31734 2.11956,-0.62001 3.19156,-0.91112 1.07156,-0.29156 2.15378,-0.57111 3.24267,-0.83644 1.08977,-0.26623 2.18666,-0.51778 3.29599,-0.75778 1.10845,-0.24 2.22667,-0.46889 3.35779,-0.68355 1.13066,-0.21511 2.27332,-0.42 3.42665,-0.61112 1.15512,-0.19022 2.32001,-0.36756 3.50001,-0.53466 1.18089,-0.16622 2.37556,-0.32089 3.58533,-0.46311 1.20801,-0.14134 2.43112,-0.27556 3.67023,-0.39512 0.61999,-0.0613 1.24266,-0.12933 1.86844,-0.21599 0.62444,-0.0876 1.25378,-0.1889 1.884,-0.30489 1.26178,-0.22623 2.53378,-0.50312 3.81289,-0.83156 1.28,-0.32667 2.56667,-0.70444 3.86045,-1.12533 1.29333,-0.42223 2.59511,-0.88978 3.89999,-1.39734 1.304,-0.50622 2.61467,-1.05333 3.92667,-1.63955 1.31067,-0.588 2.62355,-1.21156 3.93644,-1.87022 1.31423,-0.65778 2.62844,-1.35067 3.94134,-2.07423 1.312,-0.72267 2.62266,-1.47822 3.93022,-2.25867 1.30711,-0.78043 2.60755,-1.58711 3.90578,-2.41777 1.29688,-0.83066 2.58977,-1.68488 3.87422,-2.55866 1.28444,-0.87511 2.56444,-1.76934 3.832,-2.67956 1.26844,-0.91022 2.52489,-1.83422 3.77155,-2.77289 1.24711,-0.93867 2.48178,-1.88978 3.70356,-2.84889 1.22223,-0.96045 2.43245,-1.92978 3.62489,-2.90355 1.19378,-0.97511 2.37022,-1.95467 3.53066,-2.93556 1.15956,-0.98178 2.30267,-1.96489 3.42578,-2.94578 2.24623,-1.96266 4.41334,-3.91733 6.48979,-5.83556 2.07554,-1.91955 4.05865,-3.80355 5.93244,-5.62177 1.87288,-1.81822 3.63733,-3.56933 5.27822,-5.228 1.63956,-1.65911 3.15733,-3.22223 4.53155,-4.66488 1.37601,-1.44178 2.608,-2.76135 3.68667,-3.9289 1.07866,-1.16844 2.00355,-2.18577 2.75333,-3.02178 1.50178,-1.67288 2.31333,-2.624 2.31333,-2.624 0,0 16.54534,-50.872 15.51912,-59.15288 -1.02534,-8.27957 -8.97689,-16.28267 -8.97689,-16.28267 L 425.95201,160.108 c 0,0 15.8631,-19.36044 5.8471,-30.46978 -1.25155,-1.38889 -4.49645,-3.98089 -9.42977,-7.36355 z m 0,0"
     id="path1"
     style="display:inline;stroke-width:0.113778" />
  <path
     fill-rule="nonzero"
     fill="#1a1a1a"
     fill-opacity="1"
     d="m 259.76711,188.89822 c -14.00489,-9.19644 -35.26667,0.71378 -87.12089,13.34534 -47.21111,11.50044 -80.38844,10.05111 -95.09866,8.38977 -0.932,1.53245 -2.01334,3.336 -3.42489,5.764 -4.54089,7.80978 4.73466,142.10845 4.73466,142.10845 39.48311,9.49333 118.28533,-34.65333 147.28756,-64.65067 29.00178,-29.99778 58.14045,-68.82978 43.30488,-93.92933 -3.01421,-5.09733 -6.11332,-8.68356 -9.68266,-11.02756 z m 0,0"
     id="path2"
     style="display:inline;stroke-width:0.113778" />
  <path
     fill-rule="nonzero"
     fill="#148dc7"
     fill-opacity="1"
     d="m 91.16978,195.32444 c 0,0 54.65378,-179.44577 291.96533,-75.66 0,0 -81.54311,-34.31155 -108.42311,38.88845 0,0 26.02667,-42.65333 79.25644,-29.53333 0,0 -44.64755,3.73288 -71.69155,62.51644 0,0 -9.68489,-20.13778 -36.41556,-19.20356 -26.72977,0.93423 -123.34889,47.11423 -154.69155,22.992 z m 0,0"
     id="path3"
     style="stroke-width:0.113778" />
  <path
     fill-rule="nonzero"
     fill="#148dc7"
     fill-opacity="1"
     d="m 371.66756,181.11244 c -43.71912,-11.68133 -77.70089,25.21112 -77.70089,25.21112 0,0 -34.41334,75.58133 -91.84934,123.51688 C 144.68089,377.77733 72.668,373.59467 72.668,373.59467 L 82.86222,385.668 79.716,390.23333 c 0,0 23.67067,23.04267 20.62533,33.56667 l 16.28889,3.22978 c 70.99156,-9.60445 209.036,-153.25778 209.036,-153.25778 3.072,-40.72444 46.00134,-92.65956 46.00134,-92.65956 z m 0,0"
     id="path4"
     style="stroke-width:0.113778" />
  <path
     fill-rule="nonzero"
     fill="#148dc7"
     fill-opacity="1"
     d="m 425.952,160.10933 c 0,0 -36.78178,54.59734 -44.96711,99.44623 0,0 38.75822,-23.32667 58.18711,-51.20223 0.12844,-1.17422 0.19689,-2.204 0.11378,-2.872 -1.02622,-8.28044 -8.97689,-16.28355 -8.97689,-16.28355 z m 0,0"
     id="path5"
     style="stroke-width:0.113778" />
  <path
     fill-rule="nonzero"
     fill="#148dc7"
     fill-opacity="1"
     d="m 307.852,318.62089 50.192,-46.932 c 0,0 23.59956,13.86489 44.66089,3.40533 0,0 -50.78445,59.01778 -94.85289,43.52667 z m 0,0"
     id="path6"
     style="stroke-width:0.113778" />
  <path
     fill-rule="nonzero"
     fill="#333333"
     fill-opacity="1"
     d="m 187.93378,206.82756 c 0,0 76.02266,-38.65156 80.31111,9.52533 0,0 -24.58311,-18.72533 -33.96489,-0.79422 -9.38222,17.93155 0.952,53.01955 0.952,53.01955 l 15.40578,-11.99555 c 0,0 -15.87422,24.76355 -32.56222,31.70977 0,0 5.46355,-81.32488 -30.14178,-81.46488 z m 0,0"
     id="path7"
     style="stroke-width:0.113778" />
  <path
     fill-rule="nonzero"
     fill="#1a1a1a"
     fill-opacity="1"
     d="m 423.76667,264.63333 c 0,0 -0.81156,0.95245 -2.31334,2.624 -0.74977,0.836 -1.67466,1.85334 -2.75333,3.02178 -1.07867,1.16845 -2.31067,2.48711 -3.68667,3.92978 -1.37422,1.44178 -2.892,3.00622 -4.53155,4.66489 -1.64089,1.65911 -3.40534,3.41022 -5.27822,5.228 -1.87378,1.81733 -3.85689,3.70266 -5.93245,5.62089 -2.07644,1.91955 -4.24355,3.87289 -6.48978,5.83555 -1.12311,0.98178 -2.26622,1.96489 -3.42578,2.94667 -1.16044,0.98089 -2.33822,1.96044 -3.53066,2.93467 -1.19245,0.97511 -2.40267,1.94311 -3.62489,2.90355 -1.22178,0.96 -2.45778,1.91156 -3.70356,2.84889 -1.24666,0.93867 -2.504,1.86267 -3.77155,2.77289 -1.26756,0.91022 -2.54756,1.80578 -3.832,2.67955 -1.28578,0.87378 -2.57733,1.728 -3.87422,2.56 -1.29823,0.83023 -2.59867,1.636 -3.90578,2.41645 -1.30756,0.78044 -2.61822,1.536 -3.93022,2.25867 -1.31289,0.72355 -2.62711,1.41644 -3.94134,2.07511 -1.31289,0.65778 -2.62577,1.28222 -3.93777,1.86933 -1.31067,0.58711 -2.62134,1.13333 -3.92534,1.64089 -1.30489,0.50711 -2.60666,0.97511 -3.9,1.396 -1.29378,0.42089 -2.58044,0.79866 -3.86044,1.12622 -1.28,0.32889 -2.55111,0.60445 -3.81289,0.832 -0.63022,0.11245 -1.25956,0.216 -1.884,0.30356 -0.62578,0.0876 -1.24845,0.15689 -1.86844,0.216 -1.23912,0.11955 -2.46223,0.25289 -3.67023,0.396 -1.20978,0.14222 -2.40444,0.296 -3.58533,0.46311 -1.18,0.16622 -2.34622,0.34355 -3.5,0.53466 -1.15467,0.19023 -2.296,0.39512 -3.42667,0.61023 -1.13111,0.216 -2.24933,0.44488 -3.35778,0.68489 -1.10933,0.24 -2.20711,0.49155 -3.296,0.75644 -1.08888,0.26533 -2.17111,0.54622 -3.24266,0.83645 -1.072,0.29111 -2.13467,0.59377 -3.19156,0.91111 -1.056,0.31777 -2.10711,0.64755 -3.15066,0.99111 -1.04312,0.34266 -2.08312,0.70089 -3.11512,1.07066 -1.03422,0.36978 -2.05955,0.752 -3.08444,1.14934 -1.024,0.39689 -2.04444,0.80666 -3.06178,1.232 -1.01822,0.42444 -2.03422,0.86355 -3.048,1.31511 -1.01378,0.452 -2.02666,0.916 -3.03778,1.39644 -2.02444,0.95911 -4.04622,1.976 -6.07466,3.05022 -2.02889,1.07423 -4.06311,2.20712 -6.11467,3.39867 -2.05111,1.18978 -4.12,2.43822 -6.21111,3.74889 -2.09111,1.31067 -4.20622,2.68267 -6.35422,4.11511 -2.14934,1.43245 -4.32934,2.92578 -6.55378,4.48311 -2.22311,1.55734 -4.48978,3.17867 -6.80622,4.864 -2.31645,1.68489 -4.68311,3.43289 -7.10978,5.24845 -2.42711,1.816 -4.912,3.69733 -7.46622,5.64622 -2.55334,1.94844 -5.17467,3.96489 -7.87334,6.04978 -2.69911,2.08444 -5.42844,4.13333 -8.17288,6.14044 -2.74534,2.00667 -5.50667,3.97111 -8.26934,5.89289 -2.76266,1.92178 -5.52622,3.79955 -8.27733,5.62933 -2.75111,1.83023 -5.49067,3.61467 -8.20222,5.34534 -2.71111,1.73111 -5.39645,3.40977 -8.03956,5.03466 -2.64311,1.62534 -5.244,3.196 -7.78933,4.70845 -2.54622,1.512 -5.03556,2.96355 -7.45556,4.356 -2.42,1.39244 -4.77066,2.72489 -7.036,3.99066 -2.26666,1.26534 -4.44889,2.46489 -6.532,3.59689 -2.08311,1.13156 -4.06355,2.19511 -5.93466,3.18578 -3.74223,1.98222 -7.03423,3.67556 -9.75823,5.05289 -2.724,1.37689 -4.88444,2.43822 -6.36089,3.15467 -1.47644,0.71644 -2.27066,1.08888 -2.27066,1.08888 0,0 8.44533,13.39112 18.15955,6.62134 9.71467,-6.76978 123.224,-64.03111 165.70489,-76.832 42.48134,-12.80133 104.52,-60.09067 116.15245,-91.62445 z m 0,0"
     id="path8"
     style="stroke-width:0.113778" />
  <path
     fill-rule="nonzero"
     fill="#1edae8"
     fill-opacity="1"
     d="m 152.79422,135.37733 40.88178,6.23734 c 0,0 27.71733,-33.95378 78.99244,-41.57556 0,0 -65.13422,-11.77955 -119.87422,35.33822 z m 0,0"
     id="path9"
     style="stroke-width:0.113778" />
</svg>
