<?xml version="1.0" encoding="UTF-8" standalone="no"?>
<svg
   height="48"
   viewBox="0 -960 960 960"
   width="48"
   fill="#5f6368"
   version="1.1"
   id="svg1"
   sodipodi:docname="logo.svg"
   inkscape:version="1.4 (e7c3feb1, 2024-10-09)"
   inkscape:export-filename="logo.png"
   inkscape:export-xdpi="96"
   inkscape:export-ydpi="96"
   xmlns:inkscape="http://www.inkscape.org/namespaces/inkscape"
   xmlns:sodipodi="http://sodipodi.sourceforge.net/DTD/sodipodi-0.dtd"
   xmlns="http://www.w3.org/2000/svg"
   xmlns:svg="http://www.w3.org/2000/svg">
  <defs
     id="defs1">
    <filter
       style="color-interpolation-filters:sRGB"
       inkscape:label="Drop Shadow"
       id="filter15"
       x="-0.056687264"
       y="-0.055503251"
       width="1.1234973"
       height="1.1110065">
      <feFlood
         result="flood"
         in="SourceGraphic"
         flood-opacity="0.400000"
         flood-color="rgb(0,0,0)"
         id="feFlood14" />
      <feGaussianBlur
         result="blur"
         in="SourceGraphic"
         stdDeviation="14.000000"
         id="feGaussianBlur14" />
      <feOffset
         result="offset"
         in="blur"
         dx="6.000000"
         dy="0.000000"
         id="feOffset14" />
      <feComposite
         result="comp1"
         operator="in"
         in="flood"
         in2="offset"
         id="feComposite14" />
      <feComposite
         result="comp2"
         operator="over"
         in="SourceGraphic"
         in2="comp1"
         id="feComposite15" />
    </filter>
  </defs>
  <sodipodi:namedview
     id="namedview1"
     pagecolor="#ffffff"
     bordercolor="#000000"
     borderopacity="0.25"
     inkscape:showpageshadow="true"
     inkscape:pageopacity="0.0"
     inkscape:pagecheckerboard="0"
     inkscape:deskcolor="#d1d1d1"
     inkscape:zoom="8.770181"
     inkscape:cx="21.26524"
     inkscape:cy="28.220626"
     inkscape:window-width="1440"
     inkscape:window-height="900"
     inkscape:window-x="0"
     inkscape:window-y="0"
     inkscape:window-maximized="0"
     inkscape:current-layer="svg1"
     showborder="false"
     borderlayer="true" />
  <path
     d="m 83.792347,-294.8734 q -10.446763,-103.2536 7.178773,-192.78603 17.62555,-89.53242 63.68268,-168.24763 l 203.7285,8.79139 q 39.73294,1.28175 70.28298,23.85149 30.55003,22.56971 43.83675,59.55221 17.7156,49.31003 -4.34356,95.26991 -22.05914,45.95989 -73.10583,63.93916 z"
     id="path2"
     style="fill:#cdd2d7;fill-opacity:1;stroke:none;stroke-width:9.20452;stroke-dasharray:none;stroke-opacity:1" />
  <path
     d="m 462.41416,-446.50612 -345.77447,123.00007 q -16.958959,6.0327 -34.370289,-2.63308 -17.41132,-8.66578 -23.44402,-25.62475 -14.74661,-41.45525 -19.15748,-64.29806 -4.41088,-22.84282 -6.0679,-42.4197 l 239.309849,-85.12811 q 46.16607,-16.42236 66.50106,-59.2124 20.33499,-42.79005 3.57749,-89.89829 -11.73025,-32.97576 -39.85346,-55.34394 -28.12321,-22.36817 -67.06839,-24.43524 l -139.845929,-2.26142 q 36.990449,-48.18409 83.143599,-81.05332 46.15315,-32.86923 106.4517,-54.31884 99.86946,-35.5259 194.96613,6.53505 95.09667,42.06095 129.95228,140.04609 34.8556,97.98513 -8.2108,190.25531 -43.0664,92.27017 -140.10937,126.79063 z"
     id="path1"
     style="fill:#919ba5;fill-opacity:1;stroke:none;stroke-width:11;stroke-dasharray:none;stroke-opacity:1;filter:url(#filter15)"
     transform="matrix(1.3214687,0,0,1.3084234,47.889547,332.57373)" />
  <path
     style="fill:#485fcf;stroke:#919ba5;stroke-width:42.0347;stroke-linecap:round;stroke-dasharray:none;stroke-opacity:1"
     d="M 304.14934,-45.975778 733.76081,-198.24646"
     id="path3" />
</svg>
