<?xml version="1.0" encoding="UTF-8" standalone="no"?>
<svg
   height="22"
   viewBox="0 -960 880 880"
   width="22"
   fill="#1f1f1f"
   version="1.1"
   id="svg1"
   sodipodi:docname="logo.svg"
   inkscape:version="1.4 (e7c3feb1, 2024-10-09)"
   xmlns:inkscape="http://www.inkscape.org/namespaces/inkscape"
   xmlns:sodipodi="http://sodipodi.sourceforge.net/DTD/sodipodi-0.dtd"
   xmlns="http://www.w3.org/2000/svg"
   xmlns:svg="http://www.w3.org/2000/svg">
  <defs
     id="defs1" />
  <sodipodi:namedview
     id="namedview1"
     pagecolor="#ffffff"
     bordercolor="#000000"
     borderopacity="0.25"
     inkscape:showpageshadow="2"
     inkscape:pageopacity="0.0"
     inkscape:pagecheckerboard="0"
     inkscape:deskcolor="#d1d1d1"
     inkscape:zoom="16.116914"
     inkscape:cx="8.4383399"
     inkscape:cy="13.557186"
     inkscape:window-width="1440"
     inkscape:window-height="900"
     inkscape:window-x="0"
     inkscape:window-y="0"
     inkscape:window-maximized="0"
     inkscape:current-layer="svg1" />
  <path
     d="m 440,-120 q -83,0 -156,-31.5 Q 211,-183 157,-237 103,-291 71.5,-364 40,-437 40,-520 q 0,-83 31.5,-156 31.5,-73 85.5,-127 54,-54 127,-85.5 73,-31.5 156,-31.5 83,0 156,31.5 73,31.5 127,85.5 54,54 85.5,127 31.5,73 31.5,156 0,83 -31.5,156 -31.5,73 -85.5,127 -54,54 -127,85.5 -73,31.5 -156,31.5 z"
     id="path1"
     style="fill:#9aa4ad;fill-opacity:1" />
  <g
     id="g1"
     style="fill:#abb1ba;fill-opacity:1;stroke-width:30;stroke-dasharray:none;stroke:#ffffff;stroke-opacity:1">
    <path
       d="m 608,-744 28,-28 q -33,-26 -72.5,-43 -39.5,-17 -83.5,-22 v 40 q 35,5 67.5,19 32.5,14 60.5,34 z"
       id="path11"
       style="fill:#abb1ba;fill-opacity:1;stroke-width:30;stroke-dasharray:none;stroke:#ffffff;stroke-opacity:1" />
    <path
       d="m 273,-744 q 28,-20 60,-34 32,-14 67,-19 v -40 q -44,5 -83.5,21.5 Q 277,-799 244,-773 Z"
       id="path10"
       style="fill:#abb1ba;fill-opacity:1;stroke-width:30;stroke-dasharray:none;stroke:#ffffff;stroke-opacity:1" />
    <path
       d="m 717,-560 h 40 q -5,-44 -22,-83.5 -17,-39.5 -43,-72.5 l -28,28 q 20,28 34,60.5 14,32.5 19,67.5 z"
       id="path9"
       style="fill:#abb1ba;fill-opacity:1;stroke-width:30;stroke-dasharray:none;stroke:#ffffff;stroke-opacity:1" />
    <path
       d="m 123,-560 h 40 q 5,-35 19,-67 14,-32 34,-60 l -29,-29 q -26,33 -42.5,72.5 Q 128,-604 123,-560 Z"
       id="path8"
       style="fill:#abb1ba;fill-opacity:1;stroke-width:30;stroke-dasharray:none;stroke:#ffffff;stroke-opacity:1" />
    <path
       d="m 187,-324 29,-29 q -20,-28 -34,-60 -14,-32 -19,-67 h -40 q 5,44 21.5,83.5 16.5,39.5 42.5,72.5 z"
       id="path6"
       style="fill:#abb1ba;fill-opacity:1;stroke-width:30;stroke-dasharray:none;stroke:#ffffff;stroke-opacity:1" />
    <path
       d="m 693,-324 q 26,-33 42.5,-72.5 Q 752,-436 757,-480 h -40 q -5,35 -19,67.5 -14,32.5 -34,60.5 z"
       id="path5"
       style="fill:#abb1ba;fill-opacity:1;stroke-width:30;stroke-dasharray:none;stroke:#ffffff;stroke-opacity:1" />
    <path
       d="m 480,-203 q 44,-5 83.5,-21.5 Q 603,-241 636,-267 l -28,-29 q -28,20 -60.5,34 -32.5,14 -67.5,19 z"
       id="path3"
       style="fill:#abb1ba;fill-opacity:1;stroke-width:30;stroke-dasharray:none;stroke:#ffffff;stroke-opacity:1" />
    <path
       d="m 400,-203 v -40 q -35,-5 -67.5,-19 -32.5,-14 -60.5,-34 l -28,29 q 33,26 72.5,42.5 39.5,16.5 83.5,21.5 z"
       id="path2"
       style="fill:#abb1ba;fill-opacity:1;stroke-width:30;stroke-dasharray:none;stroke:#ffffff;stroke-opacity:1" />
  </g>
  <path
     d="m 440,-320 q 83,0 141.5,-58.5 Q 640,-437 640,-520 640,-603 581.5,-661.5 523,-720 440,-720 357,-720 298.5,-661.5 240,-603 240,-520 q 0,83 58.5,141.5 Q 357,-320 440,-320 Z"
     id="path4"
     style="fill:#ffffff;fill-opacity:1" />
  <path
     d="M 426.90909,-397.07482 356.54546,-498.7755 Q 350,-508.50339 350,-520 q 0,-11.49661 6.54546,-21.2245 l 70.36363,-101.70068 Q 431.81818,-650 440,-650 q 8.18181,0 13.0909,7.07483 l 70.36364,101.70067 Q 530,-531.49661 530,-520 q 0,11.49661 -6.54546,21.2245 L 453.0909,-397.07482 Q 448.18181,-390 440,-390 q -8.18182,0 -13.09091,-7.07482 z"
     id="path7"
     style="fill:#ff3333;fill-opacity:1;stroke-width:0.850625" />
</svg>
