<?xml version="1.0" encoding="UTF-8" standalone="no"?>
<!-- Created with Inkscape (http://www.inkscape.org/) -->

<svg
   width="60mm"
   height="60mm"
   viewBox="0 0 60.000001 60"
   version="1.1"
   id="svg1"
   inkscape:version="1.4 (e7c3feb1, 2024-10-09)"
   sodipodi:docname="logo.svg"
   xmlns:inkscape="http://www.inkscape.org/namespaces/inkscape"
   xmlns:sodipodi="http://sodipodi.sourceforge.net/DTD/sodipodi-0.dtd"
   xmlns="http://www.w3.org/2000/svg"
   xmlns:svg="http://www.w3.org/2000/svg">
  <sodipodi:namedview
     id="namedview1"
     pagecolor="#ffffff"
     bordercolor="#000000"
     borderopacity="0.25"
     inkscape:showpageshadow="2"
     inkscape:pageopacity="0.0"
     inkscape:pagecheckerboard="0"
     inkscape:deskcolor="#d1d1d1"
     inkscape:document-units="mm"
     inkscape:zoom="1.482589"
     inkscape:cx="27.317079"
     inkscape:cy="174.6944"
     inkscape:window-width="1440"
     inkscape:window-height="821"
     inkscape:window-x="0"
     inkscape:window-y="0"
     inkscape:window-maximized="0"
     inkscape:current-layer="svg1" />
  <defs
     id="defs1" />
  <path
     id="path5"
     style="fill:#b2a88f;fill-opacity:1;stroke:none;stroke-width:0;stroke-dasharray:none;stroke-opacity:1"
     d="m 28.297363,10.601611 a 23.5,23.5 0 0 0 -21.642089,12.635404 23.5,23.5 0 0 0 4.227648,27.468088 23.5,23.5 0 0 0 27.468091,4.22817 23.5,23.5 0 0 0 12.291756,-24.925612 l -3.446818,0.607715 A 20,20 0 0 1 36.735091,51.828553 20,20 0 0 1 13.357707,48.230323 20,20 0 0 1 9.759994,24.853454 20,20 0 0 1 30.973169,14.392077 l 0.607715,-3.446818 a 23.5,23.5 0 0 0 -3.283521,-0.343648 z" />
  <path
     style="fill:#ffd980;fill-opacity:1;stroke:#ccad67;stroke-width:0.5;stroke-dasharray:none;stroke-opacity:1"
     id="path2-6"
     sodipodi:type="arc"
     sodipodi:cx="27.250057"
     sodipodi:cy="33.839218"
     sodipodi:rx="17"
     sodipodi:ry="17"
     sodipodi:start="6.1086524"
     sodipodi:end="4.8869219"
     sodipodi:arc-type="slice"
     d="M 43.991789,30.887199 A 17,17 0 0 1 35.099783,48.918402 17,17 0 0 1 15.229242,45.860033 17,17 0 0 1 12.170873,25.989492 17,17 0 0 1 30.202076,17.097486 l -2.952019,16.741732 z" />
  <path
     style="fill:#ffd980;fill-opacity:1;stroke:#ccad67;stroke-width:0.5;stroke-dasharray:none;stroke-opacity:1"
     id="path2-6-0"
     sodipodi:type="arc"
     sodipodi:cx="32.246712"
     sodipodi:cy="29.068451"
     sodipodi:rx="17"
     sodipodi:ry="17"
     sodipodi:start="4.8869219"
     sodipodi:end="6.1086524"
     sodipodi:arc-type="slice"
     d="M 35.198731,12.326719 A 17,17 0 0 1 48.988444,26.116432 L 32.246712,29.068451 Z" />
  <path
     style="fill:#d93a2c;fill-opacity:1;stroke:none;stroke-width:0;stroke-dasharray:none"
     d="m 38.967313,15.958648 c 0.829688,0 1.5,0.67044 1.5,1.50029 0,0.82985 -0.670312,1.5003 -1.5,1.5003 -0.829687,0 -1.5,-0.67045 -1.5,-1.5003 0,-0.82985 0.670313,-1.50029 1.5,-1.50029 z"
     id="path3-2-6-6" />
  <path
     style="fill:#d93a2c;fill-opacity:1;stroke:none;stroke-width:0;stroke-dasharray:none"
     d="m 43.653372,21.293276 c 0.829688,0 1.5,0.67044 1.5,1.50029 0,0.82985 -0.670312,1.5003 -1.5,1.5003 -0.829687,0 -1.5,-0.67045 -1.5,-1.5003 0,-0.82985 0.670313,-1.50029 1.5,-1.50029 z"
     id="path3-2-6-4" />
  <path
     style="fill:#d93a2c;fill-opacity:1;stroke:none;stroke-width:0;stroke-dasharray:none"
     d="m 38.173563,23.102398 c 0.829688,0 1.5,0.67044 1.5,1.50029 0,0.82985 -0.670312,1.5003 -1.5,1.5003 -0.829687,0 -1.5,-0.67045 -1.5,-1.5003 0,-0.82985 0.670313,-1.50029 1.5,-1.50029 z"
     id="path3-2-6-1" />
  <path
     style="fill:#d93a2c;fill-opacity:1;stroke:none;stroke-width:0;stroke-dasharray:none"
     d="m 25.882053,20.229678 c 0.829688,0 1.5,0.670444 1.5,1.500297 0,0.829851 -0.670312,1.500294 -1.5,1.500294 -0.829687,0 -1.5,-0.670443 -1.5,-1.500294 0,-0.829853 0.670313,-1.500297 1.5,-1.500297 z"
     id="path3-0" />
  <path
     style="fill:#d93a2c;fill-opacity:1;stroke:none;stroke-width:0;stroke-dasharray:none"
     d="m 17.098098,24.848313 c 0.829688,0 1.5,0.670444 1.5,1.500297 0,0.829851 -0.670312,1.500294 -1.5,1.500294 -0.829687,0 -1.5,-0.670443 -1.5,-1.500294 0,-0.829853 0.670313,-1.500297 1.5,-1.500297 z"
     id="path3-1-4" />
  <path
     style="fill:#d93a2c;fill-opacity:1;stroke:none;stroke-width:0;stroke-dasharray:none"
     d="m 21.866487,31.651462 c 0.829688,0 1.5,0.670444 1.5,1.500297 0,0.829851 -0.670312,1.500294 -1.5,1.500294 -0.829687,0 -1.5,-0.670443 -1.5,-1.500294 0,-0.829853 0.670313,-1.500297 1.5,-1.500297 z"
     id="path3-2-5-0" />
  <path
     style="fill:#d93a2c;fill-opacity:1;stroke:none;stroke-width:0;stroke-dasharray:none"
     d="m 15.062113,34.161445 c 0.829688,0 1.5,0.67045 1.5,1.5003 0,0.82985 -0.670312,1.50029 -1.5,1.50029 -0.829687,0 -1.5,-0.67044 -1.5,-1.50029 0,-0.82985 0.670313,-1.5003 1.5,-1.5003 z"
     id="path3-8-5" />
  <path
     style="fill:#d93a2c;fill-opacity:1;stroke:none;stroke-width:0;stroke-dasharray:none"
     d="m 37.654469,35.320499 c 0.829688,0 1.5,0.67044 1.5,1.50029 0,0.82985 -0.670312,1.5003 -1.5,1.5003 -0.829687,0 -1.5,-0.67045 -1.5,-1.5003 0,-0.82985 0.670313,-1.50029 1.5,-1.50029 z"
     id="path3-2-6" />
  <path
     style="fill:#d93a2c;fill-opacity:1;stroke:none;stroke-width:0;stroke-dasharray:none"
     d="m 27.824326,37.08288 c 0.829688,0 1.5,0.67045 1.5,1.5003 0,0.82985 -0.670312,1.5003 -1.5,1.5003 -0.829687,0 -1.5,-0.67045 -1.5,-1.5003 0,-0.82985 0.670313,-1.5003 1.5,-1.5003 z"
     id="path3-4-8" />
  <path
     style="fill:#d93a2c;fill-opacity:1;stroke:none;stroke-width:0;stroke-dasharray:none"
     d="m 21.682732,43.841773 c 0.829688,0 1.5,0.67045 1.5,1.5003 0,0.82985 -0.670312,1.50029 -1.5,1.50029 -0.829687,0 -1.5,-0.67044 -1.5,-1.50029 0,-0.82985 0.670313,-1.5003 1.5,-1.5003 z"
     id="path3-5-5" />
  <path
     style="fill:#d93a2c;fill-opacity:1;stroke:none;stroke-width:0;stroke-dasharray:none"
     d="m 32.239629,42.845673 c 0.829688,0 1.5,0.67044 1.5,1.5003 0,0.82985 -0.670312,1.50029 -1.5,1.50029 -0.829687,0 -1.5,-0.67044 -1.5,-1.50029 0,-0.82986 0.670313,-1.5003 1.5,-1.5003 z"
     id="path3-3-3" />
  <path
     id="path8"
     style="fill:#b2a88f;fill-opacity:1;stroke:none;stroke-width:0;stroke-dasharray:none;stroke-opacity:1"
     d="M 36.460354,5.6433933 35.851605,9.0958957 A 20,20 0 0 1 52.069737,25.314028 l 3.452502,-0.608749 A 23.5,23.5 0 0 0 36.460354,5.6433933 Z" />
</svg>
