<?xml version="1.0" encoding="UTF-8" standalone="no"?>
<svg
   height="16"
   viewBox="0 -960 800 640"
   width="20"
   fill="#1f1f1f"
   version="1.1"
   id="svg1"
   sodipodi:docname="menu-icon-driver.svg"
   inkscape:version="1.4 (e7c3feb1, 2024-10-09)"
   xmlns:inkscape="http://www.inkscape.org/namespaces/inkscape"
   xmlns:sodipodi="http://sodipodi.sourceforge.net/DTD/sodipodi-0.dtd"
   xmlns="http://www.w3.org/2000/svg"
   xmlns:svg="http://www.w3.org/2000/svg">
  <defs
     id="defs1" />
  <sodipodi:namedview
     id="namedview1"
     pagecolor="#ffffff"
     bordercolor="#000000"
     borderopacity="0.25"
     inkscape:showpageshadow="2"
     inkscape:pageopacity="0.0"
     inkscape:pagecheckerboard="0"
     inkscape:deskcolor="#d1d1d1"
     inkscape:zoom="9.8821321"
     inkscape:cx="3.5417458"
     inkscape:cy="12.800881"
     inkscape:window-width="1440"
     inkscape:window-height="900"
     inkscape:window-x="0"
     inkscape:window-y="0"
     inkscape:window-maximized="0"
     inkscape:current-layer="svg1" />
  <path
     d="M 480,-320 H 80 Q 47,-320 23.5,-343.5 0,-367 0,-400 v -90 Q 0,-588 37,-673.5 74,-759 137.5,-822.5 201,-886 287,-923 q 86,-37 183,-37 68,0 128,25 60,25 105,68.5 45,43.5 71,101.5 26,58 26,125 0,66 -25,124.5 -25,58.5 -68.5,102 -43.5,43.5 -102,68.5 -58.5,25 -124.5,25 z"
     id="path4"
     style="fill:#cdd2d7;fill-opacity:1" />
  <path
     d="m 96,-600 h 240 q 27,0 45.5,-18.5 Q 400,-637 400,-664 400,-683 389.5,-698.5 379,-714 360,-722 l -148,-60 q -42,37 -71.5,84 -29.5,47 -44.5,98 z"
     id="path3"
     style="fill:#ffffff;fill-opacity:1" />
  <path
     d="m 480,-400 q 100,0 170,-70 70,-70 70,-170 0,-101 -73.5,-170.5 Q 573,-880 470,-880 q -48,0 -93,11 -45,11 -87,33 l 100,40 q 41,17 65.5,52.5 24.5,35.5 24.5,79.5 0,60 -41.5,102 -41.5,42 -100.5,42 H 82 q -2,24 -2,54.5 v 65.5 z"
     id="path2"
     style="fill:#ffffff;fill-opacity:1" />
</svg>
