<?xml version="1.0" encoding="UTF-8" standalone="no"?>
<svg
   height="50"
   viewBox="0 -960 2000 2000"
   width="50"
   fill="#1f1f1f"
   version="1.1"
   id="svg1"
   sodipodi:docname="nodata.svg"
   inkscape:version="1.4 (e7c3feb1, 2024-10-09)"
   xmlns:inkscape="http://www.inkscape.org/namespaces/inkscape"
   xmlns:sodipodi="http://sodipodi.sourceforge.net/DTD/sodipodi-0.dtd"
   xmlns="http://www.w3.org/2000/svg"
   xmlns:svg="http://www.w3.org/2000/svg">
  <defs
     id="defs1" />
  <sodipodi:namedview
     id="namedview1"
     pagecolor="#ffffff"
     bordercolor="#000000"
     borderopacity="0.25"
     inkscape:showpageshadow="2"
     inkscape:pageopacity="0.0"
     inkscape:pagecheckerboard="0"
     inkscape:deskcolor="#d1d1d1"
     inkscape:zoom="3.7608995"
     inkscape:cx="-15.155949"
     inkscape:cy="9.4392313"
     inkscape:window-width="1440"
     inkscape:window-height="900"
     inkscape:window-x="0"
     inkscape:window-y="0"
     inkscape:window-maximized="0"
     inkscape:current-layer="svg1" />
  <path
     d="m 973.7158,65.61602 z m 265.3455,-237.64854 z M 973.7158,65.61602 Z m 265.3455,-237.64854 z M 973.7158,65.61602 Z m 265.3455,-237.64854 z M 1767.249,971.182 67.53585,-727.3796 Q 40,-754.89682 40,-796.17262 q 0,-41.27578 27.53585,-71.29456 30.03911,-30.01874 71.34289,-30.01874 41.30378,0 71.3429,30.01874 L 1909.9348,831.09444 q 30.0392,30.01876 28.7874,70.04378 -1.2516,40.02502 -31.2906,70.04378 -30.0392,27.5172 -70.0913,28.768 -40.0522,1.2508 -70.0913,-28.768 z m -708.4224,-90.05629 q -377.99218,0 -639.5828,-116.3227 Q 157.6532,648.48031 157.6532,480.87556 v -1000.6254 q 0,-65.04066 43.80704,-123.8274 43.80704,-58.78672 123.91134,-108.818 l 630.82138,630.39398 q -180.23468,-7.50468 -332.9335,-45.02812 -152.69884,-37.52346 -265.3455,-100.06254 V 33.0957 q 127.66622,72.54534 307.9009,110.06878 180.23468,37.52346 393.01174,37.52346 50.0652,0 97.6271,-1.2508 47.5619,-1.25076 95.1239,-6.2539 l 175.2281,175.10944 q -85.1108,17.51096 -177.7314,25.01564 -92.6206,7.5047 -190.2477,7.5047 -212.77706,0 -393.01174,-37.52346 -180.23468,-37.52344 -307.9009,-110.0688 v 247.6548 q 22.52932,72.54534 244.06778,136.3352 221.53846,63.78987 456.84486,63.78987 160.2086,0 321.6688,-32.52032 161.4603,-32.52033 266.5972,-80.05003 l 145.189,145.09068 q -122.6597,77.54847 -314.159,122.57661 -191.4994,45.02814 -419.296,45.02814 z M 1960,-519.74984 v 918.0738 q 0,42.52658 -28.7874,71.29456 -28.7876,28.76796 -71.343,28.76796 -42.5554,0 -71.3429,-28.76796 -28.7875,-28.76798 -28.7875,-71.29456 v -165.1032 q -27.5358,15.00938 -55.0717,27.5172 -27.5358,12.50782 -57.5749,25.01564 -35.0457,12.50782 -72.5946,-3.75236 -37.5488,-16.26014 -50.0651,-51.28204 -12.5163,-35.02188 3.7548,-72.54534 16.2712,-37.52344 51.3169,-50.03126 50.0652,-15.00938 95.1238,-33.7711 45.0587,-18.76174 85.1108,-41.2758 v -300.18762 q -102.6336,57.53594 -235.3063,92.55784 -132.6728,35.02188 -290.3781,47.5297 -42.5555,5.00312 -72.5946,-22.51406 -30.0391,-27.5172 -35.0456,-70.04378 -5.0065,-42.52658 21.2777,-72.54534 26.2842,-30.01878 68.8396,-35.02188 95.1239,-12.50782 187.7445,-32.52034 92.6206,-20.0125 167.7184,-45.02814 75.0978,-25.01562 126.4146,-53.78362 51.3168,-28.76798 61.3298,-58.78674 -27.5358,-72.54534 -251.5775,-137.586 -224.0418,-65.04064 -449.3351,-65.04064 -92.6206,0 -188.9961,12.50782 -96.37548,12.50782 -183.98956,32.52032 -42.55542,10.00626 -77.60104,-11.25704 -35.04564,-21.26328 -45.05868,-63.78986 -10.01304,-42.52658 11.26468,-77.54848 21.2777,-35.02188 63.8331,-45.02814 95.12386,-22.51406 201.5124,-35.02188 Q 946.17992,-920 1058.8266,-920 q 372.9857,0 637.0795,117.57348 Q 1960,-684.85304 1960,-519.74984 Z"
     id="path1"
     style="fill:#dbe0e5;fill-opacity:1;stroke:none;stroke-width:0;stroke-dasharray:none" />
</svg>
