<?xml version="1.0" encoding="UTF-8" standalone="no"?>
<svg
   viewBox="0 0 20 20"
   version="1.1"
   id="svg1"
   sodipodi:docname="podium.svg"
   width="20"
   height="20"
   xmlns:inkscape="http://www.inkscape.org/namespaces/inkscape"
   xmlns:sodipodi="http://sodipodi.sourceforge.net/DTD/sodipodi-0.dtd"
   xmlns="http://www.w3.org/2000/svg"
   xmlns:svg="http://www.w3.org/2000/svg">
  <defs
     id="defs1" />
  <sodipodi:namedview
     id="namedview1"
     pagecolor="#ffffff"
     bordercolor="#000000"
     borderopacity="0.25"
     inkscape:showpageshadow="2"
     inkscape:pageopacity="0.0"
     inkscape:pagecheckerboard="0"
     inkscape:deskcolor="#d1d1d1" />
  <!--!Font Awesome Free 7.0.1 by @fontawesome - https://fontawesome.com License - https://fontawesome.com/license/free Copyright 2025 Fonticons, Inc.-->
  <path
     d="M 8.938889,1.4802261 8.283333,0.17329164 c -0.108333,-0.22693573 -0.447222,-0.2351389 -0.566666,0 L 7.061111,1.4802261 5.608333,1.6852887 C 5.35,1.7235682 5.238889,2.0379975 5.430556,2.2266548 l 1.055555,1.0116438 -0.25,1.4245034 C 6.197221,4.9170807 6.463889,5.1139411 6.702778,4.9963711 L 8.005556,4.3182964 9.3,4.9854346 C 9.538889,5.1030045 9.808333,4.9061392 9.766667,4.6518655 l -0.25,-1.4245035 1.055555,-1.0007072 C 10.761111,2.0407319 10.652782,1.7263016 10.394444,1.6852887 L 8.941667,1.4802261 Z m -1.827778,5.520293 c -0.736111,0 -1.333333,0.5878478 -1.333333,1.3124033 V 12.687597 C 5.777778,13.412152 6.375,14 7.111111,14 H 8.888889 C 9.625,14 10.222222,13.412152 10.222222,12.687597 V 8.3129224 C 10.222222,7.5883669 9.625,7.0005191 8.888889,7.0005191 Z M 1.333333,8.7503894 C 0.597222,8.7503894 0,9.3382362 0,10.062792 v 2.624805 C 0,13.412152 0.597222,14 1.333333,14 h 1.777778 c 0.736111,0 1.333333,-0.587848 1.333333,-1.312403 v -2.624805 c 0,-0.7245558 -0.597222,-1.3124026 -1.333333,-1.3124026 z m 10.222223,3.0622726 v 0.874935 C 11.555556,13.412152 12.152778,14 12.888889,14 h 1.777778 C 15.402778,14 16,13.412152 16,12.687597 v -0.874935 c 0,-0.724556 -0.597222,-1.312403 -1.333333,-1.312403 h -1.777778 c -0.736111,0 -1.333333,0.587847 -1.333333,1.312403 z"
     id="path1"
     style="stroke-width:0.0275589" />
</svg>
