<?xml version="1.0" encoding="UTF-8" standalone="no"?>
<svg
   height="24px"
   viewBox="0 -960 960 960"
   width="24px"
   fill="#5f6368"
   version="1.1"
   id="svg1"
   sodipodi:docname="refresh.svg"
   inkscape:version="1.4 (e7c3feb1, 2024-10-09)"
   xmlns:inkscape="http://www.inkscape.org/namespaces/inkscape"
   xmlns:sodipodi="http://sodipodi.sourceforge.net/DTD/sodipodi-0.dtd"
   xmlns="http://www.w3.org/2000/svg"
   xmlns:svg="http://www.w3.org/2000/svg">
  <defs
     id="defs1" />
  <sodipodi:namedview
     id="namedview1"
     pagecolor="#ffffff"
     bordercolor="#000000"
     borderopacity="0.25"
     inkscape:showpageshadow="2"
     inkscape:pageopacity="0.0"
     inkscape:pagecheckerboard="0"
     inkscape:deskcolor="#d1d1d1"
     inkscape:zoom="4.6451975"
     inkscape:cx="-2.3680371"
     inkscape:cy="12.378376"
     inkscape:window-width="1440"
     inkscape:window-height="900"
     inkscape:window-x="0"
     inkscape:window-y="0"
     inkscape:window-maximized="0"
     inkscape:current-layer="svg1" />
  <path
     d="M480-160q-134 0-227-93t-93-227q0-134 93-227t227-93q69 0 132 28.5T720-690v-70q0-17 11.5-28.5T760-800q17 0 28.5 11.5T800-760v200q0 17-11.5 28.5T760-520H560q-17 0-28.5-11.5T520-560q0-17 11.5-28.5T560-600h128q-32-56-87.5-88T480-720q-100 0-170 70t-70 170q0 100 70 170t170 70q68 0 124.5-34.5T692-367q8-14 22.5-19.5t29.5-.5q16 5 23 21t-1 30q-41 80-117 128t-169 48Z"
     id="path1"
     style="fill:#bfc6cd;fill-opacity:1;stroke:none" />
</svg>
