<?xml version="1.0" encoding="UTF-8" standalone="no"?>
<svg
   height="12"
   viewBox="0 -960 640 480"
   width="16"
   fill="#1f1f1f"
   version="1.1"
   id="svg1"
   sodipodi:docname="sliders.svg"
   inkscape:version="1.4 (e7c3feb1, 2024-10-09)"
   xmlns:inkscape="http://www.inkscape.org/namespaces/inkscape"
   xmlns:sodipodi="http://sodipodi.sourceforge.net/DTD/sodipodi-0.dtd"
   xmlns="http://www.w3.org/2000/svg"
   xmlns:svg="http://www.w3.org/2000/svg">
  <defs
     id="defs1" />
  <sodipodi:namedview
     id="namedview1"
     pagecolor="#ffffff"
     bordercolor="#000000"
     borderopacity="0.25"
     inkscape:showpageshadow="2"
     inkscape:pageopacity="0.0"
     inkscape:pagecheckerboard="0"
     inkscape:deskcolor="#d1d1d1"
     inkscape:zoom="19.502435"
     inkscape:cx="8.9219629"
     inkscape:cy="7.0504017"
     inkscape:window-width="1440"
     inkscape:window-height="900"
     inkscape:window-x="0"
     inkscape:window-y="0"
     inkscape:window-maximized="0"
     inkscape:current-layer="svg1" />
  <path
     d="m 35.555556,-860 q -15.111112,0 -25.333334,-8.62501 Q 0,-877.25 0,-889.99999 0,-902.75001 10.222222,-911.375 20.444444,-920 35.555556,-920 H 604.44444 q 15.11112,0 25.33334,8.625 Q 640,-902.75001 640,-889.99999 640,-877.25 629.77778,-868.62501 619.55556,-860 604.44444,-860 Z"
     id="path3"
     style="fill:#5a5f64;fill-opacity:1;stroke:none;stroke-width:0;stroke-dasharray:none" />
  <path
     d="m 35.555556,-700 q -15.111112,0 -25.333334,-8.625 Q 0,-717.25001 0,-730 0,-742.75001 10.222222,-751.375 20.444444,-760 35.555556,-760 H 604.44444 q 15.11112,0 25.33334,8.625 Q 640,-742.75001 640,-730 q 0,12.74999 -10.22222,21.375 -10.22222,8.625 -25.33334,8.625 z"
     id="path2"
     style="fill:#5a5f64;fill-opacity:1;stroke:none;stroke-width:0;stroke-dasharray:none" />
  <path
     d="m 35.555556,-540 q -15.111112,0 -25.333334,-8.62501 Q 0,-557.25 0,-570.00001 0,-582.75 10.222222,-591.37499 20.444444,-600 35.555556,-600 H 604.44444 q 15.11112,0 25.33334,8.62501 Q 640,-582.75 640,-570.00001 q 0,12.75001 -10.22222,21.375 Q 619.55556,-540 604.44444,-540 Z"
     id="path1"
     style="fill:#5a5f64;fill-opacity:1;stroke:none;stroke-width:0;stroke-dasharray:none" />
  <circle
     style="fill:#53a668;stroke-width:0;stroke-linecap:round;stroke-linejoin:bevel;stroke-miterlimit:4.8"
     id="path4"
     cx="270"
     cy="-580"
     r="70" />
  <circle
     style="fill:#d91200;fill-opacity:1;stroke-width:0;stroke-linecap:round;stroke-linejoin:bevel;stroke-miterlimit:4.8"
     id="path4-1"
     cx="470"
     cy="-730"
     r="70" />
  <circle
     style="fill:#4786b3;fill-opacity:1;stroke-width:0;stroke-linecap:round;stroke-linejoin:bevel;stroke-miterlimit:4.8"
     id="path4-4"
     cx="170"
     cy="-890"
     r="70" />
</svg>
