<?xml version="1.0" encoding="UTF-8" standalone="no"?>
<svg
   height="25.113733"
   viewBox="0 -960 1120 1004.5493"
   width="28"
   fill="#1f1f1f"
   version="1.1"
   id="svg1"
   sodipodi:docname="swap-drivers-compare.svg"
   inkscape:version="1.4 (e7c3feb1, 2024-10-09)"
   xmlns:inkscape="http://www.inkscape.org/namespaces/inkscape"
   xmlns:sodipodi="http://sodipodi.sourceforge.net/DTD/sodipodi-0.dtd"
   xmlns="http://www.w3.org/2000/svg"
   xmlns:svg="http://www.w3.org/2000/svg">
  <defs
     id="defs1" />
  <sodipodi:namedview
     id="namedview1"
     pagecolor="#ffffff"
     bordercolor="#000000"
     borderopacity="0.25"
     inkscape:showpageshadow="2"
     inkscape:pageopacity="0.0"
     inkscape:pagecheckerboard="0"
     inkscape:deskcolor="#d1d1d1"
     inkscape:zoom="8.1213445"
     inkscape:cx="9.2964903"
     inkscape:cy="11.636004"
     inkscape:window-width="1440"
     inkscape:window-height="822"
     inkscape:window-x="0"
     inkscape:window-y="0"
     inkscape:window-maximized="0"
     inkscape:current-layer="svg1" />
  <path
     d="m 198.85117,-165.29714 111.12271,111.122719 q 17.5457,17.545687 16.81463,40.939943 -0.73106,23.394257 -18.27676,40.939944 -17.54569,16.083551 -40.93995,16.814621 -23.39425,0.731071 -40.93995,-16.814621 L 16.083551,-182.84284 Q 7.3107049,-191.61568 3.6553525,-201.85067 0,-212.08565 0,-223.78278 0,-235.47991 3.6553525,-245.7149 7.3107049,-255.94988 16.083551,-264.72274 L 226.63185,-475.27103 q 16.08355,-16.08355 40.20889,-16.08355 24.12532,0 41.67101,16.08355 17.5457,17.54569 17.5457,41.67102 0,24.12532 -17.5457,41.67101 l -109.66058,109.66058 h 829.03393 q 24.8564,0 41.671,16.81462 16.8147,16.81463 16.8147,41.67102 0,24.85639 -16.8147,41.67101 -16.8146,16.81463 -41.671,16.81463 z M 921.14882,-633.18226 H 92.114882 q -24.856397,0 -41.671018,-16.81462 -16.814621,-16.81462 -16.814621,-41.67102 0,-24.8564 16.814621,-41.67101 16.814621,-16.81462 41.671018,-16.81462 H 921.14882 L 810.02611,-861.27625 q -17.54569,-17.54569 -16.81462,-40.93995 0.73107,-23.39426 18.27675,-40.93994 17.5457,-16.08355 40.93996,-16.81462 23.39425,-0.73108 40.93994,16.81462 l 210.54826,210.54829 q 8.7729,8.77285 12.4282,19.00784 3.6554,10.23498 3.6554,21.93211 0,11.69713 -3.6554,21.93212 -3.6553,10.23499 -12.4282,19.00783 l -210.54826,210.5483 q -16.08355,16.08355 -40.20887,16.08355 -24.12533,0 -41.67103,-16.08355 -17.54568,-17.54569 -17.54568,-41.67101 0,-24.12534 17.54568,-41.67102 z"
     id="path1"
     style="fill:#bfc6cd;fill-opacity:1;stroke:none;stroke-width:0;stroke-dasharray:none" />
</svg>
