<?xml version="1.0" encoding="UTF-8" standalone="no"?>
<svg
   height="17.176001"
   viewBox="0 -960 765.99998 687.04002"
   width="19.15"
   fill="#1f1f1f"
   version="1.1"
   id="svg1"
   sodipodi:docname="swap.svg"
   inkscape:version="1.4 (e7c3feb1, 2024-10-09)"
   xmlns:inkscape="http://www.inkscape.org/namespaces/inkscape"
   xmlns:sodipodi="http://sodipodi.sourceforge.net/DTD/sodipodi-0.dtd"
   xmlns="http://www.w3.org/2000/svg"
   xmlns:svg="http://www.w3.org/2000/svg">
  <defs
     id="defs1" />
  <sodipodi:namedview
     id="namedview1"
     pagecolor="#ffffff"
     bordercolor="#000000"
     borderopacity="0.25"
     inkscape:showpageshadow="2"
     inkscape:pageopacity="0.0"
     inkscape:pagecheckerboard="0"
     inkscape:deskcolor="#d1d1d1"
     inkscape:zoom="8.1213445"
     inkscape:cx="9.2964902"
     inkscape:cy="11.636004"
     inkscape:window-width="1440"
     inkscape:window-height="900"
     inkscape:window-x="0"
     inkscape:window-y="0"
     inkscape:window-maximized="0"
     inkscape:current-layer="svg1" />
  <path
     d="m 136,-416.48 76,76 q 12,12 11.5,28 -0.5,16 -12.5,28 -12,11 -28,11.5 -16,0.5 -28,-11.5 l -144,-144 q -6,-6 -8.5,-13 -2.5,-7 -2.5,-15 0,-8 2.5,-15 2.5,-7 8.5,-13 l 144,-144 q 11,-11 27.5,-11 16.5,0 28.5,11 12,12 12,28.5 0,16.5 -12,28.5 l -75,75 h 567 q 17,0 28.5,11.5 11.5,11.5 11.5,28.5 0,17 -11.5,28.5 -11.5,11.5 -28.5,11.5 z m 494,-320 H 63 q -17,0 -28.5,-11.5 -11.5,-11.5 -11.5,-28.5 0,-17 11.5,-28.5 11.5,-11.5 28.5,-11.5 h 567 l -76,-76 q -12,-12 -11.5,-28 0.5,-16 12.5,-28 12,-11 28,-11.5 16,-0.5 28,11.5 l 144,144 q 6,6 8.5,13 2.5,7 2.5,15 0,8 -2.5,15 -2.5,7 -8.5,13 l -144,144 q -11,11 -27.5,11 -16.5,0 -28.5,-11 -12,-12 -12,-28.5 0,-16.5 12,-28.5 z"
     id="path1"
     style="fill:#bfc6cd;fill-opacity:1;stroke:none;stroke-width:0;stroke-dasharray:none" />
</svg>
